<svg xmlns="http://www.w3.org/2000/svg" xmlns:xlink="http://www.w3.org/1999/xlink" viewBox="0 0 300 155"><defs><style>.cls-1{fill:none;}.cls-2{isolation:isolate;}.cls-3{fill:#1d6f8c;}.cls-4{fill:#f1ea3c;}.cls-5{fill:url(#linear-gradient);}.cls-6{fill:url(#linear-gradient-2);}.cls-7{fill:url(#linear-gradient-3);}.cls-8{fill:#777;}.cls-74,.cls-75,.cls-9{opacity:0.35;mix-blend-mode:overlay;}.cls-9{fill:url(#linear-gradient-4);}.cls-10{opacity:0.1;}.cls-11{fill:#00c3ff;}.cls-12{fill:#cacbca;}.cls-13{clip-path:url(#clip-path);}.cls-14{fill:#d2d3d2;}.cls-15{fill:#d1d2d1;}.cls-16{fill:#d0d1d0;}.cls-17{clip-path:url(#clip-path-2);}.cls-18{fill:#fff;}.cls-19{fill:#fefefe;}.cls-20{fill:#fdfdfd;}.cls-21{fill:#fcfcfc;}.cls-22{fill:#fbfbfb;}.cls-23{fill:#fafafa;}.cls-24{fill:#f9f9f9;}.cls-25{fill:#f8f8f8;}.cls-26{fill:#f7f7f7;}.cls-27{fill:#f6f6f6;}.cls-28{fill:#f5f5f5;}.cls-29{fill:#f4f4f4;}.cls-30{fill:#f3f3f3;}.cls-31{fill:#f2f2f2;}.cls-32{fill:#f1f1f1;}.cls-33{fill:#f0f0f0;}.cls-34{fill:#efefef;}.cls-35{fill:#eee;}.cls-36{fill:#ededed;}.cls-37{fill:#ececec;}.cls-38{fill:#ebebeb;}.cls-39{fill:#eaeaea;}.cls-40{fill:#e9e9e9;}.cls-41{fill:#e8e8e8;}.cls-42{fill:#e7e7e7;}.cls-43{fill:#e6e6e6;}.cls-44{fill:#e5e5e5;}.cls-45{fill:#e3e4e3;}.cls-46{fill:#e2e3e2;}.cls-47{fill:#e1e2e1;}.cls-48{fill:#e0e1e0;}.cls-49{fill:#dfe0df;}.cls-50{fill:#dedfde;}.cls-51{fill:#dddedd;}.cls-52{fill:#dcdddc;}.cls-53{fill:#dbdcdb;}.cls-54{fill:#dadbda;}.cls-55{fill:#d9dad9;}.cls-56{fill:#d8d9d8;}.cls-57{fill:#d7d8d7;}.cls-58{fill:#d6d7d6;}.cls-59{fill:#d5d6d5;}.cls-60{fill:#d4d5d4;}.cls-61{fill:#d3d4d3;}.cls-62{fill:#cfd0cf;}.cls-63{fill:#cecfce;}.cls-64{fill:#cdcecd;}.cls-65{fill:#cccdcc;}.cls-66{fill:#cbcccb;}.cls-67{clip-path:url(#clip-path-3);}.cls-68{clip-path:url(#clip-path-4);}.cls-69{fill:#7d7d7d;}.cls-70{clip-path:url(#clip-path-5);}.cls-71{clip-path:url(#clip-path-6);}.cls-72{clip-path:url(#clip-path-7);}.cls-73{fill:#969696;}.cls-74{fill:url(#linear-gradient-5);}.cls-75{fill:url(#linear-gradient-6);}</style><linearGradient id="linear-gradient" x1="32.7" y1="122.27" x2="25.92" y2="115.99" gradientUnits="userSpaceOnUse"><stop offset="0" stop-color="#ff931e"/><stop offset="0.2" stop-color="#ff971d"/><stop offset="0.39" stop-color="#ffa21a"/><stop offset="0.58" stop-color="#ffb515"/><stop offset="0.76" stop-color="#ffd00d"/><stop offset="0.94" stop-color="#fff204"/><stop offset="1" stop-color="#ff0"/></linearGradient><linearGradient id="linear-gradient-2" x1="38.18" y1="148.77" x2="37.3" y2="133.05" xlink:href="#linear-gradient"/><linearGradient id="linear-gradient-3" x1="143.8" y1="145.23" x2="145.81" y2="128.8" xlink:href="#linear-gradient"/><linearGradient id="linear-gradient-4" x1="322.9" y1="109.7" x2="334.17" y2="109.7" gradientTransform="matrix(-1, 0, 0, 1, 363.6, 0)" gradientUnits="userSpaceOnUse"><stop offset="0" stop-color="#f2f2f2"/><stop offset="0.91" stop-color="gray"/></linearGradient><clipPath id="clip-path"><path class="cls-1" d="M47.8,98.38c-.14-.13-.76.34,0,0Z"/></clipPath><clipPath id="clip-path-2"><path class="cls-1" d="M80.49,45.38l-.17.07-4.16-1.32a41.43,41.43,0,0,0-11.9,8.09c-.22.23-.67.24-.89.48A53.25,53.25,0,0,0,48,78.88c-.61,2.73-1,5.45-1.38,8.18-.16,2.49-.33,4.76-.72,7.26a3.72,3.72,0,0,0,1.93,4.06,4,4,0,0,1-1.59.68c-1.35.49-1.31,2.07-1.5,3.21-.16,2.49-.56,4.77-.72,7.26-.05,6.79-.33,13.58,1.21,20.37l5.93,1.89,0-.14L55.46,133c-1.54-6.78-1.26-13.58-1.21-20.37.16-2.49.56-4.77.72-7.26.2-1.14.16-2.72,1.5-3.21a4,4,0,0,0,1.59-.68,3.72,3.72,0,0,1-1.93-4.06c.39-2.5.56-4.77.72-7.26.38-2.72.77-5.45,1.38-8.18a53.25,53.25,0,0,1,15.4-26.18c.22-.23.67-.24.89-.48a41.43,41.43,0,0,1,11.9-8.09Z"/></clipPath><clipPath id="clip-path-3"><path class="cls-1" d="M135,93.26c.12-.14.8.24,0,0Z"/></clipPath><clipPath id="clip-path-4"><path class="cls-1" d="M96,44.73l.18.05,4-1.83a41.43,41.43,0,0,1,12.81,6.55c.25.2.7.16.95.36a53.25,53.25,0,0,1,18.53,24.07c.94,2.63,1.66,5.29,2.38,7.95.47,2.45.92,4.68,1.62,7.11A3.72,3.72,0,0,1,135,93.26a4,4,0,0,0,1.66.48c1.4.32,1.55,1.89,1.89,3,.47,2.45,1.15,4.66,1.62,7.11.9,6.73,2,13.44,1.33,20.36l-5.65,2.61v-.14l-4.15,1.92c.69-6.92-.43-13.63-1.33-20.36-.47-2.45-1.15-4.66-1.62-7.11-.34-1.1-.49-2.68-1.89-3a4,4,0,0,1-1.66-.48,3.72,3.72,0,0,0,1.41-4.27c-.7-2.43-1.15-4.66-1.62-7.11-.72-2.66-1.44-5.31-2.38-7.95a53.25,53.25,0,0,0-18.53-24.07c-.25-.2-.7-.16-.95-.36a41.43,41.43,0,0,0-12.81-6.55Z"/></clipPath><clipPath id="clip-path-5"><polygon class="cls-1" points="34.9 98.85 56.51 104.83 58.87 102.28 36.31 97.74 34.9 98.85"/></clipPath><clipPath id="clip-path-6"><path class="cls-1" d="M62.47,113.84l-2.15,2.83s27.93,6.9,35.51,3.84l-1-2.83s-14.93.11-23.18-1.7S62.47,113.84,62.47,113.84Z"/></clipPath><clipPath id="clip-path-7"><path class="cls-1" d="M138.61,94l1.76-3a1.42,1.42,0,0,0-.85-2.08h0L136,92.69l-.08,10,2.56,1.81Z"/></clipPath><linearGradient id="linear-gradient-5" x1="33.45" y1="117.74" x2="44.71" y2="117.74" gradientTransform="matrix(1, 0, 0, 1, 0, 0)" xlink:href="#linear-gradient-4"/><linearGradient id="linear-gradient-6" x1="212.28" y1="111.71" x2="223.55" y2="111.71" xlink:href="#linear-gradient-4"/></defs><title>b3-logo</title><g class="cls-2"><g id="Layer_1" data-name="Layer 1"><path class="cls-3" d="M220,20.63l5.16-6.94-2.34-.88a.51.51,0,0,1-.11-.91l11.44-7.37a.27.27,0,0,1,.36.39l-5,6.64,2.57.65a.51.51,0,0,1,.29.79l-11.7,7.45"/><path class="cls-3" d="M223.36,25.63l10.73-1.77L233,21.62c-.21-.38.24-.84.75-.77L250.06,23c.36,0,.31.48-.06.54L239.68,25.2l1.54,2.23c.21.3,0,.72-.5.8L224.09,26"/><path class="cls-3" d="M212,136.5a1.57,1.57,0,0,1-1.26,1.49l-3,.73-2.73.66a1.67,1.67,0,0,1-2.13-1.49l1.47-26.31a2.09,2.09,0,0,1,1.49-1.83l2.79-.92a1.18,1.18,0,0,1,1.58.94Z"/><path class="cls-3" d="M203.4,99.08a4.61,4.61,0,0,1,1.06-3,5.35,5.35,0,0,1,2.77-1.71,3.44,3.44,0,0,1,2.78.32,2.84,2.84,0,0,1,1.09,2.46c0,1.44,0,.48,0,1.92a4.66,4.66,0,0,1-1.06,3,5.39,5.39,0,0,1-2.75,1.74,3.41,3.41,0,0,1-2.78-.29,2.85,2.85,0,0,1-1.11-2.47C203.41,99.58,203.41,100.53,203.4,99.08Z"/><path class="cls-4" d="M289.24,95.56l3.72-.64a.77.77,0,0,1,.84,1.1l-9.3,18.36a.41.41,0,0,1-.77-.23l1.45-12.49-3.85,1.12a.77.77,0,0,1-1-.81l2.15-22-6.42,1.64a1.19,1.19,0,0,1-1.48-1.15l0-5.38a1.19,1.19,0,0,1,.9-1.16c7.28-1.84,15.76-4.07,23-6A1.19,1.19,0,0,1,300,69.09c0,1.91,0,3.3,0,5.32a1.19,1.19,0,0,1-.89,1.16c-2.34.62-5.88,1.61-8.22,2.22Z"/><path class="cls-4" d="M139.53,52.87l0,1.53a12,12,0,0,1-3.2,8.34A18.25,18.25,0,0,1,127,67.82q-6.09,1.52-12.19,3a1.54,1.54,0,0,1-1.9-1.5l-.07-34.11a1.54,1.54,0,0,1,1.15-1.5c4.09-1.07,8.24-2,12.33-3.09,2.8-.78,6.19-1.2,8.79.25,2,1.12,3,3.17,3,6v.91a9.6,9.6,0,0,1-5.67,9.34C136.5,46.4,139.67,48.76,139.53,52.87ZM129,43.75a4.81,4.81,0,0,0,.86-2.93v-.73a2,2,0,0,0-1-1.8,4.1,4.1,0,0,0-3,0l-4.3,1.1,0,7.26,4-1A5.89,5.89,0,0,0,129,43.75Zm1,14.89a3.88,3.88,0,0,0,1.17-2.83v-.57q0-2.07-1.09-2.64a5.45,5.45,0,0,0-3.52.08l-4.89,1.23,0,7.76,4.68-1.17A7.34,7.34,0,0,0,129.94,58.64Z"/><path class="cls-4" d="M186.22,82.67l0,1.53a12,12,0,0,1-3.2,8.34,18.25,18.25,0,0,1-9.27,5.09q-6.09,1.52-12.19,3a1.54,1.54,0,0,1-1.9-1.5L159.57,65a1.54,1.54,0,0,1,1.15-1.5c4.09-1.07,8.24-2,12.33-3.09,2.8-.78,6.19-1.2,8.79.25,2,1.12,3,3.17,3,6v.91a9.6,9.6,0,0,1-5.67,9.34C183.19,76.19,186.36,78.56,186.22,82.67Zm-10.57-9.12a4.81,4.81,0,0,0,.86-2.93v-.73a2,2,0,0,0-1-1.8,4.1,4.1,0,0,0-3,0l-4.3,1.1,0,7.26,4-1A5.89,5.89,0,0,0,175.65,73.55Zm1,14.89a3.88,3.88,0,0,0,1.17-2.83V85q0-2.07-1.09-2.64a5.45,5.45,0,0,0-3.52.08l-4.89,1.23,0,7.76L173,90.3A7.34,7.34,0,0,0,176.63,88.44Z"/><path class="cls-4" d="M142.4,62l-.29-34.28a1.45,1.45,0,0,1,1.09-1.41l18.33-4.59a1.45,1.45,0,0,1,1.8,1.39l0,4.64a1.43,1.43,0,0,1-1.09,1.33l-11.67,3,.06,7.13,9.64-2.47a1.44,1.44,0,0,1,1.8,1.39l0,4.64A1.43,1.43,0,0,1,161,44.1l-10.33,2.68.06,7.35,10.92-2.86a1.45,1.45,0,0,1,1.81,1.39l0,4.55a1.45,1.45,0,0,1-1.07,1.41q-9.12,2.43-18.24,4.82A1.45,1.45,0,0,1,142.4,62Z"/><path class="cls-4" d="M192.17,48V14.43a1.54,1.54,0,0,1,1.14-1.49q5-1.35,10-2.73c3.14-.95,7-1.36,9.83.42s3.74,5.42,3.45,8.58v1.64A16.19,16.19,0,0,1,213,32.25a19,19,0,0,1-9.79,6.15l-2.75.74v7.47a1.54,1.54,0,0,1-1.14,1.49l-5.21,1.39A1.54,1.54,0,0,1,192.17,48Zm8.31-16.35,2.86-.78a6.3,6.3,0,0,0,5-6.38c0-1.61,0-2.42,0-4,0-2.8-1.63-3.74-4.9-2.84l-2.92.8Q200.48,25,200.47,31.65Z"/><path class="cls-4" d="M243.11,76.7V43.13a1.54,1.54,0,0,1,1.14-1.49q5-1.35,10-2.73c3.14-.95,7-1.36,9.83.42s3.74,5.42,3.45,8.58v1.64A16.19,16.19,0,0,1,264,61a19,19,0,0,1-9.79,6.15l-2.75.74v7.47a1.54,1.54,0,0,1-1.14,1.49l-5.21,1.39A1.54,1.54,0,0,1,243.11,76.7Zm8.31-16.35,2.86-.78a6.3,6.3,0,0,0,5-6.38c0-1.61,0-2.42,0-4,0-2.8-1.63-3.74-4.9-2.84l-2.92.8Q251.43,53.74,251.42,60.35Z"/><path class="cls-4" d="M167.26,55.18,167,20.89a1.45,1.45,0,0,1,1.09-1.41l18.33-4.59a1.45,1.45,0,0,1,1.8,1.39l0,4.64a1.43,1.43,0,0,1-1.09,1.33l-11.67,3,.06,7.13,9.64-2.47a1.44,1.44,0,0,1,1.8,1.39l0,4.64a1.43,1.43,0,0,1-1.08,1.33l-10.33,2.68.06,7.35,10.92-2.86a1.45,1.45,0,0,1,1.81,1.39l0,4.55a1.45,1.45,0,0,1-1.07,1.41q-9.12,2.43-18.24,4.82A1.45,1.45,0,0,1,167.26,55.18Z"/><path class="cls-4" d="M188.72,68.3a14.46,14.46,0,0,1,3.34-9.5,16.78,16.78,0,0,1,8.69-5.37c2.87-.74,6.17-.72,8.71,1s3.48,4.79,3.43,7.72L213,75.69a14.61,14.61,0,0,1-3.31,9.46A16.91,16.91,0,0,1,201,90.61c-2.87.78-6.17.8-8.72-.91s-3.53-4.8-3.48-7.76Zm8.15,11.58A3.31,3.31,0,0,0,198,82.64a3.35,3.35,0,0,0,3,.35,5.16,5.16,0,0,0,4-5.22l-.1-13.58a3.32,3.32,0,0,0-1.11-2.76,3.36,3.36,0,0,0-3-.37,5.13,5.13,0,0,0-4.05,5.2Z"/><path class="cls-4" d="M248.11,92.35a15.09,15.09,0,0,1,3.48-9.91,17.51,17.51,0,0,1,9.06-5.6c3-.77,6.43-.75,9.08,1s3.63,5,3.58,8.05l.08,14.12a15.24,15.24,0,0,1-3.45,9.87,17.64,17.64,0,0,1-9,5.69c-3,.81-6.43.83-9.1-1s-3.68-5-3.63-8.09Zm8.5,12.08a3.45,3.45,0,0,0,1.16,2.88,3.49,3.49,0,0,0,3.13.36,5.39,5.39,0,0,0,4.21-5.45L265,88.06a3.46,3.46,0,0,0-1.15-2.88,3.51,3.51,0,0,0-3.13-.38,5.35,5.35,0,0,0-4.23,5.43Z"/><path class="cls-4" d="M215.5,60.88a14.46,14.46,0,0,1,3.34-9.5A16.78,16.78,0,0,1,227.52,46c2.87-.74,6.17-.72,8.71,1s3.48,4.79,3.43,7.72l.08,13.54a14.61,14.61,0,0,1-3.31,9.46,16.91,16.91,0,0,1-8.61,5.46c-2.87.78-6.17.8-8.72-.91s-3.53-4.8-3.48-7.76Zm8.15,11.58a3.31,3.31,0,0,0,1.11,2.77,3.35,3.35,0,0,0,3,.35,5.16,5.16,0,0,0,4-5.22l-.1-13.58A3.32,3.32,0,0,0,230.58,54a3.36,3.36,0,0,0-3-.37,5.13,5.13,0,0,0-4.05,5.2Z"/><path class="cls-4" d="M245.75,107.39l0,1.53a12.1,12.1,0,0,1-3.13,8.34,17.77,17.77,0,0,1-9.08,5.09q-6,1.52-11.94,3a1.52,1.52,0,0,1-1.86-1.5l-.06-34.11a1.54,1.54,0,0,1,1.13-1.5c4-1.07,8.07-2,12.08-3.09,2.74-.78,6.07-1.2,8.61.25,2,1.12,3,3.17,3,6v.91a9.62,9.62,0,0,1-5.56,9.34C242.78,100.91,245.89,103.27,245.75,107.39ZM235.4,98.26a4.88,4.88,0,0,0,.84-2.93v-.73a2,2,0,0,0-1-1.8,3.94,3.94,0,0,0-2.94,0l-4.21,1.1,0,7.26,3.89-1A5.74,5.74,0,0,0,235.4,98.26Zm1,14.89a3.92,3.92,0,0,0,1.15-2.83v-.57q0-2.07-1.07-2.64a5.23,5.23,0,0,0-3.45.08l-4.79,1.23,0,7.76,4.58-1.17A7.14,7.14,0,0,0,236.36,113.16Z"/><path class="cls-3" d="M220.14,31.07,227,33.57a2.25,2.25,0,0,1,1.11,3.35h0a2.25,2.25,0,0,1-3.46.38l-5.18-5.08A.69.69,0,0,1,220.14,31.07Z"/><path class="cls-5" d="M25.79,117s-3.65,5.53.5,10.43,7.54,8.42,7.54,8.42-.25-4.53,4.9-7S42,118.36,42,118.36Z"/><path class="cls-6" d="M29.81,129s-3.65,5.53.5,10.43,7.54,8.42,7.54,8.42-.25-4.53,4.9-7S46,130.43,46,130.43Z"/><path class="cls-7" d="M153.49,123s3.65,5.53-.5,10.43-7.54,8.42-7.54,8.42.25-4.53-4.9-7-3.27-10.43-3.27-10.43Z"/><path class="cls-8" d="M38.12,99.51S24.71,102.7,24.71,118a22,22,0,0,0,20.88,3.74S49.12,107,38.12,99.51Z"/><path class="cls-9" d="M33.23,102.11s7.22,3.31,7.45,10.53S29.8,118,29.45,111.81A12.45,12.45,0,0,1,33.23,102.11Z"/><g class="cls-10"><ellipse cx="90.32" cy="144.83" rx="42" ry="8.14"/></g><path class="cls-3" d="M145.3,73.73c-1.12-3.44-3.3-5.86-5.3-5.62h0L127.18,71l6.88,18.59,10.62-8.41C146.24,80.58,146.46,77.28,145.3,73.73Z"/><path class="cls-11" d="M25.65,76.84,16,70.71a.42.42,0,0,1,.24-.65l2.12-.53-4.12-5.47a.22.22,0,0,1,.3-.32L24,69.8a.42.42,0,0,1-.09.75L22,71.28,26.2,77"/><path class="cls-11" d="M22.88,81.38,9.18,83.25c-.37-.07-.58-.41-.41-.66L10,80.75,1.54,79.39c-.31,0-.35-.41-.05-.45L15,77.17c.42-.06.79.32.62.63l-.93,1.85,8.83,1.45"/><path class="cls-11" d="M162.16,55.53l-5.44,7.11,1.94.72c.34.11.33.64,0,.89l-11,7.92c-.24.18-.46-.11-.27-.36L152.61,65l-2.18-.47c-.3-.06-.38-.46-.15-.76l11.27-8"/><path class="cls-12" d="M143.45,123.1s3.41-9.24-2.73-33.11c-.23-.9-2.47-1.31-2.47-1.31s1.46-2.6,1.3-3.19c-7-26.93-27.82-46.17-51.8-46.17s-46,17.76-50.5,43.29c-.46,2.61-1.12,9.23-1.55,11.68-.18,1,1.91,3,1.91,3S35,98.34,34.9,98.85c-3.36,19.05-.69,29.84-.69,29.84S96.85,159.41,143.45,123.1Z"/><g class="cls-13"><polygon class="cls-14" points="47.16 98.3 46.93 98.74 46.87 98.74 46.87 98.3 47.16 98.3"/><polygon class="cls-15" points="47.55 98.3 47.31 98.74 46.93 98.74 47.16 98.3 47.55 98.3"/><polygon class="cls-16" points="47.31 98.74 47.55 98.3 47.6 98.3 47.6 98.74 47.31 98.74"/></g><g class="cls-17"><polygon class="cls-18" points="56.55 43.25 44 70.46 44 43.25 56.55 43.25"/><polygon class="cls-18" points="56.93 43.25 44 71.24 44 70.46 56.55 43.25 56.93 43.25"/><polygon class="cls-19" points="57.32 43.25 44 72.03 44 71.24 56.93 43.25 57.32 43.25"/><polygon class="cls-20" points="57.71 43.25 44 72.81 44 72.03 57.32 43.25 57.71 43.25"/><polygon class="cls-21" points="58.1 43.25 44 73.59 44 72.81 57.71 43.25 58.1 43.25"/><polygon class="cls-22" points="58.48 43.25 44 74.37 44 73.59 58.1 43.25 58.48 43.25"/><polygon class="cls-23" points="58.87 43.25 44 75.15 44 74.37 58.48 43.25 58.87 43.25"/><polygon class="cls-24" points="59.26 43.25 44 75.94 44 75.15 58.87 43.25 59.26 43.25"/><polygon class="cls-25" points="59.65 43.25 44 76.72 44 75.94 59.26 43.25 59.65 43.25"/><polygon class="cls-26" points="60.03 43.25 44 77.5 44 76.72 59.65 43.25 60.03 43.25"/><polygon class="cls-27" points="60.42 43.25 44 78.28 44 77.5 60.03 43.25 60.42 43.25"/><polygon class="cls-28" points="60.81 43.25 44 79.06 44 78.28 60.42 43.25 60.81 43.25"/><polygon class="cls-29" points="61.2 43.25 44 79.85 44 79.06 60.81 43.25 61.2 43.25"/><polygon class="cls-30" points="61.59 43.25 44 80.63 44 79.85 61.2 43.25 61.59 43.25"/><polygon class="cls-31" points="61.97 43.25 44 81.41 44 80.63 61.59 43.25 61.97 43.25"/><polygon class="cls-32" points="62.36 43.25 44 82.19 44 81.41 61.97 43.25 62.36 43.25"/><polygon class="cls-33" points="62.75 43.25 44 82.97 44 82.19 62.36 43.25 62.75 43.25"/><polygon class="cls-34" points="63.14 43.25 44 83.76 44 82.97 62.75 43.25 63.14 43.25"/><polygon class="cls-35" points="63.52 43.25 44 84.54 44 83.76 63.14 43.25 63.52 43.25"/><polygon class="cls-36" points="63.91 43.25 44 85.32 44 84.54 63.52 43.25 63.91 43.25"/><polygon class="cls-37" points="64.3 43.25 44 86.1 44 85.32 63.91 43.25 64.3 43.25"/><polygon class="cls-38" points="64.69 43.25 44 86.89 44 86.1 64.3 43.25 64.69 43.25"/><polygon class="cls-39" points="65.08 43.25 44 87.67 44 86.89 64.69 43.25 65.08 43.25"/><polygon class="cls-40" points="65.46 43.25 44 88.45 44 87.67 65.08 43.25 65.46 43.25"/><polygon class="cls-41" points="65.85 43.25 44 89.23 44 88.45 65.46 43.25 65.85 43.25"/><polygon class="cls-42" points="66.24 43.25 44 90.01 44 89.23 65.85 43.25 66.24 43.25"/><polygon class="cls-43" points="66.63 43.25 44 90.8 44 90.01 66.24 43.25 66.63 43.25"/><polygon class="cls-44" points="67.02 43.25 44 91.58 44 90.8 66.63 43.25 67.02 43.25"/><polygon class="cls-45" points="67.4 43.25 44 92.36 44 91.58 67.02 43.25 67.4 43.25"/><polygon class="cls-46" points="67.79 43.25 44 93.14 44 92.36 67.4 43.25 67.79 43.25"/><polygon class="cls-47" points="68.18 43.25 44 93.92 44 93.14 67.79 43.25 68.18 43.25"/><polygon class="cls-48" points="68.57 43.25 44 94.7 44 93.92 68.18 43.25 68.57 43.25"/><polygon class="cls-49" points="68.95 43.25 44 95.49 44 94.7 68.57 43.25 68.95 43.25"/><polygon class="cls-50" points="69.34 43.25 44 96.27 44 95.49 68.95 43.25 69.34 43.25"/><polygon class="cls-51" points="69.73 43.25 44 97.05 44 96.27 69.34 43.25 69.73 43.25"/><polygon class="cls-52" points="70.12 43.25 44 97.83 44 97.05 69.73 43.25 70.12 43.25"/><polygon class="cls-53" points="70.5 43.25 44 98.61 44 97.83 70.12 43.25 70.5 43.25"/><polygon class="cls-54" points="70.89 43.25 44 99.4 44 98.61 70.5 43.25 70.89 43.25"/><polygon class="cls-55" points="71.28 43.25 44 100.18 44 99.4 70.89 43.25 71.28 43.25"/><polygon class="cls-56" points="71.67 43.25 44 100.96 44 100.18 71.28 43.25 71.67 43.25"/><polygon class="cls-57" points="72.06 43.25 44 101.74 44 100.96 71.67 43.25 72.06 43.25"/><polygon class="cls-58" points="72.44 43.25 44 102.53 44 101.74 72.06 43.25 72.44 43.25"/><polygon class="cls-59" points="72.83 43.25 44 103.31 44 102.53 72.44 43.25 72.83 43.25"/><polygon class="cls-60" points="73.22 43.25 44 104.09 44 103.31 72.83 43.25 73.22 43.25"/><polygon class="cls-61" points="73.61 43.25 44 104.87 44 104.09 73.22 43.25 73.61 43.25"/><polygon class="cls-14" points="74 43.25 44 105.65 44 104.87 73.61 43.25 74 43.25"/><polygon class="cls-15" points="74.38 43.25 44 106.44 44 105.65 74 43.25 74.38 43.25"/><polygon class="cls-16" points="74.77 43.25 44 107.22 44 106.44 74.38 43.25 74.77 43.25"/><polygon class="cls-62" points="75.16 43.25 44 108 44 107.22 74.77 43.25 75.16 43.25"/><polygon class="cls-63" points="75.55 43.25 44 108.78 44 108 75.16 43.25 75.55 43.25"/><polygon class="cls-64" points="75.93 43.25 44 109.56 44 108.78 75.55 43.25 75.93 43.25"/><polygon class="cls-65" points="76.32 43.25 44 110.35 44 109.56 75.93 43.25 76.32 43.25"/><polygon class="cls-66" points="76.71 43.25 44 111.13 44 110.35 76.32 43.25 76.71 43.25"/><polygon class="cls-12" points="77.1 43.25 44 111.91 44 111.13 76.71 43.25 77.1 43.25"/><polygon class="cls-12" points="81.08 43.25 88 46.69 88 132.25 50.2 132.25 44 129.69 44 111.91 77.1 43.25 81.08 43.25"/></g><g class="cls-67"><polygon class="cls-14" points="135.55 93.48 135.29 93.19 135.56 93.19 135.56 93.48 135.55 93.48"/><polygon class="cls-15" points="135.13 93.48 134.88 93.19 135.29 93.19 135.55 93.48 135.13 93.48"/><polygon class="cls-16" points="134.88 93.19 135.13 93.48 134.82 93.48 134.82 93.19 134.88 93.19"/></g><g class="cls-68"><polygon class="cls-18" points="142 74.92 120.83 43.25 142 43.25 142 74.92"/><polygon class="cls-18" points="142 75.55 120.41 43.25 120.83 43.25 142 74.92 142 75.55"/><polygon class="cls-19" points="142 76.18 120 43.25 120.41 43.25 142 75.55 142 76.18"/><polygon class="cls-20" points="142 76.81 119.58 43.25 120 43.25 142 76.18 142 76.81"/><polygon class="cls-21" points="142 77.44 119.16 43.25 119.58 43.25 142 76.81 142 77.44"/><polygon class="cls-22" points="142 78.06 118.75 43.25 119.16 43.25 142 77.44 142 78.06"/><polygon class="cls-23" points="142 78.69 118.33 43.25 118.75 43.25 142 78.06 142 78.69"/><polygon class="cls-24" points="142 79.32 117.91 43.25 118.33 43.25 142 78.69 142 79.32"/><polygon class="cls-25" points="142 79.95 117.5 43.25 117.91 43.25 142 79.32 142 79.95"/><polygon class="cls-26" points="142 80.58 117.08 43.25 117.5 43.25 142 79.95 142 80.58"/><polygon class="cls-27" points="142 81.21 116.66 43.25 117.08 43.25 142 80.58 142 81.21"/><polygon class="cls-28" points="142 81.84 116.25 43.25 116.66 43.25 142 81.21 142 81.84"/><polygon class="cls-29" points="142 82.47 115.83 43.25 116.25 43.25 142 81.84 142 82.47"/><polygon class="cls-30" points="142 83.1 115.41 43.25 115.83 43.25 142 82.47 142 83.1"/><polygon class="cls-31" points="142 83.73 115 43.25 115.41 43.25 142 83.1 142 83.73"/><polygon class="cls-32" points="142 84.36 114.58 43.25 115 43.25 142 83.73 142 84.36"/><polygon class="cls-33" points="142 84.99 114.16 43.25 114.58 43.25 142 84.36 142 84.99"/><polygon class="cls-34" points="142 85.62 113.75 43.25 114.16 43.25 142 84.99 142 85.62"/><polygon class="cls-35" points="142 86.25 113.33 43.25 113.75 43.25 142 85.62 142 86.25"/><polygon class="cls-36" points="142 86.88 112.91 43.25 113.33 43.25 142 86.25 142 86.88"/><polygon class="cls-37" points="142 87.5 112.5 43.25 112.91 43.25 142 86.88 142 87.5"/><polygon class="cls-38" points="142 88.13 112.08 43.25 112.5 43.25 142 87.5 142 88.13"/><polygon class="cls-39" points="142 88.76 111.66 43.25 112.08 43.25 142 88.13 142 88.76"/><polygon class="cls-40" points="142 89.39 111.25 43.25 111.66 43.25 142 88.76 142 89.39"/><polygon class="cls-41" points="142 90.02 110.83 43.25 111.25 43.25 142 89.39 142 90.02"/><polygon class="cls-42" points="142 90.65 110.41 43.25 110.83 43.25 142 90.02 142 90.65"/><polygon class="cls-43" points="142 91.28 110 43.25 110.41 43.25 142 90.65 142 91.28"/><polygon class="cls-44" points="142 91.91 109.58 43.25 110 43.25 142 91.28 142 91.91"/><polygon class="cls-45" points="142 92.54 109.16 43.25 109.58 43.25 142 91.91 142 92.54"/><polygon class="cls-46" points="142 93.17 108.75 43.25 109.16 43.25 142 92.54 142 93.17"/><polygon class="cls-47" points="142 93.8 108.33 43.25 108.75 43.25 142 93.17 142 93.8"/><polygon class="cls-48" points="142 94.43 107.91 43.25 108.33 43.25 142 93.8 142 94.43"/><polygon class="cls-49" points="142 95.06 107.5 43.25 107.91 43.25 142 94.43 142 95.06"/><polygon class="cls-50" points="142 95.69 107.08 43.25 107.5 43.25 142 95.06 142 95.69"/><polygon class="cls-51" points="142 96.31 106.66 43.25 107.08 43.25 142 95.69 142 96.31"/><polygon class="cls-52" points="142 96.94 106.25 43.25 106.66 43.25 142 96.31 142 96.94"/><polygon class="cls-53" points="142 97.57 105.83 43.25 106.25 43.25 142 96.94 142 97.57"/><polygon class="cls-54" points="142 98.2 105.41 43.25 105.83 43.25 142 97.57 142 98.2"/><polygon class="cls-55" points="142 98.83 105 43.25 105.41 43.25 142 98.2 142 98.83"/><polygon class="cls-56" points="142 99.46 104.58 43.25 105 43.25 142 98.83 142 99.46"/><polygon class="cls-57" points="142 100.09 104.16 43.25 104.58 43.25 142 99.46 142 100.09"/><polygon class="cls-58" points="142 100.72 103.75 43.25 104.16 43.25 142 100.09 142 100.72"/><polygon class="cls-59" points="142 101.35 103.33 43.25 103.75 43.25 142 100.72 142 101.35"/><polygon class="cls-60" points="142 101.98 102.91 43.25 103.33 43.25 142 101.35 142 101.98"/><polygon class="cls-61" points="142 102.61 102.5 43.25 102.91 43.25 142 101.98 142 102.61"/><polygon class="cls-14" points="142 103.24 102.08 43.25 102.5 43.25 142 102.61 142 103.24"/><polygon class="cls-15" points="142 103.87 101.66 43.25 102.08 43.25 142 103.24 142 103.87"/><polygon class="cls-16" points="142 104.5 101.25 43.25 101.66 43.25 142 103.87 142 104.5"/><polygon class="cls-62" points="142 105.13 100.83 43.25 101.25 43.25 142 104.5 142 105.13"/><polygon class="cls-63" points="142 105.75 100.41 43.25 100.83 43.25 142 105.13 142 105.75"/><polygon class="cls-64" points="142 106.38 100 43.25 100.41 43.25 142 105.75 142 106.38"/><polygon class="cls-65" points="142 107.01 99.58 43.25 100 43.25 142 106.38 142 107.01"/><polygon class="cls-66" points="142 107.64 99.16 43.25 99.58 43.25 142 107.01 142 107.64"/><polygon class="cls-12" points="142 108.27 98.75 43.25 99.16 43.25 142 107.64 142 108.27"/><polygon class="cls-12" points="142 124.36 135.61 130.25 90 130.25 90 46.72 95.84 43.25 98.75 43.25 142 108.27 142 124.36"/></g><path class="cls-4" d="M66.84,92.07c2-.7,3.63-3.2,4-6.35.45-3.56-.86-6.72-3-7.53-2,.7-3.63,3.2-4,6.35C63.37,88.1,64.69,91.26,66.84,92.07Z"/><path class="cls-69" d="M63.83,84.54c.4-3.15,2.07-5.65,4-6.35a3.1,3.1,0,0,0-.7-.18c-2.55-.33-5,2.6-5.53,6.53s1.16,7.38,3.72,7.71a3.21,3.21,0,0,0,1.5-.18C64.69,91.26,63.37,88.1,63.83,84.54Z"/><path class="cls-4" d="M125.15,87.42c-2-.48-4-2.78-4.71-5.87-.84-3.49.12-6.78,2.17-7.82,2,.48,4,2.78,4.71,5.87C128.16,83.09,127.2,86.38,125.15,87.42Z"/><path class="cls-69" d="M127.32,79.6c-.75-3.08-2.68-5.38-4.71-5.87a3.1,3.1,0,0,1,.68-.25c2.5-.6,5.29,2,6.22,5.88s-.34,7.46-2.85,8.07a3.21,3.21,0,0,1-1.51,0C127.2,86.38,128.16,83.09,127.32,79.6Z"/><polyline class="cls-3" points="31.66 73.83 45.23 74.51 41.75 93.94 28.38 86.55"/><ellipse class="cls-3" cx="85.92" cy="40.97" rx="6.19" ry="2.33"/><circle class="cls-4" cx="78.07" cy="4.84" r="3.54"/><path class="cls-3" d="M79.26,6.82l9.65,35.3-5-.79L77.39,6.75A.84.84,0,0,1,78.29,6,1,1,0,0,1,79.26,6.82Z"/><ellipse class="cls-12" cx="30.19" cy="80.23" rx="6.88" ry="3.1" transform="translate(-53.63 98.18) rotate(-81.46)"/><g class="cls-70"><polygon class="cls-18" points="60 102.28 57.15 96.25 60 96.25 60 102.28"/><polygon class="cls-18" points="57 103.55 56.72 96.25 57.15 96.25 57 102.28 57 103.55"/><polygon class="cls-19" points="57 104.56 57.78 103.84 56.29 96.25 56.72 96.25 57 103.55 57 104.56"/><polygon class="cls-20" points="58.63 103.84 58.24 103.6 55.86 96.25 56.29 96.25 58.63 103.84"/><polygon class="cls-21" points="58.24 103.18 57.92 103.25 57.85 103.25 55.43 96.25 55.86 96.25 58.24 103.18"/><polygon class="cls-22" points="57.42 103.25 55 96.25 55.43 96.25 57.85 103.25 57.42 103.25"/><polygon class="cls-23" points="56.99 103.25 54.57 96.25 55 96.25 57.42 103.25 56.99 103.25"/><polygon class="cls-24" points="56.56 103.25 54.14 96.25 54.57 96.25 56.99 103.25 56.56 103.25"/><polygon class="cls-25" points="56.13 103.25 53.71 96.25 54.14 96.25 56.56 103.25 56.13 103.25"/><polygon class="cls-26" points="55.7 103.25 53.28 96.25 53.71 96.25 56.13 103.25 55.7 103.25"/><polygon class="cls-27" points="55.27 103.25 52.85 96.25 53.28 96.25 55.7 103.25 55.27 103.25"/><polygon class="cls-28" points="54.84 103.25 52.42 96.25 52.85 96.25 55.27 103.25 54.84 103.25"/><polygon class="cls-29" points="54.41 103.25 51.99 96.25 52.42 96.25 54.84 103.25 54.41 103.25"/><polygon class="cls-30" points="53.98 103.25 51.56 96.25 51.99 96.25 54.41 103.25 53.98 103.25"/><polygon class="cls-31" points="53.55 103.25 51.13 96.25 51.56 96.25 53.98 103.25 53.55 103.25"/><polygon class="cls-32" points="53.12 103.25 50.7 96.25 51.13 96.25 53.55 103.25 53.12 103.25"/><polygon class="cls-33" points="52.69 103.25 50.27 96.25 50.7 96.25 53.12 103.25 52.69 103.25"/><polygon class="cls-34" points="52.26 103.25 49.84 96.25 50.27 96.25 52.69 103.25 52.26 103.25"/><polygon class="cls-35" points="51.83 103.25 49.41 96.25 49.84 96.25 52.26 103.25 51.83 103.25"/><polygon class="cls-36" points="51.4 103.25 48.98 96.25 49.41 96.25 51.83 103.25 51.4 103.25"/><polygon class="cls-37" points="50.97 103.25 48.55 96.25 48.98 96.25 51.4 103.25 50.97 103.25"/><polygon class="cls-38" points="50.53 103.25 48.12 96.25 48.55 96.25 50.97 103.25 50.53 103.25"/><polygon class="cls-39" points="50.1 103.25 47.69 96.25 48.12 96.25 50.53 103.25 50.1 103.25"/><polygon class="cls-40" points="49.67 103.25 47.26 96.25 47.69 96.25 50.1 103.25 49.67 103.25"/><polygon class="cls-41" points="49.24 103.25 46.83 96.25 47.26 96.25 49.67 103.25 49.24 103.25"/><polygon class="cls-42" points="48.81 103.25 46.39 96.25 46.83 96.25 49.24 103.25 48.81 103.25"/><polygon class="cls-43" points="48.38 103.25 45.96 96.25 46.39 96.25 48.81 103.25 48.38 103.25"/><polygon class="cls-44" points="47.95 103.25 45.53 96.25 45.96 96.25 48.38 103.25 47.95 103.25"/><polygon class="cls-45" points="47.52 103.25 45.1 96.25 45.53 96.25 47.95 103.25 47.52 103.25"/><polygon class="cls-46" points="47.09 103.25 44.67 96.25 45.1 96.25 47.52 103.25 47.09 103.25"/><polygon class="cls-47" points="46.66 103.25 44.24 96.25 44.67 96.25 47.09 103.25 46.66 103.25"/><polygon class="cls-48" points="46.23 103.25 43.81 96.25 44.24 96.25 46.66 103.25 46.23 103.25"/><polygon class="cls-49" points="45.8 103.25 43.38 96.25 43.81 96.25 46.23 103.25 45.8 103.25"/><polygon class="cls-50" points="45.37 103.25 42.95 96.25 43.38 96.25 45.8 103.25 45.37 103.25"/><polygon class="cls-51" points="44.94 103.25 42.52 96.25 42.95 96.25 45.37 103.25 44.94 103.25"/><polygon class="cls-52" points="44.51 103.25 42.09 96.25 42.52 96.25 44.94 103.25 44.51 103.25"/><polygon class="cls-53" points="44.08 103.25 41.66 96.25 42.09 96.25 44.51 103.25 44.08 103.25"/><polygon class="cls-54" points="43.65 103.25 41.23 96.25 41.66 96.25 44.08 103.25 43.65 103.25"/><polygon class="cls-55" points="43.22 103.25 40.8 96.25 41.23 96.25 43.65 103.25 43.22 103.25"/><polygon class="cls-56" points="42.79 103.25 40.37 96.25 40.8 96.25 43.22 103.25 42.79 103.25"/><polygon class="cls-57" points="42.36 103.25 39.94 96.25 40.37 96.25 42.79 103.25 42.36 103.25"/><polygon class="cls-58" points="41.93 103.25 39.51 96.25 39.94 96.25 42.36 103.25 41.93 103.25"/><polygon class="cls-59" points="41.5 103.25 39.08 96.25 39.51 96.25 41.93 103.25 41.5 103.25"/><polygon class="cls-60" points="41.07 103.25 38.65 96.25 39.08 96.25 41.5 103.25 41.07 103.25"/><polygon class="cls-61" points="40.64 103.25 38.22 96.25 38.65 96.25 41.07 103.25 40.64 103.25"/><polygon class="cls-14" points="40.21 103.25 37.79 96.25 38.22 96.25 40.64 103.25 40.21 103.25"/><polygon class="cls-15" points="39.78 103.25 37.36 96.25 37.79 96.25 40.21 103.25 39.78 103.25"/><polygon class="cls-16" points="39.35 103.25 36.93 96.25 37.36 96.25 39.78 103.25 39.35 103.25"/><polygon class="cls-62" points="38.92 103.25 36.5 96.25 36.93 96.25 39.35 103.25 38.92 103.25"/><polygon class="cls-63" points="38.49 103.25 36.07 96.25 36.5 96.25 38.92 103.25 38.49 103.25"/><polygon class="cls-64" points="38.06 103.25 35.64 96.25 36.07 96.25 38.49 103.25 38.06 103.25"/><polygon class="cls-65" points="37.63 103.25 35.21 96.25 35.64 96.25 38.06 103.25 37.63 103.25"/><polygon class="cls-66" points="37.2 103.25 34.78 96.25 35.21 96.25 37.63 103.25 37.2 103.25"/><polygon class="cls-12" points="36.77 103.25 33 98.85 33 96.25 34.78 96.25 37.2 103.25 36.77 103.25"/><polygon class="cls-12" points="35 98.85 36.77 103.25 35 103.25 35 98.85"/></g><g class="cls-71"><polygon class="cls-21" points="62 117.82 60.8 123.25 62 123.25 62 117.82"/><polygon class="cls-22" points="60.56 114.25 61.67 121.25 60.8 121.25 60 117.82 60 114.25 60.56 114.25"/><polygon class="cls-23" points="61.43 114.25 62.53 121.25 61.67 121.25 60.56 114.25 61.43 114.25"/><polygon class="cls-24" points="62.29 114.25 63.39 121.25 62.53 121.25 61.43 114.25 62.29 114.25"/><polygon class="cls-25" points="63.16 114.25 64.26 121.25 63.39 121.25 62.29 114.25 63.16 114.25"/><polygon class="cls-26" points="64.02 114.25 65.12 121.25 64.26 121.25 63.16 114.25 64.02 114.25"/><polygon class="cls-27" points="64.89 114.25 65.99 121.25 65.12 121.25 64.02 114.25 64.89 114.25"/><polygon class="cls-28" points="65.75 114.25 66.85 121.25 65.99 121.25 64.89 114.25 65.75 114.25"/><polygon class="cls-29" points="66.61 114.25 67.72 121.25 66.85 121.25 65.75 114.25 66.61 114.25"/><polygon class="cls-30" points="67.48 114.25 68.58 121.25 67.72 121.25 66.61 114.25 67.48 114.25"/><polygon class="cls-31" points="68.34 114.25 69.44 121.25 68.58 121.25 67.48 114.25 68.34 114.25"/><polygon class="cls-32" points="69.21 114.25 70.31 121.25 69.44 121.25 68.34 114.25 69.21 114.25"/><polygon class="cls-33" points="70.07 114.25 71.17 121.25 70.31 121.25 69.21 114.25 70.07 114.25"/><polygon class="cls-34" points="70.94 114.25 72.04 121.25 71.17 121.25 70.07 114.25 70.94 114.25"/><polygon class="cls-35" points="71.8 114.25 72.9 121.25 72.04 121.25 70.94 114.25 71.8 114.25"/><polygon class="cls-36" points="72.67 114.25 73.77 121.25 72.9 121.25 71.8 114.25 72.67 114.25"/><polygon class="cls-37" points="73.53 114.25 74.63 121.25 73.77 121.25 72.67 114.25 73.53 114.25"/><polygon class="cls-38" points="74.39 114.25 75.5 121.25 74.63 121.25 73.53 114.25 74.39 114.25"/><polygon class="cls-39" points="75.26 114.25 76.36 121.25 75.5 121.25 74.39 114.25 75.26 114.25"/><polygon class="cls-40" points="76.12 114.25 77.22 121.25 76.36 121.25 75.26 114.25 76.12 114.25"/><polygon class="cls-41" points="76.99 114.25 78.09 121.25 77.22 121.25 76.12 114.25 76.99 114.25"/><polygon class="cls-42" points="77.85 114.25 78.95 121.25 78.09 121.25 76.99 114.25 77.85 114.25"/><polygon class="cls-43" points="78.72 114.25 79.82 121.25 78.95 121.25 77.85 114.25 78.72 114.25"/><polygon class="cls-44" points="79.58 114.25 80.68 121.25 79.82 121.25 78.72 114.25 79.58 114.25"/><polygon class="cls-45" points="80.44 114.25 81.55 121.25 80.68 121.25 79.58 114.25 80.44 114.25"/><polygon class="cls-46" points="81.31 114.25 82.41 121.25 81.55 121.25 80.44 114.25 81.31 114.25"/><polygon class="cls-47" points="82.17 114.25 83.28 121.25 82.41 121.25 81.31 114.25 82.17 114.25"/><polygon class="cls-48" points="83.04 114.25 84.14 121.25 83.28 121.25 82.17 114.25 83.04 114.25"/><polygon class="cls-49" points="83.9 114.25 85 121.25 84.14 121.25 83.04 114.25 83.9 114.25"/><polygon class="cls-50" points="84.77 114.25 85.87 121.25 85 121.25 83.9 114.25 84.77 114.25"/><polygon class="cls-51" points="85.63 114.25 86.73 121.25 85.87 121.25 84.77 114.25 85.63 114.25"/><polygon class="cls-52" points="86.5 114.25 87.6 121.25 86.73 121.25 85.63 114.25 86.5 114.25"/><polygon class="cls-53" points="87.36 114.25 88.46 121.25 87.6 121.25 86.5 114.25 87.36 114.25"/><polygon class="cls-54" points="88.22 114.25 89.33 121.25 88.46 121.25 87.36 114.25 88.22 114.25"/><polygon class="cls-55" points="89.09 114.25 90.19 121.25 89.33 121.25 88.22 114.25 89.09 114.25"/><polygon class="cls-56" points="89.95 114.25 91.06 121.25 90.19 121.25 89.09 114.25 89.95 114.25"/><polygon class="cls-57" points="90.82 114.25 91.92 121.25 91.06 121.25 89.95 114.25 90.82 114.25"/><polygon class="cls-58" points="91.68 114.25 92.78 122.59 92.61 121.25 91.92 121.25 90.82 114.25 91.68 114.25"/><polygon class="cls-59" points="92.55 114.25 93.64 123.65 92.78 123.85 91.68 114.25 92.55 114.25"/><polygon class="cls-60" points="93.41 114.25 94.49 123.56 93.64 123.76 92.55 114.25 93.41 114.25"/><polygon class="cls-61" points="94.28 114.25 95.34 123.46 94.49 123.66 93.41 114.25 94.28 114.25"/><polygon class="cls-14" points="95.14 114.25 97 118.41 97 123.22 96.01 123.46 94.28 114.25 95.14 114.25"/><polygon class="cls-15" points="97 118.41 95.14 114.25 97 114.25 97 118.41"/></g><g class="cls-72"><polygon class="cls-18" points="140 91.96 137.76 89.64 138.64 89.25 140 89.25 140 91.96"/><polygon class="cls-18" points="140 92.2 137.64 89.61 137.6 89.48 140 91.96 140 92.2"/><polygon class="cls-19" points="140 92.45 137.52 89.73 137.48 89.61 140 92.2 140 92.45"/><polygon class="cls-20" points="140 92.69 137.4 89.86 137.35 89.73 140 92.45 140 92.69"/><polygon class="cls-21" points="140 92.93 137.28 89.98 137.23 89.86 140 92.69 140 92.93"/><polygon class="cls-22" points="140 93.18 137.16 90.11 137.11 89.98 140 92.93 140 93.18"/><polygon class="cls-23" points="140 93.42 137.03 90.23 136.99 90.11 140 93.18 140 93.42"/><polygon class="cls-24" points="140 93.66 136.91 90.36 136.87 90.23 140 93.42 140 93.66"/><polygon class="cls-25" points="140 93.91 136.79 90.49 136.75 90.36 140 93.66 140 93.91"/><polygon class="cls-26" points="140 94.15 136.67 90.61 136.63 90.49 140 93.91 140 94.15"/><polygon class="cls-27" points="141 94.39 137.05 90.74 137.25 90.61 141 94.15 141 94.39"/><polygon class="cls-28" points="142 94.64 137.43 90.86 137.88 90.74 142 94.39 142 94.64"/><polygon class="cls-29" points="142 94.88 137.31 90.99 137.76 90.86 142 94.64 142 94.88"/><polygon class="cls-30" points="142 95.12 137.18 91.11 137.64 90.99 142 94.88 142 95.12"/><polygon class="cls-31" points="142 95.37 137.06 91.24 137.52 91.11 142 95.12 142 95.37"/><polygon class="cls-32" points="142 95.61 136.94 91.37 137.4 91.24 142 95.37 142 95.61"/><polygon class="cls-33" points="142 95.85 136.82 91.49 137.27 91.37 142 95.61 142 95.85"/><polygon class="cls-34" points="142 96.1 136.7 91.62 137.15 91.49 142 95.85 142 96.1"/><polygon class="cls-35" points="142 96.34 136.58 91.75 137.03 91.62 142 96.1 142 96.34"/><polygon class="cls-36" points="142 96.58 136.45 91.87 136.91 91.75 142 96.34 142 96.58"/><polygon class="cls-37" points="142 96.83 136 92.06 136 91.93 136.59 91.87 142 96.58 142 96.83"/><polygon class="cls-38" points="142 97.07 136 92.3 136 92.06 142 96.83 142 97.07"/><polygon class="cls-39" points="142 97.31 136 92.54 136 92.3 142 97.07 142 97.31"/><polygon class="cls-40" points="142 97.56 136 92.79 136 92.54 142 97.31 142 97.56"/><polygon class="cls-41" points="142 97.8 136 93.03 136 92.79 142 97.56 142 97.8"/><polygon class="cls-42" points="142 98.04 136 93.27 136 93.03 142 97.8 142 98.04"/><polygon class="cls-43" points="142 98.29 136 93.52 136 93.27 142 98.04 142 98.29"/><polygon class="cls-44" points="142 98.53 136 93.76 136 93.52 142 98.29 142 98.53"/><polygon class="cls-45" points="142 98.77 136 94 136 93.76 142 98.53 142 98.77"/><polygon class="cls-46" points="142 99.02 136 94.25 136 94 142 98.77 142 99.02"/><polygon class="cls-47" points="142 99.26 136 94.49 136 94.25 142 99.02 142 99.26"/><polygon class="cls-48" points="142 99.5 136 94.73 136 94.49 142 99.26 142 99.5"/><polygon class="cls-49" points="142 99.75 136 94.98 136 94.73 142 99.5 142 99.75"/><polygon class="cls-50" points="142 99.99 136 95.22 136 94.98 142 99.75 142 99.99"/><polygon class="cls-51" points="142 100.23 136 95.47 136 95.22 142 99.99 142 100.23"/><polygon class="cls-52" points="142 100.48 136 95.71 136 95.47 142 100.23 142 100.48"/><polygon class="cls-53" points="142 100.72 136 95.95 136 95.71 142 100.48 142 100.72"/><polygon class="cls-54" points="142 100.96 136 96.19 136 95.95 142 100.72 142 100.96"/><polygon class="cls-55" points="142 101.21 136 96.44 136 96.19 142 100.96 142 101.21"/><polygon class="cls-56" points="142 101.45 136 96.68 136 96.44 142 101.21 142 101.45"/><polygon class="cls-57" points="142 101.69 136 96.92 136 96.68 142 101.45 142 101.69"/><polygon class="cls-58" points="142 101.94 136 97.17 136 96.92 142 101.69 142 101.94"/><polygon class="cls-59" points="142 102.18 136 97.41 136 97.17 142 101.94 142 102.18"/><polygon class="cls-60" points="142 102.42 136 97.66 136 97.41 142 102.18 142 102.42"/><polygon class="cls-61" points="142 102.67 136 97.9 136 97.66 142 102.42 142 102.67"/><polygon class="cls-14" points="142 102.73 141.38 102.82 136 98.14 136 97.9 142 102.67 142 102.73"/><polygon class="cls-15" points="140.71 102.82 140.66 102.95 136 98.39 136 98.14 140.71 102.82"/><polygon class="cls-16" points="140.59 102.95 140.53 103.07 136 98.63 136 98.39 140.59 102.95"/><polygon class="cls-62" points="140.47 103.07 140.41 103.2 136 98.87 136 98.63 140.47 103.07"/><polygon class="cls-63" points="140.34 103.2 140.29 103.33 136 99.12 136 98.87 140.34 103.2"/><polygon class="cls-64" points="140.22 103.33 140.17 103.45 136 99.36 136 99.12 140.22 103.33"/><polygon class="cls-65" points="140.1 103.45 140.05 103.58 136 99.6 136 99.36 140.1 103.45"/><polygon class="cls-66" points="139.98 103.58 139.93 103.7 136 99.85 136 99.6 139.98 103.58"/><polygon class="cls-12" points="139.86 103.7 139.8 103.83 136 100.09 136 99.85 139.86 103.7"/><polygon class="cls-12" points="139.74 103.23 139 103.25 136 103.25 136 100.09 139.74 103.23"/></g><path class="cls-11" d="M112.51,130.23a1.42,1.42,0,0,1-.78-.24c-1-.66-1.38-2.54-2.7-13.46-.27-2.27-.6-4.94-.92-7.21-.08,1.09-.15,2.2-.21,3.15-.44,7.22-.68,9.73-2.51,10s-2.67-2.07-4.2-5.89c-.48-1.19-1.13-2.83-1.63-3.76-.36.67-.79,1.7-1.08,2.4-1,2.46-1.83,4.41-3.4,4.45a125.22,125.22,0,0,1-33.18-4l-.69-.2-3.37-12.06L37.33,98.78a1.28,1.28,0,0,1,.56-2.49l22,4.92,3.39,12.15a123.29,123.29,0,0,0,31.46,3.74,17.54,17.54,0,0,0,1.38-2.88c1-2.44,1.81-4.36,3.34-4.48,1.68-.13,2.59,2.13,4.09,5.87.37.92.85,2.11,1.28,3,.24-1.71.4-4.37.52-6.33.43-7.1.67-9.58,2.39-9.95a1.4,1.4,0,0,1,1.12.24c1,.69,1.38,2.73,2.69,13.62.3,2.5.66,5.49,1,7.87.46-2.51,1-5.63,1.28-7.74.27-1.7.52-3.3.72-4.45.33-1.88.5-2.82,1.61-2.9a1.31,1.31,0,0,1,1.34.95,29.52,29.52,0,0,0,2,5.06c.79-2.34,1.27-3.49,2.11-3.93,1.24-.65,2.5-1.22,3.71-1.76,3.35-1.51,6.53-2.95,8.88-6L134,92.51l3.42-4.65a1.28,1.28,0,0,1,2.05,1.51l-2.91,3.95.23,10.85-.25.35c-2.77,3.79-6.52,5.48-10.15,7.12-1.13.51-2.3,1-3.44,1.63a17.79,17.79,0,0,0-1,2.66,11.79,11.79,0,0,1-.74,1.91,1.54,1.54,0,0,1-1.52.78c-.89-.1-1.63-.91-2.58-2.78-.14-.28-.28-.57-.42-.88l-.28,1.8c-.42,2.69-.9,5.74-1.36,8.17-.8,4.22-1.21,5-2.12,5.25A1.39,1.39,0,0,1,112.51,130.23Z"/><path class="cls-73" d="M41,109.56s-15.34,3.65-15.34,21.12A25.17,25.17,0,0,0,49.54,135S53.57,118.11,41,109.56Z"/><path class="cls-73" d="M143.43,103.53s15.34,3.65,15.34,21.12a25.17,25.17,0,0,1-23.88,4.27S130.86,112.08,143.43,103.53Z"/><path class="cls-74" d="M40.91,110.15s-7.22,3.31-7.45,10.53,10.89,5.32,11.24-.83A12.45,12.45,0,0,0,40.91,110.15Z"/><path class="cls-75" d="M143.85,104.12s7.22,3.31,7.45,10.53-10.89,5.32-11.24-.83A12.45,12.45,0,0,1,143.85,104.12Z"/></g></g></svg>