<svg xmlns="http://www.w3.org/2000/svg" xmlns:xlink="http://www.w3.org/1999/xlink" viewBox="0 0 300 155"><defs><style>.cls-1{fill:none;}.cls-2{isolation:isolate;}.cls-3{fill:#1d6f8c;}.cls-4{fill:#f1ea3c;}.cls-5{fill:#777;}.cls-6,.cls-77,.cls-78{opacity:0.35;mix-blend-mode:overlay;}.cls-6{fill:url(#linear-gradient);}.cls-7{opacity:0.4;}.cls-8{fill:#00c3ff;}.cls-9{fill:#cacbca;}.cls-10{clip-path:url(#clip-path);}.cls-11{fill:#d2d3d2;}.cls-12{fill:#d1d2d1;}.cls-13{fill:#d0d1d0;}.cls-14{clip-path:url(#clip-path-2);}.cls-15{fill:#fff;}.cls-16{fill:#fefefe;}.cls-17{fill:#fdfdfd;}.cls-18{fill:#fcfcfc;}.cls-19{fill:#fbfbfb;}.cls-20{fill:#fafafa;}.cls-21{fill:#f9f9f9;}.cls-22{fill:#f8f8f8;}.cls-23{fill:#f7f7f7;}.cls-24{fill:#f6f6f6;}.cls-25{fill:#f5f5f5;}.cls-26{fill:#f4f4f4;}.cls-27{fill:#f3f3f3;}.cls-28{fill:#f2f2f2;}.cls-29{fill:#f1f1f1;}.cls-30{fill:#f0f0f0;}.cls-31{fill:#efefef;}.cls-32{fill:#eee;}.cls-33{fill:#ededed;}.cls-34{fill:#ececec;}.cls-35{fill:#ebebeb;}.cls-36{fill:#eaeaea;}.cls-37{fill:#e9e9e9;}.cls-38{fill:#e8e8e8;}.cls-39{fill:#e7e7e7;}.cls-40{fill:#e6e6e6;}.cls-41{fill:#e5e5e5;}.cls-42{fill:#e3e4e3;}.cls-43{fill:#e2e3e2;}.cls-44{fill:#e1e2e1;}.cls-45{fill:#e0e1e0;}.cls-46{fill:#dfe0df;}.cls-47{fill:#dedfde;}.cls-48{fill:#dddedd;}.cls-49{fill:#dcdddc;}.cls-50{fill:#dbdcdb;}.cls-51{fill:#dadbda;}.cls-52{fill:#d9dad9;}.cls-53{fill:#d8d9d8;}.cls-54{fill:#d7d8d7;}.cls-55{fill:#d6d7d6;}.cls-56{fill:#d5d6d5;}.cls-57{fill:#d4d5d4;}.cls-58{fill:#d3d4d3;}.cls-59{fill:#cfd0cf;}.cls-60{fill:#cecfce;}.cls-61{fill:#cdcecd;}.cls-62{fill:#cccdcc;}.cls-63{fill:#cbcccb;}.cls-64{clip-path:url(#clip-path-3);}.cls-65{clip-path:url(#clip-path-4);}.cls-66{fill:#7d7d7d;}.cls-67{clip-path:url(#clip-path-5);}.cls-68{clip-path:url(#clip-path-6);}.cls-69{clip-path:url(#clip-path-7);}.cls-70,.cls-71,.cls-72,.cls-73,.cls-74,.cls-75{mix-blend-mode:darken;}.cls-70{fill:url(#linear-gradient-2);}.cls-71{fill:url(#linear-gradient-3);}.cls-72{fill:url(#linear-gradient-4);}.cls-73{fill:url(#linear-gradient-5);}.cls-74{fill:url(#linear-gradient-6);}.cls-75{fill:url(#linear-gradient-7);}.cls-76{fill:#969696;}.cls-77{fill:url(#linear-gradient-8);}.cls-78{fill:url(#linear-gradient-9);}</style><linearGradient id="linear-gradient" x1="323.17" y1="109.73" x2="334.44" y2="109.73" gradientTransform="matrix(-1, 0, 0, 1, 363.6, 0)" gradientUnits="userSpaceOnUse"><stop offset="0" stop-color="#f2f2f2"/><stop offset="0.91" stop-color="gray"/></linearGradient><clipPath id="clip-path"><path class="cls-1" d="M47.54,98.41c-.14-.13-.76.34,0,0Z"/></clipPath><clipPath id="clip-path-2"><path class="cls-1" d="M80.24,45.39l-.17.07-4.16-1.32A41.45,41.45,0,0,0,64,52.24c-.22.23-.67.24-.89.48A53.27,53.27,0,0,0,47.7,78.9c-.61,2.73-1,5.46-1.38,8.18-.16,2.49-.33,4.76-.72,7.26a3.72,3.72,0,0,0,1.93,4.07,4,4,0,0,1-1.59.68c-1.35.49-1.31,2.07-1.5,3.21-.16,2.49-.56,4.77-.72,7.26-.05,6.79-.34,13.59,1.21,20.37l5.93,1.89,0-.14,4.36,1.39c-1.54-6.79-1.26-13.58-1.21-20.37.16-2.49.56-4.77.72-7.26.2-1.14.16-2.72,1.5-3.21a4,4,0,0,0,1.59-.68,3.72,3.72,0,0,1-1.93-4.07c.39-2.5.56-4.77.72-7.26C57,87.49,57.35,84.77,58,82A53.27,53.27,0,0,1,73.37,55.85c.22-.23.67-.24.89-.48a41.45,41.45,0,0,1,11.91-8.09Z"/></clipPath><clipPath id="clip-path-3"><path class="cls-1" d="M134.74,93.29c.12-.14.8.24,0,0Z"/></clipPath><clipPath id="clip-path-4"><path class="cls-1" d="M95.71,44.74l.18.05,4-1.83a41.45,41.45,0,0,1,12.82,6.55c.25.2.7.16.95.36A53.27,53.27,0,0,1,132.15,74c.94,2.63,1.66,5.29,2.38,7.95.47,2.45.92,4.68,1.62,7.11a3.72,3.72,0,0,1-1.41,4.27,4,4,0,0,0,1.66.48c1.4.32,1.55,1.89,1.89,3,.47,2.45,1.15,4.66,1.62,7.11.9,6.73,2,13.44,1.33,20.37l-5.65,2.61v-.14l-4.15,1.92c.69-6.93-.43-13.63-1.33-20.37-.47-2.45-1.15-4.66-1.62-7.11-.34-1.1-.49-2.68-1.89-3a4,4,0,0,1-1.66-.48,3.72,3.72,0,0,0,1.41-4.27c-.7-2.43-1.15-4.66-1.62-7.11-.72-2.66-1.44-5.31-2.38-7.95a53.27,53.27,0,0,0-18.54-24.07c-.25-.2-.7-.16-.95-.36a41.45,41.45,0,0,0-12.82-6.55Z"/></clipPath><clipPath id="clip-path-5"><polygon class="cls-1" points="34.63 98.88 56.25 104.86 58.6 102.32 36.04 97.77 34.63 98.88"/></clipPath><clipPath id="clip-path-6"><path class="cls-1" d="M62.2,113.87l-2.15,2.83s27.94,6.9,35.52,3.85l-1-2.83s-14.93.11-23.19-1.7S62.2,113.87,62.2,113.87Z"/></clipPath><clipPath id="clip-path-7"><path class="cls-1" d="M138.37,94.07l1.76-3a1.42,1.42,0,0,0-.85-2.08h0l-3.54,3.77-.08,10,2.56,1.81Z"/></clipPath><linearGradient id="linear-gradient-2" x1="33.57" y1="154.89" x2="42.39" y2="91.61" gradientTransform="translate(22.26 -19.84) rotate(9.75)" gradientUnits="userSpaceOnUse"><stop offset="0.09" stop-color="#fff"/><stop offset="0.94" stop-color="#00c3ff"/><stop offset="1"/></linearGradient><linearGradient id="linear-gradient-3" x1="32.42" y1="97.93" x2="29.23" y2="143.86" gradientUnits="userSpaceOnUse"><stop offset="0"/><stop offset="0.06" stop-color="#00c3ff"/><stop offset="0.91" stop-color="#fff"/></linearGradient><linearGradient id="linear-gradient-4" x1="39.58" y1="166.1" x2="48.4" y2="102.82" xlink:href="#linear-gradient-2"/><linearGradient id="linear-gradient-5" x1="36.44" y1="110" x2="33.26" y2="155.94" xlink:href="#linear-gradient-3"/><linearGradient id="linear-gradient-6" x1="221.35" y1="122.92" x2="230.17" y2="59.64" gradientTransform="matrix(-0.96, 0.27, 0.27, 0.96, 332.04, -36.27)" xlink:href="#linear-gradient-2"/><linearGradient id="linear-gradient-7" x1="222.9" y1="98.22" x2="219.72" y2="144.16" gradientTransform="matrix(-0.99, 0.1, 0.1, 0.99, 356.26, -18.87)" xlink:href="#linear-gradient-3"/><linearGradient id="linear-gradient-8" x1="33.18" y1="117.78" x2="44.45" y2="117.78" gradientTransform="matrix(1, 0, 0, 1, 0, 0)" xlink:href="#linear-gradient"/><linearGradient id="linear-gradient-9" x1="212.52" y1="111.74" x2="223.79" y2="111.74" xlink:href="#linear-gradient"/></defs><title>b3-logo</title><g class="cls-2"><g id="Layer_1" data-name="Layer 1"><path class="cls-3" d="M220,20.63l5.16-6.94-2.34-.88a.51.51,0,0,1-.11-.91l11.44-7.37a.27.27,0,0,1,.36.39l-5,6.64,2.57.65a.51.51,0,0,1,.29.79l-11.7,7.45"/><path class="cls-3" d="M223.36,25.63l10.73-1.77L233,21.62c-.21-.38.24-.84.75-.77L250.06,23c.36,0,.31.48-.06.54L239.68,25.2l1.54,2.23c.21.3,0,.72-.5.8L224.09,26"/><path class="cls-3" d="M212,136.5a1.57,1.57,0,0,1-1.26,1.49l-3,.73-2.73.66a1.67,1.67,0,0,1-2.13-1.49l1.47-26.31a2.09,2.09,0,0,1,1.49-1.83l2.79-.92a1.18,1.18,0,0,1,1.58.94Z"/><path class="cls-3" d="M203.4,99.08a4.61,4.61,0,0,1,1.06-3,5.35,5.35,0,0,1,2.77-1.71,3.44,3.44,0,0,1,2.78.32,2.84,2.84,0,0,1,1.09,2.46c0,1.44,0,.48,0,1.92a4.66,4.66,0,0,1-1.06,3,5.39,5.39,0,0,1-2.75,1.74,3.41,3.41,0,0,1-2.78-.29,2.85,2.85,0,0,1-1.11-2.47C203.41,99.58,203.41,100.53,203.4,99.08Z"/><path class="cls-4" d="M289.24,95.56l3.72-.64a.77.77,0,0,1,.84,1.1l-9.3,18.36a.41.41,0,0,1-.77-.23l1.45-12.49-3.85,1.12a.77.77,0,0,1-1-.81l2.15-22-6.42,1.64a1.19,1.19,0,0,1-1.48-1.15l0-5.38a1.19,1.19,0,0,1,.9-1.16c7.28-1.84,15.76-4.07,23-6A1.19,1.19,0,0,1,300,69.09c0,1.91,0,3.3,0,5.32a1.19,1.19,0,0,1-.89,1.16c-2.34.62-5.88,1.61-8.22,2.22Z"/><path class="cls-4" d="M139.53,52.87l0,1.53a12,12,0,0,1-3.2,8.34A18.25,18.25,0,0,1,127,67.82q-6.09,1.52-12.19,3a1.54,1.54,0,0,1-1.9-1.5l-.07-34.11a1.54,1.54,0,0,1,1.15-1.5c4.09-1.07,8.24-2,12.33-3.09,2.8-.78,6.19-1.2,8.79.25,2,1.12,3,3.17,3,6v.91a9.6,9.6,0,0,1-5.67,9.34C136.5,46.4,139.67,48.76,139.53,52.87ZM129,43.75a4.81,4.81,0,0,0,.86-2.93v-.73a2,2,0,0,0-1-1.8,4.1,4.1,0,0,0-3,0l-4.3,1.1,0,7.26,4-1A5.89,5.89,0,0,0,129,43.75Zm1,14.89a3.88,3.88,0,0,0,1.17-2.83v-.57q0-2.07-1.09-2.64a5.45,5.45,0,0,0-3.52.08l-4.89,1.23,0,7.76,4.68-1.17A7.34,7.34,0,0,0,129.94,58.64Z"/><path class="cls-4" d="M186.22,82.67l0,1.53a12,12,0,0,1-3.2,8.34,18.25,18.25,0,0,1-9.27,5.09q-6.09,1.52-12.19,3a1.54,1.54,0,0,1-1.9-1.5L159.57,65a1.54,1.54,0,0,1,1.15-1.5c4.09-1.07,8.24-2,12.33-3.09,2.8-.78,6.19-1.2,8.79.25,2,1.12,3,3.17,3,6v.91a9.6,9.6,0,0,1-5.67,9.34C183.19,76.19,186.36,78.56,186.22,82.67Zm-10.57-9.12a4.81,4.81,0,0,0,.86-2.93v-.73a2,2,0,0,0-1-1.8,4.1,4.1,0,0,0-3,0l-4.3,1.1,0,7.26,4-1A5.89,5.89,0,0,0,175.65,73.55Zm1,14.89a3.88,3.88,0,0,0,1.17-2.83V85q0-2.07-1.09-2.64a5.45,5.45,0,0,0-3.52.08l-4.89,1.23,0,7.76L173,90.3A7.34,7.34,0,0,0,176.63,88.44Z"/><path class="cls-4" d="M142.4,62l-.29-34.28a1.45,1.45,0,0,1,1.09-1.41l18.33-4.59a1.45,1.45,0,0,1,1.8,1.39l0,4.64a1.43,1.43,0,0,1-1.09,1.33l-11.67,3,.06,7.13,9.64-2.47a1.44,1.44,0,0,1,1.8,1.39l0,4.64A1.43,1.43,0,0,1,161,44.1l-10.33,2.68.06,7.35,10.92-2.86a1.45,1.45,0,0,1,1.81,1.39l0,4.55a1.45,1.45,0,0,1-1.07,1.41q-9.12,2.43-18.24,4.82A1.45,1.45,0,0,1,142.4,62Z"/><path class="cls-4" d="M192.17,48V14.43a1.54,1.54,0,0,1,1.14-1.49q5-1.35,10-2.73c3.14-.95,7-1.36,9.83.42s3.74,5.42,3.45,8.58v1.64A16.19,16.19,0,0,1,213,32.25a19,19,0,0,1-9.79,6.15l-2.75.74v7.47a1.54,1.54,0,0,1-1.14,1.49l-5.21,1.39A1.54,1.54,0,0,1,192.17,48Zm8.31-16.35,2.86-.78a6.3,6.3,0,0,0,5-6.38c0-1.61,0-2.42,0-4,0-2.8-1.63-3.74-4.9-2.84l-2.92.8Q200.48,25,200.47,31.65Z"/><path class="cls-4" d="M243.11,76.7V43.13a1.54,1.54,0,0,1,1.14-1.49q5-1.35,10-2.73c3.14-.95,7-1.36,9.83.42s3.74,5.42,3.45,8.58v1.64A16.19,16.19,0,0,1,264,61a19,19,0,0,1-9.79,6.15l-2.75.74v7.47a1.54,1.54,0,0,1-1.14,1.49l-5.21,1.39A1.54,1.54,0,0,1,243.11,76.7Zm8.31-16.35,2.86-.78a6.3,6.3,0,0,0,5-6.38c0-1.61,0-2.42,0-4,0-2.8-1.63-3.74-4.9-2.84l-2.92.8Q251.43,53.74,251.42,60.35Z"/><path class="cls-4" d="M167.26,55.18,167,20.89a1.45,1.45,0,0,1,1.09-1.41l18.33-4.59a1.45,1.45,0,0,1,1.8,1.39l0,4.64a1.43,1.43,0,0,1-1.09,1.33l-11.67,3,.06,7.13,9.64-2.47a1.44,1.44,0,0,1,1.8,1.39l0,4.64a1.43,1.43,0,0,1-1.08,1.33l-10.33,2.68.06,7.35,10.92-2.86a1.45,1.45,0,0,1,1.81,1.39l0,4.55a1.45,1.45,0,0,1-1.07,1.41q-9.12,2.43-18.24,4.82A1.45,1.45,0,0,1,167.26,55.18Z"/><path class="cls-4" d="M188.72,68.3a14.46,14.46,0,0,1,3.34-9.5,16.78,16.78,0,0,1,8.69-5.37c2.87-.74,6.17-.72,8.71,1s3.48,4.79,3.43,7.72L213,75.69a14.61,14.61,0,0,1-3.31,9.46A16.91,16.91,0,0,1,201,90.61c-2.87.78-6.17.8-8.72-.91s-3.53-4.8-3.48-7.76Zm8.15,11.58A3.31,3.31,0,0,0,198,82.64a3.35,3.35,0,0,0,3,.35,5.16,5.16,0,0,0,4-5.22l-.1-13.58a3.32,3.32,0,0,0-1.11-2.76,3.36,3.36,0,0,0-3-.37,5.13,5.13,0,0,0-4.05,5.2Z"/><path class="cls-4" d="M248.11,92.35a15.09,15.09,0,0,1,3.48-9.91,17.51,17.51,0,0,1,9.06-5.6c3-.77,6.43-.75,9.08,1s3.63,5,3.58,8.05l.08,14.12a15.24,15.24,0,0,1-3.45,9.87,17.64,17.64,0,0,1-9,5.69c-3,.81-6.43.83-9.1-1s-3.68-5-3.63-8.09Zm8.5,12.08a3.45,3.45,0,0,0,1.16,2.88,3.49,3.49,0,0,0,3.13.36,5.39,5.39,0,0,0,4.21-5.45L265,88.06a3.46,3.46,0,0,0-1.15-2.88,3.51,3.51,0,0,0-3.13-.38,5.35,5.35,0,0,0-4.23,5.43Z"/><path class="cls-4" d="M215.5,60.88a14.46,14.46,0,0,1,3.34-9.5A16.78,16.78,0,0,1,227.52,46c2.87-.74,6.17-.72,8.71,1s3.48,4.79,3.43,7.72l.08,13.54a14.61,14.61,0,0,1-3.31,9.46,16.91,16.91,0,0,1-8.61,5.46c-2.87.78-6.17.8-8.72-.91s-3.53-4.8-3.48-7.76Zm8.15,11.58a3.31,3.31,0,0,0,1.11,2.77,3.35,3.35,0,0,0,3,.35,5.16,5.16,0,0,0,4-5.22l-.1-13.58A3.32,3.32,0,0,0,230.58,54a3.36,3.36,0,0,0-3-.37,5.13,5.13,0,0,0-4.05,5.2Z"/><path class="cls-4" d="M245.75,107.39l0,1.53a12.1,12.1,0,0,1-3.13,8.34,17.77,17.77,0,0,1-9.08,5.09q-6,1.52-11.94,3a1.52,1.52,0,0,1-1.86-1.5l-.06-34.11a1.54,1.54,0,0,1,1.13-1.5c4-1.07,8.07-2,12.08-3.09,2.74-.78,6.07-1.2,8.61.25,2,1.12,3,3.17,3,6v.91a9.62,9.62,0,0,1-5.56,9.34C242.78,100.91,245.89,103.27,245.75,107.39ZM235.4,98.26a4.88,4.88,0,0,0,.84-2.93v-.73a2,2,0,0,0-1-1.8,3.94,3.94,0,0,0-2.94,0l-4.21,1.1,0,7.26,3.89-1A5.74,5.74,0,0,0,235.4,98.26Zm1,14.89a3.92,3.92,0,0,0,1.15-2.83v-.57q0-2.07-1.07-2.64a5.23,5.23,0,0,0-3.45.08l-4.79,1.23,0,7.76,4.58-1.17A7.14,7.14,0,0,0,236.36,113.16Z"/><path class="cls-3" d="M220.14,31.07,227,33.57a2.25,2.25,0,0,1,1.11,3.35h0a2.25,2.25,0,0,1-3.46.38l-5.18-5.08A.69.69,0,0,1,220.14,31.07Z"/><path class="cls-5" d="M37.85,99.54S24.44,102.73,24.44,118a22,22,0,0,0,20.89,3.74S48.85,107,37.85,99.54Z"/><path class="cls-6" d="M33,102.14s7.22,3.31,7.46,10.53-10.89,5.33-11.24-.83A12.45,12.45,0,0,1,33,102.14Z"/><g class="cls-7"><ellipse cx="90.07" cy="144.87" rx="42.01" ry="8.14"/></g><path class="cls-3" d="M145.19,73.76c-1.12-3.44-3.19-5.86-5.19-5.62h0L127.06,71l6.82,18.6,10.65-8.42C146.09,80.61,146.34,77.31,145.19,73.76Z"/><path class="cls-8" d="M25.37,76.87l-9.64-6.14a.42.42,0,0,1,.24-.65l2.12-.53L14,64.07a.22.22,0,0,1,.3-.32l9.42,6.07a.42.42,0,0,1-.09.75l-1.92.72L25.93,77"/><path class="cls-8" d="M22.61,81.4,8.9,83.27c-.37-.07-.58-.41-.41-.66l1.27-1.84-8.5-1.36C1,79.37.91,79,1.21,79l13.46-1.78c.42-.06.79.32.62.63l-.93,1.85,8.84,1.46"/><path class="cls-8" d="M161.93,55.54l-5.44,7.11,1.95.72c.34.11.33.64,0,.89l-11,7.92c-.24.18-.46-.11-.27-.36L152.37,65l-2.18-.47c-.3-.06-.38-.46-.15-.76l11.27-8"/><path class="cls-9" d="M143.21,123.14s3.41-9.24-2.73-33.12c-.23-.9-2.47-1.31-2.47-1.31s1.46-2.6,1.3-3.19c-7-26.94-27.83-46.19-51.82-46.19S41.47,57.08,37,82.63c-.46,2.61-1.12,9.23-1.56,11.68-.18,1,1.91,3,1.91,3s-2.62,1.08-2.71,1.6c-3.36,19.06-.69,29.85-.69,29.85S96.6,159.46,143.21,123.14Z"/><g class="cls-10"><polygon class="cls-11" points="46.89 98.33 46.66 98.77 46.6 98.77 46.6 98.33 46.89 98.33"/><polygon class="cls-12" points="47.28 98.33 47.05 98.77 46.66 98.77 46.89 98.33 47.28 98.33"/><polygon class="cls-13" points="47.05 98.77 47.28 98.33 47.34 98.33 47.34 98.77 47.05 98.77"/></g><g class="cls-14"><polygon class="cls-15" points="56.28 43.25 43 70.48 43 43.25 56.28 43.25"/><polygon class="cls-15" points="56.67 43.25 43 71.27 43 70.48 56.28 43.25 56.67 43.25"/><polygon class="cls-16" points="57.06 43.25 43 72.05 43 71.27 56.67 43.25 57.06 43.25"/><polygon class="cls-17" points="57.45 43.25 43 72.83 43 72.05 57.06 43.25 57.45 43.25"/><polygon class="cls-18" points="57.83 43.25 43 73.61 43 72.83 57.45 43.25 57.83 43.25"/><polygon class="cls-19" points="58.22 43.25 43 74.39 43 73.61 57.83 43.25 58.22 43.25"/><polygon class="cls-20" points="58.61 43.25 43 75.18 43 74.39 58.22 43.25 58.61 43.25"/><polygon class="cls-21" points="59 43.25 43 75.96 43 75.18 58.61 43.25 59 43.25"/><polygon class="cls-22" points="59.38 43.25 43 76.74 43 75.96 59 43.25 59.38 43.25"/><polygon class="cls-23" points="59.77 43.25 43 77.52 43 76.74 59.38 43.25 59.77 43.25"/><polygon class="cls-24" points="60.16 43.25 43 78.31 43 77.52 59.77 43.25 60.16 43.25"/><polygon class="cls-25" points="60.55 43.25 43 79.09 43 78.31 60.16 43.25 60.55 43.25"/><polygon class="cls-26" points="60.94 43.25 43 79.87 43 79.09 60.55 43.25 60.94 43.25"/><polygon class="cls-27" points="61.32 43.25 43 80.65 43 79.87 60.94 43.25 61.32 43.25"/><polygon class="cls-28" points="61.71 43.25 43 81.43 43 80.65 61.32 43.25 61.71 43.25"/><polygon class="cls-29" points="62.1 43.25 43 82.22 43 81.43 61.71 43.25 62.1 43.25"/><polygon class="cls-30" points="62.49 43.25 43 83 43 82.22 62.1 43.25 62.49 43.25"/><polygon class="cls-31" points="62.88 43.25 43 83.78 43 83 62.49 43.25 62.88 43.25"/><polygon class="cls-32" points="63.26 43.25 43 84.56 43 83.78 62.88 43.25 63.26 43.25"/><polygon class="cls-33" points="63.65 43.25 43 85.35 43 84.56 63.26 43.25 63.65 43.25"/><polygon class="cls-34" points="64.04 43.25 43 86.13 43 85.35 63.65 43.25 64.04 43.25"/><polygon class="cls-35" points="64.43 43.25 43 86.91 43 86.13 64.04 43.25 64.43 43.25"/><polygon class="cls-36" points="64.81 43.25 43 87.69 43 86.91 64.43 43.25 64.81 43.25"/><polygon class="cls-37" points="65.2 43.25 43 88.47 43 87.69 64.81 43.25 65.2 43.25"/><polygon class="cls-38" points="65.59 43.25 43 89.26 43 88.47 65.2 43.25 65.59 43.25"/><polygon class="cls-39" points="65.98 43.25 43 90.04 43 89.26 65.59 43.25 65.98 43.25"/><polygon class="cls-40" points="66.37 43.25 43 90.82 43 90.04 65.98 43.25 66.37 43.25"/><polygon class="cls-41" points="66.75 43.25 43 91.6 43 90.82 66.37 43.25 66.75 43.25"/><polygon class="cls-42" points="67.14 43.25 43 92.39 43 91.6 66.75 43.25 67.14 43.25"/><polygon class="cls-43" points="67.53 43.25 43 93.17 43 92.39 67.14 43.25 67.53 43.25"/><polygon class="cls-44" points="67.92 43.25 43 93.95 43 93.17 67.53 43.25 67.92 43.25"/><polygon class="cls-45" points="68.31 43.25 43 94.73 43 93.95 67.92 43.25 68.31 43.25"/><polygon class="cls-46" points="68.69 43.25 43 95.52 43 94.73 68.31 43.25 68.69 43.25"/><polygon class="cls-47" points="69.08 43.25 43 96.3 43 95.52 68.69 43.25 69.08 43.25"/><polygon class="cls-48" points="69.47 43.25 43 97.08 43 96.3 69.08 43.25 69.47 43.25"/><polygon class="cls-49" points="69.86 43.25 43 97.86 43 97.08 69.47 43.25 69.86 43.25"/><polygon class="cls-50" points="70.25 43.25 43 98.64 43 97.86 69.86 43.25 70.25 43.25"/><polygon class="cls-51" points="70.63 43.25 43 99.43 43 98.64 70.25 43.25 70.63 43.25"/><polygon class="cls-52" points="71.02 43.25 43 100.21 43 99.43 70.63 43.25 71.02 43.25"/><polygon class="cls-53" points="71.41 43.25 43 100.99 43 100.21 71.02 43.25 71.41 43.25"/><polygon class="cls-54" points="71.8 43.25 43 101.77 43 100.99 71.41 43.25 71.8 43.25"/><polygon class="cls-55" points="72.19 43.25 43 102.56 43 101.77 71.8 43.25 72.19 43.25"/><polygon class="cls-56" points="72.57 43.25 43 103.34 43 102.56 72.19 43.25 72.57 43.25"/><polygon class="cls-57" points="72.96 43.25 43 104.12 43 103.34 72.57 43.25 72.96 43.25"/><polygon class="cls-58" points="73.35 43.25 43 104.9 43 104.12 72.96 43.25 73.35 43.25"/><polygon class="cls-11" points="73.74 43.25 43 105.69 43 104.9 73.35 43.25 73.74 43.25"/><polygon class="cls-12" points="74.13 43.25 43 106.47 43 105.69 73.74 43.25 74.13 43.25"/><polygon class="cls-13" points="74.51 43.25 43 107.25 43 106.47 74.13 43.25 74.51 43.25"/><polygon class="cls-59" points="74.9 43.25 43 108.03 43 107.25 74.51 43.25 74.9 43.25"/><polygon class="cls-60" points="75.29 43.25 43 108.81 43 108.03 74.9 43.25 75.29 43.25"/><polygon class="cls-61" points="75.68 43.25 43 109.6 43 108.81 75.29 43.25 75.68 43.25"/><polygon class="cls-62" points="76.06 43.25 43 110.38 43 109.6 75.68 43.25 76.06 43.25"/><polygon class="cls-63" points="76.45 43.25 43 111.16 43 110.38 76.06 43.25 76.45 43.25"/><polygon class="cls-9" points="76.84 43.25 43 111.94 43 111.16 76.45 43.25 76.84 43.25"/><polygon class="cls-9" points="80.83 43.25 88 46.71 88 132.25 49.94 132.25 43 129.73 43 111.94 76.84 43.25 80.83 43.25"/></g><g class="cls-64"><polygon class="cls-11" points="135.31 93.5 135.05 93.21 135.31 93.21 135.31 93.5 135.31 93.5"/><polygon class="cls-12" points="134.89 93.5 134.64 93.21 135.05 93.21 135.31 93.5 134.89 93.5"/><polygon class="cls-13" points="134.64 93.21 134.89 93.5 134.58 93.5 134.58 93.21 134.64 93.21"/></g><g class="cls-65"><polygon class="cls-15" points="142 74.94 120.59 43.25 142 43.25 142 74.94"/><polygon class="cls-15" points="142 75.57 120.17 43.25 120.59 43.25 142 74.94 142 75.57"/><polygon class="cls-16" points="142 76.2 119.75 43.25 120.17 43.25 142 75.57 142 76.2"/><polygon class="cls-17" points="142 76.83 119.34 43.25 119.75 43.25 142 76.2 142 76.83"/><polygon class="cls-18" points="142 77.46 118.92 43.25 119.34 43.25 142 76.83 142 77.46"/><polygon class="cls-19" points="142 78.09 118.5 43.25 118.92 43.25 142 77.46 142 78.09"/><polygon class="cls-20" points="142 78.72 118.08 43.25 118.5 43.25 142 78.09 142 78.72"/><polygon class="cls-21" points="142 79.35 117.67 43.25 118.08 43.25 142 78.72 142 79.35"/><polygon class="cls-22" points="142 79.98 117.25 43.25 117.67 43.25 142 79.35 142 79.98"/><polygon class="cls-23" points="142 80.61 116.83 43.25 117.25 43.25 142 79.98 142 80.61"/><polygon class="cls-24" points="142 81.23 116.42 43.25 116.83 43.25 142 80.61 142 81.23"/><polygon class="cls-25" points="142 81.86 116 43.25 116.42 43.25 142 81.23 142 81.86"/><polygon class="cls-26" points="142 82.49 115.58 43.25 116 43.25 142 81.86 142 82.49"/><polygon class="cls-27" points="142 83.12 115.17 43.25 115.58 43.25 142 82.49 142 83.12"/><polygon class="cls-28" points="142 83.75 114.75 43.25 115.17 43.25 142 83.12 142 83.75"/><polygon class="cls-29" points="142 84.38 114.33 43.25 114.75 43.25 142 83.75 142 84.38"/><polygon class="cls-30" points="142 85.01 113.92 43.25 114.33 43.25 142 84.38 142 85.01"/><polygon class="cls-31" points="142 85.64 113.5 43.25 113.92 43.25 142 85.01 142 85.64"/><polygon class="cls-32" points="142 86.27 113.08 43.25 113.5 43.25 142 85.64 142 86.27"/><polygon class="cls-33" points="142 86.9 112.67 43.25 113.08 43.25 142 86.27 142 86.9"/><polygon class="cls-34" points="142 87.53 112.25 43.25 112.67 43.25 142 86.9 142 87.53"/><polygon class="cls-35" points="142 88.16 111.83 43.25 112.25 43.25 142 87.53 142 88.16"/><polygon class="cls-36" points="142 88.79 111.42 43.25 111.83 43.25 142 88.16 142 88.79"/><polygon class="cls-37" points="142 89.42 111 43.25 111.42 43.25 142 88.79 142 89.42"/><polygon class="cls-38" points="142 90.05 110.58 43.25 111 43.25 142 89.42 142 90.05"/><polygon class="cls-39" points="142 90.68 110.17 43.25 110.58 43.25 142 90.05 142 90.68"/><polygon class="cls-40" points="142 91.31 109.75 43.25 110.17 43.25 142 90.68 142 91.31"/><polygon class="cls-41" points="142 91.94 109.33 43.25 109.75 43.25 142 91.31 142 91.94"/><polygon class="cls-42" points="142 92.57 108.92 43.25 109.33 43.25 142 91.94 142 92.57"/><polygon class="cls-43" points="142 93.2 108.5 43.25 108.92 43.25 142 92.57 142 93.2"/><polygon class="cls-44" points="142 93.83 108.08 43.25 108.5 43.25 142 93.2 142 93.83"/><polygon class="cls-45" points="142 94.45 107.67 43.25 108.08 43.25 142 93.83 142 94.45"/><polygon class="cls-46" points="142 95.08 107.25 43.25 107.67 43.25 142 94.45 142 95.08"/><polygon class="cls-47" points="142 95.71 106.83 43.25 107.25 43.25 142 95.08 142 95.71"/><polygon class="cls-48" points="142 96.34 106.42 43.25 106.83 43.25 142 95.71 142 96.34"/><polygon class="cls-49" points="142 96.97 106 43.25 106.42 43.25 142 96.34 142 96.97"/><polygon class="cls-50" points="142 97.6 105.58 43.25 106 43.25 142 96.97 142 97.6"/><polygon class="cls-51" points="142 98.23 105.17 43.25 105.58 43.25 142 97.6 142 98.23"/><polygon class="cls-52" points="142 98.86 104.75 43.25 105.17 43.25 142 98.23 142 98.86"/><polygon class="cls-53" points="142 99.49 104.33 43.25 104.75 43.25 142 98.86 142 99.49"/><polygon class="cls-54" points="142 100.12 103.92 43.25 104.33 43.25 142 99.49 142 100.12"/><polygon class="cls-55" points="142 100.75 103.5 43.25 103.92 43.25 142 100.12 142 100.75"/><polygon class="cls-56" points="142 101.38 103.08 43.25 103.5 43.25 142 100.75 142 101.38"/><polygon class="cls-57" points="142 102.01 102.67 43.25 103.08 43.25 142 101.38 142 102.01"/><polygon class="cls-58" points="142 102.64 102.25 43.25 102.67 43.25 142 102.01 142 102.64"/><polygon class="cls-11" points="142 103.27 101.83 43.25 102.25 43.25 142 102.64 142 103.27"/><polygon class="cls-12" points="142 103.9 101.41 43.25 101.83 43.25 142 103.27 142 103.9"/><polygon class="cls-13" points="142 104.53 101 43.25 101.41 43.25 142 103.9 142 104.53"/><polygon class="cls-59" points="142 105.16 100.58 43.25 101 43.25 142 104.53 142 105.16"/><polygon class="cls-60" points="142 105.79 100.16 43.25 100.58 43.25 142 105.16 142 105.79"/><polygon class="cls-61" points="142 106.42 99.75 43.25 100.16 43.25 142 105.79 142 106.42"/><polygon class="cls-62" points="142 107.05 99.33 43.25 99.75 43.25 142 106.42 142 107.05"/><polygon class="cls-63" points="142 107.67 98.91 43.25 99.33 43.25 142 107.05 142 107.67"/><polygon class="cls-9" points="142 108.3 98.5 43.25 98.91 43.25 142 107.67 142 108.3"/><polygon class="cls-9" points="142 124.4 135.37 130.25 90 130.25 90 46.74 95.59 43.25 98.5 43.25 142 108.3 142 124.4"/></g><path class="cls-4" d="M66.58,92.1c2-.7,3.63-3.2,4-6.35.45-3.56-.87-6.72-3-7.53-2,.7-3.63,3.2-4,6.35C63.11,88.12,64.43,91.29,66.58,92.1Z"/><path class="cls-66" d="M63.57,84.56c.4-3.15,2.07-5.65,4-6.35a3.1,3.1,0,0,0-.7-.18c-2.56-.33-5,2.6-5.54,6.53s1.16,7.38,3.72,7.71a3.21,3.21,0,0,0,1.5-.18C64.43,91.29,63.11,88.12,63.57,84.56Z"/><path class="cls-4" d="M124.91,87.45c-2-.48-4-2.79-4.71-5.87-.84-3.49.12-6.78,2.17-7.82,2,.48,4,2.79,4.71,5.87C127.92,83.11,127,86.4,124.91,87.45Z"/><path class="cls-66" d="M127.08,79.63c-.75-3.09-2.68-5.39-4.71-5.87a3.1,3.1,0,0,1,.68-.25c2.5-.61,5.29,2,6.22,5.88s-.34,7.47-2.85,8.07a3.21,3.21,0,0,1-1.51,0C127,86.4,127.92,83.11,127.08,79.63Z"/><polyline class="cls-3" points="31.39 73.85 44.96 74.53 41.48 93.97 28.11 86.58"/><ellipse class="cls-3" cx="85.67" cy="40.98" rx="6.19" ry="2.33"/><circle class="cls-4" cx="77.81" cy="4.84" r="3.54"/><path class="cls-3" d="M79,6.82l9.66,35.31-5-.79L77.14,6.75A.84.84,0,0,1,78,6,1,1,0,0,1,79,6.82Z"/><ellipse class="cls-9" cx="29.92" cy="80.25" rx="6.88" ry="3.11" transform="translate(-53.89 97.93) rotate(-81.46)"/><g class="cls-67"><polygon class="cls-15" points="59 102.32 56.88 96.25 59 96.25 59 102.32"/><polygon class="cls-15" points="57 103.58 56.45 96.25 56.88 96.25 57 102.32 57 103.58"/><polygon class="cls-16" points="57 104.59 57.64 103.86 56.02 96.25 56.45 96.25 57 103.58 57 104.59"/><polygon class="cls-17" points="58.36 103.86 57.98 103.61 55.59 96.25 56.02 96.25 58.36 103.86"/><polygon class="cls-18" points="57.98 103.69 57.66 104.25 57.58 104.25 55.16 96.25 55.59 96.25 57.98 103.69"/><polygon class="cls-19" points="57.15 104.25 54.73 96.25 55.16 96.25 57.58 104.25 57.15 104.25"/><polygon class="cls-20" points="56.72 104.25 54.3 96.25 54.73 96.25 57.15 104.25 56.72 104.25"/><polygon class="cls-21" points="56.29 104.25 53.87 96.25 54.3 96.25 56.72 104.25 56.29 104.25"/><polygon class="cls-22" points="55.86 104.25 53.44 96.25 53.87 96.25 56.29 104.25 55.86 104.25"/><polygon class="cls-23" points="55.43 104.25 53.01 96.25 53.44 96.25 55.86 104.25 55.43 104.25"/><polygon class="cls-24" points="55 104.25 52.58 96.25 53.01 96.25 55.43 104.25 55 104.25"/><polygon class="cls-25" points="54.57 104.25 52.15 96.25 52.58 96.25 55 104.25 54.57 104.25"/><polygon class="cls-26" points="54.14 104.25 51.72 96.25 52.15 96.25 54.57 104.25 54.14 104.25"/><polygon class="cls-27" points="53.71 104.25 51.29 96.25 51.72 96.25 54.14 104.25 53.71 104.25"/><polygon class="cls-28" points="53.28 104.25 50.86 96.25 51.29 96.25 53.71 104.25 53.28 104.25"/><polygon class="cls-29" points="52.85 104.25 50.43 96.25 50.86 96.25 53.28 104.25 52.85 104.25"/><polygon class="cls-30" points="52.42 104.25 50 96.25 50.43 96.25 52.85 104.25 52.42 104.25"/><polygon class="cls-31" points="51.99 104.25 49.57 96.25 50 96.25 52.42 104.25 51.99 104.25"/><polygon class="cls-32" points="51.56 104.25 49.14 96.25 49.57 96.25 51.99 104.25 51.56 104.25"/><polygon class="cls-33" points="51.13 104.25 48.71 96.25 49.14 96.25 51.56 104.25 51.13 104.25"/><polygon class="cls-34" points="50.7 104.25 48.28 96.25 48.71 96.25 51.13 104.25 50.7 104.25"/><polygon class="cls-35" points="50.27 104.25 47.85 96.25 48.28 96.25 50.7 104.25 50.27 104.25"/><polygon class="cls-36" points="49.84 104.25 47.42 96.25 47.85 96.25 50.27 104.25 49.84 104.25"/><polygon class="cls-37" points="49.41 104.25 46.99 96.25 47.42 96.25 49.84 104.25 49.41 104.25"/><polygon class="cls-38" points="48.98 104.25 46.56 96.25 46.99 96.25 49.41 104.25 48.98 104.25"/><polygon class="cls-39" points="48.55 104.25 46.13 96.25 46.56 96.25 48.98 104.25 48.55 104.25"/><polygon class="cls-40" points="48.12 104.25 45.7 96.25 46.13 96.25 48.55 104.25 48.12 104.25"/><polygon class="cls-41" points="47.69 104.25 45.27 96.25 45.7 96.25 48.12 104.25 47.69 104.25"/><polygon class="cls-42" points="47.26 104.25 44.84 96.25 45.27 96.25 47.69 104.25 47.26 104.25"/><polygon class="cls-43" points="46.83 104.25 44.41 96.25 44.84 96.25 47.26 104.25 46.83 104.25"/><polygon class="cls-44" points="46.4 104.25 43.98 96.25 44.41 96.25 46.83 104.25 46.4 104.25"/><polygon class="cls-45" points="45.97 104.25 43.55 96.25 43.98 96.25 46.4 104.25 45.97 104.25"/><polygon class="cls-46" points="45.54 104.25 43.12 96.25 43.55 96.25 45.97 104.25 45.54 104.25"/><polygon class="cls-47" points="45.11 104.25 42.69 96.25 43.12 96.25 45.54 104.25 45.11 104.25"/><polygon class="cls-48" points="44.68 104.25 42.26 96.25 42.69 96.25 45.11 104.25 44.68 104.25"/><polygon class="cls-49" points="44.25 104.25 41.83 96.25 42.26 96.25 44.68 104.25 44.25 104.25"/><polygon class="cls-50" points="43.82 104.25 41.4 96.25 41.83 96.25 44.25 104.25 43.82 104.25"/><polygon class="cls-51" points="43.39 104.25 40.97 96.25 41.4 96.25 43.82 104.25 43.39 104.25"/><polygon class="cls-52" points="42.95 104.25 40.53 96.25 40.97 96.25 43.39 104.25 42.95 104.25"/><polygon class="cls-53" points="42.52 104.25 40.1 96.25 40.53 96.25 42.95 104.25 42.52 104.25"/><polygon class="cls-54" points="42.09 104.25 39.67 96.25 40.1 96.25 42.52 104.25 42.09 104.25"/><polygon class="cls-55" points="41.66 104.25 39.24 96.25 39.67 96.25 42.09 104.25 41.66 104.25"/><polygon class="cls-56" points="41.23 104.25 38.81 96.25 39.24 96.25 41.66 104.25 41.23 104.25"/><polygon class="cls-57" points="40.8 104.25 38.38 96.25 38.81 96.25 41.23 104.25 40.8 104.25"/><polygon class="cls-58" points="40.37 104.25 37.95 96.25 38.38 96.25 40.8 104.25 40.37 104.25"/><polygon class="cls-11" points="39.94 104.25 37.52 96.25 37.95 96.25 40.37 104.25 39.94 104.25"/><polygon class="cls-12" points="39.51 104.25 37.09 96.25 37.52 96.25 39.94 104.25 39.51 104.25"/><polygon class="cls-13" points="39.08 104.25 36.66 96.25 37.09 96.25 39.51 104.25 39.08 104.25"/><polygon class="cls-59" points="38.65 104.25 36.23 96.25 36.66 96.25 39.08 104.25 38.65 104.25"/><polygon class="cls-60" points="38.22 104.25 35.8 96.25 36.23 96.25 38.65 104.25 38.22 104.25"/><polygon class="cls-61" points="37.79 104.25 35.37 96.25 35.8 96.25 38.22 104.25 37.79 104.25"/><polygon class="cls-62" points="37.36 104.25 34.94 96.25 35.37 96.25 37.79 104.25 37.36 104.25"/><polygon class="cls-63" points="36.93 104.25 34.51 96.25 34.94 96.25 37.36 104.25 36.93 104.25"/><polygon class="cls-9" points="36.5 104.25 33 98.88 33 96.25 34.51 96.25 36.93 104.25 36.5 104.25"/><polygon class="cls-9" points="35 98.88 36.5 104.25 35 104.25 35 98.88"/></g><g class="cls-68"><polygon class="cls-18" points="61 117.85 60.54 124.25 61 124.25 61 117.85"/><polygon class="cls-19" points="60.3 114.25 61.4 122.25 60.54 122.25 59 117.85 59 114.25 60.3 114.25"/><polygon class="cls-20" points="61.17 114.25 62.27 122.25 61.4 122.25 60.3 114.25 61.17 114.25"/><polygon class="cls-21" points="62.03 114.25 63.13 122.25 62.27 122.25 61.17 114.25 62.03 114.25"/><polygon class="cls-22" points="62.9 114.25 64 122.25 63.13 122.25 62.03 114.25 62.9 114.25"/><polygon class="cls-23" points="63.76 114.25 64.86 122.25 64 122.25 62.9 114.25 63.76 114.25"/><polygon class="cls-24" points="64.62 114.25 65.73 122.25 64.86 122.25 63.76 114.25 64.62 114.25"/><polygon class="cls-25" points="65.49 114.25 66.59 122.25 65.73 122.25 64.62 114.25 65.49 114.25"/><polygon class="cls-26" points="66.35 114.25 67.46 122.25 66.59 122.25 65.49 114.25 66.35 114.25"/><polygon class="cls-27" points="67.22 114.25 68.32 122.25 67.46 122.25 66.35 114.25 67.22 114.25"/><polygon class="cls-28" points="68.08 114.25 69.19 122.25 68.32 122.25 67.22 114.25 68.08 114.25"/><polygon class="cls-29" points="68.95 114.25 70.05 122.25 69.19 122.25 68.08 114.25 68.95 114.25"/><polygon class="cls-30" points="69.81 114.25 70.92 122.25 70.05 122.25 68.95 114.25 69.81 114.25"/><polygon class="cls-31" points="70.68 114.25 71.78 122.25 70.92 122.25 69.81 114.25 70.68 114.25"/><polygon class="cls-32" points="71.54 114.25 72.64 122.25 71.78 122.25 70.68 114.25 71.54 114.25"/><polygon class="cls-33" points="72.41 114.25 73.51 122.25 72.64 122.25 71.54 114.25 72.41 114.25"/><polygon class="cls-34" points="73.27 114.25 74.37 122.25 73.51 122.25 72.41 114.25 73.27 114.25"/><polygon class="cls-35" points="74.14 114.25 75.24 122.25 74.37 122.25 73.27 114.25 74.14 114.25"/><polygon class="cls-36" points="75 114.25 76.1 122.25 75.24 122.25 74.14 114.25 75 114.25"/><polygon class="cls-37" points="75.86 114.25 76.97 122.25 76.1 122.25 75 114.25 75.86 114.25"/><polygon class="cls-38" points="76.73 114.25 77.83 122.25 76.97 122.25 75.86 114.25 76.73 114.25"/><polygon class="cls-39" points="77.59 114.25 78.7 122.25 77.83 122.25 76.73 114.25 77.59 114.25"/><polygon class="cls-40" points="78.46 114.25 79.56 122.25 78.7 122.25 77.59 114.25 78.46 114.25"/><polygon class="cls-41" points="79.32 114.25 80.43 122.25 79.56 122.25 78.46 114.25 79.32 114.25"/><polygon class="cls-42" points="80.19 114.25 81.29 122.25 80.43 122.25 79.32 114.25 80.19 114.25"/><polygon class="cls-43" points="81.05 114.25 82.16 122.25 81.29 122.25 80.19 114.25 81.05 114.25"/><polygon class="cls-44" points="81.92 114.25 83.02 122.25 82.16 122.25 81.05 114.25 81.92 114.25"/><polygon class="cls-45" points="82.78 114.25 83.89 122.25 83.02 122.25 81.92 114.25 82.78 114.25"/><polygon class="cls-46" points="83.65 114.25 84.75 122.25 83.89 122.25 82.78 114.25 83.65 114.25"/><polygon class="cls-47" points="84.51 114.25 85.61 122.25 84.75 122.25 83.65 114.25 84.51 114.25"/><polygon class="cls-48" points="85.38 114.25 86.48 122.25 85.61 122.25 84.51 114.25 85.38 114.25"/><polygon class="cls-49" points="86.24 114.25 87.34 122.25 86.48 122.25 85.38 114.25 86.24 114.25"/><polygon class="cls-50" points="87.11 114.25 88.21 122.25 87.34 122.25 86.24 114.25 87.11 114.25"/><polygon class="cls-51" points="87.97 114.25 89.07 122.25 88.21 122.25 87.11 114.25 87.97 114.25"/><polygon class="cls-52" points="88.84 114.25 89.94 122.25 89.07 122.25 87.97 114.25 88.84 114.25"/><polygon class="cls-53" points="89.7 114.25 90.8 122.25 89.94 122.25 88.84 114.25 89.7 114.25"/><polygon class="cls-54" points="90.56 114.25 91.67 122.25 90.8 122.25 89.7 114.25 90.56 114.25"/><polygon class="cls-55" points="91.43 114.25 92.53 123.09 92.36 122.25 91.67 122.25 90.56 114.25 91.43 114.25"/><polygon class="cls-56" points="92.29 114.25 93.38 123.67 92.53 123.86 91.43 114.25 92.29 114.25"/><polygon class="cls-57" points="93.16 114.25 94.24 123.58 93.38 123.77 92.29 114.25 93.16 114.25"/><polygon class="cls-58" points="94.02 114.25 95.09 123.48 94.24 123.67 93.16 114.25 94.02 114.25"/><polygon class="cls-11" points="94.89 114.25 96 118.44 96 123.25 95.39 123.48 94.02 114.25 94.89 114.25"/><polygon class="cls-12" points="96 118.44 94.89 114.25 96 114.25 96 118.44"/></g><g class="cls-69"><polygon class="cls-15" points="140 91.99 137.65 89.16 138.4 88.25 140 88.25 140 91.99"/><polygon class="cls-15" points="140 92.23 137.52 89.63 137.54 89.5 140 91.99 140 92.23"/><polygon class="cls-16" points="140 92.47 137.4 89.76 137.42 89.63 140 92.23 140 92.47"/><polygon class="cls-17" points="140 92.72 137.28 89.88 137.29 89.76 140 92.47 140 92.72"/><polygon class="cls-18" points="140 92.96 137.16 90.01 137.17 89.88 140 92.72 140 92.96"/><polygon class="cls-19" points="140 93.2 137.04 90.14 137.05 90.01 140 92.96 140 93.2"/><polygon class="cls-20" points="140 93.45 136.91 90.26 136.93 90.14 140 93.2 140 93.45"/><polygon class="cls-21" points="140 93.69 136.79 90.39 136.81 90.26 140 93.45 140 93.69"/><polygon class="cls-22" points="140 93.93 136.67 90.51 136.69 90.39 140 93.69 140 93.93"/><polygon class="cls-23" points="140 94.18 136.55 90.64 136.56 90.51 140 93.93 140 94.18"/><polygon class="cls-24" points="141 94.42 136.93 90.76 137.19 90.64 141 94.18 141 94.42"/><polygon class="cls-25" points="142 94.66 137.31 90.89 137.82 90.76 142 94.42 142 94.66"/><polygon class="cls-26" points="142 94.91 137.19 91.02 137.7 90.89 142 94.66 142 94.91"/><polygon class="cls-27" points="142 95.15 137.06 91.14 137.58 91.02 142 94.91 142 95.15"/><polygon class="cls-28" points="142 95.39 136.94 91.27 137.46 91.14 142 95.15 142 95.39"/><polygon class="cls-29" points="142 95.64 136.82 91.39 137.34 91.27 142 95.39 142 95.64"/><polygon class="cls-30" points="142 95.88 136.7 91.52 137.21 91.39 142 95.64 142 95.88"/><polygon class="cls-31" points="142 96.13 136.58 91.65 137.09 91.52 142 95.88 142 96.13"/><polygon class="cls-32" points="142 96.37 136.46 91.77 136.97 91.65 142 96.13 142 96.37"/><polygon class="cls-33" points="142 96.61 136.33 91.9 136.85 91.77 142 96.37 142 96.61"/><polygon class="cls-34" points="142 96.86 136 92.08 136 91.96 136.59 91.9 142 96.61 142 96.86"/><polygon class="cls-35" points="142 97.1 136 92.33 136 92.08 142 96.86 142 97.1"/><polygon class="cls-36" points="142 97.34 136 92.57 136 92.33 142 97.1 142 97.34"/><polygon class="cls-37" points="142 97.59 136 92.81 136 92.57 142 97.34 142 97.59"/><polygon class="cls-38" points="142 97.83 136 93.06 136 92.81 142 97.59 142 97.83"/><polygon class="cls-39" points="142 98.07 136 93.3 136 93.06 142 97.83 142 98.07"/><polygon class="cls-40" points="142 98.32 136 93.55 136 93.3 142 98.07 142 98.32"/><polygon class="cls-41" points="142 98.56 136 93.79 136 93.55 142 98.32 142 98.56"/><polygon class="cls-42" points="142 98.8 136 94.03 136 93.79 142 98.56 142 98.8"/><polygon class="cls-43" points="142 99.05 136 94.28 136 94.03 142 98.8 142 99.05"/><polygon class="cls-44" points="142 99.29 136 94.52 136 94.28 142 99.05 142 99.29"/><polygon class="cls-45" points="142 99.53 136 94.76 136 94.52 142 99.29 142 99.53"/><polygon class="cls-46" points="142 99.78 136 95.01 136 94.76 142 99.53 142 99.78"/><polygon class="cls-47" points="142 100.02 136 95.25 136 95.01 142 99.78 142 100.02"/><polygon class="cls-48" points="142 100.26 136 95.49 136 95.25 142 100.02 142 100.26"/><polygon class="cls-49" points="142 100.51 136 95.74 136 95.49 142 100.26 142 100.51"/><polygon class="cls-50" points="142 100.75 136 95.98 136 95.74 142 100.51 142 100.75"/><polygon class="cls-51" points="142 100.99 136 96.22 136 95.98 142 100.75 142 100.99"/><polygon class="cls-52" points="142 101.24 136 96.47 136 96.22 142 100.99 142 101.24"/><polygon class="cls-53" points="142 101.48 136 96.71 136 96.47 142 101.24 142 101.48"/><polygon class="cls-54" points="142 101.72 136 96.95 136 96.71 142 101.48 142 101.72"/><polygon class="cls-55" points="142 101.97 136 97.2 136 96.95 142 101.72 142 101.97"/><polygon class="cls-56" points="142 102.21 136 97.44 136 97.2 142 101.97 142 102.21"/><polygon class="cls-57" points="142 102.45 136 97.68 136 97.44 142 102.21 142 102.45"/><polygon class="cls-58" points="142 102.7 136 97.93 136 97.68 142 102.45 142 102.7"/><polygon class="cls-11" points="142 102.76 141.38 102.85 136 98.17 136 97.93 142 102.7 142 102.76"/><polygon class="cls-12" points="140.59 102.85 140.6 102.98 136 98.42 136 98.17 140.59 102.85"/><polygon class="cls-13" points="140.47 102.98 140.47 103.11 136 98.66 136 98.42 140.47 102.98"/><polygon class="cls-59" points="140.35 103.11 140.35 103.23 136 98.9 136 98.66 140.35 103.11"/><polygon class="cls-60" points="140.22 103.23 140.23 103.36 136 99.14 136 98.9 140.22 103.23"/><polygon class="cls-61" points="140.1 103.36 140.11 103.48 136 99.39 136 99.14 140.1 103.36"/><polygon class="cls-62" points="139.98 103.48 139.99 103.61 136 99.63 136 99.39 139.98 103.48"/><polygon class="cls-63" points="139.86 103.61 139.87 103.73 136 99.88 136 99.63 139.86 103.61"/><polygon class="cls-9" points="139.74 103.73 139.75 103.86 136 100.12 136 99.88 139.74 103.73"/><polygon class="cls-9" points="139.62 103.75 138.76 104.25 136 104.25 136 100.12 139.62 103.75"/></g><path class="cls-8" d="M112.26,130.27a1.42,1.42,0,0,1-.78-.24c-1-.66-1.38-2.54-2.7-13.46-.27-2.27-.6-4.95-.92-7.21-.08,1.09-.15,2.2-.21,3.15-.44,7.22-.68,9.73-2.51,10s-2.67-2.07-4.2-5.89c-.48-1.19-1.13-2.83-1.63-3.76-.36.67-.79,1.7-1.08,2.4-1,2.46-1.83,4.41-3.4,4.45a125.26,125.26,0,0,1-33.19-4l-.69-.2-3.37-12.07L37.06,98.81a1.28,1.28,0,0,1,.56-2.49l22,4.92L63,113.39a123.32,123.32,0,0,0,31.47,3.74,17.55,17.55,0,0,0,1.38-2.88c1-2.44,1.81-4.37,3.34-4.48,1.69-.13,2.59,2.13,4.09,5.87.37.92.85,2.11,1.28,3,.24-1.71.4-4.37.52-6.33.43-7.1.67-9.58,2.39-10a1.4,1.4,0,0,1,1.12.24c1,.69,1.38,2.73,2.7,13.63.3,2.5.66,5.49,1,7.87.46-2.51,1-5.64,1.28-7.74.27-1.7.52-3.3.72-4.45.33-1.88.5-2.83,1.61-2.9a1.31,1.31,0,0,1,1.34.95,29.53,29.53,0,0,0,2,5.06c.79-2.34,1.27-3.49,2.11-3.93,1.25-.65,2.5-1.22,3.71-1.76,3.36-1.51,6.53-2.95,8.89-6l-.23-10.85,3.42-4.65a1.28,1.28,0,1,1,2.05,1.51l-2.91,3.95.23,10.86-.25.35c-2.77,3.79-6.52,5.48-10.15,7.12-1.13.51-2.3,1-3.44,1.63a17.79,17.79,0,0,0-1,2.66,11.79,11.79,0,0,1-.74,1.91,1.54,1.54,0,0,1-1.52.78c-.89-.1-1.63-.91-2.58-2.78-.14-.28-.28-.57-.42-.88l-.28,1.8c-.42,2.69-.9,5.74-1.36,8.17-.8,4.23-1.21,5-2.12,5.25A1.39,1.39,0,0,1,112.26,130.27Z"/><path class="cls-70" d="M29.18,113.72l-10.5,17.76s14.12,13.65,24.21,3.65l-2.83-20Z"/><path class="cls-71" d="M28.77,121.87l-7.08,12s9.51,9.22,16.3,2.46l-1.9-13.54Z"/><path class="cls-72" d="M33.2,125.79,22.7,143.55s14.12,13.65,24.21,3.65l-2.83-20Z"/><path class="cls-73" d="M32.79,133.94l-7.08,12s9.51,9.22,16.3,2.46l-1.9-13.54Z"/><path class="cls-74" d="M149.75,117.51l12.3,16.56s-12.62,15.06-23.69,6.16l.71-20.24Z"/><path class="cls-75" d="M151,125.58l8.3,11.19s-8.49,10.16-16,4.15l.47-13.66Z"/><path class="cls-76" d="M40.73,109.6s-15.34,3.65-15.34,21.12A25.18,25.18,0,0,0,49.28,135S53.3,118.15,40.73,109.6Z"/><path class="cls-76" d="M143.19,103.56s15.34,3.65,15.34,21.12A25.18,25.18,0,0,1,134.64,129S130.62,112.11,143.19,103.56Z"/><path class="cls-77" d="M40.64,110.18s-7.22,3.31-7.46,10.53,10.89,5.33,11.24-.83A12.45,12.45,0,0,0,40.64,110.18Z"/><path class="cls-78" d="M143.62,104.15s7.22,3.31,7.46,10.53-10.89,5.33-11.24-.83A12.45,12.45,0,0,1,143.62,104.15Z"/></g></g></svg>