<svg id="Layer_1" data-name="Layer 1" xmlns="http://www.w3.org/2000/svg" xmlns:xlink="http://www.w3.org/1999/xlink" viewBox="0 0 300 155"><defs><style>.cls-1{fill:none;}.cls-2{fill:#f1ea3c;}.cls-3{fill:#1d6f8c;}.cls-4{fill:#032528;}.cls-5{fill:#00c3ff;}.cls-6{fill:#cacbca;}.cls-7{clip-path:url(#clip-path);}.cls-8{fill:#d2d3d2;}.cls-9{fill:#d1d2d1;}.cls-10{fill:#d0d1d0;}.cls-11{clip-path:url(#clip-path-2);}.cls-12{fill:#fff;}.cls-13{fill:#fefefe;}.cls-14{fill:#fdfdfd;}.cls-15{fill:#fcfcfc;}.cls-16{fill:#fbfbfb;}.cls-17{fill:#fafafa;}.cls-18{fill:#f9f9f9;}.cls-19{fill:#f8f8f8;}.cls-20{fill:#f7f7f7;}.cls-21{fill:#f6f6f6;}.cls-22{fill:#f5f5f5;}.cls-23{fill:#f4f4f4;}.cls-24{fill:#f3f3f3;}.cls-25{fill:#f2f2f2;}.cls-26{fill:#f1f1f1;}.cls-27{fill:#f0f0f0;}.cls-28{fill:#efefef;}.cls-29{fill:#eee;}.cls-30{fill:#ededed;}.cls-31{fill:#ececec;}.cls-32{fill:#ebebeb;}.cls-33{fill:#eaeaea;}.cls-34{fill:#e9e9e9;}.cls-35{fill:#e8e8e8;}.cls-36{fill:#e7e7e7;}.cls-37{fill:#e6e6e6;}.cls-38{fill:#e5e5e5;}.cls-39{fill:#e3e4e3;}.cls-40{fill:#e2e3e2;}.cls-41{fill:#e1e2e1;}.cls-42{fill:#e0e1e0;}.cls-43{fill:#dfe0df;}.cls-44{fill:#dedfde;}.cls-45{fill:#dddedd;}.cls-46{fill:#dcdddc;}.cls-47{fill:#dbdcdb;}.cls-48{fill:#dadbda;}.cls-49{fill:#d9dad9;}.cls-50{fill:#d8d9d8;}.cls-51{fill:#d7d8d7;}.cls-52{fill:#d6d7d6;}.cls-53{fill:#d5d6d5;}.cls-54{fill:#d4d5d4;}.cls-55{fill:#d3d4d3;}.cls-56{fill:#cfd0cf;}.cls-57{fill:#cecfce;}.cls-58{fill:#cdcecd;}.cls-59{fill:#cccdcc;}.cls-60{fill:#cbcccb;}.cls-61{clip-path:url(#clip-path-3);}.cls-62{clip-path:url(#clip-path-4);}.cls-63{fill:#7d7d7d;}.cls-64{clip-path:url(#clip-path-5);}.cls-65{clip-path:url(#clip-path-6);}.cls-66{clip-path:url(#clip-path-7);}</style><clipPath id="clip-path"><path class="cls-1" d="M46.85,98.85c-.14-.13-.77.34,0,0Z"/></clipPath><clipPath id="clip-path-2"><path class="cls-1" d="M79.79,45.45l-.17.07-4.19-1.33a41.74,41.74,0,0,0-12,8.15c-.22.23-.68.25-.9.48A53.65,53.65,0,0,0,47,79.2c-.61,2.75-1,5.5-1.39,8.24-.16,2.51-.33,4.79-.73,7.31a3.75,3.75,0,0,0,1.95,4.1,4.07,4.07,0,0,1-1.6.68c-1.36.49-1.31,2.08-1.51,3.23-.16,2.51-.56,4.8-.73,7.31-.05,6.84-.34,13.68,1.22,20.52l6,1.9,0-.14,4.39,1.4c-1.55-6.84-1.27-13.68-1.22-20.52.16-2.51.56-4.8.73-7.31.2-1.14.16-2.74,1.51-3.23a4.07,4.07,0,0,0,1.6-.68,3.75,3.75,0,0,1-1.95-4.1c.39-2.52.56-4.8.73-7.31.39-2.74.77-5.49,1.39-8.24A53.65,53.65,0,0,1,72.87,56c.22-.23.68-.25.9-.48a41.74,41.74,0,0,1,12-8.15Z"/></clipPath><clipPath id="clip-path-3"><path class="cls-1" d="M134.68,93.69c.12-.14.8.25,0,0Z"/></clipPath><clipPath id="clip-path-4"><path class="cls-1" d="M95.37,44.8l.18.05,4-1.84a41.74,41.74,0,0,1,12.91,6.6c.25.2.7.16,1,.36a53.65,53.65,0,0,1,18.67,24.25c1,2.65,1.68,5.33,2.4,8,.47,2.47.93,4.72,1.63,7.17a3.75,3.75,0,0,1-1.42,4.31,4.07,4.07,0,0,0,1.67.48c1.41.32,1.56,1.91,1.9,3,.47,2.47,1.15,4.69,1.63,7.17.9,6.78,2,13.54,1.34,20.51l-5.69,2.63v-.14l-4.18,1.93c.69-7-.44-13.73-1.34-20.51-.47-2.47-1.15-4.69-1.63-7.17-.34-1.11-.5-2.7-1.9-3a4.07,4.07,0,0,1-1.67-.48,3.75,3.75,0,0,0,1.42-4.31c-.7-2.45-1.15-4.69-1.63-7.17-.72-2.68-1.45-5.35-2.4-8a53.65,53.65,0,0,0-18.67-24.25c-.25-.2-.7-.16-1-.36a41.74,41.74,0,0,0-12.91-6.6Z"/></clipPath><clipPath id="clip-path-5"><polygon class="cls-1" points="33.85 99.32 55.63 105.34 58 102.78 35.27 98.2 33.85 99.32"/></clipPath><clipPath id="clip-path-6"><path class="cls-1" d="M61.63,114.42l-2.16,2.85s28.14,6.95,35.77,3.87l-1-2.85s-15,.11-23.35-1.71S61.63,114.42,61.63,114.42Z"/></clipPath><clipPath id="clip-path-7"><path class="cls-1" d="M138.34,94.48l1.77-3.07a1.43,1.43,0,0,0-.86-2.1h0l-3.57,3.8-.08,10,2.58,1.82Z"/></clipPath></defs><title>b3-logo</title><path class="cls-2" d="M289.24,95.56l3.72-.64a.77.77,0,0,1,.84,1.1l-9.3,18.36a.41.41,0,0,1-.77-.23l1.45-12.49-3.85,1.12a.77.77,0,0,1-1-.81l2.15-22-6.42,1.64a1.19,1.19,0,0,1-1.48-1.15l0-5.38a1.19,1.19,0,0,1,.9-1.16c7.28-1.84,15.76-4.07,23-6A1.19,1.19,0,0,1,300,69.09c0,1.91,0,3.3,0,5.32a1.19,1.19,0,0,1-.89,1.16c-2.34.62-5.88,1.61-8.22,2.22Z"/><path class="cls-3" d="M220,20.63l5.16-6.94-2.34-.88a.51.51,0,0,1-.11-.91l11.44-7.37a.27.27,0,0,1,.36.39l-5,6.64,2.57.65a.51.51,0,0,1,.29.79l-11.7,7.45"/><path class="cls-3" d="M223.36,25.63l10.73-1.77L233,21.62c-.21-.38.24-.84.75-.77L250.06,23c.36,0,.31.48-.06.54L239.68,25.2l1.54,2.23c.21.3,0,.72-.5.8L224.09,26"/><path class="cls-2" d="M139.53,52.87l0,1.53a12,12,0,0,1-3.2,8.34A18.25,18.25,0,0,1,127,67.82q-6.09,1.52-12.19,3a1.54,1.54,0,0,1-1.9-1.5l-.07-34.11a1.54,1.54,0,0,1,1.15-1.5c4.09-1.07,8.24-2,12.33-3.09,2.8-.78,6.19-1.2,8.79.25,2,1.12,3,3.17,3,6v.91a9.6,9.6,0,0,1-5.67,9.34C136.5,46.4,139.67,48.76,139.53,52.87ZM129,43.75a4.81,4.81,0,0,0,.86-2.93v-.73a2,2,0,0,0-1-1.8,4.1,4.1,0,0,0-3,0l-4.3,1.1,0,7.26,4-1A5.89,5.89,0,0,0,129,43.75Zm1,14.89a3.88,3.88,0,0,0,1.17-2.83v-.57q0-2.07-1.09-2.64a5.45,5.45,0,0,0-3.52.08l-4.89,1.23,0,7.76,4.68-1.17A7.34,7.34,0,0,0,129.94,58.64Z"/><path class="cls-2" d="M186.22,82.67l0,1.53a12,12,0,0,1-3.2,8.34,18.25,18.25,0,0,1-9.27,5.09q-6.09,1.52-12.19,3a1.54,1.54,0,0,1-1.9-1.5L159.57,65a1.54,1.54,0,0,1,1.15-1.5c4.09-1.07,8.24-2,12.33-3.09,2.8-.78,6.19-1.2,8.79.25,2,1.12,3,3.17,3,6v.91a9.6,9.6,0,0,1-5.67,9.34C183.19,76.19,186.36,78.56,186.22,82.67Zm-10.57-9.12a4.81,4.81,0,0,0,.86-2.93v-.73a2,2,0,0,0-1-1.8,4.1,4.1,0,0,0-3,0l-4.3,1.1,0,7.26,4-1A5.89,5.89,0,0,0,175.65,73.55Zm1,14.89a3.88,3.88,0,0,0,1.17-2.83V85q0-2.07-1.09-2.64a5.45,5.45,0,0,0-3.52.08l-4.89,1.23,0,7.76L173,90.3A7.34,7.34,0,0,0,176.63,88.44Z"/><path class="cls-2" d="M142.4,62l-.29-34.28a1.45,1.45,0,0,1,1.09-1.41l18.33-4.59a1.45,1.45,0,0,1,1.8,1.39l0,4.64a1.43,1.43,0,0,1-1.09,1.33l-11.67,3,.06,7.13,9.64-2.47a1.44,1.44,0,0,1,1.8,1.39l0,4.64A1.43,1.43,0,0,1,161,44.1l-10.33,2.68.06,7.35,10.92-2.86a1.45,1.45,0,0,1,1.81,1.39l0,4.55a1.45,1.45,0,0,1-1.07,1.41q-9.12,2.43-18.24,4.82A1.45,1.45,0,0,1,142.4,62Z"/><path class="cls-2" d="M192.17,48V14.43a1.54,1.54,0,0,1,1.14-1.49q5-1.35,10-2.73c3.14-.95,7-1.36,9.83.42s3.74,5.42,3.45,8.58v1.64A16.19,16.19,0,0,1,213,32.25a19,19,0,0,1-9.79,6.15l-2.75.74v7.47a1.54,1.54,0,0,1-1.14,1.49l-5.21,1.39A1.54,1.54,0,0,1,192.17,48Zm8.31-16.35,2.86-.78a6.3,6.3,0,0,0,5-6.38c0-1.61,0-2.42,0-4,0-2.8-1.63-3.74-4.9-2.84l-2.92.8Q200.48,25,200.47,31.65Z"/><path class="cls-2" d="M243.11,76.7V43.13a1.54,1.54,0,0,1,1.14-1.49q5-1.35,10-2.73c3.14-.95,7-1.36,9.83.42s3.74,5.42,3.45,8.58v1.64A16.19,16.19,0,0,1,264,61a19,19,0,0,1-9.79,6.15l-2.75.74v7.47a1.54,1.54,0,0,1-1.14,1.49l-5.21,1.39A1.54,1.54,0,0,1,243.11,76.7Zm8.31-16.35,2.86-.78a6.3,6.3,0,0,0,5-6.38c0-1.61,0-2.42,0-4,0-2.8-1.63-3.74-4.9-2.84l-2.92.8Q251.43,53.74,251.42,60.35Z"/><path class="cls-2" d="M167.26,55.18,167,20.89a1.45,1.45,0,0,1,1.09-1.41l18.33-4.59a1.45,1.45,0,0,1,1.8,1.39l0,4.64a1.43,1.43,0,0,1-1.09,1.33l-11.67,3,.06,7.13,9.64-2.47a1.44,1.44,0,0,1,1.8,1.39l0,4.64a1.43,1.43,0,0,1-1.08,1.33l-10.33,2.68.06,7.35,10.92-2.86a1.45,1.45,0,0,1,1.81,1.39l0,4.55a1.45,1.45,0,0,1-1.07,1.41q-9.12,2.43-18.24,4.82A1.45,1.45,0,0,1,167.26,55.18Z"/><path class="cls-2" d="M188.72,68.3a14.46,14.46,0,0,1,3.34-9.5,16.78,16.78,0,0,1,8.69-5.37c2.87-.74,6.17-.72,8.71,1s3.48,4.79,3.43,7.72L213,75.69a14.61,14.61,0,0,1-3.31,9.46A16.91,16.91,0,0,1,201,90.61c-2.87.78-6.17.8-8.72-.91s-3.53-4.8-3.48-7.76Zm8.15,11.58A3.31,3.31,0,0,0,198,82.64a3.35,3.35,0,0,0,3,.35,5.16,5.16,0,0,0,4-5.22l-.1-13.58a3.32,3.32,0,0,0-1.11-2.76,3.36,3.36,0,0,0-3-.37,5.13,5.13,0,0,0-4.05,5.2Z"/><path class="cls-2" d="M248.11,92.35a15.09,15.09,0,0,1,3.48-9.91,17.51,17.51,0,0,1,9.06-5.6c3-.77,6.43-.75,9.08,1s3.63,5,3.58,8.05l.08,14.12a15.24,15.24,0,0,1-3.45,9.87,17.64,17.64,0,0,1-9,5.69c-3,.81-6.43.83-9.1-1s-3.68-5-3.63-8.09Zm8.5,12.08a3.45,3.45,0,0,0,1.16,2.88,3.49,3.49,0,0,0,3.13.36,5.39,5.39,0,0,0,4.21-5.45L265,88.06a3.46,3.46,0,0,0-1.15-2.88,3.51,3.51,0,0,0-3.13-.38,5.35,5.35,0,0,0-4.23,5.43Z"/><path class="cls-2" d="M215.5,60.88a14.46,14.46,0,0,1,3.34-9.5A16.78,16.78,0,0,1,227.52,46c2.87-.74,6.17-.72,8.71,1s3.48,4.79,3.43,7.72l.08,13.54a14.61,14.61,0,0,1-3.31,9.46,16.91,16.91,0,0,1-8.61,5.46c-2.87.78-6.17.8-8.72-.91s-3.53-4.8-3.48-7.76Zm8.15,11.58a3.31,3.31,0,0,0,1.11,2.77,3.35,3.35,0,0,0,3,.35,5.16,5.16,0,0,0,4-5.22l-.1-13.58A3.32,3.32,0,0,0,230.58,54a3.36,3.36,0,0,0-3-.37,5.13,5.13,0,0,0-4.05,5.2Z"/><path class="cls-3" d="M212,136.5a1.57,1.57,0,0,1-1.26,1.49l-3,.73-2.73.66a1.67,1.67,0,0,1-2.13-1.49l1.47-26.31a2.09,2.09,0,0,1,1.49-1.83l2.79-.92a1.18,1.18,0,0,1,1.58.94Z"/><path class="cls-3" d="M203.4,99.08a4.61,4.61,0,0,1,1.06-3,5.35,5.35,0,0,1,2.77-1.71,3.44,3.44,0,0,1,2.78.32,2.84,2.84,0,0,1,1.09,2.46c0,1.44,0,.48,0,1.92a4.66,4.66,0,0,1-1.06,3,5.39,5.39,0,0,1-2.75,1.74,3.41,3.41,0,0,1-2.78-.29,2.85,2.85,0,0,1-1.11-2.47C203.41,99.58,203.41,100.53,203.4,99.08Z"/><path class="cls-2" d="M245.75,107.39l0,1.53a12.1,12.1,0,0,1-3.13,8.34,17.77,17.77,0,0,1-9.08,5.09q-6,1.52-11.94,3a1.52,1.52,0,0,1-1.86-1.5l-.06-34.11a1.54,1.54,0,0,1,1.13-1.5c4-1.07,8.07-2,12.08-3.09,2.74-.78,6.07-1.2,8.61.25,2,1.12,3,3.17,3,6v.91a9.62,9.62,0,0,1-5.56,9.34C242.78,100.91,245.89,103.27,245.75,107.39ZM235.4,98.26a4.88,4.88,0,0,0,.84-2.93v-.73a2,2,0,0,0-1-1.8,3.94,3.94,0,0,0-2.94,0l-4.21,1.1,0,7.26,3.89-1A5.74,5.74,0,0,0,235.4,98.26Zm1,14.89a3.92,3.92,0,0,0,1.15-2.83v-.57q0-2.07-1.07-2.64a5.23,5.23,0,0,0-3.45.08l-4.79,1.23,0,7.76,4.58-1.17A7.14,7.14,0,0,0,236.36,113.16Z"/><path class="cls-3" d="M220.14,31.07,227,33.57a2.25,2.25,0,0,1,1.11,3.35h0a2.25,2.25,0,0,1-3.46.38l-5.18-5.08A.69.69,0,0,1,220.14,31.07Z"/><ellipse class="cls-4" cx="89.69" cy="145.64" rx="42.31" ry="8.2"/><path class="cls-3" d="M145.71,74c-1.13-3.47-3.27-5.91-4.89-5.66h0l-13.37,2.94L134.15,90,145,81.54C146.53,80.92,146.87,77.59,145.71,74Z"/><path class="cls-5" d="M24.53,77.15,14.82,71a.42.42,0,0,1,.24-.66l2.13-.54L13,64.27a.22.22,0,0,1,.3-.32l9.49,6.11a.42.42,0,0,1-.09.76l-1.94.73L25.1,77.3"/><path class="cls-5" d="M21.75,81.72,7.94,83.6c-.37-.07-.58-.41-.41-.66l1.28-1.85L.25,79.72c-.31,0-.35-.41-.05-.45l13.56-1.79c.43-.06.8.32.62.64L13.45,80l8.9,1.47"/><path class="cls-5" d="M162.06,55.68l-5.48,7.16,2,.72c.34.11.33.64,0,.89l-11.11,8c-.25.18-.46-.11-.27-.36l5.3-6.86-2.2-.48c-.3-.06-.38-.46-.15-.76l11.35-8.08"/><path class="cls-6" d="M143.21,123.75s3.44-9.31-2.75-33.36c-.23-.9-2.49-1.32-2.49-1.32s1.47-2.62,1.31-3.22c-7.07-27.13-28-46.52-52.18-46.52S40.75,57.23,36.23,83c-.46,2.63-1.13,9.29-1.57,11.76-.18,1,1.92,3,1.92,3s-2.64,1.09-2.73,1.61c-3.38,19.19-.69,30.06-.69,30.06S96.26,160.33,143.21,123.75Z"/><g class="cls-7"><polygon class="cls-8" points="46.37 98.72 46.14 99.19 46.09 99.19 46.09 98.72 46.37 98.72"/><polygon class="cls-9" points="46.77 98.72 46.53 99.24 46.14 99.24 46.37 98.72 46.77 98.72"/><polygon class="cls-10" points="46.53 99.19 46.77 98.72 46.85 98.72 46.85 99.19 46.53 99.19"/></g><g class="cls-11"><polygon class="cls-12" points="55.83 43.25 43 70.72 43 43.25 55.83 43.25"/><polygon class="cls-12" points="56.22 43.25 43 71.51 43 70.72 55.83 43.25 56.22 43.25"/><polygon class="cls-13" points="56.61 43.25 43 72.3 43 71.51 56.22 43.25 56.61 43.25"/><polygon class="cls-14" points="57 43.25 43 73.08 43 72.3 56.61 43.25 57 43.25"/><polygon class="cls-15" points="57.39 43.25 43 73.87 43 73.08 57 43.25 57.39 43.25"/><polygon class="cls-16" points="57.78 43.25 43 74.66 43 73.87 57.39 43.25 57.78 43.25"/><polygon class="cls-17" points="58.17 43.25 43 75.45 43 74.66 57.78 43.25 58.17 43.25"/><polygon class="cls-18" points="58.56 43.25 43 76.24 43 75.45 58.17 43.25 58.56 43.25"/><polygon class="cls-19" points="58.96 43.25 43 77.02 43 76.24 58.56 43.25 58.96 43.25"/><polygon class="cls-20" points="59.35 43.25 43 77.81 43 77.02 58.96 43.25 59.35 43.25"/><polygon class="cls-21" points="59.74 43.25 43 78.6 43 77.81 59.35 43.25 59.74 43.25"/><polygon class="cls-22" points="60.13 43.25 43 79.39 43 78.6 59.74 43.25 60.13 43.25"/><polygon class="cls-23" points="60.52 43.25 43 80.18 43 79.39 60.13 43.25 60.52 43.25"/><polygon class="cls-24" points="60.91 43.25 43 80.96 43 80.18 60.52 43.25 60.91 43.25"/><polygon class="cls-25" points="61.3 43.25 43 81.75 43 80.96 60.91 43.25 61.3 43.25"/><polygon class="cls-26" points="61.69 43.25 43 82.54 43 81.75 61.3 43.25 61.69 43.25"/><polygon class="cls-27" points="62.08 43.25 43 83.33 43 82.54 61.69 43.25 62.08 43.25"/><polygon class="cls-28" points="62.47 43.25 43 84.11 43 83.33 62.08 43.25 62.47 43.25"/><polygon class="cls-29" points="62.86 43.25 43 84.9 43 84.11 62.47 43.25 62.86 43.25"/><polygon class="cls-30" points="63.25 43.25 43 85.69 43 84.9 62.86 43.25 63.25 43.25"/><polygon class="cls-31" points="63.64 43.25 43 86.48 43 85.69 63.25 43.25 63.64 43.25"/><polygon class="cls-32" points="64.03 43.25 43 87.27 43 86.48 63.64 43.25 64.03 43.25"/><polygon class="cls-33" points="64.42 43.25 43 88.06 43 87.27 64.03 43.25 64.42 43.25"/><polygon class="cls-34" points="64.82 43.25 43 88.84 43 88.06 64.42 43.25 64.82 43.25"/><polygon class="cls-35" points="65.21 43.25 43 89.63 43 88.84 64.82 43.25 65.21 43.25"/><polygon class="cls-36" points="65.6 43.25 43 90.42 43 89.63 65.21 43.25 65.6 43.25"/><polygon class="cls-37" points="65.99 43.25 43 91.21 43 90.42 65.6 43.25 65.99 43.25"/><polygon class="cls-38" points="66.38 43.25 43 91.99 43 91.21 65.99 43.25 66.38 43.25"/><polygon class="cls-39" points="66.77 43.25 43 92.78 43 91.99 66.38 43.25 66.77 43.25"/><polygon class="cls-40" points="67.16 43.25 43 93.57 43 92.78 66.77 43.25 67.16 43.25"/><polygon class="cls-41" points="67.55 43.25 43 94.36 43 93.57 67.16 43.25 67.55 43.25"/><polygon class="cls-42" points="67.94 43.25 43 95.14 43 94.36 67.55 43.25 67.94 43.25"/><polygon class="cls-43" points="68.33 43.25 43 95.93 43 95.14 67.94 43.25 68.33 43.25"/><polygon class="cls-44" points="68.72 43.25 43 96.72 43 95.93 68.33 43.25 68.72 43.25"/><polygon class="cls-45" points="69.11 43.25 43 97.51 43 96.72 68.72 43.25 69.11 43.25"/><polygon class="cls-46" points="69.5 43.25 43 98.3 43 97.51 69.11 43.25 69.5 43.25"/><polygon class="cls-47" points="69.89 43.25 43 99.08 43 98.3 69.5 43.25 69.89 43.25"/><polygon class="cls-48" points="70.28 43.25 43 99.87 43 99.08 69.89 43.25 70.28 43.25"/><polygon class="cls-49" points="70.68 43.25 43 100.66 43 99.87 70.28 43.25 70.68 43.25"/><polygon class="cls-50" points="71.07 43.25 43 101.45 43 100.66 70.68 43.25 71.07 43.25"/><polygon class="cls-51" points="71.46 43.25 43 102.24 43 101.45 71.07 43.25 71.46 43.25"/><polygon class="cls-52" points="71.85 43.25 43 103.02 43 102.24 71.46 43.25 71.85 43.25"/><polygon class="cls-53" points="72.24 43.25 43 103.81 43 103.02 71.85 43.25 72.24 43.25"/><polygon class="cls-54" points="72.63 43.25 43 104.6 43 103.81 72.24 43.25 72.63 43.25"/><polygon class="cls-55" points="73.02 43.25 43 105.39 43 104.6 72.63 43.25 73.02 43.25"/><polygon class="cls-8" points="73.41 43.25 43 106.17 43 105.39 73.02 43.25 73.41 43.25"/><polygon class="cls-9" points="73.8 43.25 43 106.96 43 106.17 73.41 43.25 73.8 43.25"/><polygon class="cls-10" points="74.19 43.25 43 107.75 43 106.96 73.8 43.25 74.19 43.25"/><polygon class="cls-56" points="74.58 43.25 43 108.54 43 107.75 74.19 43.25 74.58 43.25"/><polygon class="cls-57" points="74.97 43.25 43 109.33 43 108.54 74.58 43.25 74.97 43.25"/><polygon class="cls-58" points="75.36 43.25 43 110.11 43 109.33 74.97 43.25 75.36 43.25"/><polygon class="cls-59" points="75.75 43.25 43 110.9 43 110.11 75.36 43.25 75.75 43.25"/><polygon class="cls-60" points="76.14 43.25 43 111.69 43 110.9 75.75 43.25 76.14 43.25"/><polygon class="cls-6" points="76.54 43.25 43 112.48 43 111.69 76.14 43.25 76.54 43.25"/><polygon class="cls-6" points="80.55 43.25 86 46.78 86 133.25 49.44 133.25 43 130.39 43 112.48 76.54 43.25 80.55 43.25"/></g><g class="cls-61"><polygon class="cls-8" points="135.42 93.94 135.16 93.55 135.48 93.55 135.48 93.94 135.42 93.94"/><polygon class="cls-9" points="135 93.84 134.74 93.58 135.16 93.58 135.42 93.84 135 93.84"/><polygon class="cls-10" points="134.74 93.55 135 93.94 134.68 93.94 134.68 93.55 134.74 93.55"/></g><g class="cls-62"><polygon class="cls-12" points="143 75.21 120.59 43.25 143 43.25 143 75.21"/><polygon class="cls-12" points="143 75.84 120.17 43.25 120.59 43.25 143 75.21 143 75.84"/><polygon class="cls-13" points="143 76.48 119.75 43.25 120.17 43.25 143 75.84 143 76.48"/><polygon class="cls-14" points="143 77.11 119.33 43.25 119.75 43.25 143 76.48 143 77.11"/><polygon class="cls-15" points="143 77.75 118.91 43.25 119.33 43.25 143 77.11 143 77.75"/><polygon class="cls-16" points="143 78.38 118.5 43.25 118.91 43.25 143 77.75 143 78.38"/><polygon class="cls-17" points="143 79.02 118.08 43.25 118.5 43.25 143 78.38 143 79.02"/><polygon class="cls-18" points="143 79.65 117.66 43.25 118.08 43.25 143 79.02 143 79.65"/><polygon class="cls-19" points="143 80.28 117.23 43.25 117.66 43.25 143 79.65 143 80.28"/><polygon class="cls-20" points="143 80.92 116.82 43.25 117.23 43.25 143 80.28 143 80.92"/><polygon class="cls-21" points="143 81.55 116.4 43.25 116.82 43.25 143 80.92 143 81.55"/><polygon class="cls-22" points="143 82.19 115.98 43.25 116.4 43.25 143 81.55 143 82.19"/><polygon class="cls-23" points="143 82.82 115.56 43.25 115.98 43.25 143 82.19 143 82.82"/><polygon class="cls-24" points="143 83.45 115.14 43.25 115.56 43.25 143 82.82 143 83.45"/><polygon class="cls-25" points="143 84.09 114.72 43.25 115.14 43.25 143 83.45 143 84.09"/><polygon class="cls-26" points="143 84.72 114.3 43.25 114.72 43.25 143 84.09 143 84.72"/><polygon class="cls-27" points="143 85.36 113.88 43.25 114.3 43.25 143 84.72 143 85.36"/><polygon class="cls-28" points="143 85.99 113.46 43.25 113.88 43.25 143 85.36 143 85.99"/><polygon class="cls-29" points="143 86.62 113.04 43.25 113.46 43.25 143 85.99 143 86.62"/><polygon class="cls-30" points="143 87.26 112.62 43.25 113.04 43.25 143 86.62 143 87.26"/><polygon class="cls-31" points="143 87.89 112.2 43.25 112.62 43.25 143 87.26 143 87.89"/><polygon class="cls-32" points="143 88.53 111.78 43.25 112.2 43.25 143 87.89 143 88.53"/><polygon class="cls-33" points="143 89.16 111.36 43.25 111.78 43.25 143 88.53 143 89.16"/><polygon class="cls-34" points="143 89.79 110.94 43.25 111.36 43.25 143 89.16 143 89.79"/><polygon class="cls-35" points="143 90.43 110.52 43.25 110.94 43.25 143 89.79 143 90.43"/><polygon class="cls-36" points="143 91.06 110.1 43.25 110.52 43.25 143 90.43 143 91.06"/><polygon class="cls-37" points="143 91.69 109.68 43.25 110.1 43.25 143 91.06 143 91.69"/><polygon class="cls-38" points="143 92.33 109.26 43.25 109.68 43.25 143 91.69 143 92.33"/><polygon class="cls-39" points="143 92.96 108.84 43.25 109.26 43.25 143 92.33 143 92.96"/><polygon class="cls-40" points="143 93.6 108.42 43.25 108.84 43.25 143 92.96 143 93.6"/><polygon class="cls-41" points="143 94.23 108 43.25 108.42 43.25 143 93.6 143 94.23"/><polygon class="cls-42" points="143 94.86 107.58 43.25 108 43.25 143 94.23 143 94.86"/><polygon class="cls-43" points="143 95.5 107.16 43.25 107.58 43.25 143 94.86 143 95.5"/><polygon class="cls-44" points="143 96.13 106.74 43.25 107.16 43.25 143 95.5 143 96.13"/><polygon class="cls-45" points="143 96.77 106.32 43.25 106.74 43.25 143 96.13 143 96.77"/><polygon class="cls-46" points="143 97.4 105.9 43.25 106.32 43.25 143 96.77 143 97.4"/><polygon class="cls-47" points="143 98.03 105.48 43.25 105.9 43.25 143 97.4 143 98.03"/><polygon class="cls-48" points="143 98.67 105.06 43.25 105.48 43.25 143 98.03 143 98.67"/><polygon class="cls-49" points="143 99.3 104.64 43.25 105.06 43.25 143 98.67 143 99.3"/><polygon class="cls-50" points="143 99.94 104.22 43.25 104.64 43.25 143 99.3 143 99.94"/><polygon class="cls-51" points="143 100.57 103.8 43.25 104.22 43.25 143 99.94 143 100.57"/><polygon class="cls-52" points="143 101.2 103.38 43.25 103.8 43.25 143 100.57 143 101.2"/><polygon class="cls-53" points="143 101.84 102.96 43.25 103.38 43.25 143 101.2 143 101.84"/><polygon class="cls-54" points="143 102.47 102.54 43.25 102.96 43.25 143 101.84 143 102.47"/><polygon class="cls-55" points="143 103.11 102.12 43.25 102.54 43.25 143 102.47 143 103.11"/><polygon class="cls-8" points="143 103.74 101.7 43.25 102.12 43.25 143 103.11 143 103.74"/><polygon class="cls-9" points="143 104.38 101.28 43.25 101.7 43.25 143 103.74 143 104.38"/><polygon class="cls-10" points="143 105.01 100.86 43.25 101.28 43.25 143 104.38 143 105.01"/><polygon class="cls-56" points="143 105.64 100.44 43.25 100.86 43.25 143 105.01 143 105.64"/><polygon class="cls-57" points="143 106.28 100.03 43.25 100.44 43.25 143 105.64 143 106.28"/><polygon class="cls-58" points="143 106.91 99.61 43.25 100.03 43.25 143 106.28 143 106.91"/><polygon class="cls-59" points="143 107.55 99.19 43.25 99.61 43.25 143 106.91 143 107.55"/><polygon class="cls-60" points="143 108.18 98.77 43.25 99.19 43.25 143 107.55 143 108.18"/><polygon class="cls-6" points="143 108.81 98.35 43.25 98.77 43.25 143 108.18 143 108.81"/><polygon class="cls-6" points="143 125.02 135.48 129.25 90 129.25 90 46.81 95.42 43.25 98.35 43.25 143 108.81 143 125.02"/></g><path class="cls-2" d="M66,92.49c2-.71,3.66-3.23,4.06-6.4.46-3.58-.87-6.77-3-7.59-2,.71-3.66,3.23-4.06,6.4C62.54,88.49,63.87,91.67,66,92.49Z"/><path class="cls-63" d="M63,84.9c.41-3.17,2.09-5.69,4.06-6.4a3.12,3.12,0,0,0-.71-.18c-2.57-.33-5.07,2.61-5.58,6.57s1.17,7.44,3.74,7.77A3.23,3.23,0,0,0,66,92.49C63.87,91.67,62.54,88.49,63,84.9Z"/><path class="cls-2" d="M124.78,87.81c-2-.49-4-2.81-4.74-5.91-.85-3.51.12-6.83,2.18-7.88,2,.49,4,2.81,4.74,5.91C127.81,83.44,126.84,86.76,124.78,87.81Z"/><path class="cls-63" d="M127,79.93c-.75-3.11-2.7-5.42-4.74-5.91a3.12,3.12,0,0,1,.68-.25c2.52-.61,5.33,2,6.26,5.92s-.35,7.52-2.87,8.13a3.23,3.23,0,0,1-1.52,0C126.84,86.76,127.81,83.44,127,79.93Z"/><polyline class="cls-3" points="30.59 74.11 44.26 74.8 40.76 94.38 27.29 86.93"/><ellipse class="cls-3" cx="85.26" cy="41.01" rx="6.24" ry="2.35"/><circle class="cls-2" cx="77.35" cy="4.61" r="3.57"/><polygon class="cls-3" points="78.54 6.6 88.27 42.16 83.21 41.36 76.67 6.53 78.54 6.6"/><ellipse class="cls-6" cx="29.11" cy="80.56" rx="6.93" ry="3.13" transform="translate(-54.88 97.39) rotate(-81.46)"/><g class="cls-64"><polygon class="cls-12" points="58 102.78 56.44 97.25 58 97.25 58 102.78"/><polygon class="cls-12" points="58 104.05 56 97.25 56.44 97.25 58 102.78 58 104.05"/><polygon class="cls-13" points="58 105.07 57.93 104.62 55.57 97.25 56 97.25 58 104.05 58 105.07"/><polygon class="cls-14" points="57.93 104.62 57.54 104.52 55.14 97.25 55.57 97.25 57.93 104.62"/><polygon class="cls-15" points="57.54 104.71 57.22 105.25 57.14 105.25 54.7 97.25 55.14 97.25 57.54 104.71"/><polygon class="cls-16" points="56.71 105.25 54.27 97.25 54.7 97.25 57.14 105.25 56.71 105.25"/><polygon class="cls-17" points="56.28 105.25 53.84 97.25 54.27 97.25 56.71 105.25 56.28 105.25"/><polygon class="cls-18" points="55.84 105.25 53.4 97.25 53.84 97.25 56.28 105.25 55.84 105.25"/><polygon class="cls-19" points="55.41 105.25 52.97 97.25 53.4 97.25 55.84 105.25 55.41 105.25"/><polygon class="cls-20" points="54.98 105.25 52.54 97.25 52.97 97.25 55.41 105.25 54.98 105.25"/><polygon class="cls-21" points="54.54 105.25 52.1 97.25 52.54 97.25 54.98 105.25 54.54 105.25"/><polygon class="cls-22" points="54.11 105.25 51.67 97.25 52.1 97.25 54.54 105.25 54.11 105.25"/><polygon class="cls-23" points="53.68 105.25 51.24 97.25 51.67 97.25 54.11 105.25 53.68 105.25"/><polygon class="cls-24" points="53.24 105.25 50.8 97.25 51.24 97.25 53.68 105.25 53.24 105.25"/><polygon class="cls-25" points="52.81 105.25 50.37 97.25 50.8 97.25 53.24 105.25 52.81 105.25"/><polygon class="cls-26" points="52.38 105.25 49.94 97.25 50.37 97.25 52.81 105.25 52.38 105.25"/><polygon class="cls-27" points="51.94 105.25 49.5 97.25 49.94 97.25 52.38 105.25 51.94 105.25"/><polygon class="cls-28" points="51.51 105.25 49.07 97.25 49.5 97.25 51.94 105.25 51.51 105.25"/><polygon class="cls-29" points="51.08 105.25 48.64 97.25 49.07 97.25 51.51 105.25 51.08 105.25"/><polygon class="cls-30" points="50.64 105.25 48.2 97.25 48.64 97.25 51.08 105.25 50.64 105.25"/><polygon class="cls-31" points="50.21 105.25 47.77 97.25 48.2 97.25 50.64 105.25 50.21 105.25"/><polygon class="cls-32" points="49.78 105.25 47.34 97.25 47.77 97.25 50.21 105.25 49.78 105.25"/><polygon class="cls-33" points="49.34 105.25 46.9 97.25 47.34 97.25 49.78 105.25 49.34 105.25"/><polygon class="cls-34" points="48.91 105.25 46.47 97.25 46.9 97.25 49.34 105.25 48.91 105.25"/><polygon class="cls-35" points="48.48 105.25 46.04 97.25 46.47 97.25 48.91 105.25 48.48 105.25"/><polygon class="cls-36" points="48.04 105.25 45.6 97.25 46.04 97.25 48.48 105.25 48.04 105.25"/><polygon class="cls-37" points="47.61 105.25 45.17 97.25 45.6 97.25 48.04 105.25 47.61 105.25"/><polygon class="cls-38" points="47.18 105.25 44.74 97.25 45.17 97.25 47.61 105.25 47.18 105.25"/><polygon class="cls-39" points="46.74 105.25 44.3 97.25 44.74 97.25 47.18 105.25 46.74 105.25"/><polygon class="cls-40" points="46.31 105.25 43.87 97.25 44.3 97.25 46.74 105.25 46.31 105.25"/><polygon class="cls-41" points="45.88 105.25 43.44 97.25 43.87 97.25 46.31 105.25 45.88 105.25"/><polygon class="cls-42" points="45.44 105.25 43 97.25 43.44 97.25 45.88 105.25 45.44 105.25"/><polygon class="cls-43" points="45.01 105.25 42.57 97.25 43 97.25 45.44 105.25 45.01 105.25"/><polygon class="cls-44" points="44.58 105.25 42.14 97.25 42.57 97.25 45.01 105.25 44.58 105.25"/><polygon class="cls-45" points="44.14 105.25 41.7 97.25 42.14 97.25 44.58 105.25 44.14 105.25"/><polygon class="cls-46" points="43.71 105.25 41.27 97.25 41.7 97.25 44.14 105.25 43.71 105.25"/><polygon class="cls-47" points="43.28 105.25 40.84 97.25 41.27 97.25 43.71 105.25 43.28 105.25"/><polygon class="cls-48" points="42.84 105.25 40.4 97.25 40.84 97.25 43.28 105.25 42.84 105.25"/><polygon class="cls-49" points="42.41 105.25 39.97 97.25 40.4 97.25 42.84 105.25 42.41 105.25"/><polygon class="cls-50" points="41.98 105.25 39.54 97.25 39.97 97.25 42.41 105.25 41.98 105.25"/><polygon class="cls-51" points="41.54 105.25 39.1 97.25 39.54 97.25 41.98 105.25 41.54 105.25"/><polygon class="cls-52" points="41.11 105.25 38.67 97.25 39.1 97.25 41.54 105.25 41.11 105.25"/><polygon class="cls-53" points="40.68 105.25 38.24 97.25 38.67 97.25 41.11 105.25 40.68 105.25"/><polygon class="cls-54" points="40.24 105.25 37.8 97.25 38.24 97.25 40.68 105.25 40.24 105.25"/><polygon class="cls-55" points="39.81 105.25 37.37 97.25 37.8 97.25 40.24 105.25 39.81 105.25"/><polygon class="cls-8" points="39.38 105.25 36.94 97.25 37.37 97.25 39.81 105.25 39.38 105.25"/><polygon class="cls-9" points="38.94 105.25 36.5 97.25 36.94 97.25 39.38 105.25 38.94 105.25"/><polygon class="cls-10" points="38.51 105.25 36.07 97.25 36.5 97.25 38.94 105.25 38.51 105.25"/><polygon class="cls-56" points="38.08 105.25 35.64 97.25 36.07 97.25 38.51 105.25 38.08 105.25"/><polygon class="cls-57" points="37.64 105.25 35.2 97.25 35.64 97.25 38.08 105.25 37.64 105.25"/><polygon class="cls-58" points="37.21 105.25 34.77 97.25 35.2 97.25 37.64 105.25 37.21 105.25"/><polygon class="cls-59" points="36.78 105.25 34.34 97.25 34.77 97.25 37.21 105.25 36.78 105.25"/><polygon class="cls-60" points="36.34 105.25 33.9 97.25 34.34 97.25 36.78 105.25 36.34 105.25"/><polygon class="cls-6" points="35.91 105.25 34 99.32 34 97.25 33.9 97.25 36.34 105.25 35.91 105.25"/><polygon class="cls-6" points="34 99.32 35.91 105.25 34 105.25 34 99.32"/></g><g class="cls-65"><polygon class="cls-15" points="60 118.43 60.12 124.25 60 124.25 60 118.43"/><polygon class="cls-16" points="59.88 114.25 60.99 124.25 60.12 124.25 60 118.43 60 114.25 59.88 114.25"/><polygon class="cls-17" points="60.75 114.25 61.86 124.25 60.99 124.25 59.88 114.25 60.75 114.25"/><polygon class="cls-18" points="61.62 114.25 62.73 124.25 61.86 124.25 60.75 114.25 61.62 114.25"/><polygon class="cls-19" points="62.49 114.25 63.6 124.25 62.73 124.25 61.62 114.25 62.49 114.25"/><polygon class="cls-20" points="63.36 114.25 64.47 124.25 63.6 124.25 62.49 114.25 63.36 114.25"/><polygon class="cls-21" points="64.23 114.25 65.34 124.25 64.47 124.25 63.36 114.25 64.23 114.25"/><polygon class="cls-22" points="65.1 114.25 66.21 124.25 65.34 124.25 64.23 114.25 65.1 114.25"/><polygon class="cls-23" points="65.97 114.25 67.08 124.25 66.21 124.25 65.1 114.25 65.97 114.25"/><polygon class="cls-24" points="66.84 114.25 67.96 124.25 67.08 124.25 65.97 114.25 66.84 114.25"/><polygon class="cls-25" points="67.72 114.25 68.83 124.25 67.96 124.25 66.84 114.25 67.72 114.25"/><polygon class="cls-26" points="68.59 114.25 69.7 124.25 68.83 124.25 67.72 114.25 68.59 114.25"/><polygon class="cls-27" points="69.46 114.25 70.57 124.25 69.7 124.25 68.59 114.25 69.46 114.25"/><polygon class="cls-28" points="70.33 114.25 71.44 124.25 70.57 124.25 69.46 114.25 70.33 114.25"/><polygon class="cls-29" points="71.2 114.25 72.31 124.25 71.44 124.25 70.33 114.25 71.2 114.25"/><polygon class="cls-30" points="72.07 114.25 73.18 124.25 72.31 124.25 71.2 114.25 72.07 114.25"/><polygon class="cls-31" points="72.94 114.25 74.05 124.25 73.18 124.25 72.07 114.25 72.94 114.25"/><polygon class="cls-32" points="73.81 114.25 74.92 124.25 74.05 124.25 72.94 114.25 73.81 114.25"/><polygon class="cls-33" points="74.68 114.25 75.79 124.25 74.92 124.25 73.81 114.25 74.68 114.25"/><polygon class="cls-34" points="75.55 114.25 76.66 124.25 75.79 124.25 74.68 114.25 75.55 114.25"/><polygon class="cls-35" points="76.42 114.25 77.53 124.25 76.66 124.25 75.55 114.25 76.42 114.25"/><polygon class="cls-36" points="77.3 114.25 78.41 124.25 77.53 124.25 76.42 114.25 77.3 114.25"/><polygon class="cls-37" points="78.17 114.25 79.28 124.25 78.41 124.25 77.3 114.25 78.17 114.25"/><polygon class="cls-38" points="79.04 114.25 80.15 124.25 79.28 124.25 78.17 114.25 79.04 114.25"/><polygon class="cls-39" points="79.91 114.25 81.02 124.25 80.15 124.25 79.04 114.25 79.91 114.25"/><polygon class="cls-40" points="80.78 114.25 81.89 124.25 81.02 124.25 79.91 114.25 80.78 114.25"/><polygon class="cls-41" points="81.65 114.25 82.76 124.25 81.89 124.25 80.78 114.25 81.65 114.25"/><polygon class="cls-42" points="82.52 114.25 83.63 124.25 82.76 124.25 81.65 114.25 82.52 114.25"/><polygon class="cls-43" points="83.39 114.25 84.5 124.25 83.63 124.25 82.52 114.25 83.39 114.25"/><polygon class="cls-44" points="84.26 114.25 85.37 124.25 84.5 124.25 83.39 114.25 84.26 114.25"/><polygon class="cls-45" points="85.13 114.25 86.24 124.25 85.37 124.25 84.26 114.25 85.13 114.25"/><polygon class="cls-46" points="86 114.25 87.11 124.25 86.24 124.25 85.13 114.25 86 114.25"/><polygon class="cls-47" points="86.88 114.25 87.98 124.25 87.11 124.25 86 114.25 86.88 114.25"/><polygon class="cls-48" points="87.75 114.25 88.86 124.25 87.98 124.25 86.88 114.25 87.75 114.25"/><polygon class="cls-49" points="88.62 114.25 89.73 124.25 88.86 124.25 87.75 114.25 88.62 114.25"/><polygon class="cls-50" points="89.49 114.25 90.6 124.25 89.73 124.25 88.62 114.25 89.49 114.25"/><polygon class="cls-51" points="90.36 114.25 91.47 124.25 90.6 124.25 89.49 114.25 90.36 114.25"/><polygon class="cls-52" points="91.23 114.25 92.34 124.13 92.17 124.25 91.47 124.25 90.36 114.25 91.23 114.25"/><polygon class="cls-53" points="92.1 114.25 93.2 124.02 92.34 124.07 91.23 114.25 92.1 114.25"/><polygon class="cls-54" points="92.97 114.25 94.06 123.92 93.2 123.97 92.1 114.25 92.97 114.25"/><polygon class="cls-55" points="93.84 114.25 94.92 123.82 94.06 123.88 92.97 114.25 93.84 114.25"/><polygon class="cls-8" points="94.71 114.25 96 119.02 96 123.87 95.3 123.82 93.84 114.25 94.71 114.25"/><polygon class="cls-9" points="96 119.02 94.71 114.25 96 114.25 96 119.02"/></g><g class="cls-66"><polygon class="cls-12" points="140 92.38 137.7 89.85 138.53 89.25 140 89.25 140 92.38"/><polygon class="cls-12" points="140 92.62 137.58 90.01 137.56 89.88 140 92.38 140 92.62"/><polygon class="cls-13" points="140 92.87 137.46 90.13 137.44 90.01 140 92.62 140 92.87"/><polygon class="cls-14" points="140 93.11 137.33 90.26 137.31 90.13 140 92.87 140 93.11"/><polygon class="cls-15" points="140 93.36 137.21 90.39 137.19 90.26 140 93.11 140 93.36"/><polygon class="cls-16" points="140 93.61 137.09 90.51 137.07 90.39 140 93.36 140 93.61"/><polygon class="cls-17" points="140 93.85 136.97 90.64 136.94 90.51 140 93.61 140 93.85"/><polygon class="cls-18" points="140 94.09 136.84 90.77 136.82 90.64 140 93.85 140 94.09"/><polygon class="cls-19" points="140 94.34 136.72 90.89 136.7 90.77 140 94.09 140 94.34"/><polygon class="cls-20" points="140 94.59 136.6 91.02 136.58 90.89 140 94.34 140 94.59"/><polygon class="cls-21" points="141 94.83 136.98 91.15 137.2 91.02 141 94.59 141 94.83"/><polygon class="cls-22" points="141 95.08 136.85 91.28 137.08 91.15 141 94.83 141 95.08"/><polygon class="cls-23" points="141 95.32 136.73 91.4 136.96 91.28 141 95.08 141 95.32"/><polygon class="cls-24" points="141 95.57 136.61 91.53 136.84 91.4 141 95.32 141 95.57"/><polygon class="cls-25" points="141 95.81 136.49 91.66 136.71 91.53 141 95.57 141 95.81"/><polygon class="cls-26" points="141 96.06 136.36 91.78 136.59 91.66 141 95.81 141 96.06"/><polygon class="cls-27" points="141 96.3 136.24 91.91 136.47 91.78 141 96.06 141 96.3"/><polygon class="cls-28" points="141 96.55 136.12 92.04 136.35 91.91 141 96.3 141 96.55"/><polygon class="cls-29" points="141 96.79 136 92.16 136.22 92.04 141 96.55 141 96.79"/><polygon class="cls-30" points="141 97.04 135.87 92.29 136.1 92.16 141 96.79 141 97.04"/><polygon class="cls-31" points="141 97.28 135 92.48 135 92.35 135.57 92.29 141 97.04 141 97.28"/><polygon class="cls-32" points="141 97.53 135 92.72 135 92.48 141 97.28 141 97.53"/><polygon class="cls-33" points="141 97.77 135 92.97 135 92.72 141 97.53 141 97.77"/><polygon class="cls-34" points="141 98.02 135 93.21 135 92.97 141 97.77 141 98.02"/><polygon class="cls-35" points="141 98.26 135 93.46 135 93.21 141 98.02 141 98.26"/><polygon class="cls-36" points="141 98.51 135 93.7 135 93.46 141 98.26 141 98.51"/><polygon class="cls-37" points="141 98.75 135 93.95 135 93.7 141 98.51 141 98.75"/><polygon class="cls-38" points="141 99 135 94.19 135 93.95 141 98.75 141 99"/><polygon class="cls-39" points="141 99.24 135 94.44 135 94.19 141 99 141 99.24"/><polygon class="cls-40" points="141 99.49 135 94.69 135 94.44 141 99.24 141 99.49"/><polygon class="cls-41" points="141 99.73 135 94.93 135 94.69 141 99.49 141 99.73"/><polygon class="cls-42" points="141 99.98 135 95.17 135 94.93 141 99.73 141 99.98"/><polygon class="cls-43" points="141 100.22 135 95.42 135 95.17 141 99.98 141 100.22"/><polygon class="cls-44" points="141 100.47 135 95.67 135 95.42 141 100.22 141 100.47"/><polygon class="cls-45" points="141 100.72 135 95.91 135 95.67 141 100.47 141 100.72"/><polygon class="cls-46" points="141 100.96 135 96.16 135 95.91 141 100.72 141 100.96"/><polygon class="cls-47" points="141 101.21 135 96.4 135 96.16 141 100.96 141 101.21"/><polygon class="cls-48" points="141 101.45 135 96.65 135 96.4 141 101.21 141 101.45"/><polygon class="cls-49" points="141 101.7 135 96.89 135 96.65 141 101.45 141 101.7"/><polygon class="cls-50" points="141 101.94 135 97.14 135 96.89 141 101.7 141 101.94"/><polygon class="cls-51" points="141 102.19 135 97.38 135 97.14 141 101.94 141 102.19"/><polygon class="cls-52" points="141 102.43 135 97.63 135 97.38 141 102.19 141 102.43"/><polygon class="cls-53" points="141 102.68 135 97.87 135 97.63 141 102.43 141 102.68"/><polygon class="cls-54" points="141 102.92 135 98.12 135 97.87 141 102.68 141 102.92"/><polygon class="cls-55" points="141 103.17 135 98.36 135 98.12 141 102.92 141 103.17"/><polygon class="cls-8" points="141 103.23 140.39 103.32 135 98.61 135 98.36 141 103.17 141 103.23"/><polygon class="cls-9" points="140.18 103.32 139.91 103.45 135 98.85 135 98.61 140.18 103.32"/><polygon class="cls-10" points="140.06 103.45 139.79 103.58 135 99.1 135 98.85 140.06 103.45"/><polygon class="cls-56" points="139.94 103.58 139.66 103.7 135 99.34 135 99.1 139.94 103.58"/><polygon class="cls-57" points="139.81 103.7 139.54 103.83 135 99.59 135 99.34 139.81 103.7"/><polygon class="cls-58" points="139.69 103.83 139.42 103.96 135 99.83 135 99.59 139.69 103.83"/><polygon class="cls-59" points="139.57 103.96 139.3 104.08 135 100.08 135 99.83 139.57 103.96"/><polygon class="cls-60" points="139.45 104.08 139.17 104.21 135 100.32 135 100.08 139.45 104.08"/><polygon class="cls-6" points="139.32 104.21 139.05 104.34 135 100.57 135 100.32 139.32 104.21"/><polygon class="cls-6" points="139.2 104.48 138.9 105.25 135 105.25 135 100.57 139.2 104.48"/></g><path class="cls-5" d="M112,130.93a1.43,1.43,0,0,1-.79-.24c-1-.66-1.39-2.56-2.72-13.56-.28-2.29-.6-5-.93-7.26-.08,1.1-.15,2.22-.21,3.17-.44,7.27-.69,9.8-2.53,10s-2.69-2.09-4.23-5.94c-.48-1.2-1.14-2.85-1.64-3.79-.36.67-.79,1.71-1.08,2.41-1,2.48-1.84,4.44-3.43,4.48a126.16,126.16,0,0,1-33.43-4l-.69-.2L57,103.87,36.3,99.25a1.29,1.29,0,0,1,.56-2.51l22.17,5,3.42,12.24a124.2,124.2,0,0,0,31.7,3.77,17.67,17.67,0,0,0,1.39-2.9c1-2.46,1.82-4.4,3.37-4.51,1.7-.13,2.61,2.15,4.12,5.92.37.93.85,2.13,1.29,3.06.24-1.73.4-4.4.52-6.37.43-7.16.67-9.65,2.41-10a1.41,1.41,0,0,1,1.13.24c1,.7,1.39,2.75,2.71,13.72.3,2.52.67,5.53,1,7.93.47-2.53,1-5.68,1.29-7.8.27-1.71.52-3.32.72-4.48.33-1.89.5-2.85,1.62-2.92a1.32,1.32,0,0,1,1.35,1,29.74,29.74,0,0,0,2,5.1c.8-2.35,1.28-3.52,2.13-4,1.25-.66,2.51-1.23,3.73-1.78,3.38-1.53,6.58-3,8.95-6l-.23-10.93,3.45-4.68a1.29,1.29,0,0,1,2.07,1.52l-2.93,4,.23,10.93-.26.35c-2.79,3.82-6.57,5.52-10.22,7.17-1.14.51-2.32,1-3.46,1.64a17.92,17.92,0,0,0-1.05,2.68,11.87,11.87,0,0,1-.75,1.92,1.55,1.55,0,0,1-1.53.78c-.89-.11-1.65-.92-2.59-2.8-.14-.28-.28-.58-.42-.89l-.29,1.82c-.42,2.71-.91,5.78-1.37,8.23-.81,4.26-1.22,5-2.14,5.29A1.4,1.4,0,0,1,112,130.93Z"/></svg>