<svg xmlns="http://www.w3.org/2000/svg" xmlns:xlink="http://www.w3.org/1999/xlink" viewBox="0 0 50 50"><defs><style>.cls-1{isolation:isolate;}.cls-2{fill:#8e8e8e;}.cls-11,.cls-12,.cls-3,.cls-4,.cls-5,.cls-6{opacity:0.25;}.cls-11,.cls-12,.cls-3,.cls-4,.cls-5,.cls-6,.cls-8{mix-blend-mode:multiply;}.cls-3{fill:url(#linear-gradient);}.cls-4{fill:url(#linear-gradient-2);}.cls-5{fill:url(#linear-gradient-3);}.cls-6{fill:url(#linear-gradient-4);}.cls-7{fill:#f2f2f2;}.cls-8{opacity:0.77;fill:url(#radial-gradient);}.cls-9{fill:#145668;}.cls-10{fill:#1d6f8c;}.cls-11{fill:url(#linear-gradient-5);}.cls-12{fill:url(#linear-gradient-6);}.cls-13{fill:#124e5e;}.cls-14{fill:#d3c735;}.cls-15{fill:#7d7d7d;}.cls-16{fill:#f1ea3c;}.cls-17{fill:#cacbca;}.cls-18{fill:#fff792;}</style><linearGradient id="linear-gradient" x1="-3498.8" y1="6184.89" x2="-3498.35" y2="6196.1" gradientTransform="translate(6742.81 2314.26) rotate(79.18)" gradientUnits="userSpaceOnUse"><stop offset="0" stop-color="#fff"/><stop offset="1"/></linearGradient><linearGradient id="linear-gradient-2" x1="-2816.2" y1="6573.01" x2="-2815.76" y2="6584.22" gradientTransform="translate(6617.99 2855.34) rotate(90)" xlink:href="#linear-gradient"/><linearGradient id="linear-gradient-3" x1="-5056.36" y1="4395" x2="-5055.91" y2="4406.21" gradientTransform="matrix(1, 0, 0, -1, 5067.92, 4405.41)" xlink:href="#linear-gradient"/><linearGradient id="linear-gradient-4" x1="6731.88" y1="3323.65" x2="6740.85" y2="3325.04" gradientTransform="translate(6773.43 3330.85) rotate(180)" xlink:href="#linear-gradient"/><radialGradient id="radial-gradient" cx="-1406.55" cy="-225.27" r="26.39" gradientTransform="translate(1350.5 253.95) scale(0.94 1)" gradientUnits="userSpaceOnUse"><stop offset="0" stop-color="#fff"/><stop offset="0.41" stop-color="#cacbca"/><stop offset="0.67" stop-color="#999"/><stop offset="0.92" stop-color="#e6e6e6"/></radialGradient><linearGradient id="linear-gradient-5" x1="-2834.74" y1="6586.19" x2="-2833.65" y2="6613.43" gradientTransform="translate(6617.99 2855.34) rotate(90)" xlink:href="#linear-gradient"/><linearGradient id="linear-gradient-6" x1="-2835.17" y1="6586.73" x2="-2834.08" y2="6613.97" gradientTransform="translate(6617.99 2855.34) rotate(90)" xlink:href="#linear-gradient"/></defs><title>b3-robot</title><g class="cls-1"><g id="Layer_1" data-name="Layer 1"><ellipse class="cls-2" cx="40.01" cy="9.13" rx="5.36" ry="5.69"/><ellipse class="cls-2" cx="39.98" cy="40.33" rx="5.36" ry="5.69"/><ellipse class="cls-2" cx="10.8" cy="40.33" rx="5.36" ry="5.69"/><ellipse class="cls-2" cx="10.8" cy="10.34" rx="5.36" ry="5.69"/><path class="cls-3" d="M9.42,36.8A2.63,2.63,0,0,0,5.8,38.16,3,3,0,0,0,7.17,42a2.63,2.63,0,0,0,3.62-1.36A3,3,0,0,0,9.42,36.8Z"/><path class="cls-4" d="M43.74,36.89a2.63,2.63,0,0,0-3.81.66,3,3,0,0,0,.62,4,2.63,2.63,0,0,0,3.81-.66A3,3,0,0,0,43.74,36.89Z"/><path class="cls-5" d="M9.32,9.18A2.63,2.63,0,0,1,10,5.36,3,3,0,0,1,14,6a2.63,2.63,0,0,1-.66,3.81A3,3,0,0,1,9.32,9.18Z"/><path class="cls-6" d="M40.08,4.37A2.63,2.63,0,0,0,36.27,5a3,3,0,0,0,.62,4,2.63,2.63,0,0,0,3.81-.66A3,3,0,0,0,40.08,4.37Z"/><ellipse class="cls-7" cx="25.1" cy="25.03" rx="21.72" ry="23.04"/><path class="cls-8" d="M7.63,11.44c-7,10.26-5,24.85,4.71,32.25a21,21,0,0,0,30.34-5.09c7-10.26,4.76-24.94-4.91-32.34S14.61,1.18,7.63,11.44Z"/><path class="cls-9" d="M49.55,25.62l-3.23,2.5a9.09,9.09,0,0,1-1.41-9.18l4.2,1.46"/><path class="cls-10" d="M49.68,25.63l-3.36,2.47a8.92,8.92,0,0,1-1.87-7.57l4.49.31"/><path class="cls-9" d="M.71,25l3.08,2.68a8.82,8.82,0,0,0,1.94-9.08L1.44,19.77"/><path class="cls-10" d="M.57,25l3.21,2.66a8.92,8.92,0,0,0,2.3-7.45l-4.5.05"/><path class="cls-11" d="M28.8,15.15a6.4,6.4,0,0,0-9.27,1.6A7.33,7.33,0,0,0,21,26.58,6.4,6.4,0,0,0,30.31,25,7.33,7.33,0,0,0,28.8,15.15Z"/><path class="cls-12" d="M28.27,14.72A6.4,6.4,0,0,0,19,16.32a7.33,7.33,0,0,0,1.5,9.84,6.4,6.4,0,0,0,9.27-1.6A7.33,7.33,0,0,0,28.27,14.72Z"/><ellipse class="cls-13" cx="25.05" cy="19.57" rx="3.65" ry="3.87"/><ellipse class="cls-14" cx="24.15" cy="5.77" rx="2.85" ry="2.74"/><path class="cls-15" d="M15.79,42.3a2.11,2.11,0,0,1-3,.63,2.39,2.39,0,0,1-1.11-3,2.11,2.11,0,0,1,3-.63A2.39,2.39,0,0,1,15.79,42.3Z"/><path class="cls-16" d="M16,41.63c-.38.73-1.46.95-2.73.2S11.6,40,12,39.25s2-1.89,3.14-1.19S16.42,40.89,16,41.63Z"/><path class="cls-15" d="M34.35,42.3a2.11,2.11,0,0,0,3,.63,2.39,2.39,0,0,0,1.11-3,2.11,2.11,0,0,0-3-.63A2.39,2.39,0,0,0,34.35,42.3Z"/><path class="cls-16" d="M34.1,41.63c.38.73,1.46.95,2.73.2s1.7-1.84,1.32-2.57-2-1.89-3.14-1.19S33.72,40.89,34.1,41.63Z"/><ellipse class="cls-17" cx="49.31" cy="23.07" rx="0.67" ry="2.66" transform="translate(-1.63 3.88) rotate(-4.43)"/><ellipse class="cls-17" cx="1.1" cy="22.43" rx="2.66" ry="0.67" transform="translate(-21.27 20.51) rotate(-82.27)"/><ellipse class="cls-10" cx="24.99" cy="19.91" rx="3.65" ry="3.87"/><path class="cls-13" d="M26.58,19.21,24.93,6.3l-1,.14L23.88,19.5s-.09.84.45,1.15A1.48,1.48,0,0,0,26.58,19.21Z"/><path class="cls-10" d="M26,19.43,24.51,7.58l-.89.13-.07,12s-.08.77.41,1.06A1.35,1.35,0,0,0,26,19.43Z"/><path class="cls-16" d="M26.59,6.14A2.45,2.45,0,0,0,24,3.9a2.41,2.41,0,0,0-2.28,2.56A2.45,2.45,0,0,0,24.31,8.7,2.41,2.41,0,0,0,26.59,6.14Z"/><ellipse class="cls-18" cx="23.8" cy="6.56" rx="0.64" ry="0.62" transform="translate(-0.38 1.59) rotate(-3.8)"/></g></g></svg>