<svg id="Layer_1" data-name="Layer 1" xmlns="http://www.w3.org/2000/svg" xmlns:xlink="http://www.w3.org/1999/xlink" viewBox="0 0 50 50"><defs><style>.cls-1{fill:#8e8e8e;}.cls-10,.cls-11,.cls-2,.cls-3,.cls-4,.cls-5{opacity:0.25;}.cls-10,.cls-11,.cls-2,.cls-3,.cls-4,.cls-5,.cls-7{isolation:isolate;}.cls-2{fill:url(#linear-gradient);}.cls-3{fill:url(#linear-gradient-2);}.cls-4{fill:url(#linear-gradient-3);}.cls-5{fill:url(#linear-gradient-4);}.cls-6{fill:#f2f2f2;}.cls-7{opacity:0.77;fill:url(#radial-gradient);}.cls-8{fill:#145668;}.cls-9{fill:#1d6f8c;}.cls-10{fill:url(#linear-gradient-5);}.cls-11{fill:url(#linear-gradient-6);}.cls-12{fill:#124e5e;}.cls-13{fill:#d3c735;}.cls-14{fill:#7d7d7d;}.cls-15{fill:#f1ea3c;}.cls-16{fill:#cacbca;}.cls-17{fill:#fff792;}</style><linearGradient id="linear-gradient" x1="-3575.88" y1="-5991.42" x2="-3575.43" y2="-6002.63" gradientTransform="matrix(-0.19, -0.98, -0.98, 0.19, -6517.08, -2376.32)" gradientUnits="userSpaceOnUse"><stop offset="0" stop-color="#fff"/><stop offset="1"/></linearGradient><linearGradient id="linear-gradient-2" x1="-2916.23" y1="-6372.83" x2="-2915.79" y2="-6384.04" gradientTransform="matrix(0, -1, -1, 0, -6367.63, -2905.34)" xlink:href="#linear-gradient"/><linearGradient id="linear-gradient-3" x1="-5056.19" y1="-4295" x2="-5055.74" y2="-4306.21" gradientTransform="translate(-5017.56 -4255.41) rotate(180)" xlink:href="#linear-gradient"/><linearGradient id="linear-gradient-4" x1="6483.69" y1="-3223.69" x2="6492.66" y2="-3225.08" gradientTransform="matrix(1, 0, 0, -1, -6475.07, -3180.85)" xlink:href="#linear-gradient"/><radialGradient id="radial-gradient" cx="-1398.44" cy="277.27" r="26.39" gradientTransform="matrix(-0.94, 0, 0, 1, -1292.7, -255.95)" gradientUnits="userSpaceOnUse"><stop offset="0" stop-color="#fff"/><stop offset="0.41" stop-color="#cacbca"/><stop offset="0.67" stop-color="#999"/><stop offset="0.92" stop-color="#e6e6e6"/></radialGradient><linearGradient id="linear-gradient-5" x1="-2934.74" y1="-6386.01" x2="-2933.65" y2="-6413.25" gradientTransform="matrix(0, -1, -1, 0, -6367.63, -2905.34)" xlink:href="#linear-gradient"/><linearGradient id="linear-gradient-6" x1="-2935.18" y1="-6386.55" x2="-2934.09" y2="-6413.79" gradientTransform="matrix(0, -1, -1, 0, -6367.63, -2905.34)" xlink:href="#linear-gradient"/></defs><title>b3-logo</title><g id="Layer_1-2" data-name="Layer 1"><ellipse class="cls-1" cx="10.17" cy="40.87" rx="5.36" ry="5.69"/><ellipse class="cls-1" cx="10.2" cy="9.67" rx="5.36" ry="5.69"/><ellipse class="cls-1" cx="39.38" cy="9.67" rx="5.36" ry="5.69"/><ellipse class="cls-1" cx="39.38" cy="39.66" rx="5.36" ry="5.69"/><path class="cls-2" d="M40.76,13.2A2.63,2.63,0,0,0,44.29,12l.09-.19A3,3,0,0,0,43,8a2.63,2.63,0,0,0-3.53,1.17l-.09.19A3,3,0,0,0,40.76,13.2Z"/><path class="cls-3" d="M6.44,13.11a2.63,2.63,0,0,0,3.69-.49l.12-.17a3,3,0,0,0-.62-4,2.63,2.63,0,0,0-3.69.49l-.12.17A3,3,0,0,0,6.44,13.11Z"/><path class="cls-4" d="M40.86,40.82a2.63,2.63,0,0,1-.49,3.69l-.19.13a3,3,0,0,1-4-.64,2.63,2.63,0,0,1,.49-3.69l.17-.12A3,3,0,0,1,40.86,40.82Z"/><path class="cls-5" d="M10.1,45.63a2.63,2.63,0,0,0,3.69-.46l.12-.17a3,3,0,0,0-.62-4,2.63,2.63,0,0,0-3.69.49l-.12.17A3,3,0,0,0,10.1,45.63Z"/><ellipse class="cls-6" cx="25.08" cy="24.97" rx="21.72" ry="23.04"/><path class="cls-7" d="M42.55,38.56c7-10.26,5-24.85-4.71-32.25A21,21,0,0,0,8.39,10.15q-.47.61-.89,1.25c-7,10.26-4.76,24.94,4.91,32.34S35.57,48.82,42.55,38.56Z"/><path class="cls-8" d="M.63,24.38l3.23-2.5a9.09,9.09,0,0,1,1.41,9.18L1.07,29.6"/><path class="cls-9" d="M.5,24.37,3.86,21.9a8.92,8.92,0,0,1,1.87,7.57l-4.49-.31"/><path class="cls-8" d="M49.47,25l-3.08-2.68a8.82,8.82,0,0,0-1.94,9.08l4.29-1.17"/><path class="cls-9" d="M49.61,25,46.4,22.34a8.92,8.92,0,0,0-2.3,7.45l4.5,0"/><path class="cls-10" d="M21.38,34.85a6.4,6.4,0,0,0,9-1.18q.16-.2.3-.42a7.33,7.33,0,0,0-1.47-9.83,6.4,6.4,0,0,0-9,1.12q-.17.22-.33.46A7.33,7.33,0,0,0,21.38,34.85Z"/><path class="cls-11" d="M21.91,35.28a6.4,6.4,0,0,0,9-1.18q.16-.2.3-.42a7.33,7.33,0,0,0-1.5-9.84,6.4,6.4,0,0,0-9,1.18q-.16.2-.3.42A7.33,7.33,0,0,0,21.91,35.28Z"/><ellipse class="cls-12" cx="25.13" cy="30.43" rx="3.65" ry="3.87"/><ellipse class="cls-13" cx="26.03" cy="44.23" rx="2.85" ry="2.74"/><path class="cls-14" d="M34.39,7.7A2.11,2.11,0,0,1,37.29,7l.1.06a2.39,2.39,0,0,1,1.11,3,2.11,2.11,0,0,1-2.9.69l-.1-.06A2.39,2.39,0,0,1,34.39,7.7Z"/><path class="cls-15" d="M34.18,8.37c.38-.73,1.46-1,2.73-.2s1.67,1.83,1.27,2.58-2,1.89-3.14,1.19S33.76,9.11,34.18,8.37Z"/><path class="cls-14" d="M15.83,7.7A2.11,2.11,0,0,0,12.93,7l-.1.06a2.39,2.39,0,0,0-1.11,3,2.11,2.11,0,0,0,2.9.69l.1-.06A2.39,2.39,0,0,0,15.83,7.7Z"/><path class="cls-15" d="M16.08,8.37c-.38-.73-1.46-1-2.73-.2S11.65,10,12,10.74s2,1.89,3.14,1.19S16.46,9.11,16.08,8.37Z"/><ellipse class="cls-16" cx="0.87" cy="26.93" rx="0.67" ry="2.66" transform="translate(-2.08 0.15) rotate(-4.43)"/><ellipse class="cls-16" cx="49.08" cy="27.56" rx="2.66" ry="0.67" transform="translate(15.16 72.49) rotate(-82.27)"/><ellipse class="cls-9" cx="25.19" cy="30.09" rx="3.65" ry="3.87"/><path class="cls-12" d="M23.6,30.79,25.25,43.7l1-.14L26.3,30.5s.09-.84-.45-1.15a1.48,1.48,0,0,0-2.25,1.44Z"/><path class="cls-9" d="M24.18,30.57l1.49,11.85.89-.13.07-12s.08-.77-.41-1.06a1.35,1.35,0,0,0-2,1.34Z"/><path class="cls-15" d="M23.59,43.86a2.45,2.45,0,0,0,2.59,2.24,2.41,2.41,0,0,0,2.28-2.53v0a2.45,2.45,0,0,0-2.59-2.24,2.41,2.41,0,0,0-2.28,2.53Z"/><ellipse class="cls-17" cx="26.38" cy="43.44" rx="0.64" ry="0.62" transform="translate(-2.82 1.84) rotate(-3.8)"/></g></svg>