<svg xmlns="http://www.w3.org/2000/svg" xmlns:xlink="http://www.w3.org/1999/xlink" viewBox="0 0 300 300"><defs><style>.cls-1{isolation:isolate;}.cls-2{opacity:0.66;}.cls-3{fill:#1b1464;}.cls-4{opacity:0.6;}.cls-5{mix-blend-mode:color-burn;fill:url(#radial-gradient);}</style><radialGradient id="radial-gradient" cx="9346.07" cy="221.14" r="35.71" gradientTransform="translate(9499.05 372.34) rotate(180)" gradientUnits="userSpaceOnUse"><stop offset="0"/><stop offset="1" stop-color="#fff"/></radialGradient></defs><title>blackhole</title><g class="cls-1"><g id="Layer_1" data-name="Layer 1"><g class="cls-2"><path class="cls-3" d="M250.95,269.86c-2.44,1.46-4.84,3-7.33,4.38-30.3,16.85-62.68,24.41-97.24,20.28s-64-19.38-88-44.49c-34.61-36.19-44.62-78.58-28-125.84a107.27,107.27,0,0,1,37-50.66c34.59-26.33,87-31.49,125-7,16.28,10.5,30.06,23.6,42.4,38.38.79.94,1.64,1.84,2.46,2.75a6.57,6.57,0,0,0-.08-4.37C231.27,88.42,223,75.05,211,64.33,189,44.54,162.51,37,133.4,37.17c-5.33,0-10.65,0-16,0v-.37h29V35.58c-8,0-16.15-.6-24.14.1C84.4,39,52.72,54.62,29.28,85S-1.31,150.4,3.63,188.13c.6,4.56,1.36,9.1,2,13.65l-.94.15-3.52-19-.44,6.16a152.37,152.37,0,0,1,.68-45.45c6.27-35.17,23.62-63.73,51.32-86.11C70.69,43.06,90.72,32.31,113.52,29c19.34-2.8,38.88-3.64,58.32,2.45,13.3,4.16,26.26,8.26,37,17.42,4.36,3.71,8.81,7.31,13,11.15,12.5,11.37,22.41,24.65,28.41,40.55,11.42,30.3,10.1,60.62-.36,90.87-.48,1.4-.94,2.81-1.41,4.21a20.9,20.9,0,0,0,4.92-5.76c7-11.19,9.76-24,13-36.45,3.14-12,2.45-24.44.61-36.69C262.62,87,246.92,63.43,224.87,44.17c-24-20.91-52.63-30.91-84.34-32.24-28.93-1.21-55.78,6.6-81.6,18.83-1,.47-2,.91-3,1.37a2.24,2.24,0,0,1,1.28-1.61c43.54-22.86,88.5-28.32,134.69-9.26,37.28,15.39,63.75,42.09,78.12,80.08,5.69,15,8.79,30.91,6.74,46.86-3.36,26.16-11.48,50.67-30.79,70-4.91,4.92-9.13,10.92-14.86,14.53-18.52,11.65-38,21-60.7,21.38-20.36.37-39.9-1.93-57.83-12.46-22.1-13-37.89-31.83-50.36-53.81-.64-1.12-1.31-2.22-2-3.33l-1.06.17c-.07,1.61-.57,3.34-.14,4.8a140.61,140.61,0,0,0,4.75,14.09c4.26,10.39,9,20.73,16.94,28.75,29.48,29.75,65.14,41.56,106.65,35.54,30.09-4.36,55.59-17.64,75.6-40.44,30.06-34.25,39.49-74.34,31.64-118.82-1.15-6.53-3.1-12.92-4.67-19.38a4.07,4.07,0,0,1,1.2,1.81,144.38,144.38,0,0,1,6.69,68.69C289.8,214.92,238.77,277.25,166,278.13c-18.54.22-36.4-2.4-53.23-9.21-19.78-8-35.88-22-49.46-38.2-16.73-19.9-22.9-44.13-23.54-69.65-.25-10,1.6-20,2.45-30a25.44,25.44,0,0,0-.21-3.68c-2.91,4.6-5.67,9-7,13.86-3.87,13.62-5.59,27.57-3.12,41.67,8.61,49.18,36.61,83.13,82.68,101.26,36,14.17,72.61,12.05,108.51-1.74,9.44-3.62,18.44-8.38,27.64-12.62ZM131,70.93c-10-3.24-38.69,8.58-55.76,23.65C58.62,109.21,48,126.94,45.91,149.75,58,104.73,87.41,79.56,131,70.93Zm7.57,152.94c-19.85-6.7-33.07-21.29-43.7-38.68l-.81.51c1.87,3.7,3.52,7.53,5.65,11.08,11.29,18.85,28.06,29.38,49.72,32.28,13.51,1.81,27,2.61,40.29-1.46,2.67-.82,5.23-2,7.84-3C177.7,231,158,230.44,138.53,223.87ZM115,238.41c-19.37-11.22-31.55-28.33-39.3-48.73-8.11-21.36-4.24-41.89,5.81-61.75C56.76,159.4,77.4,227.27,115,238.41ZM213.35,91.09c-13.87-17.93-30.54-31.58-53.87-34.94C181.37,61.85,198.51,74.71,213.35,91.09ZM76.5,150.23l1.15.47,8.56-20.5-1.31-.54Z"/><path class="cls-3" d="M45.91,149.75c12.14-45,41.5-70.18,85-78.82-10-3.24-38.69,8.58-55.76,23.65C58.62,109.21,48,126.94,45.91,149.75Z"/><path class="cls-3" d="M197.51,224.62c-19.81,6.4-39.51,5.83-59-.75-19.85-6.7-33.07-21.29-43.7-38.68l-.81.51c1.87,3.7,3.52,7.53,5.65,11.08,11.29,18.85,28.06,29.38,49.72,32.28,13.51,1.81,27,2.61,40.29-1.46C192.34,226.8,194.9,225.62,197.51,224.62Z"/><path class="cls-3" d="M81.54,127.93C56.76,159.4,77.4,227.27,115,238.41c-19.37-11.22-31.55-28.33-39.3-48.73C67.62,168.32,71.5,147.79,81.54,127.93Z"/><path class="cls-3" d="M159.48,56.15c21.89,5.7,39,18.56,53.87,34.94C199.48,73.16,182.81,59.51,159.48,56.15Z"/><path class="cls-3" d="M84.91,129.66l-8.4,20.57,1.15.47,8.56-20.5Z"/></g><g class="cls-4"><path class="cls-3" d="M223.58,190.48c20-12.53,28.85-32.58,36.69-53.39.34,33.1-10.87,60.95-37.63,81.41-24.34,18.6-52.68,18.61-90.47,0,22.27,25.62,50.45,26.27,79.68,23.82-26.63,13.46-54.12,15.7-81.83,4.28-31-12.77-44.79-37.84-47.57-70.21-3.63,12.8-2.3,25.52,2.9,37.43,5.07,11.6,11.71,22.51,17.27,33-18.78-9.66-37.29-36.25-42.42-61.94-5.6-28,2.66-51.74,23.47-72.13C70.58,118,61.33,131.56,46.68,166c-4-21.08,9.34-61.32,36.9-81.3,21.44-15.55,55-21.56,89.32-.49-3.68-6.5-11.35-13.57-21.53-17.11a129.15,129.15,0,0,0-28.31-6.51c-9.38-1-19,.06-29.72.25C122.21,47.15,150.52,44.9,179,57.64c29.53,13.23,42.41,38,45.13,69.17a55,55,0,0,0-2.87-37.23C216.14,78,209.56,67,204.07,56.6c17.22,7.41,37.3,36.23,42.35,62.08C251.9,146.71,243.4,170.36,223.58,190.48Z"/></g><g class="cls-4"><path class="cls-3" d="M215.57,201.33c-19.42,18.33-42.08,25.07-67.68,17.26-27.66-8.44-43-28.28-48.25-57.64a57.33,57.33,0,0,0-.9,36.11c3.47,11.84,10.46,21.36,19.51,29.52-20.2-10.86-32.47-27.71-35.06-50.37-3.66-32.14,10.56-55.34,39.2-71A57.72,57.72,0,0,0,87.85,115.5c-10.21,7-17.07,16.6-22,27.76,4.31-23,17-39.61,38.16-49.61,19.63-9.28,50.64-11,77.37,14.73-1.26-13.09-20-38.4-52-40.45,10.34-5.14,37.06,1.61,50.64,13.35,27.79,24,32,53.13,17.75,85.94,18.39-10.47,26.39-33.2,22.61-63.34,9.18,19,9.61,38.24,1,57.59a65.37,65.37,0,0,1-30.51,32.07c-13.81,7.17-28.46,9-43.78,7.07C169.72,216,192.54,215.43,215.57,201.33Zm-54.8-41.26a16,16,0,0,0,.08-22.54,16,16,0,1,0-22.59,22.72A15.84,15.84,0,0,0,160.77,160.07Z"/></g><circle class="cls-5" cx="152.98" cy="151.21" r="35.71" transform="translate(-62.11 152.46) rotate(-45)"/></g></g></svg>