<svg id="Layer_1" data-name="Layer 1" xmlns="http://www.w3.org/2000/svg" viewBox="0 0 50 50"><defs><style>.cls-1{opacity:0.1;}.cls-2{fill:#d3b537;}.cls-3{fill:#ffdb45;}.cls-4{fill:#e5c53c;}.cls-5{opacity:0.15;}.cls-6{fill:#cacbca;}.cls-7{fill:#fff;}</style></defs><title>box-tile</title><rect class="cls-1" x="3.68" y="10.16" width="42.64" height="39.86"/><rect class="cls-2" x="3.68" y="8.05" width="42.64" height="39.86"/><rect class="cls-3" x="3.68" y="-0.02" width="42.64" height="37.72"/><rect class="cls-3" x="8.35" y="39.87" width="33.53" height="6.39"/><polygon class="cls-4" points="8.52 33.28 41.45 33.28 24.77 19.16 8.52 5.44 8.52 33.28"/><rect class="cls-1" x="8.35" y="39.85" width="33.53" height="4.66"/><polygon class="cls-4" points="11.67 5 40.96 27.74 41.17 5 11.67 5"/><path class="cls-2" d="M41,5l-.14,22.74L11.67,5H41m.94-1H9.46L11.2,5.31,40.5,28,41.7,29V27.42l.21-22.7V4Z"/><polygon class="cls-2" points="41.43 6.04 41.43 4.02 8.37 4.02 8.37 6.08 40.13 6.08 41.43 6.04"/><rect class="cls-2" x="36.77" y="5.53" width="0.67" height="22.71"/><rect class="cls-2" x="31.58" y="5.53" width="0.67" height="22.71"/><rect class="cls-2" x="26.61" y="5.53" width="0.67" height="16.19" transform="matrix(1, -0.01, 0.01, 1, -0.12, 0.24)"/><rect class="cls-2" x="21.58" y="5.53" width="0.67" height="9.92"/><rect class="cls-2" x="17.12" y="5.53" width="0.67" height="9.92"/><path class="cls-2" d="M25.2,8.26l0-.09-.1-.25a2,2,0,0,0-.2-.35.48.48,0,0,0-.15-.15h-.1l0,0a.65.65,0,0,0-.13.21,2.17,2.17,0,0,0-.1.29,5.25,5.25,0,0,0-.13.67c0,.24-.05.49-.06.74s0,.51,0,.77,0,.51,0,.77.05.5.09.73a3.29,3.29,0,0,0,.17.65.74.74,0,0,0,.14.23l.06,0h.07a.5.5,0,0,0,.16-.16,1.62,1.62,0,0,0,.12-.21,4.06,4.06,0,0,0,.15-.38l.08-.25,0-.09v.1c0,.06,0,.15,0,.27a2.83,2.83,0,0,1-.09.42,1.8,1.8,0,0,1-.09.25l0,.07,0,.07-.05.07-.07.06,0,0-.06,0h-.11a.4.4,0,0,1-.22-.08.67.67,0,0,1-.14-.15,1.34,1.34,0,0,1-.1-.16,3.06,3.06,0,0,1-.26-.71,6.05,6.05,0,0,1-.14-.77c0-.26,0-.53-.05-.8s0-.54,0-.8a7,7,0,0,1,.1-.77,4.38,4.38,0,0,1,.2-.71,2.06,2.06,0,0,1,.15-.32.87.87,0,0,1,.24-.27l.09,0,.06,0h0a.32.32,0,0,1,.2.06.66.66,0,0,1,.18.23,1.71,1.71,0,0,1,.14.41c0,.11,0,.21,0,.27Z"/><path class="cls-2" d="M24.71,10.67l0,0,.06.1a.81.81,0,0,0,.1.14l.06,0h0a.82.82,0,0,0,.06-.19,2.77,2.77,0,0,0,0-.28c0-.1,0-.21,0-.31s0-.22,0-.33,0-.11,0-.16,0-.11,0-.16,0-.21,0-.31A1.69,1.69,0,0,0,25,8.94l0-.08h0s0,0-.06,0L24.84,9l-.09.15-.07.15v0a1.14,1.14,0,0,1,0-.12,1.12,1.12,0,0,1,0-.19.72.72,0,0,1,0-.12.33.33,0,0,1,.1-.15l0,0,0,0H25a.26.26,0,0,1,.14,0l0,0,0,0,.06.08a1.4,1.4,0,0,1,.13.33,2.32,2.32,0,0,1,.07.35c0,.06,0,.12,0,.18s0,.13,0,.18a3.2,3.2,0,0,1,0,.36,2.53,2.53,0,0,1-.06.35,1.83,1.83,0,0,1-.1.32,1.06,1.06,0,0,1-.08.15.49.49,0,0,1-.13.14l-.07,0h-.12l-.05,0a.3.3,0,0,1-.09-.13.7.7,0,0,1,0-.2,1,1,0,0,1,0-.12Z"/><path class="cls-2" d="M35.69,5.42s0,.37,0,.91,0,1.28,0,2,0,1.46,0,2,0,.91,0,.91-.05-.36-.12-.91-.14-1.27-.21-2-.11-1.46-.13-2,0-.92,0-.92Z"/><path class="cls-2" d="M33.17,4.83V4.9s0,.11,0,.19.06.39.09.66.06.59.09.93c0,.17,0,.35,0,.53s0,.36,0,.54l0,.54c0,.18,0,.36,0,.53,0,.34,0,.66,0,.94s0,.51,0,.67,0,.14,0,.19v.07l0-.06-.05-.18c0-.16-.1-.38-.15-.65s-.1-.59-.14-.93c0-.17,0-.35-.05-.53s0-.36,0-.55,0-.37,0-.55,0-.36,0-.53c0-.34,0-.67.07-.94s.07-.5.1-.66,0-.14,0-.19Z"/><path class="cls-2" d="M28.46,3.82v.07s0,.11,0,.19.06.39.09.66.06.59.09.93c0,.17,0,.35,0,.53s0,.36,0,.54l0,.54c0,.18,0,.36,0,.53,0,.34,0,.66,0,.94s0,.51,0,.67,0,.14,0,.19v.07l0-.06-.05-.18c0-.16-.1-.38-.15-.65s-.1-.59-.14-.93c0-.17,0-.35-.05-.53s0-.36,0-.55,0-.37,0-.55,0-.36,0-.53c0-.34,0-.67.07-.94s.07-.5.1-.66,0-.14,0-.19Z"/><path class="cls-2" d="M33.25,15.51v.07s0,.11,0,.19.06.39.09.66.06.59.09.93c0,.17,0,.35,0,.53s0,.36,0,.54l0,.54c0,.18,0,.36,0,.53,0,.34,0,.66,0,.94s0,.51,0,.67,0,.14,0,.19v.07l0-.06-.05-.18c0-.16-.1-.38-.15-.65s-.1-.59-.14-.93c0-.17,0-.35-.05-.53s0-.36,0-.55,0-.37,0-.55,0-.36,0-.53c0-.34,0-.67.07-.94s.07-.5.1-.66,0-.14,0-.19Z"/><path class="cls-2" d="M34.85,11.31v.11c0,.07,0,.18,0,.31s.07.66.1,1.12.07,1,.1,1.58c0,.29,0,.59,0,.89l0,.92,0,.92c0,.3,0,.6,0,.89,0,.58,0,1.12,0,1.58s0,.85,0,1.12,0,.24,0,.32v.11l0-.11c0-.07,0-.18-.05-.31s0-.3-.07-.48-.06-.4-.08-.63c-.06-.46-.11-1-.15-1.58,0-.29,0-.59-.06-.89s0-.61,0-.92,0-.62,0-.92,0-.6,0-.89c0-.58,0-1.12.05-1.59,0-.23,0-.44,0-.63s0-.35,0-.49,0-.24,0-.31Z"/><path class="cls-2" d="M38.8,11.22v.12c0,.08,0,.2,0,.35,0,.3.07.74.1,1.26s.07,1.13.1,1.78c0,.33,0,.66,0,1l0,1,0,1c0,.34,0,.68,0,1,0,.65,0,1.26,0,1.78s0,1,0,1.26c0,.15,0,.27,0,.35v.13l0-.12c0-.08,0-.2-.06-.35s-.05-.33-.08-.55-.06-.45-.09-.71c-.06-.52-.11-1.13-.16-1.78,0-.33,0-.66-.06-1s0-.69,0-1,0-.7,0-1,0-.68,0-1c0-.65,0-1.26.05-1.79,0-.26,0-.5,0-.71s0-.4,0-.55,0-.27,0-.35Z"/><path class="cls-2" d="M29.84,11s0-.19.08,0a4,4,0,0,1,.11.73,4.16,4.16,0,0,1,0,.51,5.52,5.52,0,0,1-.09.62,3.69,3.69,0,0,0-.06.69,5.07,5.07,0,0,0,.06.72c0,.24.07.48.09.72s0,.47,0,.7A8.93,8.93,0,0,1,30,17c0,.18,0,.35-.06.5s0,.18-.06.28-.08.23-.08.23h-.05s0,0-.08-.23,0-.19-.06-.34,0-.29-.06-.47a8.76,8.76,0,0,1,0-1.24c0-.23,0-.46,0-.7s0-.48.09-.73a5.19,5.19,0,0,0,.06-.73,3.89,3.89,0,0,0-.06-.71,6.16,6.16,0,0,1-.09-.66,5.51,5.51,0,0,1,0-.59,2.22,2.22,0,0,1,.11-.58c0-.21.08,0,.08,0Z"/><path class="cls-2" d="M20,7a.67.67,0,0,1,.08.26,5.77,5.77,0,0,1,.11.85,5.17,5.17,0,0,1,0,.57,6,6,0,0,1-.09.65,3.84,3.84,0,0,0-.06.7,5.18,5.18,0,0,0,.06.73c0,.24.07.49.09.73s0,.48,0,.71a8.94,8.94,0,0,1,0,1.25c0,.18,0,.35-.06.5s0,.44-.06.55S20,15,20,15H20s0-.29-.08-.5,0-.32-.06-.47,0-.36-.06-.54a9.25,9.25,0,0,1,0-1.27c0-.23,0-.48,0-.72s0-.49.09-.73A5.24,5.24,0,0,0,19.9,10a3.91,3.91,0,0,0-.06-.71,6.17,6.17,0,0,1-.09-.66,5.52,5.52,0,0,1,0-.59,5.17,5.17,0,0,1,.11-.81A.67.67,0,0,1,20,7Z"/><rect class="cls-2" x="11.26" y="8.82" width="0.67" height="24.38"/><rect class="cls-2" x="16.45" y="8.82" width="0.67" height="24.38"/><rect class="cls-2" x="21.42" y="15.82" width="0.67" height="17.38" transform="translate(-0.2 0.18) rotate(-0.47)"/><rect class="cls-2" x="26.46" y="22.54" width="0.67" height="10.65"/><rect class="cls-2" x="30.91" y="22.54" width="0.67" height="10.65"/><path class="cls-2" d="M13,33.25s0-.39,0-1,0-1.37,0-2.15,0-1.57,0-2.16,0-1,0-1,.05.39.12,1,.14,1.37.21,2.15.11,1.57.13,2.16,0,1,0,1Z"/><path class="cls-2" d="M15.23,30.2l0,.58,0,.58c0,.19,0,.38,0,.56,0,.37.06.71.09,1s0,.28,0,.4h.19c0-.12,0-.25,0-.4s.05-.64.07-1c0-.18,0-.38,0-.57s0-.39,0-.59,0-.39,0-.59,0-.38-.05-.57c0-.37-.09-.71-.14-1s-.11-.53-.15-.7l-.05-.2,0-.07v.07s0,.11,0,.2,0,.42,0,.72,0,.64,0,1C15.22,29.82,15.22,30,15.23,30.2Z"/><path class="cls-2" d="M20.16,30.83l0,.58,0,.58c0,.19,0,.38,0,.56s0,.46.05.66h.35c0-.21,0-.44,0-.68s0-.38,0-.57,0-.39,0-.59,0-.39,0-.59,0-.38-.05-.57c0-.37-.09-.71-.14-1s-.11-.53-.15-.7l-.05-.2,0-.07v.07s0,.11,0,.2,0,.42,0,.72,0,.64,0,1C20.15,30.45,20.16,30.64,20.16,30.83Z"/><path class="cls-2" d="M15.46,22.42v-.07s0-.11,0-.2-.06-.42-.09-.71-.06-.64-.09-1c0-.18,0-.37,0-.56l0-.58,0-.58c0-.19,0-.38,0-.57,0-.37,0-.71,0-1s0-.54,0-.72,0-.15,0-.2v-.07l0,.07.05.2c0,.17.1.41.15.7s.1.63.14,1c0,.18,0,.37.05.57s0,.39,0,.59,0,.39,0,.59,0,.38,0,.57c0,.37,0,.71-.07,1s-.07.54-.1.71,0,.15,0,.2Z"/><path class="cls-2" d="M23.78,30.15v-.07s0-.11,0-.2-.06-.42-.09-.71-.06-.64-.09-1c0-.18,0-.37,0-.56l0-.58,0-.58c0-.19,0-.38,0-.57,0-.37,0-.71,0-1s0-.54,0-.72,0-.15,0-.2v-.07l0,.07.05.2c0,.17.1.41.15.7s.1.63.14,1c0,.18,0,.37.05.57s0,.39,0,.59,0,.39,0,.59,0,.38,0,.57c0,.37,0,.71-.07,1s-.07.54-.1.71,0,.15,0,.2Z"/><path class="cls-2" d="M13.86,26.93v-.12c0-.08,0-.19,0-.34s-.07-.7-.1-1.2-.07-1.08-.1-1.7c0-.31,0-.63,0-1l0-1,0-1c0-.33,0-.65,0-1,0-.62,0-1.2,0-1.7s0-.91,0-1.2,0-.26,0-.34v-.12l0,.12c0,.08,0,.19.05.33s0,.32.07.52.06.43.08.68c.06.5.11,1.07.15,1.7,0,.31,0,.63.06,1s0,.66,0,1,0,.66,0,1,0,.65,0,1c0,.62,0,1.2-.06,1.7,0,.25,0,.48,0,.68s0,.38,0,.52,0,.26,0,.34Z"/><path class="cls-2" d="M9.91,27v-.13c0-.09,0-.22,0-.38,0-.33-.07-.79-.1-1.35s-.07-1.21-.1-1.91c0-.35,0-.71,0-1.08l0-1.11,0-1.11c0-.37,0-.73,0-1.08,0-.7,0-1.35,0-1.91s0-1,0-1.36c0-.16,0-.29,0-.38v-.13l0,.13c0,.09,0,.21.06.38s.05.36.08.59.06.48.09.76c.06.56.11,1.21.16,1.91,0,.35,0,.71.06,1.08s0,.74,0,1.12,0,.75,0,1.12,0,.73,0,1.08c0,.7,0,1.36-.05,1.92,0,.28,0,.54,0,.77s0,.43,0,.59,0,.29,0,.38Z"/><path class="cls-2" d="M18.86,28s0-.17-.08-.4a7.73,7.73,0,0,1-.11-1c0-.2,0-.42,0-.64a7.16,7.16,0,0,1,.09-.71,4.51,4.51,0,0,0,.06-.76,6,6,0,0,0-.06-.78c0-.26-.07-.53-.09-.78s0-.51,0-.76a10.31,10.31,0,0,1,0-1.34c0-.2,0-.38.06-.54s0-.06.06-.18.08-.13.08-.13h.05s0-.1.08.13,0,.14.06.3,0,.28.06.48a9.85,9.85,0,0,1,0,1.32c0,.25,0,.49,0,.74s-.05.51-.09.78a5.94,5.94,0,0,0-.06.78,4.46,4.46,0,0,0,.06.76,7.07,7.07,0,0,1,.09.71c0,.23,0,.44,0,.63a8.08,8.08,0,0,1-.11,1c0,.23-.08.4-.08.4Z"/><path class="cls-2" d="M28.7,32s0-.27-.08-.5a8.77,8.77,0,0,1-.11-1c0-.2,0-.45,0-.67s.05-.48.09-.73a4.59,4.59,0,0,0,.06-.77,6.05,6.05,0,0,0-.06-.79c0-.26-.07-.53-.09-.79s0-.51,0-.76a10.32,10.32,0,0,1,0-1.35c0-.2,0-.38.06-.54s0,0,.06-.07.08,0,.08,0h.05s0-.21.08,0a1.79,1.79,0,0,1,.06.24c0,.16,0,.26.06.45A9.65,9.65,0,0,1,29,26c0,.25,0,.48,0,.74s-.05.51-.09.77a5.91,5.91,0,0,0-.06.78,4.45,4.45,0,0,0,.06.76,7.06,7.06,0,0,1,.09.71c0,.23,0,.44,0,.63a10.3,10.3,0,0,1-.11,1.09c0,.23-.08.5-.08.5Z"/><path class="cls-2" d="M25.31,29a1.51,1.51,0,0,0,.08.29,1.6,1.6,0,0,1,.11.4,1,1,0,0,1,0,.25,1.07,1.07,0,0,1-.09.26.58.58,0,0,0-.06.26.75.75,0,0,0,.06.27,1.34,1.34,0,0,1,.09.26c0,.09,0,.17,0,.25a1.17,1.17,0,0,1,0,.45,1.71,1.71,0,0,1-.06.18c0,.05,0,0-.06.07s-.08.05-.08.05h-.05s0,0-.08-.05a.61.61,0,0,1-.06-.1,1.36,1.36,0,0,1-.06-.16,1.12,1.12,0,0,1,0-.44c0-.08,0-.16,0-.25a1.3,1.3,0,0,1,.09-.26.72.72,0,0,0,.06-.26.54.54,0,0,0-.06-.25.93.93,0,0,1-.09-.24.71.71,0,0,1,0-.21,2.44,2.44,0,0,1,.11-.49,1.51,1.51,0,0,0,.08-.29Z"/><rect class="cls-2" x="36.04" y="40.18" width="0.67" height="4.25"/><rect class="cls-2" x="31.01" y="40.18" width="0.67" height="4.25" transform="translate(-0.37 0.28) rotate(-0.51)"/><rect class="cls-2" x="26.03" y="40.18" width="0.67" height="4.25"/><rect class="cls-2" x="21.58" y="40.18" width="0.67" height="4.25"/><path class="cls-2" d="M28.6,44.43q0-.21,0-.42c0-.25,0-.5.06-.74a5.25,5.25,0,0,1,.13-.67,2.17,2.17,0,0,1,.1-.29A.65.65,0,0,1,29,42.1l0,0h.1a.48.48,0,0,1,.15.15,2,2,0,0,1,.2.35l.1.25,0,.09v-.09c0-.06,0-.15,0-.27a1.71,1.71,0,0,0-.14-.41.66.66,0,0,0-.18-.23.32.32,0,0,0-.2-.06h0l-.06,0-.09,0a.87.87,0,0,0-.24.27,2.06,2.06,0,0,0-.15.32,4.38,4.38,0,0,0-.2.71,7,7,0,0,0-.1.77c0,.15,0,.29,0,.44Z"/><path class="cls-2" d="M29.14,43.92l.07-.15.09-.15.06-.08,0,0,0,.08a1.69,1.69,0,0,1,.05.27c0,.1,0,.2,0,.31s0,.11,0,.16v.1h.42v-.12c0-.06,0-.12,0-.18a2.32,2.32,0,0,0-.07-.35,1.4,1.4,0,0,0-.13-.33l-.06-.08,0,0,0,0a.26.26,0,0,0-.14,0h-.07l0,0,0,0a.33.33,0,0,0-.1.15.71.71,0,0,0,0,.12,1.26,1.26,0,0,0,0,.32Zm.28-.42h0Z"/><path class="cls-2" d="M39.81,43c0,.49.09,1,.14,1.4h.13c0-.43,0-.92,0-1.41,0-.73,0-1.46,0-2s0-.91,0-.91h-.5s0,.37,0,.92S39.75,42.3,39.81,43Z"/><path class="cls-2" d="M37.45,43c0,.18,0,.36.05.53,0,.33.09.64.14.91h.3c0-.27,0-.59,0-.93,0-.17,0-.35,0-.53l0-.54c0-.18,0-.36,0-.54s0-.35,0-.53c0-.34-.06-.66-.09-.93s-.07-.5-.09-.66,0-.14,0-.19v0s0,.11,0,.19-.07.39-.1.66-.05.6-.07.94c0,.17,0,.35,0,.53s0,.36,0,.55S37.43,42.81,37.45,43Z"/><path class="cls-2" d="M32.91,38.47v.07s0,.11,0,.19.06.39.09.66.06.59.09.93c0,.17,0,.35,0,.53s0,.36,0,.54l0,.54c0,.18,0,.36,0,.53,0,.34,0,.66,0,.94s0,.51,0,.67,0,.14,0,.19v.07l0-.06-.05-.18c0-.16-.1-.38-.15-.65s-.1-.59-.14-.93c0-.17,0-.35-.05-.53s0-.36,0-.55,0-.37,0-.55,0-.36,0-.53c0-.34,0-.67.07-.94s.07-.5.1-.66,0-.14,0-.19Z"/><path class="cls-2" d="M24.3,44c0,.14,0,.28,0,.43h.17c0-.14,0-.29,0-.43a6.17,6.17,0,0,0,.09-.66,5.52,5.52,0,0,0,0-.59,6.41,6.41,0,0,0-.11-.89,3,3,0,0,0-.08-.34h-.05a3,3,0,0,0-.08.34,6.41,6.41,0,0,0-.11.89,5.52,5.52,0,0,0,0,.59A6.17,6.17,0,0,0,24.3,44Z"/><rect class="cls-2" x="11.46" y="40.01" width="0.67" height="4.45"/><polygon class="cls-2" points="17.17 44.47 17.14 40.02 16.46 40.02 16.5 44.47 17.17 44.47"/><path class="cls-2" d="M19.57,40q0,.22,0,.44c0,.27,0,.53-.06.79a5.9,5.9,0,0,1-.13.72,2.41,2.41,0,0,1-.1.31.69.69,0,0,1-.13.23l0,0H19a.5.5,0,0,1-.15-.15,2.15,2.15,0,0,1-.2-.37l-.1-.26,0-.1v.1c0,.07,0,.16,0,.28a1.9,1.9,0,0,0,.14.44.69.69,0,0,0,.18.25.31.31,0,0,0,.2.07h0l.06,0,.09-.05a.91.91,0,0,0,.24-.29,2.26,2.26,0,0,0,.15-.34,4.9,4.9,0,0,0,.2-.76,7.84,7.84,0,0,0,.1-.82c0-.16,0-.31,0-.47Z"/><path class="cls-2" d="M19,40.55l-.07.15-.09.16-.06.09,0,0,0-.08a1.9,1.9,0,0,1-.05-.28c0-.1,0-.22,0-.33s0-.11,0-.17V40h-.42v.13c0,.06,0,.13,0,.19a2.61,2.61,0,0,0,.07.37,1.54,1.54,0,0,0,.13.35l.06.08,0,0,0,0a.25.25,0,0,0,.14.05h.07l0,0,0,0a.36.36,0,0,0,.1-.15.8.8,0,0,0,0-.13,1.43,1.43,0,0,0,0-.34Zm-.28.45h0Z"/><path class="cls-2" d="M8.07,43.65c0,.37,0,.66,0,.82h.49c0-.17,0-.46,0-.82,0-.59-.07-1.37-.13-2.14,0-.52-.09-1-.14-1.49H8.09c0,.46,0,1,0,1.5C8.11,42.29,8.09,43.07,8.07,43.65Z"/><path class="cls-2" d="M10.23,41.57l0,.58c0,.19,0,.39,0,.58s0,.38,0,.56c0,.36.06.7.09,1l0,.2h.25l0-.2c0-.29.05-.63.07-1,0-.18,0-.37,0-.56s0-.39,0-.58,0-.39,0-.58,0-.38-.05-.56c0-.35-.09-.68-.14-1h-.3c0,.29,0,.63,0,1C10.23,41.19,10.23,41.38,10.23,41.57Z"/><path class="cls-2" d="M14.94,42.64l0,.58c0,.19,0,.39,0,.58s0,.38,0,.56v.11h.43v-.12c0-.18,0-.37,0-.56s0-.39,0-.58,0-.39,0-.58,0-.38-.05-.56c0-.36-.09-.7-.14-1s-.11-.53-.15-.7L15,40.17l0-.07v.07s0,.11,0,.2,0,.42,0,.71,0,.63,0,1C14.94,42.26,14.94,42.45,14.94,42.64Z"/><path class="cls-2" d="M23.87,40.47c0-.15,0-.3,0-.45h-.17c0,.15,0,.31,0,.45a7,7,0,0,0-.09.7,6.25,6.25,0,0,0,0,.63,7.24,7.24,0,0,0,.11.94,3.39,3.39,0,0,0,.08.36h.05a3.39,3.39,0,0,0,.08-.36,7.24,7.24,0,0,0,.11-.94,6.25,6.25,0,0,0,0-.63A7,7,0,0,0,23.87,40.47Z"/><rect class="cls-5" x="8.35" y="39.91" width="33.53" height="0.87"/><polygon class="cls-2" points="42.09 33.16 42.09 29 11.99 5.62 8.37 5.29 8.63 10.66 35.87 33.16 42.09 33.16"/><polygon class="cls-3" points="8.46 9.28 38.19 34 43 34 43 27.93 11.99 3.92 8.24 3.67 8.46 9.28"/><circle class="cls-6" cx="6.86" cy="3.52" r="1.09"/><circle class="cls-7" cx="6.86" cy="3.01" r="1.09"/><circle class="cls-6" cx="42.82" cy="34.6" r="1.09"/><circle class="cls-7" cx="42.82" cy="34.1" r="1.09"/><circle class="cls-6" cx="43.78" cy="2.48" r="1.09"/><circle class="cls-7" cx="43.78" cy="1.97" r="1.09"/><circle class="cls-6" cx="6.27" cy="35.05" r="1.09"/><circle class="cls-7" cx="6.27" cy="34.55" r="1.09"/></svg>