<svg id="Layer_1" data-name="Layer 1" xmlns="http://www.w3.org/2000/svg" viewBox="0 0 100 100"><defs><style>.cls-1{opacity:0.1;}.cls-2{fill:#fff;}</style></defs><title>dirt</title><g class="cls-1"><path d="M58.58,0c-.79,1.55-2.43,1.77-3.81,2.35s-3,1.13-4.85,1.79l-.68-1.94c.16-1,1.88-.12,3-.67L50.89.91V0h2.37V1.38L55,0Z"/><path d="M100,62.13a1.76,1.76,0,0,0-1.54.6,8.64,8.64,0,0,1-2.1.94l.4-2.57-.91-5.26c2.5-.15,2.86.44,1.78,2.72a10.71,10.71,0,0,1,.57,1.53,7.29,7.29,0,0,1,0,1.46L100,59.76Z"/><path d="M97,0l.65,1.12a19.49,19.49,0,0,1-4.46,6.51H91.8V6.19C94.34,4.92,95.28,2.58,95.86,0Z"/><path d="M100,10.65c-.2,0-.43-.07-.58,0-1.74,1-3.47,2-5.17,3C93,13.36,92.74,12.54,93,11.21l1.6.57L100,7.69Z"/><path d="M80.47,0l-.53,1.65c-2.49.41-4.8-.36-7,.56C72,1.77,72.19.86,72.19,0H74l.19.49.4-.49Z"/><path d="M0,72.78c.29,0,.74-.13.86,0a12.29,12.29,0,0,0,4.91,3.11c.25.1.42.4.68.66v1.58a5.36,5.36,0,0,1-1.63-.29c-1.7-1-2.92-2.64-4.82-3.31Z"/><path d="M100,6.51c-1.43,0-2.22,1.23-3.31,1.88a11.51,11.51,0,0,0-1.85,1.8l-2-.69c.17-.35.2-.57.3-.61,2.56-1.05,4.18-3.39,6.51-4.74.07,0,.19,0,.29,0Z"/><path d="M0,11.83l1.5-.72C2.65,9.8,2.56,7.72,4.1,6.26l1.11,1c-.36.83-.69,1.65-1.08,2.44s-.85,1.61-1.34,2.52L0,13.61Q0,12.72,0,11.83Z"/><path d="M64.5,0a7.68,7.68,0,0,0,3.19,1.77l2.67.65V4.14a3.21,3.21,0,0,1-1.09,0C68,3.63,66.79,3,65.54,2.53c-.92-.38-1.86-.69-2.92-1.08L63.31,0Z"/><path d="M100,45.56a3.59,3.59,0,0,1-1.28-.44c-1-.92-1.94-1.95-2.95-2.88a15.74,15.74,0,0,0-1.62-1.17V39.71l1.29-.09c1.62,1,2,3.72,4.56,3.58Z"/><path d="M0,59.76l2.37-2V55.91c.93-.73,1.6-.24,2.22.46l-.73,2.27L0,62.13Q0,60.95,0,59.76Z"/><path d="M100,13.61c-1.91,1.1-4.21,1.58-5.47,3.48l-1.37-1C95.23,14,97.65,13,100,11.83Z"/><path d="M34.32,100a7.84,7.84,0,0,1,.61-1.8c1-1.56,2.09-3.06,3.29-4.8l1,1.74c-1.09,1.4-2,2.57-2.92,3.78a2.83,2.83,0,0,0-.22,1.08Z"/><path d="M14.79,100c.07-.37,0-.85.23-1.08a8.84,8.84,0,0,0,2.29-4.09,4.51,4.51,0,0,1,.68-1.1l1.51,1.12L16.57,100Z"/><path d="M5.33,100c-.56-1.67-1.87-2.79-3.22-4.08A10.74,10.74,0,0,1,3,95a3.66,3.66,0,0,1,.7-.38l4,5.39Z"/><path d="M30.18,100c.28-1.26.89-2.49.57-3.82a11.83,11.83,0,0,0-.92-2l2.1-.18a11.26,11.26,0,0,0,.52,3c.26.85-.3,1.94-.5,2.92Z"/><path d="M0,37.87c1.7-.13,2.47-.54,3.16-1.71H4.73a3.44,3.44,0,0,1,0,1.37,3.09,3.09,0,0,1-1,.93c-.53.38-1.09.73-1.79,1.19H0Z"/><path d="M44.38,0c0,.49.21,1.18,0,1.44C43.3,2.56,43.19,4,43.1,5.62l-1.64-1L42.6,0Z"/><path d="M0,63.91a4.5,4.5,0,0,0,1.28-.43A23.68,23.68,0,0,0,3.23,61.7l.38,1.81A8.75,8.75,0,0,1,0,66.27Z"/><path d="M8.28,0c0,.81.63.5,1.05.6a4.25,4.25,0,0,1,2,1L10,1.55l.49.77A4.24,4.24,0,0,1,5.92,0Z"/><path d="M16.57,0,15.43,1.62l-.09,1.79a4.16,4.16,0,0,1-.81.13,2.54,2.54,0,0,1-.81-.19c-.37-.14-.73-.33-1-.44L14.2,0Z"/><path d="M0,34.32l2.33-1.87,1.17.83c-.57.6-.43,1.53-1.55,1.83-.74.2-1.31,1-2,1.58Q0,35.5,0,34.32Z"/><path d="M0,47.93l2.33-1.87,1.34,1L0,50.3Q0,49.11,0,47.93Z"/><path d="M87,0l.83,1.52-1.43,1L85.09,1.42,85.8,0Z"/><path d="M19.53,0V1.52l-1.2,1c-.3-.23-.55-.34-.56-.45,0-.68,0-1.36,0-2Z"/><path d="M0,66.86c.89-.16,1.4.32,1.8,1.09A1.53,1.53,0,0,1,0,69.23Z"/><path d="M84,0l.65,1.13L82.25,2V0Z"/><path d="M90.53,0c.16.89-.32,1.4-1.09,1.8A1.53,1.53,0,0,1,88.17,0Z"/><path d="M0,40.24c.89-.16,1.4.32,1.8,1.09A1.53,1.53,0,0,1,0,42.6Z"/><path d="M26,0l.65,1.13L24.26,2V0Z"/><path d="M61.54,0c.08.6,0,1.22-.6,1.46a10.78,10.78,0,0,1-2.05.33L59.76,0Z"/><path d="M0,89.94c.89-.16,1.4.32,1.8,1.09A1.53,1.53,0,0,1,0,92.31Z"/><path d="M23.08,0V.95a5.42,5.42,0,0,0-.71.24,7.32,7.32,0,0,0-.72.47A1.4,1.4,0,0,1,20.71,0Z"/><path d="M29.59,1.18,30.18,0H32l-.76,2Z"/><path d="M0,87l1.85.92c-.32,1-.83,1.58-1.85,1.44Z"/><path d="M0,78.7H1.66l.15,1.78H0Z"/><path d="M0,96.45l1.7.81c-.17.28-.37.56-.51.85a5.28,5.28,0,0,0-.24.71H0Z"/><path d="M0,51.48H.87l.8,1.57L0,53.85Z"/><path d="M0,69.82c1-.14,1.54.43,1.89,1.57L0,71.6Z"/><path d="M35.5,0l-.59,1.78A1.46,1.46,0,0,1,33.73,0Z"/><path d="M40.83,0V.93c-1.12.56-1.93.32-2.37-.93Z"/><path d="M0,92.9c1.18.32,1.26,1.18,1.14,2.37H0Z"/><path d="M67.46,100V98.82h1.78l.59,1.18Z"/><path d="M0,26.63H.93c.56,1.12.32,1.93-.93,2.37Z"/><path d="M3.55,0,3,1.76C2,1.38,1.67.82,1.78,0Z"/><path d="M49.11,0V.93c-1.12.56-1.93.32-2.37-.93Z"/><path d="M94.67,0V1.07l-1.78.15V0Z"/><path d="M100,50.3l-1.49-1.09L100,47.93Z"/><path d="M100,2.37H98.93L98.78.59H100Z"/><path d="M69.82,0,68.74,1.49,67.46,0Z"/><path d="M100,78.7l-1.49-1.09L100,76.33Z"/><path d="M100,17.16H98.93l-.15-1.78H100Z"/><path d="M0,7.69,1.49,8.78,0,10.06Z"/><path d="M0,83.43H1.07l.15,1.78H0Z"/><path d="M0,19.53l1.49,1.09L0,21.89Z"/><path d="M100,21.89l-1.49-1.09L100,19.53Z"/><path d="M0,4.14,1.49,5.23,0,6.51Z"/><path d="M0,23.08l1.49,1.09L0,25.44Q0,24.26,0,23.08Z"/><path d="M100,57.4l-1.49-1.09L100,55Z"/><path d="M0,30.18l1.49,1.09L0,32.54Q0,31.36,0,30.18Z"/><path d="M0,55l1.49,1.09L0,57.4Q0,56.21,0,55Z"/><path d="M100,32.54l-1.49-1.09L100,30.18Z"/><path d="M0,.59H1.07C1.34,1.73.77,2.11,0,2.37Z"/><path d="M100,65.68H98.93c-.27-1.14.31-1.52,1.07-1.78Z"/><path d="M100,25.44,98.29,24l1.71-.29Z"/><path d="M100,36.69H98.93c-.27-1.14.31-1.52,1.07-1.78Z"/><path d="M0,43.79H1.07C1.34,44.93.77,45.31,0,45.56Z"/><path d="M55.62,100A1.47,1.47,0,0,1,58,100Z"/><path d="M99.41,83.43H100v1.78l-1.13-.8Z"/><path d="M0,15.38l1.28.84L0,17.16Q0,16.27,0,15.38Z"/><path class="cls-2" d="M55,0,53.25,1.38V0Z"/><path d="M0,76.33l1.28.84L0,78.11Q0,77.22,0,76.33Z"/><path d="M100,98.82c-.81-.6-.81-1.18,0-1.78Z"/><path d="M1.78,100c.6-.81,1.18-.81,1.78,0Z"/><path d="M38.46,100c.6-.81,1.18-.81,1.78,0Z"/><path d="M92.9,100c.6-.81,1.18-.81,1.78,0Z"/><path d="M100,74.56c-1.14-.28-.37-1.19-.59-1.78H100Z"/><path d="M100,53.25c-.81-.6-.81-1.18,0-1.78Z"/><path d="M100,95.27c-.81-.6-.81-1.18,0-1.78Z"/><path d="M100,28.4l-.59-.74.59-.45Z"/><path d="M51.48,100l.74-.59.45.59Z"/><path d="M47.34,100l.74-.59.45.59Z"/><path d="M21.3,100l.74-.59.45.59Z"/><path d="M100,88.76,99.41,88l.59-.45Z"/><path d="M100,68.64l-.59-.74.59-.45Z"/><path d="M100,42l-.59-.74.59-.45Z"/><path d="M100,91.72,99.41,91l.59-.45Z"/><path class="cls-2" d="M74.56,0l-.4.49L74,0Z"/><path d="M100,71l-.49-.4.49-.19Z"/><path d="M89.35,100l.4-.49.19.49Z"/><path d="M34.27,70.66l.47-1.89c.4,0,.58,0,.67.09a8.61,8.61,0,0,0,4.67,1.47,17.06,17.06,0,0,0,8.68-1,12.89,12.89,0,0,1,4.12-.68c.48,0,1,.38,1.91.75-3.31,2-6.77,2.08-10,2.68C41.31,72.77,37.83,71.91,34.27,70.66Z"/><path d="M40.47,75.74,41.59,74c1.52,0,3,0,4.46,0a20.21,20.21,0,0,0,11.2-3.67A7.18,7.18,0,0,1,59,69.71c.44,1.45-.66,1.82-1.22,2.3-1.22,1-7.82,3.64-9.38,3.7C45.9,75.82,43.37,75.74,40.47,75.74Z"/><path d="M47.93,17.41V16.08L49.19,16c2.28,1.82,4.48,3.61,6.73,5.32a8.85,8.85,0,0,0,2.85,1.63c1.69.46,2.72,1.64,3.89,2.77v1.46H61.19a4.27,4.27,0,0,0-2.42-2.45,27,27,0,0,1-7.61-5.12A21.41,21.41,0,0,0,47.93,17.41Z"/><path d="M45.32,17.76H47l1.33,1.84a14.88,14.88,0,0,0,1.47,2A13.05,13.05,0,0,0,52,23.3c2,1.26,3.77,2.95,6.24,3.38.41.07.71.78,1.19,1.35a2.6,2.6,0,0,1-2.59.12c-2.1-1.08-4.22-2.13-6.25-3.33a5.67,5.67,0,0,1-2-2.07,6.77,6.77,0,0,0-2.47-3.07C45.69,19.45,45.64,18.6,45.32,17.76Z"/><path d="M54.94,80.14c-.17-.24-.43-.45-.49-.7a7.38,7.38,0,0,1,0-1.4l2.64.49c-.48.59-.76.78-.82,1-.2.8.08,1.6-.58,2.42a28.06,28.06,0,0,1-4.26,4.48c-1.61,1.3-3.53,1.47-5.24,2.3-.32.16-.63.35-1,.54l-.75-.75V87.06C49.48,87.11,52.33,83.95,54.94,80.14Z"/><path d="M40.3,26.37a6.26,6.26,0,0,1,1.4,1.37l-1.36,1.48L38.86,28c-1.48.93-3,1.89-4.47,2.78-.28.16-.73,0-1,0-.61-1,.22-1.49.69-1.73a13.52,13.52,0,0,0,3.46-2.35c1.5-1.5,2.71-3.11,2.75-5.38,0-.39.48-.78.75-1.17,1.27.79,1.27,1.8.69,3a23.85,23.85,0,0,0-1.41,3.27c0,.28-.07.24-.11.2L39.7,27l.19.19A1.77,1.77,0,0,0,40.3,26.37Z"/><path d="M51.88,78.11h1.28l.1,1.17c-2.2,3.49-5,5.92-9.33,6.59l-1.59,2L40.43,86.4c1-.69,1.68-1.62,2.41-1.64,2-.06,3.17-2,5.13-1.95.3,0,.68-.35.89-.63C49.89,80.85,50.87,79.49,51.88,78.11Z"/><path d="M67.8,31.67c-1-2.2,1.31-2.67,1.43-4.08s-.08-2.55,0-3.81c.09-1.11.42-2.2.56-3.31.24-1.9,1.7-2.83,2.86-4.1a1.2,1.2,0,0,1,.53,1.8c-.21.42-.83.65-1,1.07-.59,1.55-1.55,3-1.24,4.83.41,2.46-.62,4.58-1.94,6.57A6.42,6.42,0,0,1,67.8,31.67Z"/><path d="M14.19,64.81l1-1a9.68,9.68,0,0,1,1.47.44c2.3,1.08,4.58,2.21,6.87,3.3a12.23,12.23,0,0,1,4.85,3.77l-.82.82H26.33a4.4,4.4,0,0,0-2.84-2.8c-2.95-1.2-5.56-3.11-8.66-4C14.58,65.33,14.4,65,14.19,64.81Z"/><path d="M45,20.23c1.17,2.47,2.88,4,3.59,6.14.13.39.87.64,1.38.83,1.44.55,2.62,1.67,4.22,1.92.36.06.64.63,1.15,1.17l-1.3,1.39a11.75,11.75,0,0,0-1.78-1.5c-1.37-.71-2.79-1.3-3.91-1.81l-4.6-6.57Z"/><path d="M33.81,5.47l1.36-1.13.57,1.52.36-.3c0,1.26.07,2.53,0,3.79-.13,1.83.94,3.13,1.78,4.55a2.51,2.51,0,0,0,2.25,1v2.33a5.78,5.78,0,0,1-3.94-2.74A8.21,8.21,0,0,1,34.31,9.7a29,29,0,0,0,0-2.93A5,5,0,0,0,33.81,5.47Z"/><path d="M36.6,79.34l-2.17-2c-.11-3.3-2.71-4.91-4.62-7.06a15.41,15.41,0,0,0-.62-1.74,14.2,14.2,0,0,0-1.12-1.62L30,66.84c.43.72.9,1.5,1.35,2.3.57,1,.71,2.23,2.17,2.67.64.19,1.2,1.22,1.45,2C35.49,75.39,36.85,76.74,36.6,79.34Z"/><path d="M46.25,90l1.23-1.33,9.26,9.26-.74.86C52.75,96.06,50.31,92.51,46.25,90Z"/><path d="M49.14,60.93l1.75-1.14a1.8,1.8,0,0,1,.52.22q2.42,1.64,4.83,3.31a7,7,0,0,0,5.19,1.13v1.62c-1.2.58-2.42.09-3.65-.39-1.89-.74-3.82-1.39-5.31-2.86A2.09,2.09,0,0,0,51,62.08C50.53,62.05,50.08,61.54,49.14,60.93Z"/><path d="M58.68,3.1l2,.75v.58L59.23,5A98.16,98.16,0,0,0,48.95,7.7a5.28,5.28,0,0,1-.56-.45,9.8,9.8,0,0,1-.64-.8l1-1c1.13.49,2.18-.12,3.22-.3,1.44-.24,2.77-1,4.29-1A4.42,4.42,0,0,0,58.68,3.1Z"/><path d="M5.37,58.12H7.91L7.1,59.65c.28,3.18-1.33,6.18-1.88,9.37l-1.47.71-.87-.87c.5-1.71,1.66-3.16,2-5.08S5.18,60,5.37,58.12Z"/><path d="M68,5.24V7.17c-2.83-.41-5.48.38-8.16.81a19,19,0,0,0-3.55,1.37l-1-2.12a9.57,9.57,0,0,0,3.28-.65,10.66,10.66,0,0,1,3-.65c1-.21,2,.24,3.1-.34C65.5,5.13,66.71,5.34,68,5.24Z"/><path d="M57.74,85.14H56.19A13.21,13.21,0,0,1,58,79.94c.12-1.9,0-4-1.5-5.49l.69-1.16c2,.68,1.86,2.6,2.43,3.92a3.84,3.84,0,0,1-.34,3.57A19.64,19.64,0,0,0,57.74,85.14Z"/><path d="M67.69,16.54l1.46.08V18.7a14.33,14.33,0,0,1-7.7,2L58.9,22,58,20.69l.49-.71c.3-.31.39-.45.44-.44,1.48.4,2.76-.73,4.18-.59,1,.1,1.84-.46,2.71-.53C67.06,18.32,67.31,17.52,67.69,16.54Z"/><path d="M11.8,88.33v.91H10.33c-.64-1-1.41-2-2-3.17s-1.05-2.33-1.59-3.56c-1.23-.38-3-.23-2.49-2.43l.78-.7a7.25,7.25,0,0,1,3.92,4.19A43.89,43.89,0,0,0,11.8,88.33Z"/><path d="M62.22,69c-.15.39-.2.57-.28.73-.16.36-.34.72-.66,1.4-1.2-2-2.46-2.61-4.13-2.52A5.73,5.73,0,0,1,54.75,68c-1.5-.63-2.95-1.38-4.45-2.1V64.65c.32,0,.78-.27,1-.13,2.68,1.71,5.77,2.19,8.76,3A7.85,7.85,0,0,1,62.22,69Z"/><path d="M71.49,32.28l-1.8-1.62,2.07-.9-.5-.38c.51-1.47,1.13-2.91,1.49-4.41s.48-3.14.71-4.78h1.69a100.19,100.19,0,0,1-2.49,11C72.55,31.53,72,31.79,71.49,32.28Z"/><path d="M96.24,38.37l0,0a9.57,9.57,0,0,1-.12-5.77c.3-1.13.6-2.19-.21-3.26A1.55,1.55,0,0,1,98,28.49c.07.17.21.34.2.5-.18,2.09-.45,4.17-.55,6.26a4.11,4.11,0,0,0,.5,3.05c.24.32-.23,1.18-.33,1.65Z"/><path d="M80.08,57.07a19.91,19.91,0,0,1-2.4-1,15.45,15.45,0,0,0-4.22-1.84,16.54,16.54,0,0,1-3.63-1.85V51l1.47-.18c.94,1.47,2.5,2,4.15,2.42s2.93,1.78,4.72,1.12l.77,1.51Z"/><path d="M92.65,22l-1.37,1.46c-2.17-2.06-2.91-4.6-4.54-6.69L83.68,15,85,13.52a3.38,3.38,0,0,1,.79.37c1.72,1.49,3.4,2.94,4.25,5.21C90.39,20.1,91.52,20.81,92.65,22Z"/><path d="M88.89,79.27l-1.35-1.35,1.17-1.28c.47.6,1.12,1,1.17,1.55.12,1.15,1,2.05.44,3.5a48.79,48.79,0,0,0-1.82,7H87.2a2.84,2.84,0,0,1-.21-.53c-.22-1.28.46-2.36.85-3.48A12.18,12.18,0,0,0,88.89,79.27Z"/><path d="M83.54,77.51H85l2,2.81v3.41c-1.26,1.16-1.23,2.7-1.16,4.32H84.13a4.69,4.69,0,0,1,1.07-4.37V80.5L83.38,79Z"/><path d="M13.93,58.58l-1.44,1.35C11,57.89,8.7,56.44,2.2,53.49l1.15-1.58C6.73,54.34,10.73,55.49,13.93,58.58Z"/><path d="M15.79,31.33l-.7-2.06c3.13-1.56,4-5.77,7.08-7.86h1.51c-.06.38,0,.73-.16.89-.73.8-1.51,1.54-2.27,2.3-.35.35-.9.64-1,1C19.64,28,17.71,29.17,15.79,31.33Z"/><path d="M90.62,5.77c-.83-.13-1.83-.36-2.84-.43-2.56-.18-5.13-.28-7.79-.42V3.16c.12,0,.41-.24.62-.18,2.73.79,5.53.44,8.3.62.95.06,1.86.72,3.27,1.31Z"/><path d="M12.76,6C9.17,5.43,6,3.7,2.48,5.51V3.07A15.06,15.06,0,0,1,6.34,3a27.1,27.1,0,0,1,3.59.57c1.25.23,2.49.49,4,.79Z"/><path d="M7.66,94.32,6.27,93.06c.45-.52.76-1.22,1.17-1.29,2.14-.36,4.32-1.1,6.47-.57a13.39,13.39,0,0,0,3.56.51c.71,1,.23,1.62-.53,2.3-2.34-1.47-5-1.06-7.7-1.11Z"/><path d="M79.53,71.66l1.55.9c0,.24,0,.49-.11.6a10.38,10.38,0,0,1-3.59,2.64,9.58,9.58,0,0,0-5,3.76l-1.75-1.44a12.37,12.37,0,0,1,3.59-2.39c.5-.21.94-.56,1.42-.81C77.93,73.76,77.93,73.76,79.53,71.66Z"/><path d="M89.48,25.76l1.19-2.21.64,1.85.42-.34a13,13,0,0,1,0,2.31A3.11,3.11,0,0,0,92.5,30c1,1.15,1.4,2.59,2.35,4L93,34.73c-1.09-.95-1.22-2.9-2-4.46A29.36,29.36,0,0,1,89.48,25.76Z"/><path d="M74.59,86.2V82.36h1.5s.21.18.23.34a9.38,9.38,0,0,1-2.38,7.52,3,3,0,0,0-.61,1.53c-.1.47-.6.86-1.06,1.46l-1.41-1.34Z"/><path d="M64.7,66.83c1.94,1.77,3.53,3.56,4,6.25.22,1.15,1.45,2.12,2.38,3.37l-1.7,1.07c-.81-1.35-1.91-2.49-2.23-4.09a8.36,8.36,0,0,0-3.45-5.12Z"/><path d="M80.38,32.6H82c1.22,3,.8,6.1.89,9.13L84.11,43l-1.49.83c-1,.08-.73-1.58-1.56-2.12,0-1.57.08-3.14,0-4.7C80.94,35.61,80.63,34.23,80.38,32.6Z"/><path d="M91.72,63.93l1.26.94c-.74,3.9-2.58,7.27-3.88,11.09l-1.61-1.14C89.58,71.32,90.46,67.49,91.72,63.93Z"/><path d="M99.59,72.56l-1.08.71-1.25-1.08c-.24,1.93-.24,1.93-1.46,3.1l-1-.91,1.09-2.12c-.33-1.84.35-3.84.79-5.86a5.53,5.53,0,0,1,.6-1.17l1.38,1.11-1.26,5.57L98.59,71Z"/><path d="M63.1,8.22c.45,1.3.17,2-1,2.44a13.35,13.35,0,0,0-5.78,3.71,21.4,21.4,0,0,0-1.43,2.07H53.32c0-.31-.14-.58,0-.67C57.52,11.29,57.65,10.47,63.1,8.22Z"/><path d="M84.51,68.64H83.06l-.33-1c-3.1-1-4.66-3.87-7-5.74V60.48l1.32-.16a18.16,18.16,0,0,0,7.58,6.63Z"/><path d="M22.79,12.59,24,11.23c.29,0,.55,0,.66.09,1.77,1.71,3.49,3.4,3.86,6.08.15,1.08,1.07,2.05,1.61,3-.29.31-.5.72-.83.86a2.4,2.4,0,0,1-1,0l-2.76-7.41Z"/><path d="M76.84,27l.74,1.84L75.14,32.9V37l-1.39,1.32-.63-1.93c.89-1-.24-3,.82-4.73C74.89,30.14,75.43,28.36,76.84,27Z"/><path d="M37.38,6.78l.9-1.84,1.32,1.2v3l3.59,5.06v1.11l-1.69.08L41.39,14c-.84-1.41-2.14-2.23-3-3.52S38.9,7.41,37.38,6.78Z"/><path d="M90.77,51.4l1.1,1.17c-2.52,3-4.74,6.13-5,10.15a2.37,2.37,0,0,1-.75,0c-.44-.2-.86-.46-1.07-.58C86,57.67,88.34,54.61,90.77,51.4Z"/><path d="M28.34,45.92l1,.86c-.2,1.5-1.08,2.82-1,4.42a44,44,0,0,0,.9,4.5L28,57.28l-.76-.76a29.84,29.84,0,0,0-.49-4.8c-.31-1.47.27-3.15.58-4.72C27.39,46.61,27.93,46.33,28.34,45.92Z"/><path d="M4.61,30.64l-1.06.78-1.24-.91a6.39,6.39,0,0,0,.26-5.19,2.23,2.23,0,0,1,0-1.57,3.29,3.29,0,0,0-.18-3.38c.27-.28.5-.67.83-.81a3.2,3.2,0,0,1,1.16,0c.1.15.28.3.29.46.16,2.58-1,5.06-.58,7.67C4.29,28.55,4.42,29.45,4.61,30.64Z"/><path d="M83.37,9.15,82.69,6.5l6.51,1.37,2.63,3.45-1.09,1.22c-1.47-.45-1.49-1.84-2.18-2.86C87.08,9.25,85.52,8.41,83.37,9.15Z"/><path d="M42.17,27.16l1.69-1.22,2.93,3.52.7,4.18-1.56,2.52-1-1,.55-1C46.26,31.06,44.51,29.17,42.17,27.16Z"/><path d="M31.65,20.16l-.51-1.06,1.73-.19a3.83,3.83,0,0,1,.26.59c.44,1.94-.65,3.72-.59,5.62-1.14,1.11-.53,2.21,0,3.33a2.18,2.18,0,0,1,0,.85c-1,.7-1.62.21-2.44-.71Z"/><path d="M77.34,67.8a17.23,17.23,0,0,0-2.24.62c-3.36,1.5-3.36,1.52-7,.56V67.53c.36,0,.71-.18.91-.06,1.89,1.14,3.51.32,5.2-.55a30.4,30.4,0,0,1,3.61-1.31L78.28,67Z"/><path d="M57.69,89.78l1.94-1,.22,1h2L66,86.48h1.37V88c-2.22.47-3.45,2.27-5,3.67A4.67,4.67,0,0,1,57.69,89.78Z"/><path d="M18.06,70.46h1.55c-.18.69-.16,1.43-.53,1.81a9.93,9.93,0,0,1-2.65,2.07,9.74,9.74,0,0,0-3.91,3.94c-.13.21-.42.33-1,.73l-1.15-1.4c1.12-1.49,2.69-2.28,3.75-3.61S17.22,72.3,18.06,70.46Z"/><path d="M77.18,48.59l1.59-5.92c.35,0,.6-.14.71-.05a13.71,13.71,0,0,1,1.1,1l-1.28,2.51c.59,2.67-1.3,4.12-3.67,5.5l-2-.91Z"/><path d="M32.06,38.28V36.67c.38.06.74,0,.89.16,1.07,1,2,2.12,3.15,3.09s2.36,2.13,4.07,2.22v1.67C36.26,43.48,34.41,40.36,32.06,38.28Z"/><path d="M23.19,79.44l1-.92,1.11.93c-1.1,2.52-1.71,5.06-.41,7.85l-1.23,1c-.36-.29-1.11-.6-1.15-1-.15-1.35-.52-3,.06-4C23.31,81.95,22.79,80.78,23.19,79.44Z"/><path d="M85.65,45.57h1l.84.84c-1.68,2-3.59,3.81-3.63,6.92l-2.25.79a4.45,4.45,0,0,1,0-1.39c.63-1.4,1.27-2.8,2-4.15C84.26,47.55,85,46.6,85.65,45.57Z"/><path d="M21.38,77.54V75.8h2.37a14.68,14.68,0,0,1-.49,1.82c-.93,2.23-3.37,2.78-4.94,4.31-.32.31-1,.26-1.66.4V80.71A23.54,23.54,0,0,0,19,79.48C19.78,79,20.46,78.31,21.38,77.54Z"/><path d="M95.84,18l1.23-1,1.26,1.19-.46,1c.79,2.1.15,4.43.41,6.81H95.88a25.39,25.39,0,0,0,.54-2.61,14.08,14.08,0,0,0,0-2.65C96.36,19.8,96.86,18.75,95.84,18Z"/><path d="M41.28,69.46l-1.22-1.38L41,67a4.25,4.25,0,0,0,3.65,0c1.1-.54,2.5-.45,4.16-.69l1,.8c-.33.33-.57.79-.89.86C46.29,68.53,43.74,69,41.28,69.46Z"/><path d="M4.49,14.39,3.6,13.18c.7-1.16.7-1.16,2.85-2l3.8-4.48L11.3,8c-.47,1.68-2.06,2.13-2.94,3.29S6,13.21,4.49,14.39Z"/><path d="M95.3,20.72a1.58,1.58,0,0,1-2.33,1c0-2.86-1.62-4.84-3.63-6.6v-1.4l1.41-.16Z"/><path d="M24.26,51.06l1.26,1.42c-.44,1.76-2.36,1.58-3.4,2.55a27.67,27.67,0,0,1-3.64,2.44l-1-2.18C20.17,54.41,22.42,53.38,24.26,51.06Z"/><path d="M44.87,60.38c2-2.46,3.42-5.34,7.06-6l.17,1.35a36.94,36.94,0,0,1-3.42,2.4c-1.42.78-1,2.7-2.45,3.54a7.46,7.46,0,0,1-.83-.56A4.32,4.32,0,0,1,44.87,60.38Z"/><path d="M32.81,75.85c-1.17,2.43-.81,4.82-.87,7.32l-1.09,1-1.27-.93c0-2.06.8-4,1.13-6.08l-.42-.42C30.62,75.74,31.39,75.63,32.81,75.85Z"/><path d="M28.3,96.54l.84,1.2c-.25.24-.4.48-.51.46-1.39-.21-2.92.57-4.17-.57-1.05.3-2.11.59-3.16.91a6.75,6.75,0,0,0-.83.39l-1.13-1.12.92-1.26Z"/><path d="M70.3,41l-2.19.81c-2.39-.5-3.82-3.36-5.93-5.41l1-1.2c.64.57,1.3.92,1.57,1.46a4.85,4.85,0,0,0,4,3C69.21,39.74,69.59,40.37,70.3,41Z"/><path d="M15.39,41.28c0,1,.29,2.06-1,2.46-1.06-.67-1.06-.67-1.37-1.93a30,30,0,0,1,3-3.53c.72-.65.47-1.39.76-2a1.54,1.54,0,0,1,2.15.68Z"/><path d="M37.14,1.15V3.52c-2.92-.23-5.1,1.9-8,2.58L29,4.4Z"/><path d="M10.33,10.7c1.35-1.14,2.5-2.08,3.62-3.06s.34-2.86,1.94-3.51c1.11.17,1.35.93,1.27,1.9l-5.29,5.89Z"/><path d="M86.34,33.39v6.16H84.75V34.27l-1.7-2,1.62-1.21Z"/><path d="M89.94,39.64l-.29,1.54c.7,1.38.1,3.08.34,4.86H88.4s-.21-.18-.22-.33c0-.59,0-1.18,0-1.77,0-1.18.08-2.37,0-3.55a25.7,25.7,0,0,0-.64-3h1.63l.82,1.7-.49.19Z"/><path d="M62.13,83.78l-1.18,1-1.3-1.17,1.26-2.47c.39-1.57-.6-3.6,1-5.86V77l.58-.54C63.39,78.91,62,81.28,62.13,83.78Z"/><path d="M60.5,18.8l-.89-.95c.35-.43.63-1.13,1.05-1.24,2.37-.61,3.93-3.06,6.9-3L67,15.9C64.17,15.59,62.86,18,60.5,18.8Z"/><path d="M21.86,7.43c-.94.74.27,1.4.08,2.19a13,13,0,0,0-.05,2.93v2.73H20.33c-1.27-1.26,1-2.55.13-4.12-.69-1.23-.66-2.86-1-4.34C20.55,6,21.24,6.6,21.86,7.43Z"/><path d="M74.07,15.54l-1.88-.76c1.09-1.41,2-2.73,3-3.87s.71-3,2.74-3.28v2Z"/><path d="M31.24,87.77l.86,2.3-3.72,3.55.25.16-1.09,2.43-1.67-1.36Z"/><path d="M89.69,47.52l.3,1.63-3,3.68V54.7a1.72,1.72,0,0,1-2.45.66A12.91,12.91,0,0,1,89.69,47.52Z"/><path d="M22.82,2.47,25,8l1.35.8-1.56,1.67c-.53-.92-1.3-2.08-1.87-3.32-.67-1.46-1.17-3-1.83-4.7Z"/><path d="M30.31,30.71c.6.07.73,0,.78.1.29.26.56.54.95.94a9.06,9.06,0,0,0-1.35,4.93c0,.78-.78,1.6-1.21,2.39a1.71,1.71,0,0,1-1.06-2.2C29,34.8,29.68,32.76,30.31,30.71Z"/><path d="M50.27,47.35l2.25-.87v2.1c1.6,1.76,3.11,3.38,3,5.93C53.83,53.66,53.34,53,50.27,47.35Z"/><path d="M60.44,95.88V94.3l.79-.79.57.52,6.07-3.86.2,1.87C65.45,93.21,63.57,95.68,60.44,95.88Z"/><path d="M5.78,51.41c.8-1,1.47-1.6,2.54-.79,2,1.48,3.92,2.92,6.26,4.66l-1.76.87c-1.05-.49-1.79-2-3.05-2.83A33,33,0,0,0,5.78,51.41Z"/><path d="M60.93,55.43l1.84,1.32c-1.09.67-1.65,1.09-2.28,1.38a18.29,18.29,0,0,0-4.27,2.45c-.39.33-1.14.25-2.09.43C55.68,57.71,59.07,57.58,60.93,55.43Z"/><path d="M31.84,35.4c.43-2.14,2.42-2.16,3.62-2.94s1.86-2.36,2.73-2.61l1.7.75c-1.73,2.45-4.15,3.49-6.38,4.76C33.12,35.59,32.48,35.4,31.84,35.4Z"/><path d="M6.51,23.62,5.39,21.47l.93-.61.93-5.18.15.25L8.23,14l1.44,2c-1.83,1.49-1,3.85-2,5.65C7.4,22.18,7.07,22.69,6.51,23.62Z"/><path d="M40.91,59.82,39.23,59c-1-1.63-1.19-4.07-3.68-4.77V52.76h1.52a9.7,9.7,0,0,1,2.62,3.49c.21.59,1,1,1.73,1.76Z"/><path d="M68.37,48h1.85c.55,1.05,0,1.7-.69,2.28L69,49.76c-1.41,1.08-3.45,1.4-4.14,3.41H63.37l-.1-1.51Z"/><path d="M67.94,66.54l-1.5-2c3.43.33,6.09-1.83,9.25-1.06v1.67A14.66,14.66,0,0,0,67.94,66.54Z"/><path d="M44.29,81.07l1.79-1.91,1.49,1.21c-2.14,3-5,2.41-7.8,2.48,0-1.75,0-1.76,1.06-1.77S43,81.07,44.29,81.07Z"/><path d="M70.25,87.52H68.89c-1-.87.66-1.73-.17-2.77-.47-.6-.09-1.87-.09-2.55l-1.26-2.47L68,79l1.28,1.29A11.83,11.83,0,0,1,70.25,87.52Z"/><path d="M31.21,63.8l-.78-1.68,4.86-6.64.92,1.75Z"/><path d="M18.93,34.56c0-1.53,1.93-1.16,2.07-2.1s1.29-1,1.6-1.95c.24-.74,1.54-1.14,2.66-1.89l.21,2c-2.31,1-3.12,3.5-5.06,4.83Z"/><path d="M87,73l-1.72-1.6,3.1-6.92c.35,0,.59,0,.71.09a12.06,12.06,0,0,1,1,1C88.17,67.48,87.84,70.19,87,73Z"/><path d="M81.59,56.53l1.62-.84.72.72c.44,1.2-.52,2.6.66,3.62l-.55.62.58.63-.81,2.48c-.81.47-1.5.08-2.19-.81l1-.66C83.28,60.09,82.25,58.44,81.59,56.53Z"/><path d="M26.23,25C25.08,26.1,24.11,27,23.18,28S21,29.39,20.61,30.75l-1.84-1c.24-.34.38-.78.66-.91a12.26,12.26,0,0,0,3.48-3,13.05,13.05,0,0,0,1.19-1.8Z"/><path d="M11.36,28.06l1.54,3.82-1.91.9C9.73,28,9.71,26.06,11,24.1l.35,1.14C11.6,26,12.35,27.19,11.36,28.06Z"/><path d="M24.43,41.24l-2,2.93v3.76a3.58,3.58,0,0,1-1.21,0,4.7,4.7,0,0,1-1-.72c.82-2.62,1.16-5.34,3.17-7.63Z"/><path d="M6,36.94l.9-.9c1.58.29,1.47,1.92,2.22,2.86a38.72,38.72,0,0,0,3,3l-1.34,1.51A37.73,37.73,0,0,1,6,36.94Z"/><path d="M75.88,80.93l-1.41-1.51c2.48-1,5-2.06,7-4.45L82.39,77Z"/><path d="M90.29,83.24l1.85-.94c1.52,2.28,4.14,3.1,7.17,4.35l-1.84.46.35.69a12.2,12.2,0,0,1-3.17-1.45C93.36,85.22,91.34,85.11,90.29,83.24Z"/><path d="M68.61,13.19,67.15,12C69.52,10,69.29,7,70.52,4.69a1.82,1.82,0,0,1,1,2.26c-.63,1.89-1.42,3.74-2.18,5.58C69.3,12.76,69,12.89,68.61,13.19Z"/><path d="M42.43,50.76l-.73.73c-.29-.35-.86-.73-.83-1,.16-1.3-.41-2.61.37-4,.47-.81.18-2.06.23-3.08l.84-.8.86.86Z"/><path d="M55.69,41.38a7.71,7.71,0,0,1-5.12-1.32c-1.23-.9-3.29-.41-4-2.61.86-.06,1.77-.42,2.23-.11a26,26,0,0,0,5.26,2.33C54.51,39.86,54.82,40.45,55.69,41.38Z"/><path d="M66,27.18l.82.9a.41.41,0,0,1-.06.17c-.13.15-.26.37-.42.41-2.61.54-4.61,2.78-7.64,2.77l-.11-1.89C61.53,30,63.29,27.34,66,27.18Z"/><path d="M57.29,38.41l-1.6-.75v-7.4l1.6-.1Z"/><path d="M14.48,83.61,12.8,82.53,15,81.33c1.12,2.7,3.52,4.38,4.09,7.14-1.18.52-1.71.5-2.15-.78A23,23,0,0,0,14.48,83.61Z"/><path d="M27.68,32.31,26.56,30.1l.59-.79c.41-2-.56-4.25,1-6.56.39.83.86,1.36.84,1.88,0,1.2.3,2.4-.46,3.63-.37.59.18,1.74.36,2.95Z"/><path d="M93.15,97.94l-1.38,1.34c-1.55-2.09-2.1-4.94-5.28-4.59V93.14l1.39-.71c.36,1.34,1.93,1.25,2.74,2.09A34.72,34.72,0,0,1,93.15,97.94Z"/><path d="M98.28,49H95.94V47.71l-1.63-1.63H91l.72-1.49C95.37,44.25,96.2,44.8,98.28,49Z"/><path d="M13.58,65.71v1.51a20.9,20.9,0,0,0-3.9,1,13,13,0,0,0-2.62,2l-1.26-.77A10.45,10.45,0,0,1,13.58,65.71Z"/><path d="M18.66,64.13,17.9,62c.37-1.81,3.44-2.76,4.16-5.59l1.44,1c0,.18,0,.35,0,.44-.49.63-1,1.26-1.5,1.87a21,21,0,0,0-1.72,2,13.68,13.68,0,0,0-1,2.19Z"/><path d="M31.28,58.8l-1.36,1.56-.69-.6c-2.1.28-3.74,2.16-6.09,1.7V60.09a52.39,52.39,0,0,0,5.81-1.85A1.71,1.71,0,0,1,31.28,58.8Z"/><path d="M19,48.43l1.11.89c0,.34,0,.48,0,.53-1.47,1.56-3,3.11-4.59,4.81l-1.8-.83Z"/><path d="M91.19,49.53V47.84c3.36.44,4.68,3.48,7.19,4.86-1.57.93-2.62.16-3.5-.77A8.64,8.64,0,0,0,91.19,49.53Z"/><path d="M68.08,59.46,68,60.86H66.46l-3.34-6.05,1.29-1.1c.42.34,1.23.71,1.21,1C65.44,56.91,66.71,58.28,68.08,59.46Z"/><path d="M36.69,83.13,33.8,86l-4.08,1.62V85.28h3l3.05-3.05Z"/><path d="M79.79,97.84a9.35,9.35,0,0,1,2.15-1.32,1.68,1.68,0,0,0,1.52-1.72c.1-1.29,1.07-1.4,2.31-1.25.15,3.83-3.35,4.21-5.59,6.22Z"/><path d="M15.28,18.09a12.86,12.86,0,0,0-4.53,4.59l-1.83-.83,5.29-5.29,1.07,0Z"/><path d="M27.39,21.28l-1.22,1.41a18.73,18.73,0,0,1-1.54-1.33,8.59,8.59,0,0,1-2.16-5.91h1.64c.11.72,0,1.65.39,2.15.58.71,0,1.8,1,2.3A14.06,14.06,0,0,1,27.39,21.28Z"/><path d="M27.93,62l1.13,1.13L27,64.42c-1,.34-2-.16-3.07.56-.72.49-2,.09-3.15.09V63.32C23.2,63.27,25.72,63.63,27.93,62Z"/><path d="M31.88,48.89,30.49,48l1.05-1.17,3.46.6,2.93,2.92-.63.8L35,48.84l-.36.44-2.34-.76Z"/><path d="M93.75,53.25h1.4l.15,1.31c-1.37,1.87-3.48,3.05-4.61,5.33l-1.64-1.22C91.31,57.26,92.27,55,93.75,53.25Z"/><path d="M40.63,60.77c.09,2.18,0,2.3-1.52,2.54a12.33,12.33,0,0,0-3.54,1.44c-1.07.81-1.76.25-2.5-.67C35.41,62.56,38.1,62,40.63,60.77Z"/><path d="M78.44,33.51l.79,1.15L78,36.28,77.14,34c-.1.16.2-.18.33-.59a5.3,5.3,0,0,0,0-1.36l4.19-3.27,1,.88c0,.13,0,.33-.08.4C81.29,31.2,80,32.28,78.44,33.51Z"/><path d="M62.14,45.87l-1.2-1.2,1.58-1.47L64,45.48c-.27,1.42-.57,3.07-.92,4.7-.05.24-.4.42-.61.63C61.87,50.11,61.87,50.11,62.14,45.87Z"/><path d="M91,74.56h1.59c1,2.43,2.78,4.65,1.88,7.74-.32-.11-.9-.2-.91-.33-.14-2.09-1.25-3.79-2.08-5.61A12,12,0,0,1,91,74.56Z"/><path d="M45.54,4.49l1,.94L46,8l2.12,1.5,1,.18V11c-.22.07-.51.27-.72.21-.79-.22-1.55-.53-2.41-.83C45.57,8.48,42.89,6.93,45.54,4.49Z"/><path d="M39.55,88.36c2.37,1.7,5.46,1.34,6.7,4.13-1.06,1.09-2,.19-2.6-.24a8.94,8.94,0,0,0-4-1.74c-.42-.07-.77-.51-1.1-.74Z"/><path d="M73.91,99.1l-1.67-.7,6.35-4.78.78,1C78.13,97,75.4,97.61,73.91,99.1Z"/><path d="M37,85.8l1,1.1c-.49.56-1,1.1-1.45,1.67-.69.85-1.74,1.35-1.78,2.81,0,.82-1.21,1.4-2.26.64C33.11,89.32,35.09,87.67,37,85.8Z"/><path d="M94.91,98.32A6.52,6.52,0,0,0,97,92.42H98.7c0,.5.34,1.3.07,1.74-1,1.65-.39,3.92-2.22,5.38Z"/><path d="M25.24,49.65H23l.87-4,1.59-.9.56.56Z"/><path d="M66.82,8.28v2.4l-3,3-1.32-1.08Z"/><path d="M10.55,72.87,6.08,74.93,5.86,73c1.67-.28,2.71-2,4.69-2.07Z"/><path d="M78.4,85.54l.76,1.78c-.28.81-1.53,2-.9,4.06l-2.47-.75,2-4.87Z"/><path d="M62,53.68l-.84.88c-.3-.17-.76-.28-.88-.55-.67-1.48-1.26-3-2-4.72l1.8-.23Z"/><path d="M57.94,17.37l-1.46-1.11,4.16-3.7c.86.32,1,1.05.85,2C60.05,15,59.34,16.33,57.94,17.37Z"/><path d="M46.82,53.15,48,54.21a3.57,3.57,0,0,1-.39.79c-.81.92-1.64,1.81-2.72,3l-1.87-.57Z"/><path d="M48.05,94.13h1.18L52,97.44v1.29H50.52l-1-2.06C48.67,96.33,47.56,95.89,48.05,94.13Z"/><path d="M6.2,40.2c-1.63,1-.77,3.45-3.06,4.41-.07-.91-.42-2-.12-2.25,1.17-.87-.35-3,1.92-3.36Z"/><path d="M29.55,40.31h1.76A6.63,6.63,0,0,1,29.39,46l-.7-1.61C29.58,43.52,29.69,42,29.55,40.31Z"/><path d="M43.3,99.32V97l1.48-2.94c.26,0,.65,0,1,0,.08,0,.15.11.41.32C45.69,96.18,45.3,98.09,43.3,99.32Z"/><path d="M.79,17.79l3.92-3.07,1.56,1.23a19.57,19.57,0,0,1-3.82,2.68Z"/><path d="M55.62,10.11v1.57a11.08,11.08,0,0,0-2.17.3,12.68,12.68,0,0,0-2.08,1.18l-1.29-1.22L51,10.81Z"/><path d="M77.65,13.83l-.16-1.51,2.91-3.38h1.16v1.54C80.36,11.4,79.49,13,77.65,13.83Z"/><path d="M7.12,34,8.5,32.63l3.4,2.86-.64,1.86Z"/><path d="M49,43.13l1-1.18,3.8,1.56v1.25C53.06,45.46,50.4,44.62,49,43.13Z"/><path d="M77.56,20.71l-.06-1.35A8,8,0,0,0,79,18.28a9.35,9.35,0,0,0,1-1.74l1.7.12c-.28,1.93-1.59,2.92-2.7,4Z"/><path d="M83.78,9.77l1,2c-.75,1.2-2.11,1.43-2.57,2.64-.11.29-1,.28-1.63.44V13.23C82.25,12.95,82.72,11.25,83.78,9.77Z"/><path d="M85.71,26.77l-2.15.57c-.06-.51-.22-.86-.11-1,.69-1.11.57-2.34.57-3.74l1.69-.1Z"/><path d="M8.28,88.73v1.73L3.1,89.78S3,89.7,3,89.63c0-.39,0-.78,0-1.17C4.76,87.36,6.35,89.14,8.28,88.73Z"/><path d="M94,88.18l.79,1.53-3.23,3.23-1-1.08Z"/><path d="M41.32,36l1.06.43L39,40.25l-1.16-.89Z"/><path d="M81.55,88.23h1.22l.09,1.19-2.35,3-1.89-.76Z"/><path d="M19.53,39.75v4.33c-.92.76-1.59.26-2.2-.43a14.27,14.27,0,0,0,.41-1.78,21,21,0,0,0,0-2.13Z"/><path d="M60.58,31.88a4.24,4.24,0,0,1,.79.21c.33.19.65.42.9.6l-2.18,5-.61-1.64-.5.24Z"/><path d="M60,41.91,61.07,43a10.8,10.8,0,0,1-5.38,1.33V42.78Z"/><path d="M12,52l-1-1.13L14.24,48h1.14c0,.5.18,1.1,0,1.39a8.66,8.66,0,0,1-1.67,1.51C13.16,51.28,12.61,51.62,12,52Z"/><path d="M2.37,83.74,1.64,83l1.28-1.66,1.32,2.13c-1.29.78,0,2.74-1.63,3.5l-1-1Z"/><path d="M9.47,45.55v1.68c-1.49.27-3,0-4.63.16V45.62C6.31,45.48,7.89,45.61,9.47,45.55Z"/><path d="M17.95,17.38l-2.11-.93,1.33-1.4V13.93l1.08-1.79,1.06.94Z"/><path d="M18.71,21.81,17,20.32c1.77-.59,2.28-2.47,3.72-3.31a1.19,1.19,0,0,1,.36,1.83C20.36,19.83,19.55,20.76,18.71,21.81Z"/><path d="M62,97.64l1.07-1.26,3.67.87c.46.82.08,1.51-.69,2.09-1.19-.68-2.32-1.53-3.93-1Z"/><path d="M81.74,20.14h1.63l.09,1.47L81,23.69l-1.67-.54a3.18,3.18,0,0,1,.24-.63C80.28,21.62,82.1,21.85,81.74,20.14Z"/><path d="M68.93,57.9,70,57l-.58-1.16c.31-.77,1-1,2.08-.82.5,1.71-.91,3-.76,4.61Z"/><path d="M78.63,15.62l-2.84,3.24H74.63V17.4A1.94,1.94,0,0,0,76.34,15,1.6,1.6,0,0,1,78.63,15.62Z"/><path d="M24.88,91.86l1.22.71A1.68,1.68,0,0,1,24,94.07C23.72,92.48,23.72,92.48,24.88,91.86Z"/><path d="M60.49,85.93c1.11-.38,1.84,0,2.33,1.19l-1.08,1.14C60.56,87.81,60.06,87.12,60.49,85.93Z"/><path d="M96.2,81.83l-.94-1.37c0-.7.52-1,2.21-1.06C97.92,80.46,97.54,81.18,96.2,81.83Z"/><path d="M79.85,61.4l-1.21-.8a1.61,1.61,0,0,1,2.15-1.38C81,60.78,81,60.78,79.85,61.4Z"/><path d="M40.73,96.48c-.07,1.43-.07,1.43-1.39,2.63l-.89-1.38C38.7,96.65,39.44,96.29,40.73,96.48Z"/><path d="M21.27,72.64l-1.15-.76c0-.95.49-1.25,2.08-1.46C22.43,72,22.43,72,21.27,72.64Z"/><path d="M32.28,50.52,31,53l-1.53-1.25C29.79,50.48,30.55,50.08,32.28,50.52Z"/><path d="M12.65,97l1.42-1.32,1.49,1.16-1.29,1.69Z"/><path d="M34.35,93l1.8,1.68L34.33,96,32.93,94.8Z"/><path d="M50.15,62.75l-1.68,1.8-1.31-1.81,1.25-1.41Z"/><path d="M36,43.54l1.58,1.26-1.28,1.54L34.72,45.2Z"/><path d="M9.69,94.63l1.42-1.32,1.49,1.16-1.29,1.69Z"/><path d="M59.28,95.93l1.35,1.64L59.28,99,57.8,97.8Z"/><path d="M16.32,46.87l1.26-1.58,1.54,1.28L18,48.12Z"/><path d="M57,46.72l1.68-1.8L60,46.73,58.7,48.14Z"/><path d="M63.84,59.87,62.2,61.21l-1.47-1.34L62,58.39Z"/><path d="M37.87,58.87c-.18,1.27-.18,1.27-1.42,2.15l-.89-1.61C36.16,58.74,36.82,58,37.87,58.87Z"/><path d="M83.09,94l-1.26,1.58-1.54-1.28,1.14-1.54Z"/><path d="M95.22,64.44H93.73l-.78-.78.93-1.57C95.19,62.42,95.43,63.25,95.22,64.44Z"/><path d="M85.62,66.89l-.71-2.34.79-.86,1.48,1.24Z"/><path d="M13.65,86,15,87.45l-1.16,1.49-1.69-1.29Z"/><path d="M79.76,49.37C80.23,48,81,47.74,82,48c.53.91.15,1.58-.58,2.18Z"/><path d="M37.25,85l2.35-.71.86.78-1.24,1.48Z"/><path d="M33.79,65.89,35,67.42l-1.09,1.4-1.69-1.29Z"/><path d="M75.62,69.57l1.58,1.26-1.28,1.54-1.54-1.14Z"/><path d="M66.52,79.76l-1.26,1.58L63.72,80l1.14-1.54Z"/><path d="M56.11,52l-1.35-1.64,1.34-1.47,1.48,1.24Z"/><path d="M57.87,52.41l1.58,1.26-1.28,1.54-1.54-1.14Z"/><path d="M97.07,75.3,98.87,77l-1.81,1.31L95.65,77Z"/><path d="M4,73.53,2.91,71.66,5,70.84C5.69,72.34,5.09,73,4,73.53Z"/><path d="M72.21,72.84,73.69,72l1.15,1.32-1.24,1.37C72.66,74.3,72,73.87,72.21,72.84Z"/><path d="M72.17,72.73l-1.49.88-1.15-1.32,1.24-1.37C71.72,71.26,72.38,71.69,72.17,72.73Z"/><path d="M12.32,73.9,11,72.26l1.34-1.47L13.8,72Z"/><path d="M78.67,42.46l-1.8-1.68,1.81-1.31,1.41,1.25Z"/><path d="M48.91,13.67,47.37,14.9,46,13.81l1.29-1.69Z"/><path d="M51.6,16.23,50,15l1.28-1.54,1.54,1.14Z"/><path d="M75.56,41.45l-.71-2.35.78-.86,1.48,1.24Z"/><path d="M19.06,8.62C18.58,10,17.82,10.25,16.78,10c-.08-1.29-.08-1.29.58-2.18Z"/><path d="M90.76,36.64l1.42-1.32,1.49,1.16-1.29,1.69Z"/><path d="M41.17,33.85l1.26-1.58L44,33.56,42.83,35.1Z"/><path d="M87.35,20.16l-1.42,1.32-1.49-1.16,1.29-1.69Z"/><path d="M66.07,32l-1.54,1.23-1.4-1.09,1.29-1.69Z"/><path d="M34.8,20.5c.43.32.6.41.73.54s.39.42.71.77l-1.12,1.45L33.42,22Z"/><path d="M41.85,32.11l-.91-1,.7-1.46H43C43.52,30.19,43.3,30.81,41.85,32.11Z"/><path d="M89.28,28.51l-1.64,1.35-1.47-1.34L87.41,27Z"/><path d="M18.81,3.3l1.58,1.26L19.1,6.1,17.56,5Z"/><path d="M71.67,4,73.3,2.69,74.77,4,73.54,5.51Z"/><path d="M67,23.74l1.35,1.64L67,26.84l-1.48-1.24Z"/><path d="M34.79,24l1.58,1.26-1.28,1.54-1.54-1.14Z"/><path d="M26.78,11.21,28.57,9.3l.61,2.24.56-.26-1.21,1.36Z"/><path d="M13.71,11.9l1.35,1.64L13.72,15l-1.48-1.24Z"/><path d="M36.61,22.88c.31-1.37,1.05-1.74,2.14-1.58C39.1,23.07,39.1,23.07,36.61,22.88Z"/><path d="M77.5,56.41l1.41,1.69-1.75,1-1-1Z"/><path d="M65.54,43.16l2.21-.66A1.7,1.7,0,0,1,67.13,45Z"/><path d="M43.34,8.32,40.92,9V7.3l.81-.81Z"/><path d="M6.63,33.81l-2.39.66V32.8l1.42-.71Z"/><path d="M11.21,79.57l1.83,1-1.78,1.29L9.78,80.54Z"/><path d="M40.82,3.6l-2,.68c-.7-1.15-.29-1.84.59-2.52Z"/><path d="M19.58,87V85.4c1.28-.61,1.89.06,2.61,1.4Z"/><path d="M36.81,18.88l2-1,1.07.93-1.28,1.54Z"/><path d="M5.07,84.6l1.29,1.58a1.52,1.52,0,0,1-2,.71C3.82,85.94,4.2,85.25,5.07,84.6Z"/><path d="M15.32,12.89l-1-2,.93-1.07,1.54,1.28Z"/><path d="M53.29,32.4,54,34.82H52.27L51.46,34Z"/><path d="M83.67,74.5,82.13,73l2.11-1A1.56,1.56,0,0,1,83.67,74.5Z"/><path d="M28.52,72.55l2.73,1-2.45,1.32C28.39,74.71,28.3,73.93,28.52,72.55Z"/><path d="M40.19,33.15v1.66H37.85C37.93,33.35,38.79,33.07,40.19,33.15Z"/><path d="M61.44,74.45c-1.31.28-2.12,0-2.34-1.53h2.34Z"/><path d="M22.21,95.4l-1.94-.61L22,93.11l.74,1.78Z"/><path d="M69.82,35.8V34.48h2.4C71.45,36.05,71.45,36.05,69.82,35.8Z"/><path d="M71,81.36l1.46-1.46c.72.57,1.29,1.19.73,2.27H71.82Z"/><path d="M77.1,42.5l-1.92,1.58L73.73,42.5l1.34-.78Z"/><path d="M80.77,24.85l1.46,1.46C81.66,27,81,27.6,80,27V25.66Z"/><path d="M26.2,2.95l.71,1.86-.77,1.33L24.66,4.9Z"/><path d="M42.72,62.49l2.58.92-2.06,1.45C42.59,64.65,42.5,63.87,42.72,62.49Z"/><path d="M94.59,23.48v2.46l-1.52.12C92.63,24.74,93.05,24,94.59,23.48Z"/><path d="M25.42,65.73H27.1c.35,1.2,0,2-1.49,2.43Z"/><path d="M43.16,23.35l2,.85-2,1.45-1.44-1.48Z"/><path d="M14.74,23.09v1.66H12.41C12.49,23.29,13.34,23,14.74,23.09Z"/><path d="M88.38,61.62,89,61h1.19A1.3,1.3,0,0,1,90,63Z"/><path d="M58,62.64l-.81-1.57,2.48-.16v1.73Z"/><path d="M72.59,43.85l-1.76.69c-.85-1.12-.34-1.79.33-2.39Z"/><path d="M14.89,62.68H12.53V61.19s.17-.22.33-.23C13.95,60.84,14.67,61.25,14.89,62.68Z"/><path d="M91,89.17l-.9-1.76L91,86.14l1.48,1.32Z"/><path d="M83.71,89.81l1.91.61-1.56,1.91-.83-2Z"/><path d="M75.33,60.25l-1.92,1.58L72,60.25l1.34-.78Z"/><path d="M7,5.6,8.19,6.7,7.28,8.48,5.73,7.33Z"/><path d="M87.6,97.34l2,.83-2,1.45L86,98a8.08,8.08,0,0,0,1.29-.36C87.51,97.5,87.69,97.25,87.6,97.34Z"/><path d="M68.73,23l-2.35.13V21.55s.16-.22.31-.24C67.78,21.19,68.5,21.6,68.73,23Z"/><path d="M28.71,78.24l-1.91-.61,1.56-1.91.83,2Z"/><path d="M10.12,46.08V44.51a1.65,1.65,0,0,1,2.38,1.32C11.76,46.43,11,46.08,10.12,46.08Z"/><path d="M72.73,93.51v1.66H70.4C70.47,93.7,71.33,93.42,72.73,93.51Z"/><path d="M47.08,48.22,45.55,50l-1.31-.61C44.79,47.86,45.64,47.73,47.08,48.22Z"/><path d="M65.1,83.9l.83-1.59h1.44v1.49l-.7.7Z"/><path d="M19,78H16.66v-1.4c.05,0,.21-.24.35-.22C18.25,76.48,18.25,76.5,19,78Z"/><path d="M92.07,95.17c1-1.5,1-1.5,2.51-1.69l.12,1.69Z"/><path d="M88.07,13l-2.36-.11c.25-1.55,1.11-1.8,2.36-1.64Z"/><path d="M45.71,76.24c1.46.28,1.84,1.06,1.51,2.37H45.71Z"/><path d="M53.85,47.78V46.47c1.6-.29,1.6-.29,2.44,1.31Z"/><path d="M38.35,45.91l1.49,1.28-1.55,1.87-.74-1.77Z"/><path d="M6.52,96.15,8.1,94.56l1,2.08C7.88,97.43,7.21,97,6.52,96.15Z"/><path d="M55.7,40.28l1.76-1.87,1.31,1.81-.95,1.11Z"/><path d="M18.74,82.74l1-1,1.75,1-1.29,1.54Z"/><path d="M76.12,46.07l-.67.67H74.26a1.3,1.3,0,0,1,.26-2Z"/><path d="M9.58,11.63l.73,1.28-.7,2L7.89,13.1Z"/><path d="M21,36.17,22.08,35l1.78.91-1.15,1.55Z"/><path d="M26.82,75.84l-1,1-1.75-1,1.29-1.54Z"/><path d="M45.28,53.39l-1.94-.62L45,51.09l.74,1.78Z"/><path d="M80.76,53.17H78.2l-.12-1.49C79.43,51.14,80.1,51.71,80.76,53.17Z"/><path d="M15.38,35v1.49H12.95C13.18,35.06,14,34.72,15.38,35Z"/><path d="M10.54,99.62l-.73-1.28.7-2,1.72,1.83Z"/><path d="M9.92,74.5v2.33H8.52c0-.05-.21-.19-.23-.35C8.18,75.37,8.59,74.66,9.92,74.5Z"/><path d="M83.67,75.09l2.49-.6a1.65,1.65,0,0,1-.69,2.39Z"/><path d="M36.64,16.75v2c-.95.56-1.62.17-2.39-.77Z"/><path d="M27.81,88.45v1.36L26.35,90l-.89-.89C26.1,88.32,26.76,87.63,27.81,88.45Z"/><path d="M17.12,22.92l.9,2.42-1.8.12C15.69,24.42,16,23.73,17.12,22.92Z"/><path d="M49.71,78.75l-.86-2.32,1.83-.12C51.11,77.34,50.95,78.07,49.71,78.75Z"/><path d="M36.53,74l2.42-.9.12,1.8C38,75.44,37.34,75.12,36.53,74Z"/><path d="M6.51,24c1.59-.28,1.59-.28,2.37,1.15C7.29,25.41,7.29,25.41,6.51,24Z"/><path d="M30.23,9.29v-2c.95-.56,1.62-.17,2.39.77Z"/><path d="M62.82,64.26l2.91,1.13-2.91,1.13Z"/><path d="M15.7,77.39c.66,1.45,0,2.08-1,2.62C14.12,78.5,14.12,78.5,15.7,77.39Z"/><path d="M18.34,74.85l.84-.84h1.44v1.61l-1.37.13Z"/><path d="M62,73.47h3.25l-1.13,2Z"/><path d="M17.16,88.86v1.38l-.84.82a1.62,1.62,0,0,1-.81-2.2Z"/><path d="M71.88,9.47H73c.61.51.49,1-.55,2.35C71.75,11.18,71.06,10.52,71.88,9.47Z"/><path d="M44.38,10l.86,2.32-1.83.12C43,11.42,43.14,10.69,44.38,10Z"/><path d="M7.1,80.37V79c.9-.67,1.59-.27,2.43.7l-1.07.26.33.43Z"/><path d="M9.9,16.09l2.43-.94v1.8C11.39,17.67,10.72,17,9.9,16.09Z"/><path d="M73.42,8.7v-2c.95-.56,1.62-.17,2.39.77Z"/><path d="M55.47,87.85l-2.74-1.07,2.74-1.33Z"/><path d="M80.9,82.87,83.34,82l.1,1.79C82.4,84.3,81.7,84,80.9,82.87Z"/><path d="M81.58,78.56l.9,2.42H80.68C80,80,80.59,79.34,81.58,78.56Z"/><path d="M29.78,7.6,27.87,9.1l-1-.87L28,6.9Z"/><path d="M64.35,72.47l-2.74-1.07,2.74-1.33Z"/><path d="M46.06,16.81l-2.45-.95,1-1h1.44Z"/><path d="M28.68,79.44l-1.07,2.74-1.33-2.74Z"/><path d="M65.14,77.93V76c.95-.56,1.62-.17,2.39.77Z"/><path d="M32.36,14.91,34.82,14v1.9L33.45,16Z"/><path d="M56.81,86.68c1.61-.24,1.61-.24,2.35,1.2C57.56,88.12,57.56,88.12,56.81,86.68Z"/><path d="M12.43,83.72v1.16c-.51.61-1,.49-2.35-.55C10.72,83.59,11.38,82.9,12.43,83.72Z"/><path d="M79.94,69.82l-2.32.86-.12-1.83C78.52,68.41,79.25,68.58,79.94,69.82Z"/><path d="M64.45,22.07v2c-.95.56-1.62.17-2.39-.77Z"/><path d="M42.57,16.78l1.66,2L41,19Z"/><path d="M65.37,84.16a8.3,8.3,0,0,1-1.4,1,3.41,3.41,0,0,1-1.18,0V83.66C63.67,83,64.35,83.72,65.37,84.16Z"/><path d="M17.88,68.26c-.46,1.44-1.21,1.82-2.4,1.44C15.9,68.09,15.9,68.1,17.88,68.26Z"/><path d="M95.68,69.18h-2c-.56-.95-.17-1.62.77-2.39Z"/><path d="M51.77,87l1.55,1.55-1.55.63-1.2-.93Z"/><path d="M66.88,94.36l.81-.81h1.45v1.51C68.2,95.71,67.51,95.15,66.88,94.36Z"/><path d="M69.76,36.87v1.37c-.92.59-1.58.16-2.18-.53C67.44,37.15,68.31,36.81,69.76,36.87Z"/><path d="M4.53,48.62l.93.92L4.25,51.16l-1.07-.93Z"/><path d="M51.67,36.14h2c.55,1,.17,1.63-.78,2.39Z"/><path d="M26.8,37.25l-2.45.88-.1-1.79C25.3,35.82,26,36.13,26.8,37.25Z"/><path d="M35.6,36.05l.94-.93,1.37,1.29-1.7,1.23Z"/><path d="M19.78,51.92,21.21,50l1.73,1.93Z"/><path d="M57.49,92.64l2.45,1-1,1H57.49Z"/><path d="M32.6,53.67v-2c.94-.57,1.6-.16,2.39.77Z"/><path d="M38.32,52.15l2.42-.9V53C39.79,53.7,39.11,53.14,38.32,52.15Z"/><path d="M48.39,52.82l2.36-1.65v2.49C49.73,54.31,49.65,53.11,48.39,52.82Z"/><path d="M29.72,1.18c-.36,1.61-1.1,2-2.61,1.58l.83-1.58Z"/><path d="M88,34.43l2.43-.94v1.8C89.5,36,88.82,35.35,88,34.43Z"/><path d="M67.28,36h-2c-.57-.94-.16-1.6.77-2.39Z"/><path d="M69.37,54.36l-2.42.9V53.46C67.9,52.81,68.59,53.37,69.37,54.36Z"/><path d="M69.8,33.45l-.81.81H67.54V32.75C68.49,32.1,69.18,32.66,69.8,33.45Z"/><path d="M94.25,42.57l-2.45.88-.1-1.79C92.75,41.15,93.45,41.46,94.25,42.57Z"/><path d="M5.63,43.84a8.33,8.33,0,0,1,.56-1.2,11.47,11.47,0,0,1,.92-.92l1.65,1.88Z"/><path d="M84.14,41.57H87.3l-1.4,1.93Z"/><path d="M43.61,41.61c1.43-.43,2.21-.1,2.57,1.12C44.75,43.26,44.75,43.26,43.61,41.61Z"/><path d="M25.76,43.64l1.07-2.74,1.33,2.74Z"/><path d="M47.88,96.62v2c-.94.57-1.6.16-2.39-.77Z"/><path d="M46.79,43v-2c.95-.56,1.62-.17,2.39.77Z"/><path d="M15.87,46l-.89.9a7.47,7.47,0,0,1-.9-.54,5.44,5.44,0,0,1-.65-.78l.82-.94Z"/><path d="M43.87,45.13H47L45.7,47Z"/><path d="M69.28,47.16v-2c.95-.56,1.62-.17,2.39.77Z"/><path d="M84,44.55v2c-.94.57-1.6.16-2.39-.77Z"/><path d="M49.7,45.56V47c-.5.62-1,.5-2.39-.57a5.3,5.3,0,0,1,1.08-.85A4,4,0,0,1,49.7,45.56Z"/><path d="M43.51,40.16l-1,1-1.6-1.35.92-.93Z"/><path d="M9.76,50.3l-.83-.84V48h1.5C11.17,49,10.5,49.64,9.76,50.3Z"/><path d="M62.13,38.46V39.9c-.5.62-1,.5-2.39-.57a5.3,5.3,0,0,1,1.08-.85A4,4,0,0,1,62.13,38.46Z"/><path d="M38.88,92.85h-2c-.57-.94-.16-1.6.77-2.39Z"/><path d="M9.06,59.23h1.37c.59.92.16,1.58-.53,2.18C9.34,61.56,9,60.69,9.06,59.23Z"/><path d="M16.27,59.17l.83.84v1.44h-1.5C14.87,60.5,15.53,59.83,16.27,59.17Z"/><path d="M82.82,30.25l1.77-2.2L86.28,30Z"/><path d="M98.39,90.5l-2.45.88-.1-1.79C96.89,89.08,97.59,89.39,98.39,90.5Z"/><path d="M93.66,29.66c-.4-1.5.07-2.22,1.3-2.54C95.22,28.82,95.22,28.82,93.66,29.66Z"/><path d="M70.72,63.32l-1.58-1.58L70.5,61l1.41,1.09Z"/><path d="M22.63,89.07l2.74,1.07-2.74,1.33Z"/><path d="M61.6,63.13V61.77c.92-.59,1.58-.16,2.18.53C63.92,62.85,63.05,63.19,61.6,63.13Z"/><path d="M21.68,90.5l-2,1.66-.25-3.23Z"/><path d="M7.69,26.82v1.25c-.51.61-1,.49-2.35-.54A1.68,1.68,0,0,1,7.69,26.82Z"/><path d="M15.2,28.35h-2c-.56-.95-.17-1.62.77-2.39Z"/><path d="M8,62.72l.84.84V65H7.21l-.13-1.37Z"/><path d="M55.44,91.07H54.07c-.59-.92-.16-1.58.53-2.18C55.15,88.74,55.5,89.61,55.44,91.07Z"/><path d="M63.8,4.53l-.92.93L61.26,4.25l.93-1.07Z"/><path d="M77,27.23V24.62l1.77,1.09C78.48,26.77,78,27.36,77,27.23Z"/><path d="M29.44,65.12l1.34-1.58,1.59,1.95-2.67.21Z"/><path d="M12.95,33.52c.37-1.53,1.22-1.71,2.38-1.53C14.86,33.69,14.85,33.68,12.95,33.52Z"/><path d="M89.85,32.13l-1.65.74L87.08,31.5l.93-1Z"/><path d="M17.28,34.5,16.33,32h1.9l.13,1.37Z"/><path d="M24.27,33.59,26,32.82l1.11,1.36-.92,1Z"/><path d="M44.79,2c1.43-.41,2.22-.11,2.58,1.12C46,3.63,46,3.63,44.79,2Z"/><path d="M30.77,56.52V55.16L32.23,55l.89.89C32.48,56.65,31.82,57.34,30.77,56.52Z"/><path d="M25.89,57.08,23.15,56l2.74-1.33Z"/><path d="M16,59l-1.66-2,3.23-.25Z"/><path d="M50.38,57.55h3.16L52.2,59.47Z"/><path d="M51.53,31.95l-2.3.87L49.1,31C50.11,30.54,50.85,30.7,51.53,31.95Z"/><path d="M91.21,1.52l2.92,1.17-2.92,1.1Z"/><path d="M76.17,94.08h-1.5l-.15-1.67h1.65Z"/><path d="M73.07,84.5c.27.2.6.89,0,2L70.94,85Z"/><path d="M69.55,91.15l-.93-.93.14-1.81,1.88,1.36Z"/><path d="M25.69,85.63c1.35-.71,2-.39,2.74.54l-1.51.62Z"/><path d="M75.71,4.46l.93-.93,1.81.14L77.08,5.56Z"/><path d="M55.08,93.39V91.82H56.7l.13,1.58Z"/><path d="M5.6,93.11a1.8,1.8,0,0,1-2.69-.61l1.32-.73c-.09,0,.21,0,.39.16A11.37,11.37,0,0,1,5.6,93.11Z"/><path d="M77.31,82.1a1.53,1.53,0,0,1,2.44.29l-.9,1.38Z"/><path d="M99.38,83.61l-2.69-.84L98,81.59A1.63,1.63,0,0,1,99.38,83.61Z"/><path d="M42.3,94.84l-2-.78,1-1.44,1.46,1.59Z"/><path d="M27.48,83.54a1.43,1.43,0,0,1-1.93.3c0-.18-.16-.42-.09-.52.3-.42.66-.81,1.36-1.64Z"/><path d="M52.5,7.2l.18,2-.82.82L50.57,9Z"/><path d="M89.3,90v1.58H87.67L87.55,90Z"/><path d="M78.08,6.83,79,5.9,80.81,6,79.45,7.93Z"/><path d="M16.91,20.42l-1.7,2.07-.66-2C14.74,20.1,15.49,19.91,16.91,20.42Z"/><path d="M76.63,21.55l2.1,1.73-1.84.43C76.31,23.72,76.12,23,76.63,21.55Z"/><path d="M81.13,70.08,82.37,69c.23.39.48.63.44.81-.11.59-.33,1.17-.71,2.43Z"/><path d="M13.9,70.75,11.8,69l1.84-.43C14.22,68.59,14.41,69.34,13.9,70.75Z"/><path d="M87.08,22.54h1.58v1.63l-1.58.12Z"/><path d="M89.94,39.05l1.37-.74,1.11,1.34c-.22.29-.3.52-.44.56-.8.29-1.39-.27-2-.58Z"/><path d="M72.24,49V47.44h1.62L74,49Z"/><path d="M36.69,67.89v-1.5l1.67-.15v1.65Z"/><path d="M19.06,39.66l1.53-2.05,1.19,1C21.43,39.86,20.42,39.62,19.06,39.66Z"/><path d="M39.64,66.12v-1.5l1.67-.15v1.65Z"/><path d="M11.55,37.7l2,.78-1,1.52-1.52-1.66Z"/><path d="M47.9,64.63l-1.77,1.15-1.17-1C45.63,64.06,46.3,63.39,47.9,64.63Z"/><path d="M43.84,39V37.37h1.63L45.59,39Z"/><path d="M10.22,62.72h1.5l.15,1.67H10.22Z"/><path d="M66.78,64.15a7.37,7.37,0,0,1-1.07-.52c-.28-.22-.51-.5-1.13-1.14l1.73-.39C66.94,62.06,67,62.86,66.78,64.15Z"/><path d="M48.25,49.16l1.05,1L47.8,51.8A1.69,1.69,0,0,1,48.25,49.16Z"/><path d="M93.3,61.49l-1.63-.85,1.69-1.34.71,1.17Z"/><path d="M7.45,31.92l-1.16-1,1.36-1.42C8.58,29.93,8.49,30.5,7.45,31.92Z"/><path d="M42.06,60.85V59.27h1.63l.12,1.58Z"/><path d="M75,58h-1.5l-.15-1.67H75Z"/><path d="M56.11,57.35H54.54V55.73l1.58-.13Z"/><path d="M48.68,34.32h1.5L50.33,36H48.68Z"/><path d="M41.47,55.52V53.95h1.62l.13,1.58Z"/><path d="M38.3,81.66h-1.5L36.65,80H38.3Z"/><path d="M33.29,79.29h1.5L34.94,81H33.29Z"/><path d="M31.24,11A1.42,1.42,0,0,1,33,10.84c0,.18.16.42.09.52-.3.42-.66.81-1.37,1.66Z"/><path d="M71.47,14.57l-1.13.59-1.47-.77,1-1.16Z"/><path d="M43.15,77.61v1.58H41.52l-.13-1.58Z"/><path d="M39.5,76.47l.89.94-.93,1.24-1.63-.85Z"/><path d="M32.89,44.93l-1.16-1,1.36-1.42C34,42.95,33.93,43.52,32.89,44.93Z"/><path d="M62.25,41.56,64,40c.23.39.48.63.44.81-.11.59-.32,1.16-.6,2.07Z"/><path d="M73.93,39.77l-1.77,1.15L71,40C71.67,39.2,72.34,38.53,73.93,39.77Z"/><path d="M31.8,17.75H30.3l-.15-1.67H31.8Z"/><path d="M54.33,76.75l-1.44-.86,1.7-1.54A1.49,1.49,0,0,1,54.33,76.75Z"/><path d="M28.21,39.24,26.7,41.13l-1.13-1C25.46,39.51,26.3,39.18,28.21,39.24Z"/><path d="M84.62,16.73v1.5l-1.67.15V16.73Z"/><path d="M24.4,74.48,23,72.82c.39-.93,1-.84,2.45.23Z"/><path d="M54.63,19.34l1.52-1.89,1.13,1C57.38,19.07,56.54,19.4,54.63,19.34Z"/><path d="M67.43,45.66c.09,1.19-.54,1.56-1.66,1.76l-.11-1.76Z"/><path d="M93,71.24l1.5.76-1.33,1.48-.87-1.31Z"/><path d="M69.4,99l-1-1.64L70,96.9l.57.68Z"/><path d="M81,86.75l-1.42-.86,1.24-1.39.87,1.31Z"/><path d="M29.75,12.87l1.39,1.66-2,.36V13Z"/><path d="M58.05,62.78l-.41.48-.19-.19.48-.41Z"/><path class="cls-2" d="M40.3,26.68l-.41.48L39.7,27l.48-.41Z"/><path class="cls-2" d="M89.94,39.05v.59l-.49-.4Z"/></g></svg>