<svg xmlns="http://www.w3.org/2000/svg" xmlns:xlink="http://www.w3.org/1999/xlink" viewBox="0 0 500 500"><defs><style>.cls-1{fill:none;}.cls-2{isolation:isolate;}.cls-3{fill:#54524b;}.cls-4{fill:#8e8b7e;}.cls-5{opacity:0.18;mix-blend-mode:multiply;}.cls-6{clip-path:url(#clip-path);}.cls-7{fill:#fff;}.cls-8{fill:#fefefe;}.cls-9{fill:#fdfdfd;}.cls-10{fill:#fcfcfc;}.cls-11{fill:#fbfbfb;}.cls-12{fill:#fafafa;}.cls-13{fill:#f9f9f9;}.cls-14{fill:#f8f8f8;}.cls-15{fill:#f7f7f7;}.cls-16{fill:#f6f6f6;}.cls-17{fill:#f5f5f5;}.cls-18{fill:#f4f4f4;}.cls-19{fill:#f3f3f3;}.cls-20{fill:#f2f2f2;}.cls-21{fill:#f1f1f1;}.cls-22{fill:#f0f0f0;}.cls-23{fill:#efefef;}.cls-24{fill:#eee;}.cls-25{fill:#ededed;}.cls-26{fill:#ececec;}.cls-27{fill:#ebebeb;}.cls-28{fill:#eaeaea;}.cls-29{fill:#e9e9e9;}.cls-30{fill:#e8e8e8;}.cls-31{fill:#e7e7e7;}.cls-32{fill:#e6e6e6;}.cls-33{fill:#e5e5e5;}.cls-34{fill:#e4e4e4;}.cls-35{fill:#e3e3e3;}.cls-36{fill:#e2e2e2;}.cls-37{fill:#e1e1e1;}.cls-38{fill:#e0e0e0;}.cls-39{fill:#dfdfdf;}.cls-40{fill:#dedede;}.cls-41{fill:#ddd;}.cls-42{fill:#dcdcdc;}.cls-43{fill:#dbdbdb;}.cls-44{fill:#dadada;}.cls-45{fill:#dad9d9;}.cls-46{fill:#d9d8d8;}.cls-47{fill:#d8d7d7;}.cls-48{fill:#d7d6d6;}.cls-49{fill:#d6d5d5;}.cls-50{fill:#d5d4d4;}.cls-51{fill:#d4d3d3;}.cls-52{fill:#d3d2d2;}.cls-53{fill:#d2d1d1;}.cls-54{fill:#d1d0d0;}.cls-55{fill:#d0cfcf;}.cls-56{fill:#cfcece;}.cls-57{fill:#cecdcd;}.cls-58{fill:#cdcccc;}.cls-59{fill:#cccbcb;}.cls-60{fill:#cbcaca;}.cls-61{fill:#cac9c9;}.cls-62{fill:#c9c8c8;}.cls-63{fill:#c8c7c7;}.cls-64{fill:#c7c6c6;}.cls-65{fill:#c6c5c5;}.cls-66{fill:#c5c4c4;}.cls-67{fill:#c4c3c3;}.cls-68{fill:#c3c2c2;}.cls-69{fill:#c2c1c1;}.cls-70{fill:#c1c0c0;}.cls-71{fill:#c0bfbf;}.cls-72{fill:#bfbebe;}.cls-73{fill:#bebdbd;}.cls-74{fill:#bdbcbc;}.cls-75{fill:#bcbbbb;}.cls-76{fill:#bbbaba;}.cls-77{fill:#bab9b9;}.cls-78{fill:#b9b8b8;}.cls-79{fill:#b8b7b7;}.cls-80{fill:#b7b6b6;}.cls-81{fill:#b6b5b5;}.cls-82{fill:#b5b4b4;}.cls-83{fill:#b4b3b3;}.cls-84{fill:#b3b2b2;}.cls-85{fill:#b2b1b1;}.cls-86{fill:#b1b0b0;}.cls-87{fill:#b0afaf;}.cls-88{fill:#afaeae;}.cls-89{fill:#aeadad;}.cls-90{fill:#adacac;}.cls-91{fill:#acabab;}.cls-92{fill:#abaaaa;}.cls-93{fill:#aaa9a9;}.cls-94{fill:#a9a8a8;}.cls-95{fill:#a8a7a7;}.cls-96{fill:#a7a6a6;}.cls-97{fill:#a6a5a5;}.cls-98{fill:#a5a4a4;}.cls-99{fill:#a4a3a3;}.cls-100{fill:#a3a2a2;}.cls-101{fill:#a2a1a1;}.cls-102{fill:#a1a0a0;}.cls-103{fill:#a09f9f;}.cls-104{fill:#9f9e9e;}.cls-105{fill:#9e9d9d;}.cls-106{fill:#9d9c9c;}.cls-107{fill:#9c9b9b;}.cls-108{fill:#9b9a9a;}.cls-109{fill:#9a9999;}.cls-110{fill:#999898;}.cls-111{fill:#989797;}.cls-112{fill:#979696;}.cls-113{fill:#969595;}.cls-114{fill:#959494;}.cls-115{fill:#949393;}.cls-116{fill:#939292;}.cls-117{fill:#929191;}.cls-118{fill:#919090;}.cls-119{fill:#918e8f;}.cls-120{fill:#908d8e;}.cls-121{fill:#8f8c8d;}.cls-122{fill:#8e8b8c;}.cls-123{fill:#8d8a8b;}.cls-124{fill:#8c898a;}.cls-125{fill:#8b8889;}.cls-126{fill:#8a8788;}.cls-127{fill:#898687;}.cls-128{fill:#888586;}.cls-129{fill:#878485;}.cls-130{fill:#868384;}.cls-131{fill:#858283;}.cls-132{fill:#848182;}.cls-133{fill:#838081;}.cls-134{fill:#827f80;}.cls-135{fill:#817e7f;}.cls-136{fill:#807d7e;}.cls-137{fill:#7f7c7d;}.cls-138{fill:#7e7b7c;}.cls-139{fill:#7d7a7b;}.cls-140{fill:#7c797a;}.cls-141{fill:#7b7879;}.cls-142{fill:#7a7778;}.cls-143{fill:#797677;}.cls-144{fill:#787576;}.cls-145{fill:#777475;}.cls-146{fill:#767374;}.cls-147{fill:#757273;}.cls-148{fill:#747172;}.cls-149{fill:#737071;}.cls-150{fill:#726f70;}.cls-151{fill:#716e6f;}.cls-152{fill:#706d6e;}.cls-153{fill:#6f6c6d;}.cls-154{fill:#6e6b6c;}.cls-155{fill:#6d6a6b;}.cls-156{fill:#6c696a;}.cls-157{fill:#6b6869;}.cls-158{fill:#6a6768;}.cls-159{fill:#696667;}.cls-160{fill:#686566;}.cls-161{fill:#676465;}.cls-162{fill:#666364;}.cls-163{fill:#656263;}.cls-164{fill:#646162;}.cls-165{fill:#636061;}.cls-166{fill:#625f60;}.cls-167{fill:#615e5f;}.cls-168{fill:#605d5e;}.cls-169{fill:#5f5c5d;}.cls-170{fill:#5e5b5c;}.cls-171{fill:#5d5a5b;}.cls-172{fill:#5c595a;}.cls-173{fill:#5b5859;}.cls-174{fill:#5a5758;}.cls-175{fill:#595657;}.cls-176{fill:#585556;}.cls-177{fill:#575455;}.cls-178{fill:#565354;}.cls-179{fill:#555253;}.cls-180{fill:#545152;}.cls-181{fill:#535051;}.cls-182{opacity:0.34;mix-blend-mode:overlay;}.cls-183{clip-path:url(#clip-path-2);}.cls-184{fill:#524f50;}.cls-185{fill:#514e4f;}.cls-186{clip-path:url(#clip-path-3);}.cls-187{fill:#504d4e;}.cls-188{fill:#4f4c4d;}.cls-189{fill:#4e4b4c;}.cls-190{fill:#4d4a4b;}.cls-191{fill:#4c494a;}.cls-192{fill:#4b4849;}.cls-193{fill:#4a4748;}.cls-194{fill:#494647;}.cls-195{fill:#484546;}.cls-196{fill:#484445;}.cls-197{fill:#474344;}.cls-198{fill:#464243;}.cls-199{fill:#454142;}.cls-200{fill:#444041;}.cls-201{fill:#433f40;}.cls-202{fill:#423e3f;}.cls-203{fill:#413d3e;}.cls-204{fill:#403c3d;}.cls-205{fill:#3f3b3c;}.cls-206{fill:#3e3a3b;}.cls-207{fill:#3d393a;}.cls-208{fill:#3c3839;}.cls-209{fill:#3b3738;}.cls-210{fill:#3a3637;}.cls-211{fill:#393536;}.cls-212{fill:#383435;}.cls-213{fill:#373334;}.cls-214{fill:#363233;}.cls-215{fill:#353132;}.cls-216{fill:#343031;}.cls-217{fill:#332f30;}.cls-218{fill:#322e2f;}.cls-219{fill:#312d2e;}.cls-220{fill:#302c2d;}.cls-221{fill:#2f2b2c;}.cls-222{fill:#2e2a2b;}.cls-223{fill:#2d292a;}.cls-224{fill:#2c2829;}.cls-225{fill:#2b2728;}.cls-226{fill:#2a2627;}.cls-227{fill:#292526;}.cls-228{fill:#282425;}.cls-229{fill:#272324;}.cls-230{fill:#262223;}.cls-231{fill:#252122;}.cls-232{fill:#242021;}.cls-233{fill:#231f20;}.cls-234{clip-path:url(#clip-path-4);}.cls-235{fill:#aaa79d;}.cls-236{fill:#666;}.cls-237{fill:#61abbc;}</style><clipPath id="clip-path"><path class="cls-1" d="M499,332.18c0-1-50.91-38.88-48.52-39.43s.24-163,.24-163L499,134.76Z"/></clipPath><clipPath id="clip-path-2"><path class="cls-1" d="M.35,332.18c0-1,50.69-38.88,48.3-39.43s-.13-163-.13-163L1.37,137Z"/></clipPath><clipPath id="clip-path-3"><polygon class="cls-1" points="147.24 470 169.56 401.77 334.65 397.47 353.68 470 147.24 470"/></clipPath><clipPath id="clip-path-4"><path class="cls-1" d="M499.65,331.85c-.93-1.69-45.45-35.91-45.45-35.91L334.82,411l18.86,59.66Z"/></clipPath></defs><title>elevator-below</title><g class="cls-2"><g id="Layer_1" data-name="Layer 1"><polygon class="cls-3" points="499.5 359 353.53 498.18 147.1 498.18 1.13 359 1.13 162.17 147.1 39.63 353.53 39.63 499.5 162.17 499.5 359"/><polygon class="cls-4" points="499.5 331.85 353.53 471.03 147.1 471.03 1.13 331.85 1.13 135.02 147.1 12.49 353.53 12.49 499.5 135.02 499.5 331.85"/><g class="cls-5"><g class="cls-6"><polygon class="cls-7" points="449 329.33 454 332 449 332 449 329.33"/><polygon class="cls-7" points="449 328.04 456.62 332 454 332 449 329.33 449 328.04"/><polygon class="cls-8" points="449 326.75 459.23 332 456.62 332 449 328.04 449 326.75"/><polygon class="cls-9" points="449 325.47 461.85 332 459.23 332 449 326.75 449 325.47"/><polygon class="cls-10" points="449 324.18 464.46 332 461.85 332 449 325.47 449 324.18"/><polygon class="cls-11" points="449 322.89 467.08 332 464.46 332 449 324.18 449 322.89"/><polygon class="cls-12" points="449 321.61 469.69 332 467.08 332 449 322.89 449 321.61"/><polygon class="cls-13" points="449 320.32 472.31 332 469.69 332 449 321.61 449 320.32"/><polygon class="cls-14" points="449 319.04 474.92 332 472.31 332 449 320.32 449 319.04"/><polygon class="cls-15" points="449 317.75 477.54 332 474.92 332 449 319.04 449 317.75"/><polygon class="cls-16" points="449 316.46 480.15 332 477.54 332 449 317.75 449 316.46"/><polygon class="cls-17" points="449 315.18 482.77 332 480.15 332 449 316.46 449 315.18"/><polygon class="cls-18" points="449 313.89 485.38 332 482.77 332 449 315.18 449 313.89"/><polygon class="cls-19" points="449 312.6 488 332 485.38 332 449 313.89 449 312.6"/><polygon class="cls-20" points="449 311.32 490.61 332 488 332 449 312.6 449 311.32"/><polygon class="cls-21" points="449 310.03 493.23 332 490.61 332 449 311.32 449 310.03"/><polygon class="cls-22" points="449 308.74 495.84 332 493.23 332 449 310.03 449 308.74"/><polygon class="cls-23" points="449 307.46 498.45 332 495.84 332 449 308.74 449 307.46"/><polygon class="cls-24" points="449 306.17 499 331.27 499 332 498.45 332 449 307.46 449 306.17"/><polygon class="cls-25" points="449 304.88 499 329.98 499 331.27 449 306.17 449 304.88"/><polygon class="cls-26" points="449 303.6 499 328.7 499 329.98 449 304.88 449 303.6"/><polygon class="cls-27" points="449 302.31 499 327.41 499 328.7 449 303.6 449 302.31"/><polygon class="cls-28" points="449 301.02 499 326.12 499 327.41 449 302.31 449 301.02"/><polygon class="cls-29" points="449 299.74 499 324.84 499 326.12 449 301.02 449 299.74"/><polygon class="cls-30" points="449 298.45 499 323.55 499 324.84 449 299.74 449 298.45"/><polygon class="cls-31" points="449 297.17 499 322.26 499 323.55 449 298.45 449 297.17"/><polygon class="cls-32" points="449 295.88 499 320.98 499 322.26 449 297.17 449 295.88"/><polygon class="cls-33" points="449 294.59 499 319.69 499 320.98 449 295.88 449 294.59"/><polygon class="cls-34" points="449 293.31 499 318.4 499 319.69 449 294.59 449 293.31"/><polygon class="cls-35" points="449 292.02 499 317.12 499 318.4 449 293.31 449 292.02"/><polygon class="cls-36" points="449 290.73 499 315.83 499 317.12 449 292.02 449 290.73"/><polygon class="cls-37" points="449 289.45 499 314.55 499 315.83 449 290.73 449 289.45"/><polygon class="cls-38" points="449 288.16 499 313.26 499 314.55 449 289.45 449 288.16"/><polygon class="cls-39" points="449 286.87 499 311.97 499 313.26 449 288.16 449 286.87"/><polygon class="cls-40" points="449 285.59 499 310.69 499 311.97 449 286.87 449 285.59"/><polygon class="cls-41" points="449 284.3 499 309.4 499 310.69 449 285.59 449 284.3"/><polygon class="cls-42" points="449 283.01 499 308.11 499 309.4 449 284.3 449 283.01"/><polygon class="cls-43" points="449 281.73 499 306.83 499 308.11 449 283.01 449 281.73"/><polygon class="cls-44" points="449 280.44 499 305.54 499 306.83 449 281.73 449 280.44"/><polygon class="cls-45" points="449 279.15 499 304.25 499 305.54 449 280.44 449 279.15"/><polygon class="cls-46" points="449 277.87 499 302.97 499 304.25 449 279.15 449 277.87"/><polygon class="cls-47" points="449 276.58 499 301.68 499 302.97 449 277.87 449 276.58"/><polygon class="cls-48" points="449 275.3 499 300.39 499 301.68 449 276.58 449 275.3"/><polygon class="cls-49" points="449 274.01 499 299.11 499 300.39 449 275.3 449 274.01"/><polygon class="cls-50" points="449 272.72 499 297.82 499 299.11 449 274.01 449 272.72"/><polygon class="cls-51" points="449 271.44 499 296.54 499 297.82 449 272.72 449 271.44"/><polygon class="cls-52" points="449 270.15 499 295.25 499 296.54 449 271.44 449 270.15"/><polygon class="cls-53" points="449 268.86 499 293.96 499 295.25 449 270.15 449 268.86"/><polygon class="cls-54" points="449 267.58 499 292.68 499 293.96 449 268.86 449 267.58"/><polygon class="cls-55" points="449 266.29 499 291.39 499 292.68 449 267.58 449 266.29"/><polygon class="cls-56" points="449 265 499 290.1 499 291.39 449 266.29 449 265"/><polygon class="cls-57" points="449 263.72 499 288.82 499 290.1 449 265 449 263.72"/><polygon class="cls-58" points="449 262.43 499 287.53 499 288.82 449 263.72 449 262.43"/><polygon class="cls-59" points="449 261.14 499 286.24 499 287.53 449 262.43 449 261.14"/><polygon class="cls-60" points="449 259.86 499 284.96 499 286.24 449 261.14 449 259.86"/><polygon class="cls-61" points="449 258.57 499 283.67 499 284.96 449 259.86 449 258.57"/><polygon class="cls-62" points="449 257.28 499 282.38 499 283.67 449 258.57 449 257.28"/><polygon class="cls-63" points="449 256 499 281.1 499 282.38 449 257.28 449 256"/><polygon class="cls-64" points="449 254.71 499 279.81 499 281.1 449 256 449 254.71"/><polygon class="cls-65" points="449 253.43 499 278.52 499 279.81 449 254.71 449 253.43"/><polygon class="cls-66" points="449 252.14 499 277.24 499 278.52 449 253.43 449 252.14"/><polygon class="cls-67" points="449 250.85 499 275.95 499 277.24 449 252.14 449 250.85"/><polygon class="cls-68" points="449 249.57 499 274.67 499 275.95 449 250.85 449 249.57"/><polygon class="cls-69" points="449 248.28 499 273.38 499 274.67 449 249.57 449 248.28"/><polygon class="cls-70" points="449 246.99 499 272.09 499 273.38 449 248.28 449 246.99"/><polygon class="cls-71" points="449 245.71 499 270.81 499 272.09 449 246.99 449 245.71"/><polygon class="cls-72" points="449 244.42 499 269.52 499 270.81 449 245.71 449 244.42"/><polygon class="cls-73" points="449 243.13 499 268.23 499 269.52 449 244.42 449 243.13"/><polygon class="cls-74" points="449 241.85 499 266.95 499 268.23 449 243.13 449 241.85"/><polygon class="cls-75" points="449 240.56 499 265.66 499 266.95 449 241.85 449 240.56"/><polygon class="cls-76" points="449 239.27 499 264.37 499 265.66 449 240.56 449 239.27"/><polygon class="cls-77" points="449 237.99 499 263.09 499 264.37 449 239.27 449 237.99"/><polygon class="cls-78" points="449 236.7 499 261.8 499 263.09 449 237.99 449 236.7"/><polygon class="cls-79" points="449 235.41 499 260.51 499 261.8 449 236.7 449 235.41"/><polygon class="cls-80" points="449 234.13 499 259.23 499 260.51 449 235.41 449 234.13"/><polygon class="cls-81" points="449 232.84 499 257.94 499 259.23 449 234.13 449 232.84"/><polygon class="cls-82" points="449 231.56 499 256.65 499 257.94 449 232.84 449 231.56"/><polygon class="cls-83" points="449 230.27 499 255.37 499 256.65 449 231.56 449 230.27"/><polygon class="cls-84" points="449 228.98 499 254.08 499 255.37 449 230.27 449 228.98"/><polygon class="cls-85" points="449 227.7 499 252.8 499 254.08 449 228.98 449 227.7"/><polygon class="cls-86" points="449 226.41 499 251.51 499 252.8 449 227.7 449 226.41"/><polygon class="cls-87" points="449 225.12 499 250.22 499 251.51 449 226.41 449 225.12"/><polygon class="cls-88" points="449 223.84 499 248.94 499 250.22 449 225.12 449 223.84"/><polygon class="cls-89" points="449 222.55 499 247.65 499 248.94 449 223.84 449 222.55"/><polygon class="cls-90" points="449 221.26 499 246.36 499 247.65 449 222.55 449 221.26"/><polygon class="cls-91" points="449 219.98 499 245.08 499 246.36 449 221.26 449 219.98"/><polygon class="cls-92" points="449 218.69 499 243.79 499 245.08 449 219.98 449 218.69"/><polygon class="cls-93" points="449 217.4 499 242.5 499 243.79 449 218.69 449 217.4"/><polygon class="cls-94" points="449 216.12 499 241.22 499 242.5 449 217.4 449 216.12"/><polygon class="cls-95" points="449 214.83 499 239.93 499 241.22 449 216.12 449 214.83"/><polygon class="cls-96" points="449 213.54 499 238.65 499 239.93 449 214.83 449 213.54"/><polygon class="cls-97" points="449 212.26 499 237.36 499 238.65 449 213.54 449 212.26"/><polygon class="cls-98" points="449 210.97 499 236.07 499 237.36 449 212.26 449 210.97"/><polygon class="cls-99" points="449 209.69 499 234.78 499 236.07 449 210.97 449 209.69"/><polygon class="cls-100" points="449 208.4 499 233.5 499 234.78 449 209.69 449 208.4"/><polygon class="cls-101" points="449 207.11 499 232.21 499 233.5 449 208.4 449 207.11"/><polygon class="cls-102" points="449 205.83 499 230.93 499 232.21 449 207.11 449 205.83"/><polygon class="cls-103" points="449 204.54 499 229.64 499 230.93 449 205.83 449 204.54"/><polygon class="cls-104" points="449 203.25 499 228.35 499 229.64 449 204.54 449 203.25"/><polygon class="cls-105" points="449 201.97 499 227.07 499 228.35 449 203.25 449 201.97"/><polygon class="cls-106" points="449 200.68 499 225.78 499 227.07 449 201.97 449 200.68"/><polygon class="cls-107" points="449 199.39 499 224.49 499 225.78 449 200.68 449 199.39"/><polygon class="cls-108" points="449 198.11 499 223.21 499 224.49 449 199.39 449 198.11"/><polygon class="cls-109" points="449 196.82 499 221.92 499 223.21 449 198.11 449 196.82"/><polygon class="cls-110" points="449 195.53 499 220.63 499 221.92 449 196.82 449 195.53"/><polygon class="cls-111" points="449 194.25 499 219.35 499 220.63 449 195.53 449 194.25"/><polygon class="cls-112" points="449 192.96 499 218.06 499 219.35 449 194.25 449 192.96"/><polygon class="cls-113" points="449 191.68 499 216.78 499 218.06 449 192.96 449 191.68"/><polygon class="cls-114" points="449 190.39 499 215.49 499 216.78 449 191.68 449 190.39"/><polygon class="cls-115" points="449 189.1 499 214.2 499 215.49 449 190.39 449 189.1"/><polygon class="cls-116" points="449 187.81 499 212.91 499 214.2 449 189.1 449 187.81"/><polygon class="cls-117" points="449 186.53 499 211.63 499 212.91 449 187.81 449 186.53"/><polygon class="cls-118" points="449 185.24 499 210.34 499 211.63 449 186.53 449 185.24"/><polygon class="cls-119" points="449 183.96 499 209.06 499 210.34 449 185.24 449 183.96"/><polygon class="cls-120" points="449 182.67 499 207.77 499 209.06 449 183.96 449 182.67"/><polygon class="cls-121" points="449 181.38 499 206.48 499 207.77 449 182.67 449 181.38"/><polygon class="cls-122" points="449 180.1 499 205.2 499 206.48 449 181.38 449 180.1"/><polygon class="cls-123" points="449 178.81 499 203.91 499 205.2 449 180.1 449 178.81"/><polygon class="cls-124" points="449 177.52 499 202.62 499 203.91 449 178.81 449 177.52"/><polygon class="cls-125" points="449 176.24 499 201.34 499 202.62 449 177.52 449 176.24"/><polygon class="cls-126" points="449 174.95 499 200.05 499 201.34 449 176.24 449 174.95"/><polygon class="cls-127" points="449 173.66 499 198.76 499 200.05 449 174.95 449 173.66"/><polygon class="cls-128" points="449 172.38 499 197.48 499 198.76 449 173.66 449 172.38"/><polygon class="cls-129" points="449 171.09 499 196.19 499 197.48 449 172.38 449 171.09"/><polygon class="cls-130" points="449 169.81 499 194.91 499 196.19 449 171.09 449 169.81"/><polygon class="cls-131" points="449 168.52 499 193.62 499 194.91 449 169.81 449 168.52"/><polygon class="cls-132" points="449 167.23 499 192.33 499 193.62 449 168.52 449 167.23"/><polygon class="cls-133" points="449 165.95 499 191.05 499 192.33 449 167.23 449 165.95"/><polygon class="cls-134" points="449 164.66 499 189.76 499 191.05 449 165.95 449 164.66"/><polygon class="cls-135" points="449 163.37 499 188.47 499 189.76 449 164.66 449 163.37"/><polygon class="cls-136" points="449 162.09 499 187.19 499 188.47 449 163.37 449 162.09"/><polygon class="cls-137" points="449 160.8 499 185.9 499 187.19 449 162.09 449 160.8"/><polygon class="cls-138" points="449 159.51 499 184.61 499 185.9 449 160.8 449 159.51"/><polygon class="cls-139" points="449 158.23 499 183.33 499 184.61 449 159.51 449 158.23"/><polygon class="cls-140" points="449 156.94 499 182.04 499 183.33 449 158.23 449 156.94"/><polygon class="cls-141" points="449 155.65 499 180.75 499 182.04 449 156.94 449 155.65"/><polygon class="cls-142" points="449 154.37 499 179.47 499 180.75 449 155.65 449 154.37"/><polygon class="cls-143" points="449 153.08 499 178.18 499 179.47 449 154.37 449 153.08"/><polygon class="cls-144" points="449 151.79 499 176.9 499 178.18 449 153.08 449 151.79"/><polygon class="cls-145" points="449 150.51 499 175.61 499 176.9 449 151.79 449 150.51"/><polygon class="cls-146" points="449 149.22 499 174.32 499 175.61 449 150.51 449 149.22"/><polygon class="cls-147" points="449 147.94 499 173.03 499 174.32 449 149.22 449 147.94"/><polygon class="cls-148" points="449 146.65 499 171.75 499 173.03 449 147.94 449 146.65"/><polygon class="cls-149" points="449 145.36 499 170.46 499 171.75 449 146.65 449 145.36"/><polygon class="cls-150" points="449 144.08 499 169.18 499 170.46 449 145.36 449 144.08"/><polygon class="cls-151" points="449 142.79 499 167.89 499 169.18 449 144.08 449 142.79"/><polygon class="cls-152" points="449 141.5 499 166.6 499 167.89 449 142.79 449 141.5"/><polygon class="cls-153" points="449 140.22 499 165.32 499 166.6 449 141.5 449 140.22"/><polygon class="cls-154" points="449 138.93 499 164.03 499 165.32 449 140.22 449 138.93"/><polygon class="cls-155" points="449 137.64 499 162.74 499 164.03 449 138.93 449 137.64"/><polygon class="cls-156" points="449 136.36 499 161.46 499 162.74 449 137.64 449 136.36"/><polygon class="cls-157" points="449 135.07 499 160.17 499 161.46 449 136.36 449 135.07"/><polygon class="cls-158" points="449 133.78 499 158.88 499 160.17 449 135.07 449 133.78"/><polygon class="cls-159" points="449 132.5 499 157.6 499 158.88 449 133.78 449 132.5"/><polygon class="cls-160" points="449 131.21 499 156.31 499 157.6 449 132.5 449 131.21"/><polygon class="cls-161" points="449 131.01 448.93 130.14 499 155.03 499 156.31 449 131.21 449 131.01"/><polygon class="cls-162" points="448.53 130.29 448.86 130 450.37 130 499 153.74 499 155.03 448.53 130.29"/><polygon class="cls-163" points="452.99 130 499 152.45 499 153.74 450.37 130 452.99 130"/><polygon class="cls-164" points="455.6 130 499 151.16 499 152.45 452.99 130 455.6 130"/><polygon class="cls-165" points="458.21 130 499 149.88 499 151.16 455.6 130 458.21 130"/><polygon class="cls-166" points="460.83 130 499 148.59 499 149.88 458.21 130 460.83 130"/><polygon class="cls-167" points="463.44 130 499 147.31 499 148.59 460.83 130 463.44 130"/><polygon class="cls-168" points="466.06 130 499 146.02 499 147.31 463.44 130 466.06 130"/><polygon class="cls-169" points="468.67 130 499 144.73 499 146.02 466.06 130 468.67 130"/><polygon class="cls-170" points="471.29 130 499 143.45 499 144.73 468.67 130 471.29 130"/><polygon class="cls-171" points="473.9 130 499 142.16 499 143.45 471.29 130 473.9 130"/><polygon class="cls-172" points="476.52 130 499 140.87 499 142.16 473.9 130 476.52 130"/><polygon class="cls-173" points="479.13 130 499 139.59 499 140.87 476.52 130 479.13 130"/><polygon class="cls-174" points="481.75 130 499 138.3 499 139.59 479.13 130 481.75 130"/><polygon class="cls-175" points="484.36 130 499 137.01 499 138.3 481.75 130 484.36 130"/><polygon class="cls-176" points="486.98 130 499 135.73 499 137.01 484.36 130 486.98 130"/><polygon class="cls-177" points="489.59 130 499 134.44 499 135.73 486.98 130 489.59 130"/><polygon class="cls-178" points="492.21 130 499 133.16 499 134.44 489.59 130 492.21 130"/><polygon class="cls-179" points="494.82 130 499 131.87 499 133.16 492.21 130 494.82 130"/><polygon class="cls-180" points="497.44 130 499 130.58 499 131.87 494.82 130 497.44 130"/><polygon class="cls-181" points="499.22 130.58 497.44 129.71 499.22 129.71 499.22 130.58"/></g></g><g class="cls-182"><g class="cls-183"><polygon class="cls-7" points="44.92 332 51 329.18 51 332 44.92 332"/><polygon class="cls-7" points="42.35 332 51 327.91 51 329.18 44.92 332 42.35 332"/><polygon class="cls-8" points="39.77 332 51 326.64 51 327.91 42.35 332 39.77 332"/><polygon class="cls-9" points="37.19 332 51 325.37 51 326.64 39.77 332 37.19 332"/><polygon class="cls-10" points="34.61 332 51 324.1 51 325.37 37.19 332 34.61 332"/><polygon class="cls-11" points="32.03 332 51 322.83 51 324.1 34.61 332 32.03 332"/><polygon class="cls-12" points="29.46 332 51 321.57 51 322.83 32.03 332 29.46 332"/><polygon class="cls-13" points="26.88 332 51 320.3 51 321.57 29.46 332 26.88 332"/><polygon class="cls-14" points="24.3 332 51 319.03 51 320.3 26.88 332 24.3 332"/><polygon class="cls-15" points="21.72 332 51 317.76 51 319.03 24.3 332 21.72 332"/><polygon class="cls-16" points="19.14 332 51 316.49 51 317.76 21.72 332 19.14 332"/><polygon class="cls-17" points="16.57 332 51 315.22 51 316.49 19.14 332 16.57 332"/><polygon class="cls-18" points="13.99 332 51 313.96 51 315.22 16.57 332 13.99 332"/><polygon class="cls-19" points="11.41 332 51 312.69 51 313.96 13.99 332 11.41 332"/><polygon class="cls-20" points="8.83 332 51 311.42 51 312.69 11.41 332 8.83 332"/><polygon class="cls-21" points="6.25 332 51 310.15 51 311.42 8.83 332 6.25 332"/><polygon class="cls-22" points="3.68 332 51 308.88 51 310.15 6.25 332 3.68 332"/><polygon class="cls-23" points="1.1 332 51 307.61 51 308.88 3.68 332 1.1 332"/><polygon class="cls-24" points="1 331.28 51 306.35 51 307.61 1.1 332 1 332 1 331.28"/><polygon class="cls-25" points="1 330.01 51 305.08 51 306.35 1 331.28 1 330.01"/><polygon class="cls-26" points="1 328.75 51 303.81 51 305.08 1 330.01 1 328.75"/><polygon class="cls-27" points="1 327.48 51 302.54 51 303.81 1 328.75 1 327.48"/><polygon class="cls-28" points="1 326.21 51 301.27 51 302.54 1 327.48 1 326.21"/><polygon class="cls-29" points="1 324.94 51 300 51 301.27 1 326.21 1 324.94"/><polygon class="cls-30" points="1 323.67 51 298.74 51 300 1 324.94 1 323.67"/><polygon class="cls-31" points="1 322.4 51 297.47 51 298.74 1 323.67 1 322.4"/><polygon class="cls-32" points="1 321.14 51 296.2 51 297.47 1 322.4 1 321.14"/><polygon class="cls-33" points="1 319.87 51 294.93 51 296.2 1 321.14 1 319.87"/><polygon class="cls-34" points="1 318.6 51 293.66 51 294.93 1 319.87 1 318.6"/><polygon class="cls-35" points="1 317.33 51 292.39 51 293.66 1 318.6 1 317.33"/><polygon class="cls-36" points="1 316.06 51 291.13 51 292.39 1 317.33 1 316.06"/><polygon class="cls-37" points="1 314.79 51 289.86 51 291.13 1 316.06 1 314.79"/><polygon class="cls-38" points="1 313.53 51 288.59 51 289.86 1 314.79 1 313.53"/><polygon class="cls-39" points="1 312.26 51 287.32 51 288.59 1 313.53 1 312.26"/><polygon class="cls-40" points="1 310.99 51 286.05 51 287.32 1 312.26 1 310.99"/><polygon class="cls-41" points="1 309.72 51 284.78 51 286.05 1 310.99 1 309.72"/><polygon class="cls-42" points="1 308.45 51 283.52 51 284.78 1 309.72 1 308.45"/><polygon class="cls-43" points="1 307.18 51 282.25 51 283.52 1 308.45 1 307.18"/><polygon class="cls-44" points="1 305.92 51 280.98 51 282.25 1 307.18 1 305.92"/><polygon class="cls-45" points="1 304.65 51 279.71 51 280.98 1 305.92 1 304.65"/><polygon class="cls-46" points="1 303.38 51 278.44 51 279.71 1 304.65 1 303.38"/><polygon class="cls-47" points="1 302.11 51 277.17 51 278.44 1 303.38 1 302.11"/><polygon class="cls-48" points="1 300.84 51 275.91 51 277.17 1 302.11 1 300.84"/><polygon class="cls-49" points="1 299.57 51 274.64 51 275.91 1 300.84 1 299.57"/><polygon class="cls-50" points="1 298.31 51 273.37 51 274.64 1 299.57 1 298.31"/><polygon class="cls-51" points="1 297.04 51 272.1 51 273.37 1 298.31 1 297.04"/><polygon class="cls-52" points="1 295.77 51 270.83 51 272.1 1 297.04 1 295.77"/><polygon class="cls-53" points="1 294.5 51 269.56 51 270.83 1 295.77 1 294.5"/><polygon class="cls-54" points="1 293.23 51 268.3 51 269.56 1 294.5 1 293.23"/><polygon class="cls-55" points="1 291.96 51 267.03 51 268.3 1 293.23 1 291.96"/><polygon class="cls-56" points="1 290.7 51 265.76 51 267.03 1 291.96 1 290.7"/><polygon class="cls-57" points="1 289.43 51 264.49 51 265.76 1 290.7 1 289.43"/><polygon class="cls-58" points="1 288.16 51 263.22 51 264.49 1 289.43 1 288.16"/><polygon class="cls-59" points="1 286.89 51 261.95 51 263.22 1 288.16 1 286.89"/><polygon class="cls-60" points="1 285.62 51 260.69 51 261.95 1 286.89 1 285.62"/><polygon class="cls-61" points="1 284.35 51 259.42 51 260.69 1 285.62 1 284.35"/><polygon class="cls-62" points="1 283.09 51 258.15 51 259.42 1 284.35 1 283.09"/><polygon class="cls-63" points="1 281.82 51 256.88 51 258.15 1 283.09 1 281.82"/><polygon class="cls-64" points="1 280.55 51 255.61 51 256.88 1 281.82 1 280.55"/><polygon class="cls-65" points="1 279.28 51 254.34 51 255.61 1 280.55 1 279.28"/><polygon class="cls-66" points="1 278.01 51 253.08 51 254.34 1 279.28 1 278.01"/><polygon class="cls-67" points="1 276.74 51 251.81 51 253.08 1 278.01 1 276.74"/><polygon class="cls-68" points="1 275.48 51 250.54 51 251.81 1 276.74 1 275.48"/><polygon class="cls-69" points="1 274.21 51 249.27 51 250.54 1 275.48 1 274.21"/><polygon class="cls-70" points="1 272.94 51 248 51 249.27 1 274.21 1 272.94"/><polygon class="cls-71" points="1 271.67 51 246.73 51 248 1 272.94 1 271.67"/><polygon class="cls-72" points="1 270.4 51 245.47 51 246.73 1 271.67 1 270.4"/><polygon class="cls-73" points="1 269.13 51 244.2 51 245.47 1 270.4 1 269.13"/><polygon class="cls-74" points="1 267.87 51 242.93 51 244.2 1 269.13 1 267.87"/><polygon class="cls-75" points="1 266.6 51 241.66 51 242.93 1 267.87 1 266.6"/><polygon class="cls-76" points="1 265.33 51 240.39 51 241.66 1 266.6 1 265.33"/><polygon class="cls-77" points="1 264.06 51 239.12 51 240.39 1 265.33 1 264.06"/><polygon class="cls-78" points="1 262.79 51 237.85 51 239.12 1 264.06 1 262.79"/><polygon class="cls-79" points="1 261.52 51 236.59 51 237.85 1 262.79 1 261.52"/><polygon class="cls-80" points="1 260.26 51 235.32 51 236.59 1 261.52 1 260.26"/><polygon class="cls-81" points="1 258.99 51 234.05 51 235.32 1 260.26 1 258.99"/><polygon class="cls-82" points="1 257.72 51 232.78 51 234.05 1 258.99 1 257.72"/><polygon class="cls-83" points="1 256.45 51 231.51 51 232.78 1 257.72 1 256.45"/><polygon class="cls-84" points="1 255.18 51 230.25 51 231.51 1 256.45 1 255.18"/><polygon class="cls-85" points="1 253.91 51 228.98 51 230.25 1 255.18 1 253.91"/><polygon class="cls-86" points="1 252.65 51 227.71 51 228.98 1 253.91 1 252.65"/><polygon class="cls-87" points="1 251.38 51 226.44 51 227.71 1 252.65 1 251.38"/><polygon class="cls-88" points="1 250.11 51 225.17 51 226.44 1 251.38 1 250.11"/><polygon class="cls-89" points="1 248.84 51 223.9 51 225.17 1 250.11 1 248.84"/><polygon class="cls-90" points="1 247.57 51 222.63 51 223.9 1 248.84 1 247.57"/><polygon class="cls-91" points="1 246.3 51 221.37 51 222.63 1 247.57 1 246.3"/><polygon class="cls-92" points="1 245.04 51 220.1 51 221.37 1 246.3 1 245.04"/><polygon class="cls-93" points="1 243.77 51 218.83 51 220.1 1 245.04 1 243.77"/><polygon class="cls-94" points="1 242.5 51 217.56 51 218.83 1 243.77 1 242.5"/><polygon class="cls-95" points="1 241.23 51 216.29 51 217.56 1 242.5 1 241.23"/><polygon class="cls-96" points="1 239.96 51 215.03 51 216.29 1 241.23 1 239.96"/><polygon class="cls-97" points="1 238.69 51 213.76 51 215.03 1 239.96 1 238.69"/><polygon class="cls-98" points="1 237.43 51 212.49 51 213.76 1 238.69 1 237.43"/><polygon class="cls-99" points="1 236.16 51 211.22 51 212.49 1 237.43 1 236.16"/><polygon class="cls-100" points="1 234.89 51 209.95 51 211.22 1 236.16 1 234.89"/><polygon class="cls-101" points="1 233.62 51 208.68 51 209.95 1 234.89 1 233.62"/><polygon class="cls-102" points="1 232.35 51 207.41 51 208.68 1 233.62 1 232.35"/><polygon class="cls-103" points="1 231.08 51 206.15 51 207.41 1 232.35 1 231.08"/><polygon class="cls-104" points="1 229.81 51 204.88 51 206.15 1 231.08 1 229.81"/><polygon class="cls-105" points="1 228.55 51 203.61 51 204.88 1 229.81 1 228.55"/><polygon class="cls-106" points="1 227.28 51 202.34 51 203.61 1 228.55 1 227.28"/><polygon class="cls-107" points="1 226.01 51 201.07 51 202.34 1 227.28 1 226.01"/><polygon class="cls-108" points="1 224.74 51 199.81 51 201.07 1 226.01 1 224.74"/><polygon class="cls-109" points="1 223.47 51 198.54 51 199.81 1 224.74 1 223.47"/><polygon class="cls-110" points="1 222.21 51 197.27 51 198.54 1 223.47 1 222.21"/><polygon class="cls-111" points="1 220.94 51 196 51 197.27 1 222.21 1 220.94"/><polygon class="cls-112" points="1 219.67 51 194.73 51 196 1 220.94 1 219.67"/><polygon class="cls-113" points="1 218.4 51 193.46 51 194.73 1 219.67 1 218.4"/><polygon class="cls-114" points="1 217.13 51 192.19 51 193.46 1 218.4 1 217.13"/><polygon class="cls-115" points="1 215.86 51 190.93 51 192.19 1 217.13 1 215.86"/><polygon class="cls-116" points="1 214.59 51 189.66 51 190.93 1 215.86 1 214.59"/><polygon class="cls-117" points="1 213.33 51 188.39 51 189.66 1 214.59 1 213.33"/><polygon class="cls-118" points="1 212.06 51 187.12 51 188.39 1 213.33 1 212.06"/><polygon class="cls-119" points="1 210.79 51 185.85 51 187.12 1 212.06 1 210.79"/><polygon class="cls-120" points="1 209.52 51 184.59 51 185.85 1 210.79 1 209.52"/><polygon class="cls-121" points="1 208.25 51 183.32 51 184.59 1 209.52 1 208.25"/><polygon class="cls-122" points="1 206.99 51 182.05 51 183.32 1 208.25 1 206.99"/><polygon class="cls-123" points="1 205.72 51 180.78 51 182.05 1 206.99 1 205.72"/><polygon class="cls-124" points="1 204.45 51 179.51 51 180.78 1 205.72 1 204.45"/><polygon class="cls-125" points="1 203.18 51 178.24 51 179.51 1 204.45 1 203.18"/><polygon class="cls-126" points="1 201.91 51 176.97 51 178.24 1 203.18 1 201.91"/><polygon class="cls-127" points="1 200.64 51 175.71 51 176.97 1 201.91 1 200.64"/><polygon class="cls-128" points="1 199.38 51 174.44 51 175.71 1 200.64 1 199.38"/><polygon class="cls-129" points="1 198.11 51 173.17 51 174.44 1 199.38 1 198.11"/><polygon class="cls-130" points="1 196.84 51 171.9 51 173.17 1 198.11 1 196.84"/><polygon class="cls-131" points="1 195.57 51 170.63 51 171.9 1 196.84 1 195.57"/><polygon class="cls-132" points="1 194.3 51 169.37 51 170.63 1 195.57 1 194.3"/><polygon class="cls-133" points="1 193.03 51 168.1 51 169.37 1 194.3 1 193.03"/><polygon class="cls-134" points="1 191.76 51 166.83 51 168.1 1 193.03 1 191.76"/><polygon class="cls-135" points="1 190.5 51 165.56 51 166.83 1 191.76 1 190.5"/><polygon class="cls-136" points="1 189.23 51 164.29 51 165.56 1 190.5 1 189.23"/><polygon class="cls-137" points="1 187.96 51 163.02 51 164.29 1 189.23 1 187.96"/><polygon class="cls-138" points="1 186.69 51 161.75 51 163.02 1 187.96 1 186.69"/><polygon class="cls-139" points="1 185.42 51 160.49 51 161.75 1 186.69 1 185.42"/><polygon class="cls-140" points="1 184.16 51 159.22 51 160.49 1 185.42 1 184.16"/><polygon class="cls-141" points="1 182.89 51 157.95 51 159.22 1 184.16 1 182.89"/><polygon class="cls-142" points="1 181.62 51 156.68 51 157.95 1 182.89 1 181.62"/><polygon class="cls-143" points="1 180.35 51 155.41 51 156.68 1 181.62 1 180.35"/><polygon class="cls-144" points="1 179.08 51 154.15 51 155.41 1 180.35 1 179.08"/><polygon class="cls-145" points="1 177.81 51 152.88 51 154.15 1 179.08 1 177.81"/><polygon class="cls-146" points="1 176.54 51 151.61 51 152.88 1 177.81 1 176.54"/><polygon class="cls-147" points="1 175.28 51 150.34 51 151.61 1 176.54 1 175.28"/><polygon class="cls-148" points="1 174.01 51 149.07 51 150.34 1 175.28 1 174.01"/><polygon class="cls-149" points="1 172.74 51 147.8 51 149.07 1 174.01 1 172.74"/><polygon class="cls-150" points="1 171.47 51 146.53 51 147.8 1 172.74 1 171.47"/><polygon class="cls-151" points="1 170.2 51 145.27 51 146.53 1 171.47 1 170.2"/><polygon class="cls-152" points="1 168.94 51 144 51 145.27 1 170.2 1 168.94"/><polygon class="cls-153" points="1 167.67 51 142.73 51 144 1 168.94 1 167.67"/><polygon class="cls-154" points="1 166.4 51 141.46 51 142.73 1 167.67 1 166.4"/><polygon class="cls-155" points="1 165.13 51 140.19 51 141.46 1 166.4 1 165.13"/><polygon class="cls-156" points="1 163.86 51 138.93 51 140.19 1 165.13 1 163.86"/><polygon class="cls-157" points="1 162.59 51 137.66 51 138.93 1 163.86 1 162.59"/><polygon class="cls-158" points="1 161.32 51 136.39 51 137.66 1 162.59 1 161.32"/><polygon class="cls-159" points="1 160.06 51 135.12 51 136.39 1 161.32 1 160.06"/><polygon class="cls-160" points="1 158.79 51 133.85 51 135.12 1 160.06 1 158.79"/><polygon class="cls-161" points="1 157.52 51 132.58 51 133.85 1 158.79 1 157.52"/><polygon class="cls-162" points="1 156.25 51 131.31 51 132.58 1 157.52 1 156.25"/><polygon class="cls-163" points="1 154.98 51.08 130.17 51 130.68 51 131.31 1 156.25 1 154.98"/><polygon class="cls-164" points="1 153.72 49.15 130 50.54 130 51.1 130.32 1 154.98 1 153.72"/><polygon class="cls-165" points="1 152.45 46.57 130 49.15 130 1 153.72 1 152.45"/><polygon class="cls-166" points="1 151.18 43.99 130 46.57 130 1 152.45 1 151.18"/><polygon class="cls-167" points="1 149.91 41.41 130 43.99 130 1 151.18 1 149.91"/><polygon class="cls-168" points="1 148.64 38.83 130 41.41 130 1 149.91 1 148.64"/><polygon class="cls-169" points="1 147.37 36.26 130 38.83 130 1 148.64 1 147.37"/><polygon class="cls-170" points="1 146.1 33.68 130 36.26 130 1 147.37 1 146.1"/><polygon class="cls-171" points="1 144.84 31.1 130 33.68 130 1 146.1 1 144.84"/><polygon class="cls-172" points="1 143.57 28.52 130 31.1 130 1 144.84 1 143.57"/><polygon class="cls-173" points="1 142.3 25.94 130 28.52 130 1 143.57 1 142.3"/><polygon class="cls-174" points="1 141.03 23.37 130 25.94 130 1 142.3 1 141.03"/><polygon class="cls-175" points="1 139.76 20.79 130 23.37 130 1 141.03 1 139.76"/><polygon class="cls-176" points="1 138.5 18.21 130 20.79 130 1 139.76 1 138.5"/><polygon class="cls-177" points="1 137.23 15.63 130 18.21 130 1 138.5 1 137.23"/><polygon class="cls-178" points="1 135.96 13.05 130 15.63 130 1 137.23 1 135.96"/><polygon class="cls-179" points="1 134.69 10.48 130 13.05 130 1 135.96 1 134.69"/><polygon class="cls-180" points="1 133.42 7.9 130 10.48 130 1 134.69 1 133.42"/><polygon class="cls-181" points="1 132.15 5.32 130 7.9 130 1 133.42 1 132.15"/><polygon class="cls-184" points="1 130.88 2.74 130 5.32 130 1 132.15 1 130.88"/><polygon class="cls-185" points="2.74 130 0.86 130.88 0.86 130 2.74 130"/></g></g><g class="cls-5"><g class="cls-186"><polygon class="cls-7" points="157.21 398 147 441.84 147 398 157.21 398"/><polygon class="cls-7" points="158.06 398 147 445.56 147 441.84 157.21 398 158.06 398"/><polygon class="cls-8" points="158.9 398 147 449.28 147 445.56 158.06 398 158.9 398"/><polygon class="cls-9" points="159.74 398 147 453 147 449.28 158.9 398 159.74 398"/><polygon class="cls-10" points="160.59 398 147 456.72 147 453 159.74 398 160.59 398"/><polygon class="cls-11" points="161.43 398 147 460.44 147 456.72 160.59 398 161.43 398"/><polygon class="cls-12" points="162.27 398 147 464.16 147 460.44 161.43 398 162.27 398"/><polygon class="cls-13" points="163.11 398 147 467.88 147 464.16 162.27 398 163.11 398"/><polygon class="cls-14" points="163.96 398 147.5 470 147 470 147 467.88 163.11 398 163.96 398"/><polygon class="cls-15" points="164.8 398 148.35 470 147.5 470 163.96 398 164.8 398"/><polygon class="cls-16" points="165.64 398 149.19 470 148.35 470 164.8 398 165.64 398"/><polygon class="cls-17" points="166.48 398 150.03 470 149.19 470 165.64 398 166.48 398"/><polygon class="cls-18" points="167.33 398 150.87 470 150.03 470 166.48 398 167.33 398"/><polygon class="cls-19" points="168.17 398 151.72 470 150.87 470 167.33 398 168.17 398"/><polygon class="cls-20" points="169.01 398 152.56 470 151.72 470 168.17 398 169.01 398"/><polygon class="cls-21" points="169.85 398 153.4 470 152.56 470 169.01 398 169.85 398"/><polygon class="cls-22" points="170.7 398 154.24 470 153.4 470 169.85 398 170.7 398"/><polygon class="cls-23" points="171.54 398 155.09 470 154.24 470 170.7 398 171.54 398"/><polygon class="cls-24" points="172.38 398 155.93 470 155.09 470 171.54 398 172.38 398"/><polygon class="cls-25" points="173.22 398 156.77 470 155.93 470 172.38 398 173.22 398"/><polygon class="cls-26" points="174.07 398 157.62 470 156.77 470 173.22 398 174.07 398"/><polygon class="cls-27" points="174.91 398 158.46 470 157.62 470 174.07 398 174.91 398"/><polygon class="cls-28" points="175.75 398 159.3 470 158.46 470 174.91 398 175.75 398"/><polygon class="cls-29" points="176.6 398 160.14 470 159.3 470 175.75 398 176.6 398"/><polygon class="cls-30" points="177.44 398 160.99 470 160.14 470 176.6 398 177.44 398"/><polygon class="cls-31" points="178.28 398 161.83 470 160.99 470 177.44 398 178.28 398"/><polygon class="cls-32" points="179.12 398 162.67 470 161.83 470 178.28 398 179.12 398"/><polygon class="cls-33" points="179.97 398 163.51 470 162.67 470 179.12 398 179.97 398"/><polygon class="cls-34" points="180.81 398 164.36 470 163.51 470 179.97 398 180.81 398"/><polygon class="cls-35" points="181.65 398 165.2 470 164.36 470 180.81 398 181.65 398"/><polygon class="cls-36" points="182.49 398 166.04 470 165.2 470 181.65 398 182.49 398"/><polygon class="cls-37" points="183.34 398 166.88 470 166.04 470 182.49 398 183.34 398"/><polygon class="cls-38" points="184.18 398 167.73 470 166.88 470 183.34 398 184.18 398"/><polygon class="cls-39" points="185.02 398 168.57 470 167.73 470 184.18 398 185.02 398"/><polygon class="cls-40" points="185.87 398 169.41 470 168.57 470 185.02 398 185.87 398"/><polygon class="cls-41" points="186.71 398 170.25 470 169.41 470 185.87 398 186.71 398"/><polygon class="cls-42" points="187.55 398 171.1 470 170.25 470 186.71 398 187.55 398"/><polygon class="cls-43" points="188.39 398 171.94 470 171.1 470 187.55 398 188.39 398"/><polygon class="cls-44" points="189.24 398 172.78 470 171.94 470 188.39 398 189.24 398"/><polygon class="cls-45" points="190.08 398 173.63 470 172.78 470 189.24 398 190.08 398"/><polygon class="cls-46" points="190.92 398 174.47 470 173.63 470 190.08 398 190.92 398"/><polygon class="cls-47" points="191.76 398 175.31 470 174.47 470 190.92 398 191.76 398"/><polygon class="cls-48" points="192.61 398 176.15 470 175.31 470 191.76 398 192.61 398"/><polygon class="cls-49" points="193.45 398 177 470 176.15 470 192.61 398 193.45 398"/><polygon class="cls-50" points="194.29 398 177.84 470 177 470 193.45 398 194.29 398"/><polygon class="cls-51" points="195.13 398 178.68 470 177.84 470 194.29 398 195.13 398"/><polygon class="cls-52" points="195.98 398 179.52 470 178.68 470 195.13 398 195.98 398"/><polygon class="cls-53" points="196.82 398 180.37 470 179.52 470 195.98 398 196.82 398"/><polygon class="cls-54" points="197.66 398 181.21 470 180.37 470 196.82 398 197.66 398"/><polygon class="cls-55" points="198.5 398 182.05 470 181.21 470 197.66 398 198.5 398"/><polygon class="cls-56" points="199.35 398 182.9 470 182.05 470 198.5 398 199.35 398"/><polygon class="cls-57" points="200.19 398 183.74 470 182.9 470 199.35 398 200.19 398"/><polygon class="cls-58" points="201.03 398 184.58 470 183.74 470 200.19 398 201.03 398"/><polygon class="cls-59" points="201.88 398 185.42 470 184.58 470 201.03 398 201.88 398"/><polygon class="cls-60" points="202.72 398 186.27 470 185.42 470 201.88 398 202.72 398"/><polygon class="cls-61" points="203.56 398 187.11 470 186.27 470 202.72 398 203.56 398"/><polygon class="cls-62" points="204.4 398 187.95 470 187.11 470 203.56 398 204.4 398"/><polygon class="cls-63" points="205.25 398 188.79 470 187.95 470 204.4 398 205.25 398"/><polygon class="cls-64" points="206.09 398 189.64 470 188.79 470 205.25 398 206.09 398"/><polygon class="cls-65" points="206.93 398 190.48 470 189.64 470 206.09 398 206.93 398"/><polygon class="cls-66" points="207.77 398 191.32 470 190.48 470 206.93 398 207.77 398"/><polygon class="cls-67" points="208.62 398 192.16 470 191.32 470 207.77 398 208.62 398"/><polygon class="cls-68" points="209.46 398 193.01 470 192.16 470 208.62 398 209.46 398"/><polygon class="cls-69" points="210.3 398 193.85 470 193.01 470 209.46 398 210.3 398"/><polygon class="cls-70" points="211.15 398 194.69 470 193.85 470 210.3 398 211.15 398"/><polygon class="cls-71" points="211.99 398 195.53 470 194.69 470 211.15 398 211.99 398"/><polygon class="cls-72" points="212.83 398 196.38 470 195.53 470 211.99 398 212.83 398"/><polygon class="cls-73" points="213.67 398 197.22 470 196.38 470 212.83 398 213.67 398"/><polygon class="cls-74" points="214.52 398 198.06 470 197.22 470 213.67 398 214.52 398"/><polygon class="cls-75" points="215.36 398 198.91 470 198.06 470 214.52 398 215.36 398"/><polygon class="cls-76" points="216.2 398 199.75 470 198.91 470 215.36 398 216.2 398"/><polygon class="cls-77" points="217.04 398 200.59 470 199.75 470 216.2 398 217.04 398"/><polygon class="cls-78" points="217.89 398 201.43 470 200.59 470 217.04 398 217.89 398"/><polygon class="cls-79" points="218.73 398 202.28 470 201.43 470 217.89 398 218.73 398"/><polygon class="cls-80" points="219.57 398 203.12 470 202.28 470 218.73 398 219.57 398"/><polygon class="cls-81" points="220.41 398 203.96 470 203.12 470 219.57 398 220.41 398"/><polygon class="cls-82" points="221.26 398 204.8 470 203.96 470 220.41 398 221.26 398"/><polygon class="cls-83" points="222.1 398 205.65 470 204.8 470 221.26 398 222.1 398"/><polygon class="cls-84" points="222.94 398 206.49 470 205.65 470 222.1 398 222.94 398"/><polygon class="cls-85" points="223.78 398 207.33 470 206.49 470 222.94 398 223.78 398"/><polygon class="cls-86" points="224.63 398 208.18 470 207.33 470 223.78 398 224.63 398"/><polygon class="cls-87" points="225.47 398 209.02 470 208.18 470 224.63 398 225.47 398"/><polygon class="cls-88" points="226.31 398 209.86 470 209.02 470 225.47 398 226.31 398"/><polygon class="cls-89" points="227.16 398 210.7 470 209.86 470 226.31 398 227.16 398"/><polygon class="cls-90" points="228 398 211.55 470 210.7 470 227.16 398 228 398"/><polygon class="cls-91" points="228.84 398 212.39 470 211.55 470 228 398 228.84 398"/><polygon class="cls-92" points="229.68 398 213.23 470 212.39 470 228.84 398 229.68 398"/><polygon class="cls-93" points="230.53 398 214.07 470 213.23 470 229.68 398 230.53 398"/><polygon class="cls-94" points="231.37 398 214.92 470 214.07 470 230.53 398 231.37 398"/><polygon class="cls-95" points="232.21 398 215.76 470 214.92 470 231.37 398 232.21 398"/><polygon class="cls-96" points="233.05 398 216.6 470 215.76 470 232.21 398 233.05 398"/><polygon class="cls-97" points="233.9 398 217.44 470 216.6 470 233.05 398 233.9 398"/><polygon class="cls-98" points="234.74 398 218.29 470 217.44 470 233.9 398 234.74 398"/><polygon class="cls-99" points="235.58 398 219.13 470 218.29 470 234.74 398 235.58 398"/><polygon class="cls-100" points="236.43 398 219.97 470 219.13 470 235.58 398 236.43 398"/><polygon class="cls-101" points="237.27 398 220.81 470 219.97 470 236.43 398 237.27 398"/><polygon class="cls-102" points="238.11 398 221.66 470 220.81 470 237.27 398 238.11 398"/><polygon class="cls-103" points="238.95 398 222.5 470 221.66 470 238.11 398 238.95 398"/><polygon class="cls-104" points="239.8 398 223.34 470 222.5 470 238.95 398 239.8 398"/><polygon class="cls-105" points="240.64 398 224.19 470 223.34 470 239.8 398 240.64 398"/><polygon class="cls-106" points="241.48 398 225.03 470 224.19 470 240.64 398 241.48 398"/><polygon class="cls-107" points="242.32 398 225.87 470 225.03 470 241.48 398 242.32 398"/><polygon class="cls-108" points="243.17 398 226.71 470 225.87 470 242.32 398 243.17 398"/><polygon class="cls-109" points="244.01 398 227.56 470 226.71 470 243.17 398 244.01 398"/><polygon class="cls-110" points="244.85 398 228.4 470 227.56 470 244.01 398 244.85 398"/><polygon class="cls-111" points="245.69 398 229.24 470 228.4 470 244.85 398 245.69 398"/><polygon class="cls-112" points="246.54 398 230.08 470 229.24 470 245.69 398 246.54 398"/><polygon class="cls-113" points="247.38 398 230.93 470 230.08 470 246.54 398 247.38 398"/><polygon class="cls-114" points="248.22 398 231.77 470 230.93 470 247.38 398 248.22 398"/><polygon class="cls-115" points="249.06 398 232.61 470 231.77 470 248.22 398 249.06 398"/><polygon class="cls-116" points="249.91 398 233.46 470 232.61 470 249.06 398 249.91 398"/><polygon class="cls-117" points="250.75 398 234.3 470 233.46 470 249.91 398 250.75 398"/><polygon class="cls-118" points="251.59 398 235.14 470 234.3 470 250.75 398 251.59 398"/><polygon class="cls-119" points="252.44 398 235.98 470 235.14 470 251.59 398 252.44 398"/><polygon class="cls-120" points="253.28 398 236.83 470 235.98 470 252.44 398 253.28 398"/><polygon class="cls-121" points="254.12 398 237.67 470 236.83 470 253.28 398 254.12 398"/><polygon class="cls-122" points="254.96 398 238.51 470 237.67 470 254.12 398 254.96 398"/><polygon class="cls-123" points="255.81 398 239.35 470 238.51 470 254.96 398 255.81 398"/><polygon class="cls-124" points="256.65 398 240.2 470 239.35 470 255.81 398 256.65 398"/><polygon class="cls-125" points="257.49 398 241.04 470 240.2 470 256.65 398 257.49 398"/><polygon class="cls-126" points="258.33 398 241.88 470 241.04 470 257.49 398 258.33 398"/><polygon class="cls-127" points="259.18 398 242.72 470 241.88 470 258.33 398 259.18 398"/><polygon class="cls-128" points="260.02 398 243.57 470 242.72 470 259.18 398 260.02 398"/><polygon class="cls-129" points="260.86 398 244.41 470 243.57 470 260.02 398 260.86 398"/><polygon class="cls-130" points="261.7 398 245.25 470 244.41 470 260.86 398 261.7 398"/><polygon class="cls-131" points="262.55 398 246.09 470 245.25 470 261.7 398 262.55 398"/><polygon class="cls-132" points="263.39 398 246.94 470 246.09 470 262.55 398 263.39 398"/><polygon class="cls-133" points="264.23 398 247.78 470 246.94 470 263.39 398 264.23 398"/><polygon class="cls-134" points="265.08 398 248.62 470 247.78 470 264.23 398 265.08 398"/><polygon class="cls-135" points="265.92 398 249.47 470 248.62 470 265.08 398 265.92 398"/><polygon class="cls-136" points="266.76 398 250.31 470 249.47 470 265.92 398 266.76 398"/><polygon class="cls-137" points="267.6 398 251.15 470 250.31 470 266.76 398 267.6 398"/><polygon class="cls-138" points="268.45 398 251.99 470 251.15 470 267.6 398 268.45 398"/><polygon class="cls-139" points="269.29 398 252.84 470 251.99 470 268.45 398 269.29 398"/><polygon class="cls-140" points="270.13 398 253.68 470 252.84 470 269.29 398 270.13 398"/><polygon class="cls-141" points="270.97 398 254.52 470 253.68 470 270.13 398 270.97 398"/><polygon class="cls-142" points="271.82 398 255.36 470 254.52 470 270.97 398 271.82 398"/><polygon class="cls-143" points="272.66 398 256.21 470 255.36 470 271.82 398 272.66 398"/><polygon class="cls-144" points="273.5 398 257.05 470 256.21 470 272.66 398 273.5 398"/><polygon class="cls-145" points="274.35 398 257.89 470 257.05 470 273.5 398 274.35 398"/><polygon class="cls-146" points="275.19 398 258.74 470 257.89 470 274.35 398 275.19 398"/><polygon class="cls-147" points="276.03 398 259.58 470 258.74 470 275.19 398 276.03 398"/><polygon class="cls-148" points="276.87 398 260.42 470 259.58 470 276.03 398 276.87 398"/><polygon class="cls-149" points="277.72 398 261.26 470 260.42 470 276.87 398 277.72 398"/><polygon class="cls-150" points="278.56 398 262.11 470 261.26 470 277.72 398 278.56 398"/><polygon class="cls-151" points="279.4 398 262.95 470 262.11 470 278.56 398 279.4 398"/><polygon class="cls-152" points="280.24 398 263.79 470 262.95 470 279.4 398 280.24 398"/><polygon class="cls-153" points="281.09 398 264.63 470 263.79 470 280.24 398 281.09 398"/><polygon class="cls-154" points="281.93 398 265.48 470 264.63 470 281.09 398 281.93 398"/><polygon class="cls-155" points="282.77 398 266.32 470 265.48 470 281.93 398 282.77 398"/><polygon class="cls-156" points="283.61 398 267.16 470 266.32 470 282.77 398 283.61 398"/><polygon class="cls-157" points="284.46 398 268 470 267.16 470 283.61 398 284.46 398"/><polygon class="cls-158" points="285.3 398 268.85 470 268 470 284.46 398 285.3 398"/><polygon class="cls-159" points="286.14 398 269.69 470 268.85 470 285.3 398 286.14 398"/><polygon class="cls-160" points="286.99 398 270.53 470 269.69 470 286.14 398 286.99 398"/><polygon class="cls-161" points="287.83 398 271.38 470 270.53 470 286.99 398 287.83 398"/><polygon class="cls-162" points="288.67 398 272.22 470 271.38 470 287.83 398 288.67 398"/><polygon class="cls-163" points="289.51 398 273.06 470 272.22 470 288.67 398 289.51 398"/><polygon class="cls-164" points="290.36 398 273.9 470 273.06 470 289.51 398 290.36 398"/><polygon class="cls-165" points="291.2 398 274.75 470 273.9 470 290.36 398 291.2 398"/><polygon class="cls-166" points="292.04 398 275.59 470 274.75 470 291.2 398 292.04 398"/><polygon class="cls-167" points="292.88 398 276.43 470 275.59 470 292.04 398 292.88 398"/><polygon class="cls-168" points="293.73 398 277.27 470 276.43 470 292.88 398 293.73 398"/><polygon class="cls-169" points="294.57 398 278.12 470 277.27 470 293.73 398 294.57 398"/><polygon class="cls-170" points="295.41 398 278.96 470 278.12 470 294.57 398 295.41 398"/><polygon class="cls-171" points="296.25 398 279.8 470 278.96 470 295.41 398 296.25 398"/><polygon class="cls-172" points="297.1 398 280.64 470 279.8 470 296.25 398 297.1 398"/><polygon class="cls-173" points="297.94 398 281.49 470 280.64 470 297.1 398 297.94 398"/><polygon class="cls-174" points="298.78 398 282.33 470 281.49 470 297.94 398 298.78 398"/><polygon class="cls-175" points="299.63 398 283.17 470 282.33 470 298.78 398 299.63 398"/><polygon class="cls-176" points="300.47 398 284.01 470 283.17 470 299.63 398 300.47 398"/><polygon class="cls-177" points="301.31 398 284.86 470 284.01 470 300.47 398 301.31 398"/><polygon class="cls-178" points="302.15 398 285.7 470 284.86 470 301.31 398 302.15 398"/><polygon class="cls-179" points="303 398 286.54 470 285.7 470 302.15 398 303 398"/><polygon class="cls-180" points="303.84 398 287.39 470 286.54 470 303 398 303.84 398"/><polygon class="cls-181" points="304.68 398 288.23 470 287.39 470 303.84 398 304.68 398"/><polygon class="cls-184" points="305.52 398 289.07 470 288.23 470 304.68 398 305.52 398"/><polygon class="cls-185" points="306.37 398 289.91 470 289.07 470 305.52 398 306.37 398"/><polygon class="cls-187" points="307.21 398 290.76 470 289.91 470 306.37 398 307.21 398"/><polygon class="cls-188" points="308.05 398 291.6 470 290.76 470 307.21 398 308.05 398"/><polygon class="cls-189" points="308.89 398 292.44 470 291.6 470 308.05 398 308.89 398"/><polygon class="cls-190" points="309.74 398 293.28 470 292.44 470 308.89 398 309.74 398"/><polygon class="cls-191" points="310.58 398 294.13 470 293.28 470 309.74 398 310.58 398"/><polygon class="cls-192" points="311.42 398 294.97 470 294.13 470 310.58 398 311.42 398"/><polygon class="cls-193" points="312.26 398 295.81 470 294.97 470 311.42 398 312.26 398"/><polygon class="cls-194" points="313.11 398 296.65 470 295.81 470 312.26 398 313.11 398"/><polygon class="cls-195" points="313.95 398 297.5 470 296.65 470 313.11 398 313.95 398"/><polygon class="cls-196" points="314.79 398 298.34 470 297.5 470 313.95 398 314.79 398"/><polygon class="cls-197" points="315.64 398 299.18 470 298.34 470 314.79 398 315.64 398"/><polygon class="cls-198" points="316.48 398 300.03 470 299.18 470 315.64 398 316.48 398"/><polygon class="cls-199" points="317.32 398 300.87 470 300.03 470 316.48 398 317.32 398"/><polygon class="cls-200" points="318.16 398 301.71 470 300.87 470 317.32 398 318.16 398"/><polygon class="cls-201" points="319.01 398 302.55 470 301.71 470 318.16 398 319.01 398"/><polygon class="cls-202" points="319.85 398 303.4 470 302.55 470 319.01 398 319.85 398"/><polygon class="cls-203" points="320.69 398 304.24 470 303.4 470 319.85 398 320.69 398"/><polygon class="cls-204" points="321.53 398 305.08 470 304.24 470 320.69 398 321.53 398"/><polygon class="cls-205" points="322.38 398 305.92 470 305.08 470 321.53 398 322.38 398"/><polygon class="cls-206" points="323.22 398 306.77 470 305.92 470 322.38 398 323.22 398"/><polygon class="cls-207" points="324.06 398 307.61 470 306.77 470 323.22 398 324.06 398"/><polygon class="cls-208" points="324.9 398 308.45 470 307.61 470 324.06 398 324.9 398"/><polygon class="cls-209" points="325.75 398 309.3 470 308.45 470 324.9 398 325.75 398"/><polygon class="cls-210" points="326.59 398 310.14 470 309.3 470 325.75 398 326.59 398"/><polygon class="cls-211" points="327.43 398 310.98 470 310.14 470 326.59 398 327.43 398"/><polygon class="cls-212" points="328.28 398 311.82 470 310.98 470 327.43 398 328.28 398"/><polygon class="cls-213" points="329.12 398 312.67 470 311.82 470 328.28 398 329.12 398"/><polygon class="cls-214" points="329.96 398 313.51 470 312.67 470 329.12 398 329.96 398"/><polygon class="cls-215" points="330.8 398 314.35 470 313.51 470 329.96 398 330.8 398"/><polygon class="cls-216" points="331.65 398 315.19 470 314.35 470 330.8 398 331.65 398"/><polygon class="cls-217" points="332.49 398 316.04 470 315.19 470 331.65 398 332.49 398"/><polygon class="cls-218" points="333.33 398 316.88 470 316.04 470 332.49 398 333.33 398"/><polygon class="cls-219" points="334.17 398 317.72 470 316.88 470 333.33 398 334.17 398"/><polygon class="cls-220" points="335.02 398 318.56 470 317.72 470 334.17 398 335.02 398"/><polygon class="cls-221" points="335.86 398 319.41 470 318.56 470 335.02 398 335.86 398"/><polygon class="cls-222" points="336.7 398 320.25 470 319.41 470 335.86 398 336.7 398"/><polygon class="cls-223" points="337.55 398 321.09 470 320.25 470 336.7 398 337.55 398"/><polygon class="cls-224" points="338.39 398 321.94 470 321.09 470 337.55 398 338.39 398"/><polygon class="cls-225" points="339.23 398 322.78 470 321.94 470 338.39 398 339.23 398"/><polygon class="cls-226" points="340.07 398 323.62 470 322.78 470 339.23 398 340.07 398"/><polygon class="cls-227" points="340.92 398 324.46 470 323.62 470 340.07 398 340.92 398"/><polygon class="cls-228" points="341.76 398 325.31 470 324.46 470 340.92 398 341.76 398"/><polygon class="cls-229" points="342.6 398 326.15 470 325.31 470 341.76 398 342.6 398"/><polygon class="cls-230" points="342.96 398 343.42 397.78 326.99 470 326.15 470 342.6 398 342.96 398"/><polygon class="cls-231" points="343.42 397.69 344.22 397.75 327.83 470 326.99 470 343.42 397.69"/><polygon class="cls-232" points="344.22 397.86 345.03 397.93 328.68 470 327.83 470 344.22 397.86"/><polygon class="cls-233" points="345.03 398.04 345.83 398.1 329.52 470 328.68 470 345.03 398.04"/><polygon class="cls-233" points="345.99 398.22 354 400.17 354 470 329.52 470 345.99 398.22"/></g></g><g class="cls-5"><g class="cls-234"><polygon class="cls-7" points="356.28 296 335 390.68 335 296 356.28 296"/><polygon class="cls-7" points="356.88 296 335 393.33 335 390.68 356.28 296 356.88 296"/><polygon class="cls-8" points="357.48 296 335 395.98 335 393.33 356.88 296 357.48 296"/><polygon class="cls-9" points="358.08 296 335 398.63 335 395.98 357.48 296 358.08 296"/><polygon class="cls-10" points="358.68 296 335 401.27 335 398.63 358.08 296 358.68 296"/><polygon class="cls-11" points="359.28 296 335 403.92 335 401.27 358.68 296 359.28 296"/><polygon class="cls-12" points="359.88 296 335 406.57 335 403.92 359.28 296 359.88 296"/><polygon class="cls-13" points="360.48 296 335 409.21 335 406.57 359.88 296 360.48 296"/><polygon class="cls-14" points="361.08 296 335 411.86 335 409.21 360.48 296 361.08 296"/><polygon class="cls-15" points="361.68 296 335 414.51 335 411.86 361.08 296 361.68 296"/><polygon class="cls-16" points="362.28 296 335 417.16 335 414.51 361.68 296 362.28 296"/><polygon class="cls-17" points="362.88 296 335 419.8 335 417.16 362.28 296 362.88 296"/><polygon class="cls-18" points="363.48 296 335 422.45 335 419.8 362.88 296 363.48 296"/><polygon class="cls-19" points="364.08 296 335 425.1 335 422.45 363.48 296 364.08 296"/><polygon class="cls-20" points="364.68 296 335 427.75 335 425.1 364.08 296 364.68 296"/><polygon class="cls-21" points="365.28 296 335 430.39 335 427.75 364.68 296 365.28 296"/><polygon class="cls-22" points="365.88 296 335 433.04 335 430.39 365.28 296 365.88 296"/><polygon class="cls-23" points="366.48 296 335 435.69 335 433.04 365.88 296 366.48 296"/><polygon class="cls-24" points="367.08 296 335 438.34 335 435.69 366.48 296 367.08 296"/><polygon class="cls-25" points="367.68 296 335 440.98 335 438.34 367.08 296 367.68 296"/><polygon class="cls-26" points="368.27 296 335 443.63 335 440.98 367.68 296 368.27 296"/><polygon class="cls-27" points="368.87 296 335 446.28 335 443.63 368.27 296 368.87 296"/><polygon class="cls-28" points="369.47 296 335 448.93 335 446.28 368.87 296 369.47 296"/><polygon class="cls-29" points="370.07 296 335 451.57 335 448.93 369.47 296 370.07 296"/><polygon class="cls-30" points="370.67 296 335 454.22 335 451.57 370.07 296 370.67 296"/><polygon class="cls-31" points="371.27 296 335 456.87 335 454.22 370.67 296 371.27 296"/><polygon class="cls-32" points="371.87 296 335 459.51 335 456.87 371.27 296 371.87 296"/><polygon class="cls-33" points="372.47 296 335 462.16 335 459.51 371.87 296 372.47 296"/><polygon class="cls-34" points="373.07 296 335 464.81 335 462.16 372.47 296 373.07 296"/><polygon class="cls-35" points="373.67 296 335 467.46 335 464.81 373.07 296 373.67 296"/><polygon class="cls-36" points="374.27 296 335.28 468.5 335 468.39 335 467.46 373.67 296 374.27 296"/><polygon class="cls-37" points="374.87 296 335.76 468.63 335.19 468.52 374.27 296 374.87 296"/><polygon class="cls-38" points="375.47 296 336.34 468.75 335.76 468.64 374.87 296 375.47 296"/><polygon class="cls-39" points="376.07 296 336.91 468.88 336.34 468.77 375.47 296 376.07 296"/><polygon class="cls-40" points="376.67 296 337.48 469 336.91 468.89 376.07 296 376.67 296"/><polygon class="cls-41" points="377.27 296 338.05 469.13 337.48 469.02 376.67 296 377.27 296"/><polygon class="cls-42" points="377.87 296 338.62 469.26 338.05 469.15 377.27 296 377.87 296"/><polygon class="cls-43" points="378.47 296 339.19 469.38 338.62 469.27 377.87 296 378.47 296"/><polygon class="cls-44" points="379.07 296 339.76 469.51 339.19 469.4 378.47 296 379.07 296"/><polygon class="cls-45" points="379.67 296 340.33 469.63 339.76 469.52 379.07 296 379.67 296"/><polygon class="cls-46" points="380.27 296 340.91 469.76 340.33 469.65 379.67 296 380.27 296"/><polygon class="cls-47" points="380.87 296 341.48 469.88 340.91 469.77 380.27 296 380.87 296"/><polygon class="cls-48" points="381.47 296 342.05 470.01 341.48 469.9 380.87 296 381.47 296"/><polygon class="cls-49" points="382.07 296 342.62 470.13 342.05 470.02 381.47 296 382.07 296"/><polygon class="cls-50" points="382.67 296 343.19 470.26 342.62 470.15 382.07 296 382.67 296"/><polygon class="cls-51" points="383.26 296 343.76 470.38 343.19 470.27 382.67 296 383.26 296"/><polygon class="cls-52" points="383.86 296 344.33 470.51 343.76 470.4 383.26 296 383.86 296"/><polygon class="cls-53" points="384.46 296 344.9 470.63 344.33 470.52 383.86 296 384.46 296"/><polygon class="cls-54" points="385.06 296 345.48 470 345.37 470 344.9 470.28 384.46 296 385.06 296"/><polygon class="cls-55" points="385.66 296 346.08 470 345.48 470 385.06 296 385.66 296"/><polygon class="cls-56" points="386.26 296 346.68 470 346.08 470 385.66 296 386.26 296"/><polygon class="cls-57" points="386.86 296 347.28 470 346.68 470 386.26 296 386.86 296"/><polygon class="cls-58" points="387.46 296 347.88 470 347.28 470 386.86 296 387.46 296"/><polygon class="cls-59" points="388.06 296 348.48 470 347.88 470 387.46 296 388.06 296"/><polygon class="cls-60" points="388.66 296 349.08 470 348.48 470 388.06 296 388.66 296"/><polygon class="cls-61" points="389.26 296 349.68 470 349.08 470 388.66 296 389.26 296"/><polygon class="cls-62" points="389.86 296 350.28 470 349.68 470 389.26 296 389.86 296"/><polygon class="cls-63" points="390.46 296 350.88 470 350.28 470 389.86 296 390.46 296"/><polygon class="cls-64" points="391.06 296 351.48 470 350.88 470 390.46 296 391.06 296"/><polygon class="cls-65" points="391.66 296 352.08 470 351.48 470 391.06 296 391.66 296"/><polygon class="cls-66" points="392.26 296 352.68 470 352.08 470 391.66 296 392.26 296"/><polygon class="cls-67" points="392.86 296 353.28 470 352.68 470 392.26 296 392.86 296"/><polygon class="cls-68" points="393.46 296 353.88 470 353.28 470 392.86 296 393.46 296"/><polygon class="cls-69" points="394.06 296 354.48 470 353.88 470 393.46 296 394.06 296"/><polygon class="cls-70" points="394.66 296 355.07 470 354.48 470 394.06 296 394.66 296"/><polygon class="cls-71" points="395.26 296 355.67 470 355.07 470 394.66 296 395.26 296"/><polygon class="cls-72" points="395.86 296 356.27 470 355.67 470 395.26 296 395.86 296"/><polygon class="cls-73" points="396.46 296 356.87 470 356.27 470 395.86 296 396.46 296"/><polygon class="cls-74" points="397.06 296 357.47 470 356.87 470 396.46 296 397.06 296"/><polygon class="cls-75" points="397.65 296 358.07 470 357.47 470 397.06 296 397.65 296"/><polygon class="cls-76" points="398.25 296 358.67 470 358.07 470 397.65 296 398.25 296"/><polygon class="cls-77" points="398.86 296 359.27 470 358.67 470 398.25 296 398.86 296"/><polygon class="cls-78" points="399.45 296 359.87 470 359.27 470 398.86 296 399.45 296"/><polygon class="cls-79" points="400.05 296 360.47 470 359.87 470 399.45 296 400.05 296"/><polygon class="cls-80" points="400.65 296 361.07 470 360.47 470 400.05 296 400.65 296"/><polygon class="cls-81" points="401.25 296 361.67 470 361.07 470 400.65 296 401.25 296"/><polygon class="cls-82" points="401.85 296 362.27 470 361.67 470 401.25 296 401.85 296"/><polygon class="cls-83" points="402.45 296 362.87 470 362.27 470 401.85 296 402.45 296"/><polygon class="cls-84" points="403.05 296 363.47 470 362.87 470 402.45 296 403.05 296"/><polygon class="cls-85" points="403.65 296 364.07 470 363.47 470 403.05 296 403.65 296"/><polygon class="cls-86" points="404.25 296 364.67 470 364.07 470 403.65 296 404.25 296"/><polygon class="cls-87" points="404.85 296 365.27 470 364.67 470 404.25 296 404.85 296"/><polygon class="cls-88" points="405.45 296 365.87 470 365.27 470 404.85 296 405.45 296"/><polygon class="cls-89" points="406.05 296 366.47 470 365.87 470 405.45 296 406.05 296"/><polygon class="cls-90" points="406.65 296 367.07 470 366.47 470 406.05 296 406.65 296"/><polygon class="cls-91" points="407.25 296 367.67 470 367.07 470 406.65 296 407.25 296"/><polygon class="cls-92" points="407.85 296 368.27 470 367.67 470 407.25 296 407.85 296"/><polygon class="cls-93" points="408.45 296 368.87 470 368.27 470 407.85 296 408.45 296"/><polygon class="cls-94" points="409.05 296 369.46 470 368.87 470 408.45 296 409.05 296"/><polygon class="cls-95" points="409.65 296 370.06 470 369.46 470 409.05 296 409.65 296"/><polygon class="cls-96" points="410.25 296 370.67 470 370.06 470 409.65 296 410.25 296"/><polygon class="cls-97" points="410.85 296 371.26 470 370.67 470 410.25 296 410.85 296"/><polygon class="cls-98" points="411.45 296 371.86 470 371.26 470 410.85 296 411.45 296"/><polygon class="cls-99" points="412.05 296 372.46 470 371.86 470 411.45 296 412.05 296"/><polygon class="cls-100" points="412.64 296 373.06 470 372.46 470 412.05 296 412.64 296"/><polygon class="cls-101" points="413.25 296 373.66 470 373.06 470 412.64 296 413.25 296"/><polygon class="cls-102" points="413.85 296 374.26 470 373.66 470 413.25 296 413.85 296"/><polygon class="cls-103" points="414.44 296 374.86 470 374.26 470 413.85 296 414.44 296"/><polygon class="cls-104" points="415.04 296 375.46 470 374.86 470 414.44 296 415.04 296"/><polygon class="cls-105" points="415.64 296 376.06 470 375.46 470 415.04 296 415.64 296"/><polygon class="cls-106" points="416.24 296 376.66 470 376.06 470 415.64 296 416.24 296"/><polygon class="cls-107" points="416.84 296 377.26 470 376.66 470 416.24 296 416.84 296"/><polygon class="cls-108" points="417.44 296 377.86 470 377.26 470 416.84 296 417.44 296"/><polygon class="cls-109" points="418.04 296 378.46 470 377.86 470 417.44 296 418.04 296"/><polygon class="cls-110" points="418.64 296 379.06 470 378.46 470 418.04 296 418.64 296"/><polygon class="cls-111" points="419.24 296 379.66 470 379.06 470 418.64 296 419.24 296"/><polygon class="cls-112" points="419.84 296 380.26 470 379.66 470 419.24 296 419.84 296"/><polygon class="cls-113" points="420.44 296 380.86 470 380.26 470 419.84 296 420.44 296"/><polygon class="cls-114" points="421.04 296 381.46 470 380.86 470 420.44 296 421.04 296"/><polygon class="cls-115" points="421.64 296 382.06 470 381.46 470 421.04 296 421.64 296"/><polygon class="cls-116" points="422.24 296 382.66 470 382.06 470 421.64 296 422.24 296"/><polygon class="cls-117" points="422.84 296 383.26 470 382.66 470 422.24 296 422.84 296"/><polygon class="cls-118" points="423.44 296 383.86 470 383.26 470 422.84 296 423.44 296"/><polygon class="cls-119" points="424.04 296 384.45 470 383.86 470 423.44 296 424.04 296"/><polygon class="cls-120" points="424.64 296 385.06 470 384.45 470 424.04 296 424.64 296"/><polygon class="cls-121" points="425.24 296 385.65 470 385.06 470 424.64 296 425.24 296"/><polygon class="cls-122" points="425.84 296 386.25 470 385.65 470 425.24 296 425.84 296"/><polygon class="cls-123" points="426.44 296 386.85 470 386.25 470 425.84 296 426.44 296"/><polygon class="cls-124" points="427.04 296 387.45 470 386.85 470 426.44 296 427.04 296"/><polygon class="cls-125" points="427.63 296 388.05 470 387.45 470 427.04 296 427.63 296"/><polygon class="cls-126" points="428.24 296 388.65 470 388.05 470 427.63 296 428.24 296"/><polygon class="cls-127" points="428.83 296 389.25 470 388.65 470 428.24 296 428.83 296"/><polygon class="cls-128" points="429.43 296 389.85 470 389.25 470 428.83 296 429.43 296"/><polygon class="cls-129" points="430.03 296 390.45 470 389.85 470 429.43 296 430.03 296"/><polygon class="cls-130" points="430.63 296 391.05 470 390.45 470 430.03 296 430.63 296"/><polygon class="cls-131" points="431.23 296 391.65 470 391.05 470 430.63 296 431.23 296"/><polygon class="cls-132" points="431.83 296 392.25 470 391.65 470 431.23 296 431.83 296"/><polygon class="cls-133" points="432.43 296 392.85 470 392.25 470 431.83 296 432.43 296"/><polygon class="cls-134" points="433.03 296 393.45 470 392.85 470 432.43 296 433.03 296"/><polygon class="cls-135" points="433.63 296 394.05 470 393.45 470 433.03 296 433.63 296"/><polygon class="cls-136" points="434.23 296 394.65 470 394.05 470 433.63 296 434.23 296"/><polygon class="cls-137" points="434.83 296 395.25 470 394.65 470 434.23 296 434.83 296"/><polygon class="cls-138" points="435.43 296 395.85 470 395.25 470 434.83 296 435.43 296"/><polygon class="cls-139" points="436.03 296 396.45 470 395.85 470 435.43 296 436.03 296"/><polygon class="cls-140" points="436.63 296 397.05 470 396.45 470 436.03 296 436.63 296"/><polygon class="cls-141" points="437.23 296 397.65 470 397.05 470 436.63 296 437.23 296"/><polygon class="cls-142" points="437.83 296 398.25 470 397.65 470 437.23 296 437.83 296"/><polygon class="cls-143" points="438.43 296 398.85 470 398.25 470 437.83 296 438.43 296"/><polygon class="cls-144" points="439.03 296 399.44 470 398.85 470 438.43 296 439.03 296"/><polygon class="cls-145" points="439.63 296 400.05 470 399.44 470 439.03 296 439.63 296"/><polygon class="cls-146" points="440.23 296 400.64 470 400.05 470 439.63 296 440.23 296"/><polygon class="cls-147" points="440.83 296 401.24 470 400.64 470 440.23 296 440.83 296"/><polygon class="cls-148" points="441.43 296 401.84 470 401.24 470 440.83 296 441.43 296"/><polygon class="cls-149" points="442.03 296 402.44 470 401.84 470 441.43 296 442.03 296"/><polygon class="cls-150" points="442.63 296 403.04 470 402.44 470 442.03 296 442.63 296"/><polygon class="cls-151" points="443.23 296 403.64 470 403.04 470 442.63 296 443.23 296"/><polygon class="cls-152" points="443.82 296 404.24 470 403.64 470 443.23 296 443.82 296"/><polygon class="cls-153" points="444.42 296 404.84 470 404.24 470 443.82 296 444.42 296"/><polygon class="cls-154" points="445.02 296 405.44 470 404.84 470 444.42 296 445.02 296"/><polygon class="cls-155" points="445.62 296 406.04 470 405.44 470 445.02 296 445.62 296"/><polygon class="cls-156" points="446.22 296 406.64 470 406.04 470 445.62 296 446.22 296"/><polygon class="cls-157" points="446.82 296 407.24 470 406.64 470 446.22 296 446.82 296"/><polygon class="cls-158" points="447.42 296 407.84 470 407.24 470 446.82 296 447.42 296"/><polygon class="cls-159" points="448.02 296 408.44 470 407.84 470 447.42 296 448.02 296"/><polygon class="cls-160" points="448.62 296 409.04 470 408.44 470 448.02 296 448.62 296"/><polygon class="cls-161" points="449.22 296 409.64 470 409.04 470 448.62 296 449.22 296"/><polygon class="cls-162" points="449.82 296 410.24 470 409.64 470 449.22 296 449.82 296"/><polygon class="cls-163" points="450.42 296 410.84 470 410.24 470 449.82 296 450.42 296"/><polygon class="cls-164" points="451.02 296 411.44 470 410.84 470 450.42 296 451.02 296"/><polygon class="cls-165" points="451.62 296 412.04 470 411.44 470 451.02 296 451.62 296"/><polygon class="cls-166" points="452.22 296 412.64 470 412.04 470 451.62 296 452.22 296"/><polygon class="cls-167" points="452.82 296 413.24 470 412.64 470 452.22 296 452.82 296"/><polygon class="cls-168" points="453.42 296 413.84 470 413.24 470 452.82 296 453.42 296"/><polygon class="cls-169" points="454.02 296 414.44 470 413.84 470 453.42 296 454.02 296"/><polygon class="cls-170" points="454.62 296 415.04 470 414.44 470 454.02 296 454.62 296"/><polygon class="cls-171" points="455.22 296 415.63 470 415.04 470 454.62 296 455.22 296"/><polygon class="cls-172" points="455.82 296 416.23 470 415.63 470 455.22 296 455.82 296"/><polygon class="cls-173" points="456.42 296 416.83 470 416.23 470 455.82 296 456.42 296"/><polygon class="cls-174" points="457.02 296 417.43 470 416.83 470 456.42 296 457.02 296"/><polygon class="cls-175" points="457.62 296 418.03 470 417.43 470 457.02 296 457.62 296"/><polygon class="cls-176" points="458.21 296 418.63 470 418.03 470 457.62 296 458.21 296"/><polygon class="cls-177" points="458.81 296 419.23 470 418.63 470 458.21 296 458.81 296"/><polygon class="cls-178" points="459.41 296 419.83 470 419.23 470 458.81 296 459.41 296"/><polygon class="cls-179" points="460.01 296 420.43 470 419.83 470 459.41 296 460.01 296"/><polygon class="cls-180" points="460.61 296 421.03 470 420.43 470 460.01 296 460.61 296"/><polygon class="cls-181" points="461.21 296 421.63 470 421.03 470 460.61 296 461.21 296"/><polygon class="cls-184" points="461.81 296 422.23 470 421.63 470 461.21 296 461.81 296"/><polygon class="cls-185" points="462.41 296 422.83 470 422.23 470 461.81 296 462.41 296"/><polygon class="cls-187" points="462.51 296 462.99 295.72 423.43 470 422.83 470 462.41 296 462.51 296"/><polygon class="cls-188" points="462.99 295.69 463.56 295.64 424.03 470 423.43 470 462.99 295.69"/><polygon class="cls-189" points="463.56 295.81 464.13 295.76 424.63 470 424.03 470 463.56 295.81"/><polygon class="cls-190" points="464.13 295.94 464.7 295.89 425.23 470 424.63 470 464.13 295.94"/><polygon class="cls-191" points="464.7 296.07 465.27 296.01 425.83 470 425.23 470 464.7 296.07"/><polygon class="cls-192" points="465.27 296.19 465.84 296.14 426.43 470 425.83 470 465.27 296.19"/><polygon class="cls-193" points="465.84 296.32 466.42 296.27 427.03 470 426.43 470 465.84 296.32"/><polygon class="cls-194" points="466.42 296.44 466.99 296.39 427.63 470 427.03 470 466.42 296.44"/><polygon class="cls-195" points="466.99 296.57 467.56 296.52 428.23 470 427.63 470 466.99 296.57"/><polygon class="cls-196" points="467.56 296.69 468.13 296.64 428.83 470 428.23 470 467.56 296.69"/><polygon class="cls-197" points="468.13 296.82 468.7 296.77 429.43 470 428.83 470 468.13 296.82"/><polygon class="cls-198" points="468.7 296.94 469.27 296.89 430.02 470 429.43 470 468.7 296.94"/><polygon class="cls-199" points="469.27 297.07 469.84 297.02 430.63 470 430.02 470 469.27 297.07"/><polygon class="cls-200" points="469.84 297.19 470.41 297.14 431.22 470 430.63 470 469.84 297.19"/><polygon class="cls-201" points="470.41 297.32 470.99 297.27 431.82 470 431.22 470 470.41 297.32"/><polygon class="cls-202" points="470.99 297.44 471.56 297.39 432.42 470 431.82 470 470.99 297.44"/><polygon class="cls-203" points="471.56 297.57 472.13 297.52 433.02 470 432.42 470 471.56 297.57"/><polygon class="cls-204" points="472.13 297.69 472.7 297.64 433.62 470 433.02 470 472.13 297.69"/><polygon class="cls-205" points="472.7 297.82 473.27 297.77 434.22 470 433.62 470 472.7 297.82"/><polygon class="cls-206" points="473.27 297.94 473.84 297.89 434.82 470 434.22 470 473.27 297.94"/><polygon class="cls-207" points="473.84 298.07 474.41 298.02 435.42 470 434.82 470 473.84 298.07"/><polygon class="cls-208" points="474.41 298.19 474.98 298.14 436.02 470 435.42 470 474.41 298.19"/><polygon class="cls-209" points="474.98 298.32 475.56 298.27 436.62 470 436.02 470 474.98 298.32"/><polygon class="cls-210" points="475.56 298.45 476.13 298.39 437.22 470 436.62 470 475.56 298.45"/><polygon class="cls-211" points="476.13 298.57 476.7 298.52 437.82 470 437.22 470 476.13 298.57"/><polygon class="cls-212" points="476.7 298.7 477.27 298.65 438.42 470 437.82 470 476.7 298.7"/><polygon class="cls-213" points="477.27 298.82 477.84 298.77 439.02 470 438.42 470 477.27 298.82"/><polygon class="cls-214" points="477.84 298.95 478.41 298.9 439.62 470 439.02 470 477.84 298.95"/><polygon class="cls-215" points="478.41 299.07 478.98 299.02 440.22 470 439.62 470 478.41 299.07"/><polygon class="cls-216" points="478.98 299.2 479.55 299.15 440.82 470 440.22 470 478.98 299.2"/><polygon class="cls-217" points="479.55 299.32 480.13 299.27 441.42 470 440.82 470 479.55 299.32"/><polygon class="cls-218" points="480.13 299.45 480.7 299.4 442.02 470 441.42 470 480.13 299.45"/><polygon class="cls-219" points="480.7 299.57 481.27 299.52 442.62 470 442.02 470 480.7 299.57"/><polygon class="cls-220" points="481.27 299.7 481.84 299.65 443.22 470 442.62 470 481.27 299.7"/><polygon class="cls-221" points="481.84 299.82 482.41 299.77 443.82 470 443.22 470 481.84 299.82"/><polygon class="cls-222" points="482.41 299.95 482.98 299.9 444.42 470 443.82 470 482.41 299.95"/><polygon class="cls-223" points="482.98 300.07 483.55 300.02 445.01 470 444.42 470 482.98 300.07"/><polygon class="cls-224" points="483.55 300.2 484.12 300.15 445.62 470 445.01 470 483.55 300.2"/><polygon class="cls-225" points="484.12 300.32 484.69 300.27 446.21 470 445.62 470 484.12 300.32"/><polygon class="cls-226" points="484.69 300.45 485.27 300.4 446.81 470 446.21 470 484.69 300.45"/><polygon class="cls-227" points="485.27 300.57 485.84 300.52 447.41 470 446.81 470 485.27 300.57"/><polygon class="cls-228" points="485.84 300.7 486.41 300.65 448.01 470 447.41 470 485.84 300.7"/><polygon class="cls-229" points="486.41 300.83 486.98 300.77 448.61 470 448.01 470 486.41 300.83"/><polygon class="cls-230" points="486.98 300.95 487.55 300.9 449.21 470 448.61 470 486.98 300.95"/><polygon class="cls-231" points="487.55 301.08 488.12 301.03 449.81 470 449.21 470 487.55 301.08"/><polygon class="cls-232" points="488.12 301.2 488.69 301.15 450.41 470 449.81 470 488.12 301.2"/><polygon class="cls-233" points="488.69 301.33 489.26 301.28 451.01 470 450.41 470 488.69 301.33"/><polygon class="cls-233" points="488.94 301.45 499 304.08 499 470 451.01 470 488.94 301.45"/></g></g><polygon class="cls-235" points="454.05 295.94 334.71 413.38 165.92 413.38 46.58 295.94 46.58 129.87 165.92 21.48 334.71 21.48 454.05 129.87 454.05 295.94"/><polygon class="cls-4" points="437.55 288.46 327.87 396.37 172.77 396.37 63.09 288.46 63.09 135.84 172.77 36.24 327.87 36.24 437.55 135.84 437.55 288.46"/><polygon class="cls-3" points="328.02 37 172.91 37 63 136.81 63 155.39 172.91 55 328.02 55 439 155.39 439 136.81 328.02 37"/><path class="cls-236" d="M53.5,410.9a3.49,3.49,0,0,1-3.5-3.56V379.48l37.23-47,15.33-9.26a3.54,3.54,0,1,1,3.62,6.08L92,337.92l-35,44v25.4A3.49,3.49,0,0,1,53.5,410.9Z"/><path class="cls-236" d="M121.09,342.82a3.63,3.63,0,0,1-2.74-1.24,3.52,3.52,0,0,1,.39-5l75.87-64a3.66,3.66,0,0,1,5.1.38,3.52,3.52,0,0,1-.39,5l-75.87,64A3.64,3.64,0,0,1,121.09,342.82Z"/><path class="cls-236" d="M199.57,183.06a3,3,0,0,1-2.24-1L114,102.14V82.81l-8.26-8.57L84,73.69A3.64,3.64,0,0,1,80.43,70a3.55,3.55,0,0,1,3.67-3.46l24.79.63L121,80V99.13L202.25,177a3.52,3.52,0,0,1,0,5A3.82,3.82,0,0,1,199.57,183.06Z"/><path class="cls-237" d="M197,191.15a3.45,3.45,0,0,1-2.47-1L110,107.17V87.94l-8.75-8.64-22.46-.55a3.56,3.56,0,1,1,.15-7.11l25.29.63L117,85v19.19l82.51,80.86a3.52,3.52,0,0,1,0,5A3.6,3.6,0,0,1,197,191.15Z"/><path class="cls-236" d="M292.11,184.07a3.63,3.63,0,0,1-2.59-1.07,3.52,3.52,0,0,1,.15-5L372,99.14V79.91L385.37,67.2l29.45-.62a3.56,3.56,0,1,1,.12,7.11l-26.71.56L379,82.94v19.2l-84.4,80.92A3.56,3.56,0,0,1,292.11,184.07Z"/><path class="cls-237" d="M295,191a3.63,3.63,0,0,1-2.54-1,3.52,3.52,0,0,1,.15-5L374,104.23V84.82l15.08-12.57L420,71.64a3.56,3.56,0,1,1,.08,7.11l-28.42.56L381,88.14v19L297.68,190A3.79,3.79,0,0,1,295,191Z"/><path class="cls-237" d="M55,416.23c-2,0-4-1.59-4-3.56V385.55L88.74,338.6,104.16,329a3.67,3.67,0,0,1,5,1.1,3.52,3.52,0,0,1-1.11,4.91l-14,9L59,388v24.66C59,414.64,57,416.23,55,416.23Z"/><path class="cls-236" d="M446.5,410.9a3.49,3.49,0,0,1-3.5-3.56V381.91l-33.66-44-15-8.57a3.52,3.52,0,0,1-1.29-4.86,3.66,3.66,0,0,1,5-1.3l16.1,9.29,35.89,47v27.82A3.49,3.49,0,0,1,446.5,410.9Z"/><path class="cls-236" d="M381.58,342.82a3.64,3.64,0,0,1-2.26-.78l-82.55-65a3.52,3.52,0,0,1-.56-5,3.65,3.65,0,0,1,5.08-.55l82.55,65a3.52,3.52,0,0,1,.56,5A3.63,3.63,0,0,1,381.58,342.82Z"/><path class="cls-237" d="M443.5,416.23a3.49,3.49,0,0,1-3.5-3.56V388l-33.21-44-15.53-8.93a3.54,3.54,0,0,1-1.33-4.87,3.62,3.62,0,0,1,4.92-1.26l16.78,9.66,35.38,47v27.07A3.49,3.49,0,0,1,443.5,416.23Z"/><path class="cls-237" d="M123.14,348.88a3.63,3.63,0,0,1-2.77-1.26,3.52,3.52,0,0,1,.44-5l79.29-65.72a3.65,3.65,0,0,1,5.09.43,3.52,3.52,0,0,1-.44,5L125.47,348A3.63,3.63,0,0,1,123.14,348.88Z"/><path class="cls-237" d="M379.52,348.88a3.64,3.64,0,0,1-2.23-.76L291,281.39a3.52,3.52,0,0,1-.61-5,3.65,3.65,0,0,1,5.07-.6l86.32,66.73a3.52,3.52,0,0,1,.61,5A3.63,3.63,0,0,1,379.52,348.88Z"/></g></g></svg>