<svg xmlns="http://www.w3.org/2000/svg" xmlns:xlink="http://www.w3.org/1999/xlink" viewBox="0 0 500 500"><defs><style>.cls-1{fill:none;}.cls-2{isolation:isolate;}.cls-3{opacity:0.2;}.cls-4{fill:#54524b;}.cls-5{fill:#8e8b7e;}.cls-6{opacity:0.18;mix-blend-mode:multiply;}.cls-7{clip-path:url(#clip-path);}.cls-8{fill:#fff;}.cls-9{fill:#fefefe;}.cls-10{fill:#fdfdfd;}.cls-11{fill:#fcfcfc;}.cls-12{fill:#fbfbfb;}.cls-13{fill:#fafafa;}.cls-14{fill:#f9f9f9;}.cls-15{fill:#f8f8f8;}.cls-16{fill:#f7f7f7;}.cls-17{fill:#f6f6f6;}.cls-18{fill:#f5f5f5;}.cls-19{fill:#f4f4f4;}.cls-20{fill:#f3f3f3;}.cls-21{fill:#f2f2f2;}.cls-22{fill:#f1f1f1;}.cls-23{fill:#f0f0f0;}.cls-24{fill:#efefef;}.cls-25{fill:#eee;}.cls-26{fill:#ededed;}.cls-27{fill:#ececec;}.cls-28{fill:#ebebeb;}.cls-29{fill:#eaeaea;}.cls-30{fill:#e9e9e9;}.cls-31{fill:#e8e8e8;}.cls-32{fill:#e7e7e7;}.cls-33{fill:#e6e6e6;}.cls-34{fill:#e5e5e5;}.cls-35{fill:#e4e4e4;}.cls-36{fill:#e3e3e3;}.cls-37{fill:#e2e2e2;}.cls-38{fill:#e1e1e1;}.cls-39{fill:#e0e0e0;}.cls-40{fill:#dfdfdf;}.cls-41{fill:#dedede;}.cls-42{fill:#ddd;}.cls-43{fill:#dcdcdc;}.cls-44{fill:#dbdbdb;}.cls-45{fill:#dadada;}.cls-46{fill:#dad9d9;}.cls-47{fill:#d9d8d8;}.cls-48{fill:#d8d7d7;}.cls-49{fill:#d7d6d6;}.cls-50{fill:#d6d5d5;}.cls-51{fill:#d5d4d4;}.cls-52{fill:#d4d3d3;}.cls-53{fill:#d3d2d2;}.cls-54{fill:#d2d1d1;}.cls-55{fill:#d1d0d0;}.cls-56{fill:#d0cfcf;}.cls-57{fill:#cfcece;}.cls-58{fill:#cecdcd;}.cls-59{fill:#cdcccc;}.cls-60{fill:#cccbcb;}.cls-61{fill:#cbcaca;}.cls-62{fill:#cac9c9;}.cls-63{fill:#c9c8c8;}.cls-64{fill:#c8c7c7;}.cls-65{fill:#c7c6c6;}.cls-66{fill:#c6c5c5;}.cls-67{fill:#c5c4c4;}.cls-68{fill:#c4c3c3;}.cls-69{fill:#c3c2c2;}.cls-70{fill:#c2c1c1;}.cls-71{fill:#c1c0c0;}.cls-72{fill:#c0bfbf;}.cls-73{fill:#bfbebe;}.cls-74{fill:#bebdbd;}.cls-75{fill:#bdbcbc;}.cls-76{fill:#bcbbbb;}.cls-77{fill:#bbbaba;}.cls-78{fill:#bab9b9;}.cls-79{fill:#b9b8b8;}.cls-80{fill:#b8b7b7;}.cls-81{fill:#b7b6b6;}.cls-82{fill:#b6b5b5;}.cls-83{fill:#b5b4b4;}.cls-84{fill:#b4b3b3;}.cls-85{fill:#b3b2b2;}.cls-86{fill:#b2b1b1;}.cls-87{fill:#b1b0b0;}.cls-88{fill:#b0afaf;}.cls-89{fill:#afaeae;}.cls-90{fill:#aeadad;}.cls-91{fill:#adacac;}.cls-92{fill:#acabab;}.cls-93{fill:#abaaaa;}.cls-94{fill:#aaa9a9;}.cls-95{fill:#a9a8a8;}.cls-96{fill:#a8a7a7;}.cls-97{fill:#a7a6a6;}.cls-98{fill:#a6a5a5;}.cls-99{fill:#a5a4a4;}.cls-100{fill:#a4a3a3;}.cls-101{fill:#a3a2a2;}.cls-102{fill:#a2a1a1;}.cls-103{fill:#a1a0a0;}.cls-104{fill:#a09f9f;}.cls-105{fill:#9f9e9e;}.cls-106{fill:#9e9d9d;}.cls-107{fill:#9d9c9c;}.cls-108{fill:#9c9b9b;}.cls-109{fill:#9b9a9a;}.cls-110{fill:#9a9999;}.cls-111{fill:#999898;}.cls-112{fill:#989797;}.cls-113{fill:#979696;}.cls-114{fill:#969595;}.cls-115{fill:#959494;}.cls-116{fill:#949393;}.cls-117{fill:#939292;}.cls-118{fill:#929191;}.cls-119{fill:#919090;}.cls-120{fill:#918e8f;}.cls-121{fill:#908d8e;}.cls-122{fill:#8f8c8d;}.cls-123{fill:#8e8b8c;}.cls-124{fill:#8d8a8b;}.cls-125{fill:#8c898a;}.cls-126{fill:#8b8889;}.cls-127{fill:#8a8788;}.cls-128{fill:#898687;}.cls-129{fill:#888586;}.cls-130{fill:#878485;}.cls-131{fill:#868384;}.cls-132{fill:#858283;}.cls-133{fill:#848182;}.cls-134{fill:#838081;}.cls-135{fill:#827f80;}.cls-136{fill:#817e7f;}.cls-137{fill:#807d7e;}.cls-138{fill:#7f7c7d;}.cls-139{fill:#7e7b7c;}.cls-140{fill:#7d7a7b;}.cls-141{fill:#7c797a;}.cls-142{fill:#7b7879;}.cls-143{fill:#7a7778;}.cls-144{fill:#797677;}.cls-145{fill:#787576;}.cls-146{fill:#777475;}.cls-147{fill:#767374;}.cls-148{fill:#757273;}.cls-149{fill:#747172;}.cls-150{fill:#737071;}.cls-151{fill:#726f70;}.cls-152{fill:#716e6f;}.cls-153{fill:#706d6e;}.cls-154{fill:#6f6c6d;}.cls-155{fill:#6e6b6c;}.cls-156{fill:#6d6a6b;}.cls-157{fill:#6c696a;}.cls-158{fill:#6b6869;}.cls-159{fill:#6a6768;}.cls-160{fill:#696667;}.cls-161{fill:#686566;}.cls-162{fill:#676465;}.cls-163{fill:#666364;}.cls-164{fill:#656263;}.cls-165{fill:#646162;}.cls-166{fill:#636061;}.cls-167{fill:#625f60;}.cls-168{fill:#615e5f;}.cls-169{fill:#605d5e;}.cls-170{fill:#5f5c5d;}.cls-171{fill:#5e5b5c;}.cls-172{fill:#5d5a5b;}.cls-173{fill:#5c595a;}.cls-174{fill:#5b5859;}.cls-175{fill:#5a5758;}.cls-176{fill:#595657;}.cls-177{fill:#585556;}.cls-178{fill:#575455;}.cls-179{fill:#565354;}.cls-180{fill:#555253;}.cls-181{fill:#545152;}.cls-182{fill:#535051;}.cls-183{opacity:0.34;mix-blend-mode:overlay;}.cls-184{clip-path:url(#clip-path-2);}.cls-185{fill:#524f50;}.cls-186{fill:#514e4f;}.cls-187{clip-path:url(#clip-path-3);}.cls-188{fill:#504d4e;}.cls-189{fill:#4f4c4d;}.cls-190{fill:#4e4b4c;}.cls-191{fill:#4d4a4b;}.cls-192{fill:#4c494a;}.cls-193{fill:#4b4849;}.cls-194{fill:#4a4748;}.cls-195{fill:#494647;}.cls-196{fill:#484546;}.cls-197{fill:#484445;}.cls-198{fill:#474344;}.cls-199{fill:#464243;}.cls-200{fill:#454142;}.cls-201{fill:#444041;}.cls-202{fill:#433f40;}.cls-203{fill:#423e3f;}.cls-204{fill:#413d3e;}.cls-205{fill:#403c3d;}.cls-206{fill:#3f3b3c;}.cls-207{fill:#3e3a3b;}.cls-208{fill:#3d393a;}.cls-209{fill:#3c3839;}.cls-210{fill:#3b3738;}.cls-211{fill:#3a3637;}.cls-212{fill:#393536;}.cls-213{fill:#383435;}.cls-214{fill:#373334;}.cls-215{fill:#363233;}.cls-216{fill:#353132;}.cls-217{fill:#343031;}.cls-218{fill:#332f30;}.cls-219{fill:#322e2f;}.cls-220{fill:#312d2e;}.cls-221{fill:#302c2d;}.cls-222{fill:#2f2b2c;}.cls-223{fill:#2e2a2b;}.cls-224{fill:#2d292a;}.cls-225{fill:#2c2829;}.cls-226{fill:#2b2728;}.cls-227{fill:#2a2627;}.cls-228{fill:#292526;}.cls-229{fill:#282425;}.cls-230{fill:#272324;}.cls-231{fill:#262223;}.cls-232{fill:#252122;}.cls-233{fill:#242021;}.cls-234{fill:#231f20;}.cls-235{clip-path:url(#clip-path-4);}.cls-236{fill:#aaa79d;}.cls-237{fill:#666;}.cls-238{fill:#61abbc;}</style><clipPath id="clip-path"><path class="cls-1" d="M499,321.18c0-1-50.91-38.88-48.52-39.43s.24-163,.24-163L499,123.76Z"/></clipPath><clipPath id="clip-path-2"><path class="cls-1" d="M.35,321.18c0-1,50.69-38.88,48.3-39.43s-.13-163-.13-163L1.37,126Z"/></clipPath><clipPath id="clip-path-3"><polygon class="cls-1" points="147.24 459 169.56 390.77 334.65 386.47 353.68 459 147.24 459"/></clipPath><clipPath id="clip-path-4"><path class="cls-1" d="M499.65,320.85c-.93-1.69-45.45-35.91-45.45-35.91L334.82,400l18.86,59.66Z"/></clipPath></defs><title>elevator-below</title><g class="cls-2"><g id="Layer_1" data-name="Layer 1"><g class="cls-3"><polygon points="499.5 360 353.53 499.18 147.1 499.18 1.13 360 1.13 163.17 147.1 40.63 353.53 40.63 499.5 163.17 499.5 360"/></g><polygon class="cls-4" points="499.5 348 353.53 487.18 147.1 487.18 1.13 348 1.13 151.17 147.1 28.63 353.53 28.63 499.5 151.17 499.5 348"/><polygon class="cls-5" points="499.5 320.85 353.53 460.03 147.1 460.03 1.13 320.85 1.13 124.02 147.1 1.49 353.53 1.49 499.5 124.02 499.5 320.85"/><g class="cls-6"><g class="cls-7"><polygon class="cls-8" points="449 318.33 454 321 449 321 449 318.33"/><polygon class="cls-8" points="449 317.04 456.62 321 454 321 449 318.33 449 317.04"/><polygon class="cls-9" points="449 315.75 459.23 321 456.62 321 449 317.04 449 315.75"/><polygon class="cls-10" points="449 314.47 461.85 321 459.23 321 449 315.75 449 314.47"/><polygon class="cls-11" points="449 313.18 464.46 321 461.85 321 449 314.47 449 313.18"/><polygon class="cls-12" points="449 311.89 467.08 321 464.46 321 449 313.18 449 311.89"/><polygon class="cls-13" points="449 310.61 469.69 321 467.08 321 449 311.89 449 310.61"/><polygon class="cls-14" points="449 309.32 472.31 321 469.69 321 449 310.61 449 309.32"/><polygon class="cls-15" points="449 308.04 474.92 321 472.31 321 449 309.32 449 308.04"/><polygon class="cls-16" points="449 306.75 477.54 321 474.92 321 449 308.04 449 306.75"/><polygon class="cls-17" points="449 305.46 480.15 321 477.54 321 449 306.75 449 305.46"/><polygon class="cls-18" points="449 304.18 482.77 321 480.15 321 449 305.46 449 304.18"/><polygon class="cls-19" points="449 302.89 485.38 321 482.77 321 449 304.18 449 302.89"/><polygon class="cls-20" points="449 301.6 488 321 485.38 321 449 302.89 449 301.6"/><polygon class="cls-21" points="449 300.32 490.61 321 488 321 449 301.6 449 300.32"/><polygon class="cls-22" points="449 299.03 493.23 321 490.61 321 449 300.32 449 299.03"/><polygon class="cls-23" points="449 297.74 495.84 321 493.23 321 449 299.03 449 297.74"/><polygon class="cls-24" points="449 296.46 498.45 321 495.84 321 449 297.74 449 296.46"/><polygon class="cls-25" points="449 295.17 499 320.27 499 321 498.45 321 449 296.46 449 295.17"/><polygon class="cls-26" points="449 293.88 499 318.98 499 320.27 449 295.17 449 293.88"/><polygon class="cls-27" points="449 292.6 499 317.7 499 318.98 449 293.88 449 292.6"/><polygon class="cls-28" points="449 291.31 499 316.41 499 317.7 449 292.6 449 291.31"/><polygon class="cls-29" points="449 290.02 499 315.12 499 316.41 449 291.31 449 290.02"/><polygon class="cls-30" points="449 288.74 499 313.84 499 315.12 449 290.02 449 288.74"/><polygon class="cls-31" points="449 287.45 499 312.55 499 313.84 449 288.74 449 287.45"/><polygon class="cls-32" points="449 286.17 499 311.26 499 312.55 449 287.45 449 286.17"/><polygon class="cls-33" points="449 284.88 499 309.98 499 311.26 449 286.17 449 284.88"/><polygon class="cls-34" points="449 283.59 499 308.69 499 309.98 449 284.88 449 283.59"/><polygon class="cls-35" points="449 282.31 499 307.4 499 308.69 449 283.59 449 282.31"/><polygon class="cls-36" points="449 281.02 499 306.12 499 307.4 449 282.31 449 281.02"/><polygon class="cls-37" points="449 279.73 499 304.83 499 306.12 449 281.02 449 279.73"/><polygon class="cls-38" points="449 278.45 499 303.55 499 304.83 449 279.73 449 278.45"/><polygon class="cls-39" points="449 277.16 499 302.26 499 303.55 449 278.45 449 277.16"/><polygon class="cls-40" points="449 275.87 499 300.97 499 302.26 449 277.16 449 275.87"/><polygon class="cls-41" points="449 274.59 499 299.69 499 300.97 449 275.87 449 274.59"/><polygon class="cls-42" points="449 273.3 499 298.4 499 299.69 449 274.59 449 273.3"/><polygon class="cls-43" points="449 272.01 499 297.11 499 298.4 449 273.3 449 272.01"/><polygon class="cls-44" points="449 270.73 499 295.83 499 297.11 449 272.01 449 270.73"/><polygon class="cls-45" points="449 269.44 499 294.54 499 295.83 449 270.73 449 269.44"/><polygon class="cls-46" points="449 268.15 499 293.25 499 294.54 449 269.44 449 268.15"/><polygon class="cls-47" points="449 266.87 499 291.97 499 293.25 449 268.15 449 266.87"/><polygon class="cls-48" points="449 265.58 499 290.68 499 291.97 449 266.87 449 265.58"/><polygon class="cls-49" points="449 264.3 499 289.39 499 290.68 449 265.58 449 264.3"/><polygon class="cls-50" points="449 263.01 499 288.11 499 289.39 449 264.3 449 263.01"/><polygon class="cls-51" points="449 261.72 499 286.82 499 288.11 449 263.01 449 261.72"/><polygon class="cls-52" points="449 260.44 499 285.54 499 286.82 449 261.72 449 260.44"/><polygon class="cls-53" points="449 259.15 499 284.25 499 285.54 449 260.44 449 259.15"/><polygon class="cls-54" points="449 257.86 499 282.96 499 284.25 449 259.15 449 257.86"/><polygon class="cls-55" points="449 256.58 499 281.68 499 282.96 449 257.86 449 256.58"/><polygon class="cls-56" points="449 255.29 499 280.39 499 281.68 449 256.58 449 255.29"/><polygon class="cls-57" points="449 254 499 279.1 499 280.39 449 255.29 449 254"/><polygon class="cls-58" points="449 252.72 499 277.82 499 279.1 449 254 449 252.72"/><polygon class="cls-59" points="449 251.43 499 276.53 499 277.82 449 252.72 449 251.43"/><polygon class="cls-60" points="449 250.14 499 275.24 499 276.53 449 251.43 449 250.14"/><polygon class="cls-61" points="449 248.86 499 273.96 499 275.24 449 250.14 449 248.86"/><polygon class="cls-62" points="449 247.57 499 272.67 499 273.96 449 248.86 449 247.57"/><polygon class="cls-63" points="449 246.28 499 271.38 499 272.67 449 247.57 449 246.28"/><polygon class="cls-64" points="449 245 499 270.1 499 271.38 449 246.28 449 245"/><polygon class="cls-65" points="449 243.71 499 268.81 499 270.1 449 245 449 243.71"/><polygon class="cls-66" points="449 242.43 499 267.52 499 268.81 449 243.71 449 242.43"/><polygon class="cls-67" points="449 241.14 499 266.24 499 267.52 449 242.43 449 241.14"/><polygon class="cls-68" points="449 239.85 499 264.95 499 266.24 449 241.14 449 239.85"/><polygon class="cls-69" points="449 238.57 499 263.67 499 264.95 449 239.85 449 238.57"/><polygon class="cls-70" points="449 237.28 499 262.38 499 263.67 449 238.57 449 237.28"/><polygon class="cls-71" points="449 235.99 499 261.09 499 262.38 449 237.28 449 235.99"/><polygon class="cls-72" points="449 234.71 499 259.81 499 261.09 449 235.99 449 234.71"/><polygon class="cls-73" points="449 233.42 499 258.52 499 259.81 449 234.71 449 233.42"/><polygon class="cls-74" points="449 232.13 499 257.23 499 258.52 449 233.42 449 232.13"/><polygon class="cls-75" points="449 230.85 499 255.95 499 257.23 449 232.13 449 230.85"/><polygon class="cls-76" points="449 229.56 499 254.66 499 255.95 449 230.85 449 229.56"/><polygon class="cls-77" points="449 228.27 499 253.37 499 254.66 449 229.56 449 228.27"/><polygon class="cls-78" points="449 226.99 499 252.09 499 253.37 449 228.27 449 226.99"/><polygon class="cls-79" points="449 225.7 499 250.8 499 252.09 449 226.99 449 225.7"/><polygon class="cls-80" points="449 224.41 499 249.51 499 250.8 449 225.7 449 224.41"/><polygon class="cls-81" points="449 223.13 499 248.23 499 249.51 449 224.41 449 223.13"/><polygon class="cls-82" points="449 221.84 499 246.94 499 248.23 449 223.13 449 221.84"/><polygon class="cls-83" points="449 220.56 499 245.66 499 246.94 449 221.84 449 220.56"/><polygon class="cls-84" points="449 219.27 499 244.37 499 245.66 449 220.56 449 219.27"/><polygon class="cls-85" points="449 217.98 499 243.08 499 244.37 449 219.27 449 217.98"/><polygon class="cls-86" points="449 216.7 499 241.8 499 243.08 449 217.98 449 216.7"/><polygon class="cls-87" points="449 215.41 499 240.51 499 241.8 449 216.7 449 215.41"/><polygon class="cls-88" points="449 214.12 499 239.22 499 240.51 449 215.41 449 214.12"/><polygon class="cls-89" points="449 212.84 499 237.94 499 239.22 449 214.12 449 212.84"/><polygon class="cls-90" points="449 211.55 499 236.65 499 237.94 449 212.84 449 211.55"/><polygon class="cls-91" points="449 210.26 499 235.36 499 236.65 449 211.55 449 210.26"/><polygon class="cls-92" points="449 208.98 499 234.08 499 235.36 449 210.26 449 208.98"/><polygon class="cls-93" points="449 207.69 499 232.79 499 234.08 449 208.98 449 207.69"/><polygon class="cls-94" points="449 206.4 499 231.5 499 232.79 449 207.69 449 206.4"/><polygon class="cls-95" points="449 205.12 499 230.22 499 231.5 449 206.4 449 205.12"/><polygon class="cls-96" points="449 203.83 499 228.93 499 230.22 449 205.12 449 203.83"/><polygon class="cls-97" points="449 202.54 499 227.65 499 228.93 449 203.83 449 202.54"/><polygon class="cls-98" points="449 201.26 499 226.36 499 227.65 449 202.54 449 201.26"/><polygon class="cls-99" points="449 199.97 499 225.07 499 226.36 449 201.26 449 199.97"/><polygon class="cls-100" points="449 198.69 499 223.78 499 225.07 449 199.97 449 198.69"/><polygon class="cls-101" points="449 197.4 499 222.5 499 223.78 449 198.69 449 197.4"/><polygon class="cls-102" points="449 196.11 499 221.21 499 222.5 449 197.4 449 196.11"/><polygon class="cls-103" points="449 194.83 499 219.93 499 221.21 449 196.11 449 194.83"/><polygon class="cls-104" points="449 193.54 499 218.64 499 219.93 449 194.83 449 193.54"/><polygon class="cls-105" points="449 192.25 499 217.35 499 218.64 449 193.54 449 192.25"/><polygon class="cls-106" points="449 190.97 499 216.07 499 217.35 449 192.25 449 190.97"/><polygon class="cls-107" points="449 189.68 499 214.78 499 216.07 449 190.97 449 189.68"/><polygon class="cls-108" points="449 188.39 499 213.49 499 214.78 449 189.68 449 188.39"/><polygon class="cls-109" points="449 187.11 499 212.21 499 213.49 449 188.39 449 187.11"/><polygon class="cls-110" points="449 185.82 499 210.92 499 212.21 449 187.11 449 185.82"/><polygon class="cls-111" points="449 184.53 499 209.63 499 210.92 449 185.82 449 184.53"/><polygon class="cls-112" points="449 183.25 499 208.35 499 209.63 449 184.53 449 183.25"/><polygon class="cls-113" points="449 181.96 499 207.06 499 208.35 449 183.25 449 181.96"/><polygon class="cls-114" points="449 180.68 499 205.78 499 207.06 449 181.96 449 180.68"/><polygon class="cls-115" points="449 179.39 499 204.49 499 205.78 449 180.68 449 179.39"/><polygon class="cls-116" points="449 178.1 499 203.2 499 204.49 449 179.39 449 178.1"/><polygon class="cls-117" points="449 176.81 499 201.91 499 203.2 449 178.1 449 176.81"/><polygon class="cls-118" points="449 175.53 499 200.63 499 201.91 449 176.81 449 175.53"/><polygon class="cls-119" points="449 174.24 499 199.34 499 200.63 449 175.53 449 174.24"/><polygon class="cls-120" points="449 172.96 499 198.06 499 199.34 449 174.24 449 172.96"/><polygon class="cls-121" points="449 171.67 499 196.77 499 198.06 449 172.96 449 171.67"/><polygon class="cls-122" points="449 170.38 499 195.48 499 196.77 449 171.67 449 170.38"/><polygon class="cls-123" points="449 169.1 499 194.2 499 195.48 449 170.38 449 169.1"/><polygon class="cls-124" points="449 167.81 499 192.91 499 194.2 449 169.1 449 167.81"/><polygon class="cls-125" points="449 166.52 499 191.62 499 192.91 449 167.81 449 166.52"/><polygon class="cls-126" points="449 165.24 499 190.34 499 191.62 449 166.52 449 165.24"/><polygon class="cls-127" points="449 163.95 499 189.05 499 190.34 449 165.24 449 163.95"/><polygon class="cls-128" points="449 162.66 499 187.76 499 189.05 449 163.95 449 162.66"/><polygon class="cls-129" points="449 161.38 499 186.48 499 187.76 449 162.66 449 161.38"/><polygon class="cls-130" points="449 160.09 499 185.19 499 186.48 449 161.38 449 160.09"/><polygon class="cls-131" points="449 158.81 499 183.91 499 185.19 449 160.09 449 158.81"/><polygon class="cls-132" points="449 157.52 499 182.62 499 183.91 449 158.81 449 157.52"/><polygon class="cls-133" points="449 156.23 499 181.33 499 182.62 449 157.52 449 156.23"/><polygon class="cls-134" points="449 154.95 499 180.05 499 181.33 449 156.23 449 154.95"/><polygon class="cls-135" points="449 153.66 499 178.76 499 180.05 449 154.95 449 153.66"/><polygon class="cls-136" points="449 152.37 499 177.47 499 178.76 449 153.66 449 152.37"/><polygon class="cls-137" points="449 151.09 499 176.19 499 177.47 449 152.37 449 151.09"/><polygon class="cls-138" points="449 149.8 499 174.9 499 176.19 449 151.09 449 149.8"/><polygon class="cls-139" points="449 148.51 499 173.61 499 174.9 449 149.8 449 148.51"/><polygon class="cls-140" points="449 147.23 499 172.33 499 173.61 449 148.51 449 147.23"/><polygon class="cls-141" points="449 145.94 499 171.04 499 172.33 449 147.23 449 145.94"/><polygon class="cls-142" points="449 144.65 499 169.75 499 171.04 449 145.94 449 144.65"/><polygon class="cls-143" points="449 143.37 499 168.47 499 169.75 449 144.65 449 143.37"/><polygon class="cls-144" points="449 142.08 499 167.18 499 168.47 449 143.37 449 142.08"/><polygon class="cls-145" points="449 140.79 499 165.9 499 167.18 449 142.08 449 140.79"/><polygon class="cls-146" points="449 139.51 499 164.61 499 165.9 449 140.79 449 139.51"/><polygon class="cls-147" points="449 138.22 499 163.32 499 164.61 449 139.51 449 138.22"/><polygon class="cls-148" points="449 136.94 499 162.03 499 163.32 449 138.22 449 136.94"/><polygon class="cls-149" points="449 135.65 499 160.75 499 162.03 449 136.94 449 135.65"/><polygon class="cls-150" points="449 134.36 499 159.46 499 160.75 449 135.65 449 134.36"/><polygon class="cls-151" points="449 133.08 499 158.18 499 159.46 449 134.36 449 133.08"/><polygon class="cls-152" points="449 131.79 499 156.89 499 158.18 449 133.08 449 131.79"/><polygon class="cls-153" points="449 130.5 499 155.6 499 156.89 449 131.79 449 130.5"/><polygon class="cls-154" points="449 129.22 499 154.32 499 155.6 449 130.5 449 129.22"/><polygon class="cls-155" points="449 127.93 499 153.03 499 154.32 449 129.22 449 127.93"/><polygon class="cls-156" points="449 126.64 499 151.74 499 153.03 449 127.93 449 126.64"/><polygon class="cls-157" points="449 125.36 499 150.46 499 151.74 449 126.64 449 125.36"/><polygon class="cls-158" points="449 124.07 499 149.17 499 150.46 449 125.36 449 124.07"/><polygon class="cls-159" points="449 122.78 499 147.88 499 149.17 449 124.07 449 122.78"/><polygon class="cls-160" points="449 121.5 499 146.6 499 147.88 449 122.78 449 121.5"/><polygon class="cls-161" points="449 120.21 499 145.31 499 146.6 449 121.5 449 120.21"/><polygon class="cls-162" points="449 120.01 448.93 119.14 499 144.03 499 145.31 449 120.21 449 120.01"/><polygon class="cls-163" points="448.53 119.29 448.86 119 450.37 119 499 142.74 499 144.03 448.53 119.29"/><polygon class="cls-164" points="452.99 119 499 141.45 499 142.74 450.37 119 452.99 119"/><polygon class="cls-165" points="455.6 119 499 140.16 499 141.45 452.99 119 455.6 119"/><polygon class="cls-166" points="458.21 119 499 138.88 499 140.16 455.6 119 458.21 119"/><polygon class="cls-167" points="460.83 119 499 137.59 499 138.88 458.21 119 460.83 119"/><polygon class="cls-168" points="463.44 119 499 136.31 499 137.59 460.83 119 463.44 119"/><polygon class="cls-169" points="466.06 119 499 135.02 499 136.31 463.44 119 466.06 119"/><polygon class="cls-170" points="468.67 119 499 133.73 499 135.02 466.06 119 468.67 119"/><polygon class="cls-171" points="471.29 119 499 132.45 499 133.73 468.67 119 471.29 119"/><polygon class="cls-172" points="473.9 119 499 131.16 499 132.45 471.29 119 473.9 119"/><polygon class="cls-173" points="476.52 119 499 129.87 499 131.16 473.9 119 476.52 119"/><polygon class="cls-174" points="479.13 119 499 128.59 499 129.87 476.52 119 479.13 119"/><polygon class="cls-175" points="481.75 119 499 127.3 499 128.59 479.13 119 481.75 119"/><polygon class="cls-176" points="484.36 119 499 126.01 499 127.3 481.75 119 484.36 119"/><polygon class="cls-177" points="486.98 119 499 124.73 499 126.01 484.36 119 486.98 119"/><polygon class="cls-178" points="489.59 119 499 123.44 499 124.73 486.98 119 489.59 119"/><polygon class="cls-179" points="492.21 119 499 122.16 499 123.44 489.59 119 492.21 119"/><polygon class="cls-180" points="494.82 119 499 120.87 499 122.16 492.21 119 494.82 119"/><polygon class="cls-181" points="497.44 119 499 119.58 499 120.87 494.82 119 497.44 119"/><polygon class="cls-182" points="499.22 119.58 497.44 118.71 499.22 118.71 499.22 119.58"/></g></g><g class="cls-183"><g class="cls-184"><polygon class="cls-8" points="44.92 321 51 318.18 51 321 44.92 321"/><polygon class="cls-8" points="42.35 321 51 316.91 51 318.18 44.92 321 42.35 321"/><polygon class="cls-9" points="39.77 321 51 315.64 51 316.91 42.35 321 39.77 321"/><polygon class="cls-10" points="37.19 321 51 314.37 51 315.64 39.77 321 37.19 321"/><polygon class="cls-11" points="34.61 321 51 313.1 51 314.37 37.19 321 34.61 321"/><polygon class="cls-12" points="32.03 321 51 311.83 51 313.1 34.61 321 32.03 321"/><polygon class="cls-13" points="29.46 321 51 310.57 51 311.83 32.03 321 29.46 321"/><polygon class="cls-14" points="26.88 321 51 309.3 51 310.57 29.46 321 26.88 321"/><polygon class="cls-15" points="24.3 321 51 308.03 51 309.3 26.88 321 24.3 321"/><polygon class="cls-16" points="21.72 321 51 306.76 51 308.03 24.3 321 21.72 321"/><polygon class="cls-17" points="19.14 321 51 305.49 51 306.76 21.72 321 19.14 321"/><polygon class="cls-18" points="16.57 321 51 304.22 51 305.49 19.14 321 16.57 321"/><polygon class="cls-19" points="13.99 321 51 302.96 51 304.22 16.57 321 13.99 321"/><polygon class="cls-20" points="11.41 321 51 301.69 51 302.96 13.99 321 11.41 321"/><polygon class="cls-21" points="8.83 321 51 300.42 51 301.69 11.41 321 8.83 321"/><polygon class="cls-22" points="6.25 321 51 299.15 51 300.42 8.83 321 6.25 321"/><polygon class="cls-23" points="3.68 321 51 297.88 51 299.15 6.25 321 3.68 321"/><polygon class="cls-24" points="1.1 321 51 296.61 51 297.88 3.68 321 1.1 321"/><polygon class="cls-25" points="1 320.28 51 295.35 51 296.61 1.1 321 1 321 1 320.28"/><polygon class="cls-26" points="1 319.01 51 294.08 51 295.35 1 320.28 1 319.01"/><polygon class="cls-27" points="1 317.75 51 292.81 51 294.08 1 319.01 1 317.75"/><polygon class="cls-28" points="1 316.48 51 291.54 51 292.81 1 317.75 1 316.48"/><polygon class="cls-29" points="1 315.21 51 290.27 51 291.54 1 316.48 1 315.21"/><polygon class="cls-30" points="1 313.94 51 289 51 290.27 1 315.21 1 313.94"/><polygon class="cls-31" points="1 312.67 51 287.74 51 289 1 313.94 1 312.67"/><polygon class="cls-32" points="1 311.4 51 286.47 51 287.74 1 312.67 1 311.4"/><polygon class="cls-33" points="1 310.14 51 285.2 51 286.47 1 311.4 1 310.14"/><polygon class="cls-34" points="1 308.87 51 283.93 51 285.2 1 310.14 1 308.87"/><polygon class="cls-35" points="1 307.6 51 282.66 51 283.93 1 308.87 1 307.6"/><polygon class="cls-36" points="1 306.33 51 281.39 51 282.66 1 307.6 1 306.33"/><polygon class="cls-37" points="1 305.06 51 280.13 51 281.39 1 306.33 1 305.06"/><polygon class="cls-38" points="1 303.79 51 278.86 51 280.13 1 305.06 1 303.79"/><polygon class="cls-39" points="1 302.53 51 277.59 51 278.86 1 303.79 1 302.53"/><polygon class="cls-40" points="1 301.26 51 276.32 51 277.59 1 302.53 1 301.26"/><polygon class="cls-41" points="1 299.99 51 275.05 51 276.32 1 301.26 1 299.99"/><polygon class="cls-42" points="1 298.72 51 273.78 51 275.05 1 299.99 1 298.72"/><polygon class="cls-43" points="1 297.45 51 272.52 51 273.78 1 298.72 1 297.45"/><polygon class="cls-44" points="1 296.18 51 271.25 51 272.52 1 297.45 1 296.18"/><polygon class="cls-45" points="1 294.92 51 269.98 51 271.25 1 296.18 1 294.92"/><polygon class="cls-46" points="1 293.65 51 268.71 51 269.98 1 294.92 1 293.65"/><polygon class="cls-47" points="1 292.38 51 267.44 51 268.71 1 293.65 1 292.38"/><polygon class="cls-48" points="1 291.11 51 266.17 51 267.44 1 292.38 1 291.11"/><polygon class="cls-49" points="1 289.84 51 264.91 51 266.17 1 291.11 1 289.84"/><polygon class="cls-50" points="1 288.57 51 263.64 51 264.91 1 289.84 1 288.57"/><polygon class="cls-51" points="1 287.31 51 262.37 51 263.64 1 288.57 1 287.31"/><polygon class="cls-52" points="1 286.04 51 261.1 51 262.37 1 287.31 1 286.04"/><polygon class="cls-53" points="1 284.77 51 259.83 51 261.1 1 286.04 1 284.77"/><polygon class="cls-54" points="1 283.5 51 258.56 51 259.83 1 284.77 1 283.5"/><polygon class="cls-55" points="1 282.23 51 257.3 51 258.56 1 283.5 1 282.23"/><polygon class="cls-56" points="1 280.96 51 256.03 51 257.3 1 282.23 1 280.96"/><polygon class="cls-57" points="1 279.7 51 254.76 51 256.03 1 280.96 1 279.7"/><polygon class="cls-58" points="1 278.43 51 253.49 51 254.76 1 279.7 1 278.43"/><polygon class="cls-59" points="1 277.16 51 252.22 51 253.49 1 278.43 1 277.16"/><polygon class="cls-60" points="1 275.89 51 250.95 51 252.22 1 277.16 1 275.89"/><polygon class="cls-61" points="1 274.62 51 249.69 51 250.95 1 275.89 1 274.62"/><polygon class="cls-62" points="1 273.35 51 248.42 51 249.69 1 274.62 1 273.35"/><polygon class="cls-63" points="1 272.09 51 247.15 51 248.42 1 273.35 1 272.09"/><polygon class="cls-64" points="1 270.82 51 245.88 51 247.15 1 272.09 1 270.82"/><polygon class="cls-65" points="1 269.55 51 244.61 51 245.88 1 270.82 1 269.55"/><polygon class="cls-66" points="1 268.28 51 243.34 51 244.61 1 269.55 1 268.28"/><polygon class="cls-67" points="1 267.01 51 242.08 51 243.34 1 268.28 1 267.01"/><polygon class="cls-68" points="1 265.74 51 240.81 51 242.08 1 267.01 1 265.74"/><polygon class="cls-69" points="1 264.48 51 239.54 51 240.81 1 265.74 1 264.48"/><polygon class="cls-70" points="1 263.21 51 238.27 51 239.54 1 264.48 1 263.21"/><polygon class="cls-71" points="1 261.94 51 237 51 238.27 1 263.21 1 261.94"/><polygon class="cls-72" points="1 260.67 51 235.73 51 237 1 261.94 1 260.67"/><polygon class="cls-73" points="1 259.4 51 234.47 51 235.73 1 260.67 1 259.4"/><polygon class="cls-74" points="1 258.13 51 233.2 51 234.47 1 259.4 1 258.13"/><polygon class="cls-75" points="1 256.87 51 231.93 51 233.2 1 258.13 1 256.87"/><polygon class="cls-76" points="1 255.6 51 230.66 51 231.93 1 256.87 1 255.6"/><polygon class="cls-77" points="1 254.33 51 229.39 51 230.66 1 255.6 1 254.33"/><polygon class="cls-78" points="1 253.06 51 228.12 51 229.39 1 254.33 1 253.06"/><polygon class="cls-79" points="1 251.79 51 226.85 51 228.12 1 253.06 1 251.79"/><polygon class="cls-80" points="1 250.52 51 225.59 51 226.85 1 251.79 1 250.52"/><polygon class="cls-81" points="1 249.26 51 224.32 51 225.59 1 250.52 1 249.26"/><polygon class="cls-82" points="1 247.99 51 223.05 51 224.32 1 249.26 1 247.99"/><polygon class="cls-83" points="1 246.72 51 221.78 51 223.05 1 247.99 1 246.72"/><polygon class="cls-84" points="1 245.45 51 220.51 51 221.78 1 246.72 1 245.45"/><polygon class="cls-85" points="1 244.18 51 219.25 51 220.51 1 245.45 1 244.18"/><polygon class="cls-86" points="1 242.91 51 217.98 51 219.25 1 244.18 1 242.91"/><polygon class="cls-87" points="1 241.65 51 216.71 51 217.98 1 242.91 1 241.65"/><polygon class="cls-88" points="1 240.38 51 215.44 51 216.71 1 241.65 1 240.38"/><polygon class="cls-89" points="1 239.11 51 214.17 51 215.44 1 240.38 1 239.11"/><polygon class="cls-90" points="1 237.84 51 212.9 51 214.17 1 239.11 1 237.84"/><polygon class="cls-91" points="1 236.57 51 211.63 51 212.9 1 237.84 1 236.57"/><polygon class="cls-92" points="1 235.3 51 210.37 51 211.63 1 236.57 1 235.3"/><polygon class="cls-93" points="1 234.04 51 209.1 51 210.37 1 235.3 1 234.04"/><polygon class="cls-94" points="1 232.77 51 207.83 51 209.1 1 234.04 1 232.77"/><polygon class="cls-95" points="1 231.5 51 206.56 51 207.83 1 232.77 1 231.5"/><polygon class="cls-96" points="1 230.23 51 205.29 51 206.56 1 231.5 1 230.23"/><polygon class="cls-97" points="1 228.96 51 204.03 51 205.29 1 230.23 1 228.96"/><polygon class="cls-98" points="1 227.69 51 202.76 51 204.03 1 228.96 1 227.69"/><polygon class="cls-99" points="1 226.43 51 201.49 51 202.76 1 227.69 1 226.43"/><polygon class="cls-100" points="1 225.16 51 200.22 51 201.49 1 226.43 1 225.16"/><polygon class="cls-101" points="1 223.89 51 198.95 51 200.22 1 225.16 1 223.89"/><polygon class="cls-102" points="1 222.62 51 197.68 51 198.95 1 223.89 1 222.62"/><polygon class="cls-103" points="1 221.35 51 196.41 51 197.68 1 222.62 1 221.35"/><polygon class="cls-104" points="1 220.08 51 195.15 51 196.41 1 221.35 1 220.08"/><polygon class="cls-105" points="1 218.81 51 193.88 51 195.15 1 220.08 1 218.81"/><polygon class="cls-106" points="1 217.55 51 192.61 51 193.88 1 218.81 1 217.55"/><polygon class="cls-107" points="1 216.28 51 191.34 51 192.61 1 217.55 1 216.28"/><polygon class="cls-108" points="1 215.01 51 190.07 51 191.34 1 216.28 1 215.01"/><polygon class="cls-109" points="1 213.74 51 188.81 51 190.07 1 215.01 1 213.74"/><polygon class="cls-110" points="1 212.47 51 187.54 51 188.81 1 213.74 1 212.47"/><polygon class="cls-111" points="1 211.21 51 186.27 51 187.54 1 212.47 1 211.21"/><polygon class="cls-112" points="1 209.94 51 185 51 186.27 1 211.21 1 209.94"/><polygon class="cls-113" points="1 208.67 51 183.73 51 185 1 209.94 1 208.67"/><polygon class="cls-114" points="1 207.4 51 182.46 51 183.73 1 208.67 1 207.4"/><polygon class="cls-115" points="1 206.13 51 181.19 51 182.46 1 207.4 1 206.13"/><polygon class="cls-116" points="1 204.86 51 179.93 51 181.19 1 206.13 1 204.86"/><polygon class="cls-117" points="1 203.59 51 178.66 51 179.93 1 204.86 1 203.59"/><polygon class="cls-118" points="1 202.33 51 177.39 51 178.66 1 203.59 1 202.33"/><polygon class="cls-119" points="1 201.06 51 176.12 51 177.39 1 202.33 1 201.06"/><polygon class="cls-120" points="1 199.79 51 174.85 51 176.12 1 201.06 1 199.79"/><polygon class="cls-121" points="1 198.52 51 173.59 51 174.85 1 199.79 1 198.52"/><polygon class="cls-122" points="1 197.25 51 172.32 51 173.59 1 198.52 1 197.25"/><polygon class="cls-123" points="1 195.99 51 171.05 51 172.32 1 197.25 1 195.99"/><polygon class="cls-124" points="1 194.72 51 169.78 51 171.05 1 195.99 1 194.72"/><polygon class="cls-125" points="1 193.45 51 168.51 51 169.78 1 194.72 1 193.45"/><polygon class="cls-126" points="1 192.18 51 167.24 51 168.51 1 193.45 1 192.18"/><polygon class="cls-127" points="1 190.91 51 165.97 51 167.24 1 192.18 1 190.91"/><polygon class="cls-128" points="1 189.64 51 164.71 51 165.97 1 190.91 1 189.64"/><polygon class="cls-129" points="1 188.38 51 163.44 51 164.71 1 189.64 1 188.38"/><polygon class="cls-130" points="1 187.11 51 162.17 51 163.44 1 188.38 1 187.11"/><polygon class="cls-131" points="1 185.84 51 160.9 51 162.17 1 187.11 1 185.84"/><polygon class="cls-132" points="1 184.57 51 159.63 51 160.9 1 185.84 1 184.57"/><polygon class="cls-133" points="1 183.3 51 158.37 51 159.63 1 184.57 1 183.3"/><polygon class="cls-134" points="1 182.03 51 157.1 51 158.37 1 183.3 1 182.03"/><polygon class="cls-135" points="1 180.76 51 155.83 51 157.1 1 182.03 1 180.76"/><polygon class="cls-136" points="1 179.5 51 154.56 51 155.83 1 180.76 1 179.5"/><polygon class="cls-137" points="1 178.23 51 153.29 51 154.56 1 179.5 1 178.23"/><polygon class="cls-138" points="1 176.96 51 152.02 51 153.29 1 178.23 1 176.96"/><polygon class="cls-139" points="1 175.69 51 150.75 51 152.02 1 176.96 1 175.69"/><polygon class="cls-140" points="1 174.42 51 149.49 51 150.75 1 175.69 1 174.42"/><polygon class="cls-141" points="1 173.16 51 148.22 51 149.49 1 174.42 1 173.16"/><polygon class="cls-142" points="1 171.89 51 146.95 51 148.22 1 173.16 1 171.89"/><polygon class="cls-143" points="1 170.62 51 145.68 51 146.95 1 171.89 1 170.62"/><polygon class="cls-144" points="1 169.35 51 144.41 51 145.68 1 170.62 1 169.35"/><polygon class="cls-145" points="1 168.08 51 143.15 51 144.41 1 169.35 1 168.08"/><polygon class="cls-146" points="1 166.81 51 141.88 51 143.15 1 168.08 1 166.81"/><polygon class="cls-147" points="1 165.54 51 140.61 51 141.88 1 166.81 1 165.54"/><polygon class="cls-148" points="1 164.28 51 139.34 51 140.61 1 165.54 1 164.28"/><polygon class="cls-149" points="1 163.01 51 138.07 51 139.34 1 164.28 1 163.01"/><polygon class="cls-150" points="1 161.74 51 136.8 51 138.07 1 163.01 1 161.74"/><polygon class="cls-151" points="1 160.47 51 135.53 51 136.8 1 161.74 1 160.47"/><polygon class="cls-152" points="1 159.2 51 134.27 51 135.53 1 160.47 1 159.2"/><polygon class="cls-153" points="1 157.94 51 133 51 134.27 1 159.2 1 157.94"/><polygon class="cls-154" points="1 156.67 51 131.73 51 133 1 157.94 1 156.67"/><polygon class="cls-155" points="1 155.4 51 130.46 51 131.73 1 156.67 1 155.4"/><polygon class="cls-156" points="1 154.13 51 129.19 51 130.46 1 155.4 1 154.13"/><polygon class="cls-157" points="1 152.86 51 127.92 51 129.19 1 154.13 1 152.86"/><polygon class="cls-158" points="1 151.59 51 126.66 51 127.92 1 152.86 1 151.59"/><polygon class="cls-159" points="1 150.32 51 125.39 51 126.66 1 151.59 1 150.32"/><polygon class="cls-160" points="1 149.06 51 124.12 51 125.39 1 150.32 1 149.06"/><polygon class="cls-161" points="1 147.79 51 122.85 51 124.12 1 149.06 1 147.79"/><polygon class="cls-162" points="1 146.52 51 121.58 51 122.85 1 147.79 1 146.52"/><polygon class="cls-163" points="1 145.25 51 120.31 51 121.58 1 146.52 1 145.25"/><polygon class="cls-164" points="1 143.98 51.08 119.17 51 119.68 51 120.31 1 145.25 1 143.98"/><polygon class="cls-165" points="1 142.72 49.15 119 50.54 119 51.1 119.32 1 143.98 1 142.72"/><polygon class="cls-166" points="1 141.45 46.57 119 49.15 119 1 142.72 1 141.45"/><polygon class="cls-167" points="1 140.18 43.99 119 46.57 119 1 141.45 1 140.18"/><polygon class="cls-168" points="1 138.91 41.41 119 43.99 119 1 140.18 1 138.91"/><polygon class="cls-169" points="1 137.64 38.83 119 41.41 119 1 138.91 1 137.64"/><polygon class="cls-170" points="1 136.37 36.26 119 38.83 119 1 137.64 1 136.37"/><polygon class="cls-171" points="1 135.1 33.68 119 36.26 119 1 136.37 1 135.1"/><polygon class="cls-172" points="1 133.84 31.1 119 33.68 119 1 135.1 1 133.84"/><polygon class="cls-173" points="1 132.57 28.52 119 31.1 119 1 133.84 1 132.57"/><polygon class="cls-174" points="1 131.3 25.94 119 28.52 119 1 132.57 1 131.3"/><polygon class="cls-175" points="1 130.03 23.37 119 25.94 119 1 131.3 1 130.03"/><polygon class="cls-176" points="1 128.76 20.79 119 23.37 119 1 130.03 1 128.76"/><polygon class="cls-177" points="1 127.5 18.21 119 20.79 119 1 128.76 1 127.5"/><polygon class="cls-178" points="1 126.23 15.63 119 18.21 119 1 127.5 1 126.23"/><polygon class="cls-179" points="1 124.96 13.05 119 15.63 119 1 126.23 1 124.96"/><polygon class="cls-180" points="1 123.69 10.48 119 13.05 119 1 124.96 1 123.69"/><polygon class="cls-181" points="1 122.42 7.9 119 10.48 119 1 123.69 1 122.42"/><polygon class="cls-182" points="1 121.15 5.32 119 7.9 119 1 122.42 1 121.15"/><polygon class="cls-185" points="1 119.89 2.74 119 5.32 119 1 121.15 1 119.89"/><polygon class="cls-186" points="2.74 119 0.86 119.89 0.86 119 2.74 119"/></g></g><g class="cls-6"><g class="cls-187"><polygon class="cls-8" points="157.21 387 147 430.84 147 387 157.21 387"/><polygon class="cls-8" points="158.06 387 147 434.56 147 430.84 157.21 387 158.06 387"/><polygon class="cls-9" points="158.9 387 147 438.28 147 434.56 158.06 387 158.9 387"/><polygon class="cls-10" points="159.74 387 147 442 147 438.28 158.9 387 159.74 387"/><polygon class="cls-11" points="160.59 387 147 445.72 147 442 159.74 387 160.59 387"/><polygon class="cls-12" points="161.43 387 147 449.44 147 445.72 160.59 387 161.43 387"/><polygon class="cls-13" points="162.27 387 147 453.16 147 449.44 161.43 387 162.27 387"/><polygon class="cls-14" points="163.11 387 147 456.88 147 453.16 162.27 387 163.11 387"/><polygon class="cls-15" points="163.96 387 147.5 459 147 459 147 456.88 163.11 387 163.96 387"/><polygon class="cls-16" points="164.8 387 148.35 459 147.5 459 163.96 387 164.8 387"/><polygon class="cls-17" points="165.64 387 149.19 459 148.35 459 164.8 387 165.64 387"/><polygon class="cls-18" points="166.48 387 150.03 459 149.19 459 165.64 387 166.48 387"/><polygon class="cls-19" points="167.33 387 150.87 459 150.03 459 166.48 387 167.33 387"/><polygon class="cls-20" points="168.17 387 151.72 459 150.87 459 167.33 387 168.17 387"/><polygon class="cls-21" points="169.01 387 152.56 459 151.72 459 168.17 387 169.01 387"/><polygon class="cls-22" points="169.85 387 153.4 459 152.56 459 169.01 387 169.85 387"/><polygon class="cls-23" points="170.7 387 154.24 459 153.4 459 169.85 387 170.7 387"/><polygon class="cls-24" points="171.54 387 155.09 459 154.24 459 170.7 387 171.54 387"/><polygon class="cls-25" points="172.38 387 155.93 459 155.09 459 171.54 387 172.38 387"/><polygon class="cls-26" points="173.22 387 156.77 459 155.93 459 172.38 387 173.22 387"/><polygon class="cls-27" points="174.07 387 157.62 459 156.77 459 173.22 387 174.07 387"/><polygon class="cls-28" points="174.91 387 158.46 459 157.62 459 174.07 387 174.91 387"/><polygon class="cls-29" points="175.75 387 159.3 459 158.46 459 174.91 387 175.75 387"/><polygon class="cls-30" points="176.6 387 160.14 459 159.3 459 175.75 387 176.6 387"/><polygon class="cls-31" points="177.44 387 160.99 459 160.14 459 176.6 387 177.44 387"/><polygon class="cls-32" points="178.28 387 161.83 459 160.99 459 177.44 387 178.28 387"/><polygon class="cls-33" points="179.12 387 162.67 459 161.83 459 178.28 387 179.12 387"/><polygon class="cls-34" points="179.97 387 163.51 459 162.67 459 179.12 387 179.97 387"/><polygon class="cls-35" points="180.81 387 164.36 459 163.51 459 179.97 387 180.81 387"/><polygon class="cls-36" points="181.65 387 165.2 459 164.36 459 180.81 387 181.65 387"/><polygon class="cls-37" points="182.49 387 166.04 459 165.2 459 181.65 387 182.49 387"/><polygon class="cls-38" points="183.34 387 166.88 459 166.04 459 182.49 387 183.34 387"/><polygon class="cls-39" points="184.18 387 167.73 459 166.88 459 183.34 387 184.18 387"/><polygon class="cls-40" points="185.02 387 168.57 459 167.73 459 184.18 387 185.02 387"/><polygon class="cls-41" points="185.87 387 169.41 459 168.57 459 185.02 387 185.87 387"/><polygon class="cls-42" points="186.71 387 170.25 459 169.41 459 185.87 387 186.71 387"/><polygon class="cls-43" points="187.55 387 171.1 459 170.25 459 186.71 387 187.55 387"/><polygon class="cls-44" points="188.39 387 171.94 459 171.1 459 187.55 387 188.39 387"/><polygon class="cls-45" points="189.24 387 172.78 459 171.94 459 188.39 387 189.24 387"/><polygon class="cls-46" points="190.08 387 173.63 459 172.78 459 189.24 387 190.08 387"/><polygon class="cls-47" points="190.92 387 174.47 459 173.63 459 190.08 387 190.92 387"/><polygon class="cls-48" points="191.76 387 175.31 459 174.47 459 190.92 387 191.76 387"/><polygon class="cls-49" points="192.61 387 176.15 459 175.31 459 191.76 387 192.61 387"/><polygon class="cls-50" points="193.45 387 177 459 176.15 459 192.61 387 193.45 387"/><polygon class="cls-51" points="194.29 387 177.84 459 177 459 193.45 387 194.29 387"/><polygon class="cls-52" points="195.13 387 178.68 459 177.84 459 194.29 387 195.13 387"/><polygon class="cls-53" points="195.98 387 179.52 459 178.68 459 195.13 387 195.98 387"/><polygon class="cls-54" points="196.82 387 180.37 459 179.52 459 195.98 387 196.82 387"/><polygon class="cls-55" points="197.66 387 181.21 459 180.37 459 196.82 387 197.66 387"/><polygon class="cls-56" points="198.5 387 182.05 459 181.21 459 197.66 387 198.5 387"/><polygon class="cls-57" points="199.35 387 182.9 459 182.05 459 198.5 387 199.35 387"/><polygon class="cls-58" points="200.19 387 183.74 459 182.9 459 199.35 387 200.19 387"/><polygon class="cls-59" points="201.03 387 184.58 459 183.74 459 200.19 387 201.03 387"/><polygon class="cls-60" points="201.88 387 185.42 459 184.58 459 201.03 387 201.88 387"/><polygon class="cls-61" points="202.72 387 186.27 459 185.42 459 201.88 387 202.72 387"/><polygon class="cls-62" points="203.56 387 187.11 459 186.27 459 202.72 387 203.56 387"/><polygon class="cls-63" points="204.4 387 187.95 459 187.11 459 203.56 387 204.4 387"/><polygon class="cls-64" points="205.25 387 188.79 459 187.95 459 204.4 387 205.25 387"/><polygon class="cls-65" points="206.09 387 189.64 459 188.79 459 205.25 387 206.09 387"/><polygon class="cls-66" points="206.93 387 190.48 459 189.64 459 206.09 387 206.93 387"/><polygon class="cls-67" points="207.77 387 191.32 459 190.48 459 206.93 387 207.77 387"/><polygon class="cls-68" points="208.62 387 192.16 459 191.32 459 207.77 387 208.62 387"/><polygon class="cls-69" points="209.46 387 193.01 459 192.16 459 208.62 387 209.46 387"/><polygon class="cls-70" points="210.3 387 193.85 459 193.01 459 209.46 387 210.3 387"/><polygon class="cls-71" points="211.15 387 194.69 459 193.85 459 210.3 387 211.15 387"/><polygon class="cls-72" points="211.99 387 195.53 459 194.69 459 211.15 387 211.99 387"/><polygon class="cls-73" points="212.83 387 196.38 459 195.53 459 211.99 387 212.83 387"/><polygon class="cls-74" points="213.67 387 197.22 459 196.38 459 212.83 387 213.67 387"/><polygon class="cls-75" points="214.52 387 198.06 459 197.22 459 213.67 387 214.52 387"/><polygon class="cls-76" points="215.36 387 198.91 459 198.06 459 214.52 387 215.36 387"/><polygon class="cls-77" points="216.2 387 199.75 459 198.91 459 215.36 387 216.2 387"/><polygon class="cls-78" points="217.04 387 200.59 459 199.75 459 216.2 387 217.04 387"/><polygon class="cls-79" points="217.89 387 201.43 459 200.59 459 217.04 387 217.89 387"/><polygon class="cls-80" points="218.73 387 202.28 459 201.43 459 217.89 387 218.73 387"/><polygon class="cls-81" points="219.57 387 203.12 459 202.28 459 218.73 387 219.57 387"/><polygon class="cls-82" points="220.41 387 203.96 459 203.12 459 219.57 387 220.41 387"/><polygon class="cls-83" points="221.26 387 204.8 459 203.96 459 220.41 387 221.26 387"/><polygon class="cls-84" points="222.1 387 205.65 459 204.8 459 221.26 387 222.1 387"/><polygon class="cls-85" points="222.94 387 206.49 459 205.65 459 222.1 387 222.94 387"/><polygon class="cls-86" points="223.78 387 207.33 459 206.49 459 222.94 387 223.78 387"/><polygon class="cls-87" points="224.63 387 208.18 459 207.33 459 223.78 387 224.63 387"/><polygon class="cls-88" points="225.47 387 209.02 459 208.18 459 224.63 387 225.47 387"/><polygon class="cls-89" points="226.31 387 209.86 459 209.02 459 225.47 387 226.31 387"/><polygon class="cls-90" points="227.16 387 210.7 459 209.86 459 226.31 387 227.16 387"/><polygon class="cls-91" points="228 387 211.55 459 210.7 459 227.16 387 228 387"/><polygon class="cls-92" points="228.84 387 212.39 459 211.55 459 228 387 228.84 387"/><polygon class="cls-93" points="229.68 387 213.23 459 212.39 459 228.84 387 229.68 387"/><polygon class="cls-94" points="230.53 387 214.07 459 213.23 459 229.68 387 230.53 387"/><polygon class="cls-95" points="231.37 387 214.92 459 214.07 459 230.53 387 231.37 387"/><polygon class="cls-96" points="232.21 387 215.76 459 214.92 459 231.37 387 232.21 387"/><polygon class="cls-97" points="233.05 387 216.6 459 215.76 459 232.21 387 233.05 387"/><polygon class="cls-98" points="233.9 387 217.44 459 216.6 459 233.05 387 233.9 387"/><polygon class="cls-99" points="234.74 387 218.29 459 217.44 459 233.9 387 234.74 387"/><polygon class="cls-100" points="235.58 387 219.13 459 218.29 459 234.74 387 235.58 387"/><polygon class="cls-101" points="236.43 387 219.97 459 219.13 459 235.58 387 236.43 387"/><polygon class="cls-102" points="237.27 387 220.81 459 219.97 459 236.43 387 237.27 387"/><polygon class="cls-103" points="238.11 387 221.66 459 220.81 459 237.27 387 238.11 387"/><polygon class="cls-104" points="238.95 387 222.5 459 221.66 459 238.11 387 238.95 387"/><polygon class="cls-105" points="239.8 387 223.34 459 222.5 459 238.95 387 239.8 387"/><polygon class="cls-106" points="240.64 387 224.19 459 223.34 459 239.8 387 240.64 387"/><polygon class="cls-107" points="241.48 387 225.03 459 224.19 459 240.64 387 241.48 387"/><polygon class="cls-108" points="242.32 387 225.87 459 225.03 459 241.48 387 242.32 387"/><polygon class="cls-109" points="243.17 387 226.71 459 225.87 459 242.32 387 243.17 387"/><polygon class="cls-110" points="244.01 387 227.56 459 226.71 459 243.17 387 244.01 387"/><polygon class="cls-111" points="244.85 387 228.4 459 227.56 459 244.01 387 244.85 387"/><polygon class="cls-112" points="245.69 387 229.24 459 228.4 459 244.85 387 245.69 387"/><polygon class="cls-113" points="246.54 387 230.08 459 229.24 459 245.69 387 246.54 387"/><polygon class="cls-114" points="247.38 387 230.93 459 230.08 459 246.54 387 247.38 387"/><polygon class="cls-115" points="248.22 387 231.77 459 230.93 459 247.38 387 248.22 387"/><polygon class="cls-116" points="249.06 387 232.61 459 231.77 459 248.22 387 249.06 387"/><polygon class="cls-117" points="249.91 387 233.46 459 232.61 459 249.06 387 249.91 387"/><polygon class="cls-118" points="250.75 387 234.3 459 233.46 459 249.91 387 250.75 387"/><polygon class="cls-119" points="251.59 387 235.14 459 234.3 459 250.75 387 251.59 387"/><polygon class="cls-120" points="252.44 387 235.98 459 235.14 459 251.59 387 252.44 387"/><polygon class="cls-121" points="253.28 387 236.83 459 235.98 459 252.44 387 253.28 387"/><polygon class="cls-122" points="254.12 387 237.67 459 236.83 459 253.28 387 254.12 387"/><polygon class="cls-123" points="254.96 387 238.51 459 237.67 459 254.12 387 254.96 387"/><polygon class="cls-124" points="255.81 387 239.35 459 238.51 459 254.96 387 255.81 387"/><polygon class="cls-125" points="256.65 387 240.2 459 239.35 459 255.81 387 256.65 387"/><polygon class="cls-126" points="257.49 387 241.04 459 240.2 459 256.65 387 257.49 387"/><polygon class="cls-127" points="258.33 387 241.88 459 241.04 459 257.49 387 258.33 387"/><polygon class="cls-128" points="259.18 387 242.72 459 241.88 459 258.33 387 259.18 387"/><polygon class="cls-129" points="260.02 387 243.57 459 242.72 459 259.18 387 260.02 387"/><polygon class="cls-130" points="260.86 387 244.41 459 243.57 459 260.02 387 260.86 387"/><polygon class="cls-131" points="261.7 387 245.25 459 244.41 459 260.86 387 261.7 387"/><polygon class="cls-132" points="262.55 387 246.09 459 245.25 459 261.7 387 262.55 387"/><polygon class="cls-133" points="263.39 387 246.94 459 246.09 459 262.55 387 263.39 387"/><polygon class="cls-134" points="264.23 387 247.78 459 246.94 459 263.39 387 264.23 387"/><polygon class="cls-135" points="265.08 387 248.62 459 247.78 459 264.23 387 265.08 387"/><polygon class="cls-136" points="265.92 387 249.47 459 248.62 459 265.08 387 265.92 387"/><polygon class="cls-137" points="266.76 387 250.31 459 249.47 459 265.92 387 266.76 387"/><polygon class="cls-138" points="267.6 387 251.15 459 250.31 459 266.76 387 267.6 387"/><polygon class="cls-139" points="268.45 387 251.99 459 251.15 459 267.6 387 268.45 387"/><polygon class="cls-140" points="269.29 387 252.84 459 251.99 459 268.45 387 269.29 387"/><polygon class="cls-141" points="270.13 387 253.68 459 252.84 459 269.29 387 270.13 387"/><polygon class="cls-142" points="270.97 387 254.52 459 253.68 459 270.13 387 270.97 387"/><polygon class="cls-143" points="271.82 387 255.36 459 254.52 459 270.97 387 271.82 387"/><polygon class="cls-144" points="272.66 387 256.21 459 255.36 459 271.82 387 272.66 387"/><polygon class="cls-145" points="273.5 387 257.05 459 256.21 459 272.66 387 273.5 387"/><polygon class="cls-146" points="274.35 387 257.89 459 257.05 459 273.5 387 274.35 387"/><polygon class="cls-147" points="275.19 387 258.74 459 257.89 459 274.35 387 275.19 387"/><polygon class="cls-148" points="276.03 387 259.58 459 258.74 459 275.19 387 276.03 387"/><polygon class="cls-149" points="276.87 387 260.42 459 259.58 459 276.03 387 276.87 387"/><polygon class="cls-150" points="277.72 387 261.26 459 260.42 459 276.87 387 277.72 387"/><polygon class="cls-151" points="278.56 387 262.11 459 261.26 459 277.72 387 278.56 387"/><polygon class="cls-152" points="279.4 387 262.95 459 262.11 459 278.56 387 279.4 387"/><polygon class="cls-153" points="280.24 387 263.79 459 262.95 459 279.4 387 280.24 387"/><polygon class="cls-154" points="281.09 387 264.63 459 263.79 459 280.24 387 281.09 387"/><polygon class="cls-155" points="281.93 387 265.48 459 264.63 459 281.09 387 281.93 387"/><polygon class="cls-156" points="282.77 387 266.32 459 265.48 459 281.93 387 282.77 387"/><polygon class="cls-157" points="283.61 387 267.16 459 266.32 459 282.77 387 283.61 387"/><polygon class="cls-158" points="284.46 387 268 459 267.16 459 283.61 387 284.46 387"/><polygon class="cls-159" points="285.3 387 268.85 459 268 459 284.46 387 285.3 387"/><polygon class="cls-160" points="286.14 387 269.69 459 268.85 459 285.3 387 286.14 387"/><polygon class="cls-161" points="286.99 387 270.53 459 269.69 459 286.14 387 286.99 387"/><polygon class="cls-162" points="287.83 387 271.38 459 270.53 459 286.99 387 287.83 387"/><polygon class="cls-163" points="288.67 387 272.22 459 271.38 459 287.83 387 288.67 387"/><polygon class="cls-164" points="289.51 387 273.06 459 272.22 459 288.67 387 289.51 387"/><polygon class="cls-165" points="290.36 387 273.9 459 273.06 459 289.51 387 290.36 387"/><polygon class="cls-166" points="291.2 387 274.75 459 273.9 459 290.36 387 291.2 387"/><polygon class="cls-167" points="292.04 387 275.59 459 274.75 459 291.2 387 292.04 387"/><polygon class="cls-168" points="292.88 387 276.43 459 275.59 459 292.04 387 292.88 387"/><polygon class="cls-169" points="293.73 387 277.27 459 276.43 459 292.88 387 293.73 387"/><polygon class="cls-170" points="294.57 387 278.12 459 277.27 459 293.73 387 294.57 387"/><polygon class="cls-171" points="295.41 387 278.96 459 278.12 459 294.57 387 295.41 387"/><polygon class="cls-172" points="296.25 387 279.8 459 278.96 459 295.41 387 296.25 387"/><polygon class="cls-173" points="297.1 387 280.64 459 279.8 459 296.25 387 297.1 387"/><polygon class="cls-174" points="297.94 387 281.49 459 280.64 459 297.1 387 297.94 387"/><polygon class="cls-175" points="298.78 387 282.33 459 281.49 459 297.94 387 298.78 387"/><polygon class="cls-176" points="299.63 387 283.17 459 282.33 459 298.78 387 299.63 387"/><polygon class="cls-177" points="300.47 387 284.01 459 283.17 459 299.63 387 300.47 387"/><polygon class="cls-178" points="301.31 387 284.86 459 284.01 459 300.47 387 301.31 387"/><polygon class="cls-179" points="302.15 387 285.7 459 284.86 459 301.31 387 302.15 387"/><polygon class="cls-180" points="303 387 286.54 459 285.7 459 302.15 387 303 387"/><polygon class="cls-181" points="303.84 387 287.39 459 286.54 459 303 387 303.84 387"/><polygon class="cls-182" points="304.68 387 288.23 459 287.39 459 303.84 387 304.68 387"/><polygon class="cls-185" points="305.52 387 289.07 459 288.23 459 304.68 387 305.52 387"/><polygon class="cls-186" points="306.37 387 289.91 459 289.07 459 305.52 387 306.37 387"/><polygon class="cls-188" points="307.21 387 290.76 459 289.91 459 306.37 387 307.21 387"/><polygon class="cls-189" points="308.05 387 291.6 459 290.76 459 307.21 387 308.05 387"/><polygon class="cls-190" points="308.89 387 292.44 459 291.6 459 308.05 387 308.89 387"/><polygon class="cls-191" points="309.74 387 293.28 459 292.44 459 308.89 387 309.74 387"/><polygon class="cls-192" points="310.58 387 294.13 459 293.28 459 309.74 387 310.58 387"/><polygon class="cls-193" points="311.42 387 294.97 459 294.13 459 310.58 387 311.42 387"/><polygon class="cls-194" points="312.26 387 295.81 459 294.97 459 311.42 387 312.26 387"/><polygon class="cls-195" points="313.11 387 296.65 459 295.81 459 312.26 387 313.11 387"/><polygon class="cls-196" points="313.95 387 297.5 459 296.65 459 313.11 387 313.95 387"/><polygon class="cls-197" points="314.79 387 298.34 459 297.5 459 313.95 387 314.79 387"/><polygon class="cls-198" points="315.64 387 299.18 459 298.34 459 314.79 387 315.64 387"/><polygon class="cls-199" points="316.48 387 300.03 459 299.18 459 315.64 387 316.48 387"/><polygon class="cls-200" points="317.32 387 300.87 459 300.03 459 316.48 387 317.32 387"/><polygon class="cls-201" points="318.16 387 301.71 459 300.87 459 317.32 387 318.16 387"/><polygon class="cls-202" points="319.01 387 302.55 459 301.71 459 318.16 387 319.01 387"/><polygon class="cls-203" points="319.85 387 303.4 459 302.55 459 319.01 387 319.85 387"/><polygon class="cls-204" points="320.69 387 304.24 459 303.4 459 319.85 387 320.69 387"/><polygon class="cls-205" points="321.53 387 305.08 459 304.24 459 320.69 387 321.53 387"/><polygon class="cls-206" points="322.38 387 305.92 459 305.08 459 321.53 387 322.38 387"/><polygon class="cls-207" points="323.22 387 306.77 459 305.92 459 322.38 387 323.22 387"/><polygon class="cls-208" points="324.06 387 307.61 459 306.77 459 323.22 387 324.06 387"/><polygon class="cls-209" points="324.9 387 308.45 459 307.61 459 324.06 387 324.9 387"/><polygon class="cls-210" points="325.75 387 309.3 459 308.45 459 324.9 387 325.75 387"/><polygon class="cls-211" points="326.59 387 310.14 459 309.3 459 325.75 387 326.59 387"/><polygon class="cls-212" points="327.43 387 310.98 459 310.14 459 326.59 387 327.43 387"/><polygon class="cls-213" points="328.28 387 311.82 459 310.98 459 327.43 387 328.28 387"/><polygon class="cls-214" points="329.12 387 312.67 459 311.82 459 328.28 387 329.12 387"/><polygon class="cls-215" points="329.96 387 313.51 459 312.67 459 329.12 387 329.96 387"/><polygon class="cls-216" points="330.8 387 314.35 459 313.51 459 329.96 387 330.8 387"/><polygon class="cls-217" points="331.65 387 315.19 459 314.35 459 330.8 387 331.65 387"/><polygon class="cls-218" points="332.49 387 316.04 459 315.19 459 331.65 387 332.49 387"/><polygon class="cls-219" points="333.33 387 316.88 459 316.04 459 332.49 387 333.33 387"/><polygon class="cls-220" points="334.17 387 317.72 459 316.88 459 333.33 387 334.17 387"/><polygon class="cls-221" points="335.02 387 318.56 459 317.72 459 334.17 387 335.02 387"/><polygon class="cls-222" points="335.86 387 319.41 459 318.56 459 335.02 387 335.86 387"/><polygon class="cls-223" points="336.7 387 320.25 459 319.41 459 335.86 387 336.7 387"/><polygon class="cls-224" points="337.55 387 321.09 459 320.25 459 336.7 387 337.55 387"/><polygon class="cls-225" points="338.39 387 321.94 459 321.09 459 337.55 387 338.39 387"/><polygon class="cls-226" points="339.23 387 322.78 459 321.94 459 338.39 387 339.23 387"/><polygon class="cls-227" points="340.07 387 323.62 459 322.78 459 339.23 387 340.07 387"/><polygon class="cls-228" points="340.92 387 324.46 459 323.62 459 340.07 387 340.92 387"/><polygon class="cls-229" points="341.76 387 325.31 459 324.46 459 340.92 387 341.76 387"/><polygon class="cls-230" points="342.6 387 326.15 459 325.31 459 341.76 387 342.6 387"/><polygon class="cls-231" points="342.96 387 343.42 386.78 326.99 459 326.15 459 342.6 387 342.96 387"/><polygon class="cls-232" points="343.42 386.69 344.22 386.75 327.83 459 326.99 459 343.42 386.69"/><polygon class="cls-233" points="344.22 386.86 345.03 386.93 328.68 459 327.83 459 344.22 386.86"/><polygon class="cls-234" points="345.03 387.04 345.83 387.1 329.52 459 328.68 459 345.03 387.04"/><polygon class="cls-234" points="345.99 387.22 354 389.17 354 459 329.52 459 345.99 387.22"/></g></g><g class="cls-6"><g class="cls-235"><polygon class="cls-8" points="356.28 285 335 379.68 335 285 356.28 285"/><polygon class="cls-8" points="356.88 285 335 382.33 335 379.68 356.28 285 356.88 285"/><polygon class="cls-9" points="357.48 285 335 384.98 335 382.33 356.88 285 357.48 285"/><polygon class="cls-10" points="358.08 285 335 387.63 335 384.98 357.48 285 358.08 285"/><polygon class="cls-11" points="358.68 285 335 390.27 335 387.63 358.08 285 358.68 285"/><polygon class="cls-12" points="359.28 285 335 392.92 335 390.27 358.68 285 359.28 285"/><polygon class="cls-13" points="359.88 285 335 395.57 335 392.92 359.28 285 359.88 285"/><polygon class="cls-14" points="360.48 285 335 398.21 335 395.57 359.88 285 360.48 285"/><polygon class="cls-15" points="361.08 285 335 400.86 335 398.21 360.48 285 361.08 285"/><polygon class="cls-16" points="361.68 285 335 403.51 335 400.86 361.08 285 361.68 285"/><polygon class="cls-17" points="362.28 285 335 406.16 335 403.51 361.68 285 362.28 285"/><polygon class="cls-18" points="362.88 285 335 408.8 335 406.16 362.28 285 362.88 285"/><polygon class="cls-19" points="363.48 285 335 411.45 335 408.8 362.88 285 363.48 285"/><polygon class="cls-20" points="364.08 285 335 414.1 335 411.45 363.48 285 364.08 285"/><polygon class="cls-21" points="364.68 285 335 416.75 335 414.1 364.08 285 364.68 285"/><polygon class="cls-22" points="365.28 285 335 419.39 335 416.75 364.68 285 365.28 285"/><polygon class="cls-23" points="365.88 285 335 422.04 335 419.39 365.28 285 365.88 285"/><polygon class="cls-24" points="366.48 285 335 424.69 335 422.04 365.88 285 366.48 285"/><polygon class="cls-25" points="367.08 285 335 427.34 335 424.69 366.48 285 367.08 285"/><polygon class="cls-26" points="367.68 285 335 429.98 335 427.34 367.08 285 367.68 285"/><polygon class="cls-27" points="368.27 285 335 432.63 335 429.98 367.68 285 368.27 285"/><polygon class="cls-28" points="368.87 285 335 435.28 335 432.63 368.27 285 368.87 285"/><polygon class="cls-29" points="369.47 285 335 437.93 335 435.28 368.87 285 369.47 285"/><polygon class="cls-30" points="370.07 285 335 440.57 335 437.93 369.47 285 370.07 285"/><polygon class="cls-31" points="370.67 285 335 443.22 335 440.57 370.07 285 370.67 285"/><polygon class="cls-32" points="371.27 285 335 445.87 335 443.22 370.67 285 371.27 285"/><polygon class="cls-33" points="371.87 285 335 448.51 335 445.87 371.27 285 371.87 285"/><polygon class="cls-34" points="372.47 285 335 451.16 335 448.51 371.87 285 372.47 285"/><polygon class="cls-35" points="373.07 285 335 453.81 335 451.16 372.47 285 373.07 285"/><polygon class="cls-36" points="373.67 285 335 456.46 335 453.81 373.07 285 373.67 285"/><polygon class="cls-37" points="374.27 285 335.28 457.5 335 457.39 335 456.46 373.67 285 374.27 285"/><polygon class="cls-38" points="374.87 285 335.76 457.63 335.19 457.52 374.27 285 374.87 285"/><polygon class="cls-39" points="375.47 285 336.34 457.75 335.76 457.64 374.87 285 375.47 285"/><polygon class="cls-40" points="376.07 285 336.91 457.88 336.34 457.77 375.47 285 376.07 285"/><polygon class="cls-41" points="376.67 285 337.48 458 336.91 457.89 376.07 285 376.67 285"/><polygon class="cls-42" points="377.27 285 338.05 458.13 337.48 458.02 376.67 285 377.27 285"/><polygon class="cls-43" points="377.87 285 338.62 458.26 338.05 458.15 377.27 285 377.87 285"/><polygon class="cls-44" points="378.47 285 339.19 458.38 338.62 458.27 377.87 285 378.47 285"/><polygon class="cls-45" points="379.07 285 339.76 458.51 339.19 458.4 378.47 285 379.07 285"/><polygon class="cls-46" points="379.67 285 340.33 458.63 339.76 458.52 379.07 285 379.67 285"/><polygon class="cls-47" points="380.27 285 340.91 458.76 340.33 458.65 379.67 285 380.27 285"/><polygon class="cls-48" points="380.87 285 341.48 458.88 340.91 458.77 380.27 285 380.87 285"/><polygon class="cls-49" points="381.47 285 342.05 459.01 341.48 458.9 380.87 285 381.47 285"/><polygon class="cls-50" points="382.07 285 342.62 459.13 342.05 459.02 381.47 285 382.07 285"/><polygon class="cls-51" points="382.67 285 343.19 459.26 342.62 459.15 382.07 285 382.67 285"/><polygon class="cls-52" points="383.26 285 343.76 459.38 343.19 459.27 382.67 285 383.26 285"/><polygon class="cls-53" points="383.86 285 344.33 459.51 343.76 459.4 383.26 285 383.86 285"/><polygon class="cls-54" points="384.46 285 344.9 459.63 344.33 459.52 383.86 285 384.46 285"/><polygon class="cls-55" points="385.06 285 345.48 459 345.37 459 344.9 459.28 384.46 285 385.06 285"/><polygon class="cls-56" points="385.66 285 346.08 459 345.48 459 385.06 285 385.66 285"/><polygon class="cls-57" points="386.26 285 346.68 459 346.08 459 385.66 285 386.26 285"/><polygon class="cls-58" points="386.86 285 347.28 459 346.68 459 386.26 285 386.86 285"/><polygon class="cls-59" points="387.46 285 347.88 459 347.28 459 386.86 285 387.46 285"/><polygon class="cls-60" points="388.06 285 348.48 459 347.88 459 387.46 285 388.06 285"/><polygon class="cls-61" points="388.66 285 349.08 459 348.48 459 388.06 285 388.66 285"/><polygon class="cls-62" points="389.26 285 349.68 459 349.08 459 388.66 285 389.26 285"/><polygon class="cls-63" points="389.86 285 350.28 459 349.68 459 389.26 285 389.86 285"/><polygon class="cls-64" points="390.46 285 350.88 459 350.28 459 389.86 285 390.46 285"/><polygon class="cls-65" points="391.06 285 351.48 459 350.88 459 390.46 285 391.06 285"/><polygon class="cls-66" points="391.66 285 352.08 459 351.48 459 391.06 285 391.66 285"/><polygon class="cls-67" points="392.26 285 352.68 459 352.08 459 391.66 285 392.26 285"/><polygon class="cls-68" points="392.86 285 353.28 459 352.68 459 392.26 285 392.86 285"/><polygon class="cls-69" points="393.46 285 353.88 459 353.28 459 392.86 285 393.46 285"/><polygon class="cls-70" points="394.06 285 354.48 459 353.88 459 393.46 285 394.06 285"/><polygon class="cls-71" points="394.66 285 355.07 459 354.48 459 394.06 285 394.66 285"/><polygon class="cls-72" points="395.26 285 355.67 459 355.07 459 394.66 285 395.26 285"/><polygon class="cls-73" points="395.86 285 356.27 459 355.67 459 395.26 285 395.86 285"/><polygon class="cls-74" points="396.46 285 356.87 459 356.27 459 395.86 285 396.46 285"/><polygon class="cls-75" points="397.06 285 357.47 459 356.87 459 396.46 285 397.06 285"/><polygon class="cls-76" points="397.65 285 358.07 459 357.47 459 397.06 285 397.65 285"/><polygon class="cls-77" points="398.25 285 358.67 459 358.07 459 397.65 285 398.25 285"/><polygon class="cls-78" points="398.86 285 359.27 459 358.67 459 398.25 285 398.86 285"/><polygon class="cls-79" points="399.45 285 359.87 459 359.27 459 398.86 285 399.45 285"/><polygon class="cls-80" points="400.05 285 360.47 459 359.87 459 399.45 285 400.05 285"/><polygon class="cls-81" points="400.65 285 361.07 459 360.47 459 400.05 285 400.65 285"/><polygon class="cls-82" points="401.25 285 361.67 459 361.07 459 400.65 285 401.25 285"/><polygon class="cls-83" points="401.85 285 362.27 459 361.67 459 401.25 285 401.85 285"/><polygon class="cls-84" points="402.45 285 362.87 459 362.27 459 401.85 285 402.45 285"/><polygon class="cls-85" points="403.05 285 363.47 459 362.87 459 402.45 285 403.05 285"/><polygon class="cls-86" points="403.65 285 364.07 459 363.47 459 403.05 285 403.65 285"/><polygon class="cls-87" points="404.25 285 364.67 459 364.07 459 403.65 285 404.25 285"/><polygon class="cls-88" points="404.85 285 365.27 459 364.67 459 404.25 285 404.85 285"/><polygon class="cls-89" points="405.45 285 365.87 459 365.27 459 404.85 285 405.45 285"/><polygon class="cls-90" points="406.05 285 366.47 459 365.87 459 405.45 285 406.05 285"/><polygon class="cls-91" points="406.65 285 367.07 459 366.47 459 406.05 285 406.65 285"/><polygon class="cls-92" points="407.25 285 367.67 459 367.07 459 406.65 285 407.25 285"/><polygon class="cls-93" points="407.85 285 368.27 459 367.67 459 407.25 285 407.85 285"/><polygon class="cls-94" points="408.45 285 368.87 459 368.27 459 407.85 285 408.45 285"/><polygon class="cls-95" points="409.05 285 369.46 459 368.87 459 408.45 285 409.05 285"/><polygon class="cls-96" points="409.65 285 370.06 459 369.46 459 409.05 285 409.65 285"/><polygon class="cls-97" points="410.25 285 370.67 459 370.06 459 409.65 285 410.25 285"/><polygon class="cls-98" points="410.85 285 371.26 459 370.67 459 410.25 285 410.85 285"/><polygon class="cls-99" points="411.45 285 371.86 459 371.26 459 410.85 285 411.45 285"/><polygon class="cls-100" points="412.05 285 372.46 459 371.86 459 411.45 285 412.05 285"/><polygon class="cls-101" points="412.64 285 373.06 459 372.46 459 412.05 285 412.64 285"/><polygon class="cls-102" points="413.25 285 373.66 459 373.06 459 412.64 285 413.25 285"/><polygon class="cls-103" points="413.85 285 374.26 459 373.66 459 413.25 285 413.85 285"/><polygon class="cls-104" points="414.44 285 374.86 459 374.26 459 413.85 285 414.44 285"/><polygon class="cls-105" points="415.04 285 375.46 459 374.86 459 414.44 285 415.04 285"/><polygon class="cls-106" points="415.64 285 376.06 459 375.46 459 415.04 285 415.64 285"/><polygon class="cls-107" points="416.24 285 376.66 459 376.06 459 415.64 285 416.24 285"/><polygon class="cls-108" points="416.84 285 377.26 459 376.66 459 416.24 285 416.84 285"/><polygon class="cls-109" points="417.44 285 377.86 459 377.26 459 416.84 285 417.44 285"/><polygon class="cls-110" points="418.04 285 378.46 459 377.86 459 417.44 285 418.04 285"/><polygon class="cls-111" points="418.64 285 379.06 459 378.46 459 418.04 285 418.64 285"/><polygon class="cls-112" points="419.24 285 379.66 459 379.06 459 418.64 285 419.24 285"/><polygon class="cls-113" points="419.84 285 380.26 459 379.66 459 419.24 285 419.84 285"/><polygon class="cls-114" points="420.44 285 380.86 459 380.26 459 419.84 285 420.44 285"/><polygon class="cls-115" points="421.04 285 381.46 459 380.86 459 420.44 285 421.04 285"/><polygon class="cls-116" points="421.64 285 382.06 459 381.46 459 421.04 285 421.64 285"/><polygon class="cls-117" points="422.24 285 382.66 459 382.06 459 421.64 285 422.24 285"/><polygon class="cls-118" points="422.84 285 383.26 459 382.66 459 422.24 285 422.84 285"/><polygon class="cls-119" points="423.44 285 383.86 459 383.26 459 422.84 285 423.44 285"/><polygon class="cls-120" points="424.04 285 384.45 459 383.86 459 423.44 285 424.04 285"/><polygon class="cls-121" points="424.64 285 385.06 459 384.45 459 424.04 285 424.64 285"/><polygon class="cls-122" points="425.24 285 385.65 459 385.06 459 424.64 285 425.24 285"/><polygon class="cls-123" points="425.84 285 386.25 459 385.65 459 425.24 285 425.84 285"/><polygon class="cls-124" points="426.44 285 386.85 459 386.25 459 425.84 285 426.44 285"/><polygon class="cls-125" points="427.04 285 387.45 459 386.85 459 426.44 285 427.04 285"/><polygon class="cls-126" points="427.63 285 388.05 459 387.45 459 427.04 285 427.63 285"/><polygon class="cls-127" points="428.24 285 388.65 459 388.05 459 427.63 285 428.24 285"/><polygon class="cls-128" points="428.83 285 389.25 459 388.65 459 428.24 285 428.83 285"/><polygon class="cls-129" points="429.43 285 389.85 459 389.25 459 428.83 285 429.43 285"/><polygon class="cls-130" points="430.03 285 390.45 459 389.85 459 429.43 285 430.03 285"/><polygon class="cls-131" points="430.63 285 391.05 459 390.45 459 430.03 285 430.63 285"/><polygon class="cls-132" points="431.23 285 391.65 459 391.05 459 430.63 285 431.23 285"/><polygon class="cls-133" points="431.83 285 392.25 459 391.65 459 431.23 285 431.83 285"/><polygon class="cls-134" points="432.43 285 392.85 459 392.25 459 431.83 285 432.43 285"/><polygon class="cls-135" points="433.03 285 393.45 459 392.85 459 432.43 285 433.03 285"/><polygon class="cls-136" points="433.63 285 394.05 459 393.45 459 433.03 285 433.63 285"/><polygon class="cls-137" points="434.23 285 394.65 459 394.05 459 433.63 285 434.23 285"/><polygon class="cls-138" points="434.83 285 395.25 459 394.65 459 434.23 285 434.83 285"/><polygon class="cls-139" points="435.43 285 395.85 459 395.25 459 434.83 285 435.43 285"/><polygon class="cls-140" points="436.03 285 396.45 459 395.85 459 435.43 285 436.03 285"/><polygon class="cls-141" points="436.63 285 397.05 459 396.45 459 436.03 285 436.63 285"/><polygon class="cls-142" points="437.23 285 397.65 459 397.05 459 436.63 285 437.23 285"/><polygon class="cls-143" points="437.83 285 398.25 459 397.65 459 437.23 285 437.83 285"/><polygon class="cls-144" points="438.43 285 398.85 459 398.25 459 437.83 285 438.43 285"/><polygon class="cls-145" points="439.03 285 399.44 459 398.85 459 438.43 285 439.03 285"/><polygon class="cls-146" points="439.63 285 400.05 459 399.44 459 439.03 285 439.63 285"/><polygon class="cls-147" points="440.23 285 400.64 459 400.05 459 439.63 285 440.23 285"/><polygon class="cls-148" points="440.83 285 401.24 459 400.64 459 440.23 285 440.83 285"/><polygon class="cls-149" points="441.43 285 401.84 459 401.24 459 440.83 285 441.43 285"/><polygon class="cls-150" points="442.03 285 402.44 459 401.84 459 441.43 285 442.03 285"/><polygon class="cls-151" points="442.63 285 403.04 459 402.44 459 442.03 285 442.63 285"/><polygon class="cls-152" points="443.23 285 403.64 459 403.04 459 442.63 285 443.23 285"/><polygon class="cls-153" points="443.82 285 404.24 459 403.64 459 443.23 285 443.82 285"/><polygon class="cls-154" points="444.42 285 404.84 459 404.24 459 443.82 285 444.42 285"/><polygon class="cls-155" points="445.02 285 405.44 459 404.84 459 444.42 285 445.02 285"/><polygon class="cls-156" points="445.62 285 406.04 459 405.44 459 445.02 285 445.62 285"/><polygon class="cls-157" points="446.22 285 406.64 459 406.04 459 445.62 285 446.22 285"/><polygon class="cls-158" points="446.82 285 407.24 459 406.64 459 446.22 285 446.82 285"/><polygon class="cls-159" points="447.42 285 407.84 459 407.24 459 446.82 285 447.42 285"/><polygon class="cls-160" points="448.02 285 408.44 459 407.84 459 447.42 285 448.02 285"/><polygon class="cls-161" points="448.62 285 409.04 459 408.44 459 448.02 285 448.62 285"/><polygon class="cls-162" points="449.22 285 409.64 459 409.04 459 448.62 285 449.22 285"/><polygon class="cls-163" points="449.82 285 410.24 459 409.64 459 449.22 285 449.82 285"/><polygon class="cls-164" points="450.42 285 410.84 459 410.24 459 449.82 285 450.42 285"/><polygon class="cls-165" points="451.02 285 411.44 459 410.84 459 450.42 285 451.02 285"/><polygon class="cls-166" points="451.62 285 412.04 459 411.44 459 451.02 285 451.62 285"/><polygon class="cls-167" points="452.22 285 412.64 459 412.04 459 451.62 285 452.22 285"/><polygon class="cls-168" points="452.82 285 413.24 459 412.64 459 452.22 285 452.82 285"/><polygon class="cls-169" points="453.42 285 413.84 459 413.24 459 452.82 285 453.42 285"/><polygon class="cls-170" points="454.02 285 414.44 459 413.84 459 453.42 285 454.02 285"/><polygon class="cls-171" points="454.62 285 415.04 459 414.44 459 454.02 285 454.62 285"/><polygon class="cls-172" points="455.22 285 415.63 459 415.04 459 454.62 285 455.22 285"/><polygon class="cls-173" points="455.82 285 416.23 459 415.63 459 455.22 285 455.82 285"/><polygon class="cls-174" points="456.42 285 416.83 459 416.23 459 455.82 285 456.42 285"/><polygon class="cls-175" points="457.02 285 417.43 459 416.83 459 456.42 285 457.02 285"/><polygon class="cls-176" points="457.62 285 418.03 459 417.43 459 457.02 285 457.62 285"/><polygon class="cls-177" points="458.21 285 418.63 459 418.03 459 457.62 285 458.21 285"/><polygon class="cls-178" points="458.81 285 419.23 459 418.63 459 458.21 285 458.81 285"/><polygon class="cls-179" points="459.41 285 419.83 459 419.23 459 458.81 285 459.41 285"/><polygon class="cls-180" points="460.01 285 420.43 459 419.83 459 459.41 285 460.01 285"/><polygon class="cls-181" points="460.61 285 421.03 459 420.43 459 460.01 285 460.61 285"/><polygon class="cls-182" points="461.21 285 421.63 459 421.03 459 460.61 285 461.21 285"/><polygon class="cls-185" points="461.81 285 422.23 459 421.63 459 461.21 285 461.81 285"/><polygon class="cls-186" points="462.41 285 422.83 459 422.23 459 461.81 285 462.41 285"/><polygon class="cls-188" points="462.51 285 462.99 284.72 423.43 459 422.83 459 462.41 285 462.51 285"/><polygon class="cls-189" points="462.99 284.69 463.56 284.64 424.03 459 423.43 459 462.99 284.69"/><polygon class="cls-190" points="463.56 284.81 464.13 284.76 424.63 459 424.03 459 463.56 284.81"/><polygon class="cls-191" points="464.13 284.94 464.7 284.89 425.23 459 424.63 459 464.13 284.94"/><polygon class="cls-192" points="464.7 285.07 465.27 285.01 425.83 459 425.23 459 464.7 285.07"/><polygon class="cls-193" points="465.27 285.19 465.84 285.14 426.43 459 425.83 459 465.27 285.19"/><polygon class="cls-194" points="465.84 285.32 466.42 285.27 427.03 459 426.43 459 465.84 285.32"/><polygon class="cls-195" points="466.42 285.44 466.99 285.39 427.63 459 427.03 459 466.42 285.44"/><polygon class="cls-196" points="466.99 285.57 467.56 285.52 428.23 459 427.63 459 466.99 285.57"/><polygon class="cls-197" points="467.56 285.69 468.13 285.64 428.83 459 428.23 459 467.56 285.69"/><polygon class="cls-198" points="468.13 285.82 468.7 285.77 429.43 459 428.83 459 468.13 285.82"/><polygon class="cls-199" points="468.7 285.94 469.27 285.89 430.02 459 429.43 459 468.7 285.94"/><polygon class="cls-200" points="469.27 286.07 469.84 286.02 430.63 459 430.02 459 469.27 286.07"/><polygon class="cls-201" points="469.84 286.19 470.41 286.14 431.22 459 430.63 459 469.84 286.19"/><polygon class="cls-202" points="470.41 286.32 470.99 286.27 431.82 459 431.22 459 470.41 286.32"/><polygon class="cls-203" points="470.99 286.44 471.56 286.39 432.42 459 431.82 459 470.99 286.44"/><polygon class="cls-204" points="471.56 286.57 472.13 286.52 433.02 459 432.42 459 471.56 286.57"/><polygon class="cls-205" points="472.13 286.69 472.7 286.64 433.62 459 433.02 459 472.13 286.69"/><polygon class="cls-206" points="472.7 286.82 473.27 286.77 434.22 459 433.62 459 472.7 286.82"/><polygon class="cls-207" points="473.27 286.94 473.84 286.89 434.82 459 434.22 459 473.27 286.94"/><polygon class="cls-208" points="473.84 287.07 474.41 287.02 435.42 459 434.82 459 473.84 287.07"/><polygon class="cls-209" points="474.41 287.19 474.98 287.14 436.02 459 435.42 459 474.41 287.19"/><polygon class="cls-210" points="474.98 287.32 475.56 287.27 436.62 459 436.02 459 474.98 287.32"/><polygon class="cls-211" points="475.56 287.45 476.13 287.39 437.22 459 436.62 459 475.56 287.45"/><polygon class="cls-212" points="476.13 287.57 476.7 287.52 437.82 459 437.22 459 476.13 287.57"/><polygon class="cls-213" points="476.7 287.7 477.27 287.65 438.42 459 437.82 459 476.7 287.7"/><polygon class="cls-214" points="477.27 287.82 477.84 287.77 439.02 459 438.42 459 477.27 287.82"/><polygon class="cls-215" points="477.84 287.95 478.41 287.9 439.62 459 439.02 459 477.84 287.95"/><polygon class="cls-216" points="478.41 288.07 478.98 288.02 440.22 459 439.62 459 478.41 288.07"/><polygon class="cls-217" points="478.98 288.2 479.55 288.15 440.82 459 440.22 459 478.98 288.2"/><polygon class="cls-218" points="479.55 288.32 480.13 288.27 441.42 459 440.82 459 479.55 288.32"/><polygon class="cls-219" points="480.13 288.45 480.7 288.4 442.02 459 441.42 459 480.13 288.45"/><polygon class="cls-220" points="480.7 288.57 481.27 288.52 442.62 459 442.02 459 480.7 288.57"/><polygon class="cls-221" points="481.27 288.7 481.84 288.65 443.22 459 442.62 459 481.27 288.7"/><polygon class="cls-222" points="481.84 288.82 482.41 288.77 443.82 459 443.22 459 481.84 288.82"/><polygon class="cls-223" points="482.41 288.95 482.98 288.9 444.42 459 443.82 459 482.41 288.95"/><polygon class="cls-224" points="482.98 289.07 483.55 289.02 445.01 459 444.42 459 482.98 289.07"/><polygon class="cls-225" points="483.55 289.2 484.12 289.15 445.62 459 445.01 459 483.55 289.2"/><polygon class="cls-226" points="484.12 289.32 484.69 289.27 446.21 459 445.62 459 484.12 289.32"/><polygon class="cls-227" points="484.69 289.45 485.27 289.4 446.81 459 446.21 459 484.69 289.45"/><polygon class="cls-228" points="485.27 289.57 485.84 289.52 447.41 459 446.81 459 485.27 289.57"/><polygon class="cls-229" points="485.84 289.7 486.41 289.65 448.01 459 447.41 459 485.84 289.7"/><polygon class="cls-230" points="486.41 289.83 486.98 289.77 448.61 459 448.01 459 486.41 289.83"/><polygon class="cls-231" points="486.98 289.95 487.55 289.9 449.21 459 448.61 459 486.98 289.95"/><polygon class="cls-232" points="487.55 290.08 488.12 290.03 449.81 459 449.21 459 487.55 290.08"/><polygon class="cls-233" points="488.12 290.2 488.69 290.15 450.41 459 449.81 459 488.12 290.2"/><polygon class="cls-234" points="488.69 290.33 489.26 290.28 451.01 459 450.41 459 488.69 290.33"/><polygon class="cls-234" points="488.94 290.45 499 293.08 499 459 451.01 459 488.94 290.45"/></g></g><polygon class="cls-236" points="454.05 284.94 334.71 402.38 165.92 402.38 46.58 284.94 46.58 118.87 165.92 10.48 334.71 10.48 454.05 118.87 454.05 284.94"/><polygon class="cls-5" points="437.55 277.46 327.87 385.37 172.77 385.37 63.09 277.46 63.09 124.84 172.77 25.24 327.87 25.24 437.55 124.84 437.55 277.46"/><polygon class="cls-4" points="328.02 26 172.91 26 63 125.81 63 144.39 172.91 44 328.02 44 439 144.39 439 125.81 328.02 26"/><path class="cls-237" d="M53.5,399.9a3.49,3.49,0,0,1-3.5-3.56V368.48l37.23-47,15.33-9.26a3.54,3.54,0,1,1,3.62,6.08L92,326.92l-35,44v25.4A3.49,3.49,0,0,1,53.5,399.9Z"/><path class="cls-237" d="M121.09,331.82a3.63,3.63,0,0,1-2.74-1.24,3.52,3.52,0,0,1,.39-5l75.87-64a3.66,3.66,0,0,1,5.1.38,3.52,3.52,0,0,1-.39,5l-75.87,64A3.64,3.64,0,0,1,121.09,331.82Z"/><path class="cls-237" d="M199.57,172.06a3,3,0,0,1-2.24-1L114,91.14V71.81l-8.26-8.57L84,62.69A3.64,3.64,0,0,1,80.43,59a3.55,3.55,0,0,1,3.67-3.46l24.79.63L121,69V88.13L202.25,166a3.52,3.52,0,0,1,0,5A3.82,3.82,0,0,1,199.57,172.06Z"/><path class="cls-238" d="M197,180.15a3.45,3.45,0,0,1-2.47-1L110,96.17V76.94l-8.75-8.64-22.46-.55a3.56,3.56,0,1,1,.15-7.11l25.29.63L117,74V93.22l82.51,80.86a3.52,3.52,0,0,1,0,5A3.6,3.6,0,0,1,197,180.15Z"/><path class="cls-237" d="M292.11,173.07a3.63,3.63,0,0,1-2.59-1.07,3.52,3.52,0,0,1,.15-5L372,88.14V68.91L385.37,56.2l29.45-.62a3.56,3.56,0,1,1,.12,7.11l-26.71.56L379,71.94v19.2l-84.4,80.92A3.56,3.56,0,0,1,292.11,173.07Z"/><path class="cls-238" d="M295,180a3.63,3.63,0,0,1-2.54-1,3.52,3.52,0,0,1,.15-5L374,93.23V73.82l15.08-12.57L420,60.64a3.56,3.56,0,1,1,.08,7.11l-28.42.56L381,77.14v19L297.68,179A3.79,3.79,0,0,1,295,180Z"/><path class="cls-238" d="M55,405.23c-2,0-4-1.59-4-3.56V374.55L88.74,327.6,104.16,318a3.67,3.67,0,0,1,5,1.1,3.52,3.52,0,0,1-1.11,4.91l-14,9L59,377v24.66C59,403.64,57,405.23,55,405.23Z"/><path class="cls-237" d="M446.5,399.9a3.49,3.49,0,0,1-3.5-3.56V370.91l-33.66-44-15-8.57a3.52,3.52,0,0,1-1.29-4.86,3.66,3.66,0,0,1,5-1.3l16.1,9.29,35.89,47v27.82A3.49,3.49,0,0,1,446.5,399.9Z"/><path class="cls-237" d="M381.58,331.82a3.64,3.64,0,0,1-2.26-.78l-82.55-65a3.52,3.52,0,0,1-.56-5,3.65,3.65,0,0,1,5.08-.55l82.55,65a3.52,3.52,0,0,1,.56,5A3.63,3.63,0,0,1,381.58,331.82Z"/><path class="cls-238" d="M443.5,405.23a3.49,3.49,0,0,1-3.5-3.56V377l-33.21-44-15.53-8.93a3.54,3.54,0,0,1-1.33-4.87,3.62,3.62,0,0,1,4.92-1.26l16.78,9.66,35.38,47v27.07A3.49,3.49,0,0,1,443.5,405.23Z"/><path class="cls-238" d="M123.14,337.88a3.63,3.63,0,0,1-2.77-1.26,3.52,3.52,0,0,1,.44-5l79.29-65.72a3.65,3.65,0,0,1,5.09.43,3.52,3.52,0,0,1-.44,5L125.47,337A3.63,3.63,0,0,1,123.14,337.88Z"/><path class="cls-238" d="M379.52,337.88a3.64,3.64,0,0,1-2.23-.76L291,270.39a3.52,3.52,0,0,1-.61-5,3.65,3.65,0,0,1,5.07-.6l86.32,66.73a3.52,3.52,0,0,1,.61,5A3.63,3.63,0,0,1,379.52,337.88Z"/></g></g></svg>