<svg xmlns="http://www.w3.org/2000/svg" xmlns:xlink="http://www.w3.org/1999/xlink" viewBox="0 0 500 500"><defs><style>.cls-1{fill:none;}.cls-2{isolation:isolate;}.cls-3{fill:#54524b;}.cls-4{fill:#8e8b7e;}.cls-5{opacity:0.18;}.cls-236,.cls-5{mix-blend-mode:multiply;}.cls-6{clip-path:url(#clip-path);}.cls-7{fill:#fff;}.cls-8{fill:#fefefe;}.cls-9{fill:#fdfdfd;}.cls-10{fill:#fcfcfc;}.cls-11{fill:#fbfbfb;}.cls-12{fill:#fafafa;}.cls-13{fill:#f9f9f9;}.cls-14{fill:#f8f8f8;}.cls-15{fill:#f7f7f7;}.cls-16{fill:#f6f6f6;}.cls-17{fill:#f5f5f5;}.cls-18{fill:#f4f4f4;}.cls-19{fill:#f3f3f3;}.cls-20{fill:#f2f2f2;}.cls-21{fill:#f1f1f1;}.cls-22{fill:#f0f0f0;}.cls-23{fill:#efefef;}.cls-24{fill:#eee;}.cls-25{fill:#ededed;}.cls-26{fill:#ececec;}.cls-27{fill:#ebebeb;}.cls-28{fill:#eaeaea;}.cls-29{fill:#e9e9e9;}.cls-30{fill:#e8e8e8;}.cls-31{fill:#e7e7e7;}.cls-32{fill:#e6e6e6;}.cls-33{fill:#e5e5e5;}.cls-34{fill:#e4e4e4;}.cls-35{fill:#e3e3e3;}.cls-36{fill:#e2e2e2;}.cls-37{fill:#e1e1e1;}.cls-38{fill:#e0e0e0;}.cls-39{fill:#dfdfdf;}.cls-40{fill:#dedede;}.cls-41{fill:#ddd;}.cls-42{fill:#dcdcdc;}.cls-43{fill:#dbdbdb;}.cls-44{fill:#dadada;}.cls-45{fill:#dad9d9;}.cls-46{fill:#d9d8d8;}.cls-47{fill:#d8d7d7;}.cls-48{fill:#d7d6d6;}.cls-49{fill:#d6d5d5;}.cls-50{fill:#d5d4d4;}.cls-51{fill:#d4d3d3;}.cls-52{fill:#d3d2d2;}.cls-53{fill:#d2d1d1;}.cls-54{fill:#d1d0d0;}.cls-55{fill:#d0cfcf;}.cls-56{fill:#cfcece;}.cls-57{fill:#cecdcd;}.cls-58{fill:#cdcccc;}.cls-59{fill:#cccbcb;}.cls-60{fill:#cbcaca;}.cls-61{fill:#cac9c9;}.cls-62{fill:#c9c8c8;}.cls-63{fill:#c8c7c7;}.cls-64{fill:#c7c6c6;}.cls-65{fill:#c6c5c5;}.cls-66{fill:#c5c4c4;}.cls-67{fill:#c4c3c3;}.cls-68{fill:#c3c2c2;}.cls-69{fill:#c2c1c1;}.cls-70{fill:#c1c0c0;}.cls-71{fill:#c0bfbf;}.cls-72{fill:#bfbebe;}.cls-73{fill:#bebdbd;}.cls-74{fill:#bdbcbc;}.cls-75{fill:#bcbbbb;}.cls-76{fill:#bbbaba;}.cls-77{fill:#bab9b9;}.cls-78{fill:#b9b8b8;}.cls-79{fill:#b8b7b7;}.cls-80{fill:#b7b6b6;}.cls-81{fill:#b6b5b5;}.cls-82{fill:#b5b4b4;}.cls-83{fill:#b4b3b3;}.cls-84{fill:#b3b2b2;}.cls-85{fill:#b2b1b1;}.cls-86{fill:#b1b0b0;}.cls-87{fill:#b0afaf;}.cls-88{fill:#afaeae;}.cls-89{fill:#aeadad;}.cls-90{fill:#adacac;}.cls-91{fill:#acabab;}.cls-92{fill:#abaaaa;}.cls-93{fill:#aaa9a9;}.cls-94{fill:#a9a8a8;}.cls-95{fill:#a8a7a7;}.cls-96{fill:#a7a6a6;}.cls-97{fill:#a6a5a5;}.cls-98{fill:#a5a4a4;}.cls-99{fill:#a4a3a3;}.cls-100{fill:#a3a2a2;}.cls-101{fill:#a2a1a1;}.cls-102{fill:#a1a0a0;}.cls-103{fill:#a09f9f;}.cls-104{fill:#9f9e9e;}.cls-105{fill:#9e9d9d;}.cls-106{fill:#9d9c9c;}.cls-107{fill:#9c9b9b;}.cls-108{fill:#9b9a9a;}.cls-109{fill:#9a9999;}.cls-110{fill:#999898;}.cls-111{fill:#989797;}.cls-112{fill:#979696;}.cls-113{fill:#969595;}.cls-114{fill:#959494;}.cls-115{fill:#949393;}.cls-116{fill:#939292;}.cls-117{fill:#929191;}.cls-118{fill:#919090;}.cls-119{fill:#918e8f;}.cls-120{fill:#908d8e;}.cls-121{fill:#8f8c8d;}.cls-122{fill:#8e8b8c;}.cls-123{fill:#8d8a8b;}.cls-124{fill:#8c898a;}.cls-125{fill:#8b8889;}.cls-126{fill:#8a8788;}.cls-127{fill:#898687;}.cls-128{fill:#888586;}.cls-129{fill:#878485;}.cls-130{fill:#868384;}.cls-131{fill:#858283;}.cls-132{fill:#848182;}.cls-133{fill:#838081;}.cls-134{fill:#827f80;}.cls-135{fill:#817e7f;}.cls-136{fill:#807d7e;}.cls-137{fill:#7f7c7d;}.cls-138{fill:#7e7b7c;}.cls-139{fill:#7d7a7b;}.cls-140{fill:#7c797a;}.cls-141{fill:#7b7879;}.cls-142{fill:#7a7778;}.cls-143{fill:#797677;}.cls-144{fill:#787576;}.cls-145{fill:#777475;}.cls-146{fill:#767374;}.cls-147{fill:#757273;}.cls-148{fill:#747172;}.cls-149{fill:#737071;}.cls-150{fill:#726f70;}.cls-151{fill:#716e6f;}.cls-152{fill:#706d6e;}.cls-153{fill:#6f6c6d;}.cls-154{fill:#6e6b6c;}.cls-155{fill:#6d6a6b;}.cls-156{fill:#6c696a;}.cls-157{fill:#6b6869;}.cls-158{fill:#6a6768;}.cls-159{fill:#696667;}.cls-160{fill:#686566;}.cls-161{fill:#676465;}.cls-162{fill:#666364;}.cls-163{fill:#656263;}.cls-164{fill:#646162;}.cls-165{fill:#636061;}.cls-166{fill:#625f60;}.cls-167{fill:#615e5f;}.cls-168{fill:#605d5e;}.cls-169{fill:#5f5c5d;}.cls-170{fill:#5e5b5c;}.cls-171{fill:#5d5a5b;}.cls-172{fill:#5c595a;}.cls-173{fill:#5b5859;}.cls-174{fill:#5a5758;}.cls-175{fill:#595657;}.cls-176{fill:#585556;}.cls-177{fill:#575455;}.cls-178{fill:#565354;}.cls-179{fill:#555253;}.cls-180{fill:#545152;}.cls-181{fill:#535051;}.cls-182{opacity:0.34;mix-blend-mode:overlay;}.cls-183{clip-path:url(#clip-path-2);}.cls-184{fill:#524f50;}.cls-185{fill:#514e4f;}.cls-186{clip-path:url(#clip-path-3);}.cls-187{fill:#504d4e;}.cls-188{fill:#4f4c4d;}.cls-189{fill:#4e4b4c;}.cls-190{fill:#4d4a4b;}.cls-191{fill:#4c494a;}.cls-192{fill:#4b4849;}.cls-193{fill:#4a4748;}.cls-194{fill:#494647;}.cls-195{fill:#484546;}.cls-196{fill:#484445;}.cls-197{fill:#474344;}.cls-198{fill:#464243;}.cls-199{fill:#454142;}.cls-200{fill:#444041;}.cls-201{fill:#433f40;}.cls-202{fill:#423e3f;}.cls-203{fill:#413d3e;}.cls-204{fill:#403c3d;}.cls-205{fill:#3f3b3c;}.cls-206{fill:#3e3a3b;}.cls-207{fill:#3d393a;}.cls-208{fill:#3c3839;}.cls-209{fill:#3b3738;}.cls-210{fill:#3a3637;}.cls-211{fill:#393536;}.cls-212{fill:#383435;}.cls-213{fill:#373334;}.cls-214{fill:#363233;}.cls-215{fill:#353132;}.cls-216{fill:#343031;}.cls-217{fill:#332f30;}.cls-218{fill:#322e2f;}.cls-219{fill:#312d2e;}.cls-220{fill:#302c2d;}.cls-221{fill:#2f2b2c;}.cls-222{fill:#2e2a2b;}.cls-223{fill:#2d292a;}.cls-224{fill:#2c2829;}.cls-225{fill:#2b2728;}.cls-226{fill:#2a2627;}.cls-227{fill:#292526;}.cls-228{fill:#282425;}.cls-229{fill:#272324;}.cls-230{fill:#262223;}.cls-231{fill:#252122;}.cls-232{fill:#242021;}.cls-233{fill:#231f20;}.cls-234{clip-path:url(#clip-path-4);}.cls-235{fill:#aaa79d;}.cls-236{opacity:0.1;}.cls-237{clip-path:url(#clip-path-5);}.cls-238{fill:#666;}.cls-239{fill:#00c3ff;}</style><clipPath id="clip-path"><path class="cls-1" d="M468,282.89c0-.9-44.3-34.18-42.2-34.67s0-143.34,0-143.34L468,109.32Z"/></clipPath><clipPath id="clip-path-2"><path class="cls-1" d="M30.51,282.89c0-.9,44.56-34.18,42.46-34.67s-.11-143.34-.11-143.34l-41.45,6.44Z"/></clipPath><clipPath id="clip-path-3"><polygon class="cls-1" points="159.66 405 179.27 344.55 324.43 341 341.15 405 159.66 405"/></clipPath><clipPath id="clip-path-4"><path class="cls-1" d="M469.49,282.6c-.82-1.48-40-31.57-40-31.57l-105,101.2,16.58,52.45Z"/></clipPath><clipPath id="clip-path-5"><polygon class="cls-1" points="414.87 244.45 318.44 339.33 182.08 339.33 85.66 244.45 85.66 110.27 182.08 22.7 318.44 22.7 414.87 110.27 414.87 244.45"/></clipPath></defs><title>elevator-top</title><g class="cls-2"><g id="Layer_1" data-name="Layer 1"><polygon class="cls-3" points="469.34 306.47 341.01 428.83 159.51 428.83 31.17 306.47 31.17 133.42 159.51 25.69 341.01 25.69 469.34 133.42 469.34 306.47"/><polygon class="cls-4" points="469.34 282.6 341.01 404.97 159.51 404.97 31.17 282.6 31.17 109.55 159.51 1.82 341.01 1.82 469.34 109.55 469.34 282.6"/><g class="cls-5"><g class="cls-6"><polygon class="cls-7" points="425 280.53 428.75 283 425 283 425 280.53"/><polygon class="cls-7" points="425 279.4 431.05 283 428.75 283 425 280.53 425 279.4"/><polygon class="cls-8" points="425 278.27 433.35 283 431.05 283 425 279.4 425 278.27"/><polygon class="cls-9" points="425 277.14 435.65 283 433.35 283 425 278.27 425 277.14"/><polygon class="cls-10" points="425 276.01 437.94 283 435.65 283 425 277.14 425 276.01"/><polygon class="cls-11" points="425 274.88 440.24 283 437.94 283 425 276.01 425 274.88"/><polygon class="cls-12" points="425 273.74 442.54 283 440.24 283 425 274.88 425 273.74"/><polygon class="cls-13" points="425 272.61 444.84 283 442.54 283 425 273.74 425 272.61"/><polygon class="cls-14" points="425 271.48 447.14 283 444.84 283 425 272.61 425 271.48"/><polygon class="cls-15" points="425 270.35 449.44 283 447.14 283 425 271.48 425 270.35"/><polygon class="cls-16" points="425 269.22 451.74 283 449.44 283 425 270.35 425 269.22"/><polygon class="cls-17" points="425 268.09 454.04 283 451.74 283 425 269.22 425 268.09"/><polygon class="cls-18" points="425 266.96 456.34 283 454.04 283 425 268.09 425 266.96"/><polygon class="cls-19" points="425 265.83 458.63 283 456.34 283 425 266.96 425 265.83"/><polygon class="cls-20" points="425 264.69 460.93 283 458.63 283 425 265.83 425 264.69"/><polygon class="cls-21" points="425 263.56 463.23 283 460.93 283 425 264.69 425 263.56"/><polygon class="cls-22" points="425 262.43 465.53 283 463.23 283 425 263.56 425 262.43"/><polygon class="cls-23" points="425 261.3 467.83 283 465.53 283 425 262.43 425 261.3"/><polygon class="cls-24" points="425 260.17 468 282.09 468 283 467.83 283 425 261.3 425 260.17"/><polygon class="cls-25" points="425 259.04 468 280.96 468 282.09 425 260.17 425 259.04"/><polygon class="cls-26" points="425 257.91 468 279.83 468 280.96 425 259.04 425 257.91"/><polygon class="cls-27" points="425 256.78 468 278.7 468 279.83 425 257.91 425 256.78"/><polygon class="cls-28" points="425 255.65 468 277.56 468 278.7 425 256.78 425 255.65"/><polygon class="cls-29" points="425 254.52 468 276.43 468 277.56 425 255.65 425 254.52"/><polygon class="cls-30" points="425 253.38 468 275.3 468 276.43 425 254.52 425 253.38"/><polygon class="cls-31" points="425 252.25 468 274.17 468 275.3 425 253.38 425 252.25"/><polygon class="cls-32" points="425 251.12 468 273.04 468 274.17 425 252.25 425 251.12"/><polygon class="cls-33" points="425 249.99 468 271.91 468 273.04 425 251.12 425 249.99"/><polygon class="cls-34" points="425 248.86 468 270.78 468 271.91 425 249.99 425 248.86"/><polygon class="cls-35" points="425 247.73 468 269.65 468 270.78 425 248.86 425 247.73"/><polygon class="cls-36" points="425 246.6 468 268.52 468 269.65 425 247.73 425 246.6"/><polygon class="cls-37" points="425 245.47 468 267.38 468 268.52 425 246.6 425 245.47"/><polygon class="cls-38" points="425 244.34 468 266.25 468 267.38 425 245.47 425 244.34"/><polygon class="cls-39" points="425 243.21 468 265.12 468 266.25 425 244.34 425 243.21"/><polygon class="cls-40" points="425 242.07 468 263.99 468 265.12 425 243.21 425 242.07"/><polygon class="cls-41" points="425 240.94 468 262.86 468 263.99 425 242.07 425 240.94"/><polygon class="cls-42" points="425 239.81 468 261.73 468 262.86 425 240.94 425 239.81"/><polygon class="cls-43" points="425 238.68 468 260.6 468 261.73 425 239.81 425 238.68"/><polygon class="cls-44" points="425 237.55 468 259.47 468 260.6 425 238.68 425 237.55"/><polygon class="cls-45" points="425 236.42 468 258.34 468 259.47 425 237.55 425 236.42"/><polygon class="cls-46" points="425 235.29 468 257.21 468 258.34 425 236.42 425 235.29"/><polygon class="cls-47" points="425 234.16 468 256.07 468 257.21 425 235.29 425 234.16"/><polygon class="cls-48" points="425 233.03 468 254.94 468 256.07 425 234.16 425 233.03"/><polygon class="cls-49" points="425 231.9 468 253.81 468 254.94 425 233.03 425 231.9"/><polygon class="cls-50" points="425 230.76 468 252.68 468 253.81 425 231.9 425 230.76"/><polygon class="cls-51" points="425 229.63 468 251.55 468 252.68 425 230.76 425 229.63"/><polygon class="cls-52" points="425 228.5 468 250.42 468 251.55 425 229.63 425 228.5"/><polygon class="cls-53" points="425 227.37 468 249.29 468 250.42 425 228.5 425 227.37"/><polygon class="cls-54" points="425 226.24 468 248.16 468 249.29 425 227.37 425 226.24"/><polygon class="cls-55" points="425 225.11 468 247.03 468 248.16 425 226.24 425 225.11"/><polygon class="cls-56" points="425 223.98 468 245.9 468 247.03 425 225.11 425 223.98"/><polygon class="cls-57" points="425 222.85 468 244.76 468 245.9 425 223.98 425 222.85"/><polygon class="cls-58" points="425 221.72 468 243.63 468 244.76 425 222.85 425 221.72"/><polygon class="cls-59" points="425 220.59 468 242.5 468 243.63 425 221.72 425 220.59"/><polygon class="cls-60" points="425 219.45 468 241.37 468 242.5 425 220.59 425 219.45"/><polygon class="cls-61" points="425 218.32 468 240.24 468 241.37 425 219.45 425 218.32"/><polygon class="cls-62" points="425 217.19 468 239.11 468 240.24 425 218.32 425 217.19"/><polygon class="cls-63" points="425 216.06 468 237.98 468 239.11 425 217.19 425 216.06"/><polygon class="cls-64" points="425 214.93 468 236.85 468 237.98 425 216.06 425 214.93"/><polygon class="cls-65" points="425 213.8 468 235.72 468 236.85 425 214.93 425 213.8"/><polygon class="cls-66" points="425 212.67 468 234.59 468 235.72 425 213.8 425 212.67"/><polygon class="cls-67" points="425 211.54 468 233.45 468 234.59 425 212.67 425 211.54"/><polygon class="cls-68" points="425 210.41 468 232.32 468 233.45 425 211.54 425 210.41"/><polygon class="cls-69" points="425 209.27 468 231.19 468 232.32 425 210.41 425 209.27"/><polygon class="cls-70" points="425 208.14 468 230.06 468 231.19 425 209.27 425 208.14"/><polygon class="cls-71" points="425 207.01 468 228.93 468 230.06 425 208.14 425 207.01"/><polygon class="cls-72" points="425 205.88 468 227.8 468 228.93 425 207.01 425 205.88"/><polygon class="cls-73" points="425 204.75 468 226.67 468 227.8 425 205.88 425 204.75"/><polygon class="cls-74" points="425 203.62 468 225.54 468 226.67 425 204.75 425 203.62"/><polygon class="cls-75" points="425 202.49 468 224.41 468 225.54 425 203.62 425 202.49"/><polygon class="cls-76" points="425 201.36 468 223.28 468 224.41 425 202.49 425 201.36"/><polygon class="cls-77" points="425 200.23 468 222.14 468 223.28 425 201.36 425 200.23"/><polygon class="cls-78" points="425 199.09 468 221.01 468 222.14 425 200.23 425 199.09"/><polygon class="cls-79" points="425 197.96 468 219.88 468 221.01 425 199.09 425 197.96"/><polygon class="cls-80" points="425 196.83 468 218.75 468 219.88 425 197.96 425 196.83"/><polygon class="cls-81" points="425 195.7 468 217.62 468 218.75 425 196.83 425 195.7"/><polygon class="cls-82" points="425 194.57 468 216.49 468 217.62 425 195.7 425 194.57"/><polygon class="cls-83" points="425 193.44 468 215.36 468 216.49 425 194.57 425 193.44"/><polygon class="cls-84" points="425 192.31 468 214.23 468 215.36 425 193.44 425 192.31"/><polygon class="cls-85" points="425 191.18 468 213.09 468 214.23 425 192.31 425 191.18"/><polygon class="cls-86" points="425 190.05 468 211.96 468 213.09 425 191.18 425 190.05"/><polygon class="cls-87" points="425 188.91 468 210.83 468 211.96 425 190.05 425 188.91"/><polygon class="cls-88" points="425 187.78 468 209.7 468 210.83 425 188.91 425 187.78"/><polygon class="cls-89" points="425 186.65 468 208.57 468 209.7 425 187.78 425 186.65"/><polygon class="cls-90" points="425 185.52 468 207.44 468 208.57 425 186.65 425 185.52"/><polygon class="cls-91" points="425 184.39 468 206.31 468 207.44 425 185.52 425 184.39"/><polygon class="cls-92" points="425 183.26 468 205.18 468 206.31 425 184.39 425 183.26"/><polygon class="cls-93" points="425 182.13 468 204.05 468 205.18 425 183.26 425 182.13"/><polygon class="cls-94" points="425 181 468 202.92 468 204.05 425 182.13 425 181"/><polygon class="cls-95" points="425 179.87 468 201.78 468 202.92 425 181 425 179.87"/><polygon class="cls-96" points="425 178.74 468 200.65 468 201.78 425 179.87 425 178.74"/><polygon class="cls-97" points="425 177.6 468 199.52 468 200.65 425 178.74 425 177.6"/><polygon class="cls-98" points="425 176.47 468 198.39 468 199.52 425 177.6 425 176.47"/><polygon class="cls-99" points="425 175.34 468 197.26 468 198.39 425 176.47 425 175.34"/><polygon class="cls-100" points="425 174.21 468 196.13 468 197.26 425 175.34 425 174.21"/><polygon class="cls-101" points="425 173.08 468 195 468 196.13 425 174.21 425 173.08"/><polygon class="cls-102" points="425 171.95 468 193.87 468 195 425 173.08 425 171.95"/><polygon class="cls-103" points="425 170.82 468 192.74 468 193.87 425 171.95 425 170.82"/><polygon class="cls-104" points="425 169.69 468 191.61 468 192.74 425 170.82 425 169.69"/><polygon class="cls-105" points="425 168.56 468 190.47 468 191.61 425 169.69 425 168.56"/><polygon class="cls-106" points="425 167.43 468 189.34 468 190.47 425 168.56 425 167.43"/><polygon class="cls-107" points="425 166.29 468 188.21 468 189.34 425 167.43 425 166.29"/><polygon class="cls-108" points="425 165.16 468 187.08 468 188.21 425 166.29 425 165.16"/><polygon class="cls-109" points="425 164.03 468 185.95 468 187.08 425 165.16 425 164.03"/><polygon class="cls-110" points="425 162.9 468 184.82 468 185.95 425 164.03 425 162.9"/><polygon class="cls-111" points="425 161.77 468 183.69 468 184.82 425 162.9 425 161.77"/><polygon class="cls-112" points="425 160.64 468 182.56 468 183.69 425 161.77 425 160.64"/><polygon class="cls-113" points="425 159.51 468 181.43 468 182.56 425 160.64 425 159.51"/><polygon class="cls-114" points="425 158.38 468 180.29 468 181.43 425 159.51 425 158.38"/><polygon class="cls-115" points="425 157.25 468 179.16 468 180.29 425 158.38 425 157.25"/><polygon class="cls-116" points="425 156.12 468 178.03 468 179.16 425 157.25 425 156.12"/><polygon class="cls-117" points="425 154.98 468 176.9 468 178.03 425 156.12 425 154.98"/><polygon class="cls-118" points="425 153.85 468 175.77 468 176.9 425 154.98 425 153.85"/><polygon class="cls-119" points="425 152.72 468 174.64 468 175.77 425 153.85 425 152.72"/><polygon class="cls-120" points="425 151.59 468 173.51 468 174.64 425 152.72 425 151.59"/><polygon class="cls-121" points="425 150.46 468 172.38 468 173.51 425 151.59 425 150.46"/><polygon class="cls-122" points="425 149.33 468 171.25 468 172.38 425 150.46 425 149.33"/><polygon class="cls-123" points="425 148.2 468 170.12 468 171.25 425 149.33 425 148.2"/><polygon class="cls-124" points="425 147.07 468 168.99 468 170.12 425 148.2 425 147.07"/><polygon class="cls-125" points="425 145.94 468 167.85 468 168.99 425 147.07 425 145.94"/><polygon class="cls-126" points="425 144.81 468 166.72 468 167.85 425 145.94 425 144.81"/><polygon class="cls-127" points="425 143.67 468 165.59 468 166.72 425 144.81 425 143.67"/><polygon class="cls-128" points="425 142.54 468 164.46 468 165.59 425 143.67 425 142.54"/><polygon class="cls-129" points="425 141.41 468 163.33 468 164.46 425 142.54 425 141.41"/><polygon class="cls-130" points="425 140.28 468 162.2 468 163.33 425 141.41 425 140.28"/><polygon class="cls-131" points="425 139.15 468 161.07 468 162.2 425 140.28 425 139.15"/><polygon class="cls-132" points="425 138.02 468 159.94 468 161.07 425 139.15 425 138.02"/><polygon class="cls-133" points="425 136.89 468 158.81 468 159.94 425 138.02 425 136.89"/><polygon class="cls-134" points="425 135.76 468 157.67 468 158.81 425 136.89 425 135.76"/><polygon class="cls-135" points="425 134.63 468 156.54 468 157.67 425 135.76 425 134.63"/><polygon class="cls-136" points="425 133.49 468 155.41 468 156.54 425 134.63 425 133.49"/><polygon class="cls-137" points="425 132.36 468 154.28 468 155.41 425 133.49 425 132.36"/><polygon class="cls-138" points="425 131.23 468 153.15 468 154.28 425 132.36 425 131.23"/><polygon class="cls-139" points="425 130.1 468 152.02 468 153.15 425 131.23 425 130.1"/><polygon class="cls-140" points="425 128.97 468 150.89 468 152.02 425 130.1 425 128.97"/><polygon class="cls-141" points="425 127.84 468 149.76 468 150.89 425 128.97 425 127.84"/><polygon class="cls-142" points="425 126.71 468 148.63 468 149.76 425 127.84 425 126.71"/><polygon class="cls-143" points="425 125.58 468 147.5 468 148.63 425 126.71 425 125.58"/><polygon class="cls-144" points="425 124.45 468 146.36 468 147.5 425 125.58 425 124.45"/><polygon class="cls-145" points="425 123.31 468 145.23 468 146.36 425 124.45 425 123.31"/><polygon class="cls-146" points="425 122.18 468 144.1 468 145.23 425 123.31 425 122.18"/><polygon class="cls-147" points="425 121.05 468 142.97 468 144.1 425 122.18 425 121.05"/><polygon class="cls-148" points="425 119.92 468 141.84 468 142.97 425 121.05 425 119.92"/><polygon class="cls-149" points="425 118.79 468 140.71 468 141.84 425 119.92 425 118.79"/><polygon class="cls-150" points="425 117.66 468 139.58 468 140.71 425 118.79 425 117.66"/><polygon class="cls-151" points="425 116.53 468 138.45 468 139.58 425 117.66 425 116.53"/><polygon class="cls-152" points="425 115.4 468 137.32 468 138.45 425 116.53 425 115.4"/><polygon class="cls-153" points="425 114.27 468 136.19 468 137.32 425 115.4 425 114.27"/><polygon class="cls-154" points="425 113.14 468 135.05 468 136.19 425 114.27 425 113.14"/><polygon class="cls-155" points="425 112 468 133.92 468 135.05 425 113.14 425 112"/><polygon class="cls-156" points="425 110.87 468 132.79 468 133.92 425 112 425 110.87"/><polygon class="cls-157" points="425 109.74 468 131.66 468 132.79 425 110.87 425 109.74"/><polygon class="cls-158" points="425 108.61 468 130.53 468 131.66 425 109.74 425 108.61"/><polygon class="cls-159" points="425 107.48 468 129.4 468 130.53 425 108.61 425 107.48"/><polygon class="cls-160" points="425 106.35 468 128.27 468 129.4 425 107.48 425 106.35"/><polygon class="cls-161" points="425 105.24 424.24 105.22 468 127.14 468 128.27 425 106.35 425 105.24"/><polygon class="cls-162" points="423.71 105.28 424.14 105 425.56 105 468 126 468 127.14 423.71 105.28"/><polygon class="cls-163" points="427.85 105 468 124.87 468 126 425.56 105 427.85 105"/><polygon class="cls-164" points="430.15 105 468 123.74 468 124.87 427.85 105 430.15 105"/><polygon class="cls-165" points="432.45 105 468 122.61 468 123.74 430.15 105 432.45 105"/><polygon class="cls-166" points="434.75 105 468 121.48 468 122.61 432.45 105 434.75 105"/><polygon class="cls-167" points="437.05 105 468 120.35 468 121.48 434.75 105 437.05 105"/><polygon class="cls-168" points="439.35 105 468 119.22 468 120.35 437.05 105 439.35 105"/><polygon class="cls-169" points="441.65 105 468 118.09 468 119.22 439.35 105 441.65 105"/><polygon class="cls-170" points="443.95 105 468 116.96 468 118.09 441.65 105 443.95 105"/><polygon class="cls-171" points="446.25 105 468 115.83 468 116.96 443.95 105 446.25 105"/><polygon class="cls-172" points="448.54 105 468 114.69 468 115.83 446.25 105 448.54 105"/><polygon class="cls-173" points="450.84 105 468 113.56 468 114.69 448.54 105 450.84 105"/><polygon class="cls-174" points="453.14 105 468 112.43 468 113.56 450.84 105 453.14 105"/><polygon class="cls-175" points="455.44 105 468 111.3 468 112.43 453.14 105 455.44 105"/><polygon class="cls-176" points="457.74 105 468 110.17 468 111.3 455.44 105 457.74 105"/><polygon class="cls-177" points="460.04 105 468 109.04 468 110.17 457.74 105 460.04 105"/><polygon class="cls-178" points="462.34 105 468 107.91 468 109.04 460.04 105 462.34 105"/><polygon class="cls-179" points="464.64 105 468 106.78 468 107.91 462.34 105 464.64 105"/><polygon class="cls-180" points="466.94 105 468 105.65 468 106.78 464.64 105 466.94 105"/><polygon class="cls-181" points="468.5 105.65 466.94 104.88 468.5 104.88 468.5 105.65"/></g></g><g class="cls-182"><g class="cls-183"><polygon class="cls-7" points="69.7 283 75 280.25 75 283 69.7 283"/><polygon class="cls-7" points="67.43 283 75 279.13 75 280.25 69.7 283 67.43 283"/><polygon class="cls-8" points="65.17 283 75 278.02 75 279.13 67.43 283 65.17 283"/><polygon class="cls-9" points="62.9 283 75 276.9 75 278.02 65.17 283 62.9 283"/><polygon class="cls-10" points="60.63 283 75 275.79 75 276.9 62.9 283 60.63 283"/><polygon class="cls-11" points="58.37 283 75 274.67 75 275.79 60.63 283 58.37 283"/><polygon class="cls-12" points="56.1 283 75 273.56 75 274.67 58.37 283 56.1 283"/><polygon class="cls-13" points="53.83 283 75 272.44 75 273.56 56.1 283 53.83 283"/><polygon class="cls-14" points="51.57 283 75 271.33 75 272.44 53.83 283 51.57 283"/><polygon class="cls-15" points="49.3 283 75 270.21 75 271.33 51.57 283 49.3 283"/><polygon class="cls-16" points="47.03 283 75 269.1 75 270.21 49.3 283 47.03 283"/><polygon class="cls-17" points="44.77 283 75 267.98 75 269.1 47.03 283 44.77 283"/><polygon class="cls-18" points="42.5 283 75 266.87 75 267.98 44.77 283 42.5 283"/><polygon class="cls-19" points="40.23 283 75 265.75 75 266.87 42.5 283 40.23 283"/><polygon class="cls-20" points="37.97 283 75 264.64 75 265.75 40.23 283 37.97 283"/><polygon class="cls-21" points="35.7 283 75 263.52 75 264.64 37.97 283 35.7 283"/><polygon class="cls-22" points="33.44 283 75 262.41 75 263.52 35.7 283 33.44 283"/><polygon class="cls-23" points="31.17 283 75 261.29 75 262.41 33.44 283 31.17 283"/><polygon class="cls-24" points="30 282.1 75 260.18 75 261.29 31.17 283 30 283 30 282.1"/><polygon class="cls-25" points="30 280.99 75 259.06 75 260.18 30 282.1 30 280.99"/><polygon class="cls-26" points="30 279.87 75 257.95 75 259.06 30 280.99 30 279.87"/><polygon class="cls-27" points="30 278.75 75 256.83 75 257.95 30 279.87 30 278.75"/><polygon class="cls-28" points="30 277.64 75 255.72 75 256.83 30 278.75 30 277.64"/><polygon class="cls-29" points="30 276.52 75 254.6 75 255.72 30 277.64 30 276.52"/><polygon class="cls-30" points="30 275.41 75 253.49 75 254.6 30 276.52 30 275.41"/><polygon class="cls-31" points="30 274.3 75 252.37 75 253.49 30 275.41 30 274.3"/><polygon class="cls-32" points="30 273.18 75 251.25 75 252.37 30 274.3 30 273.18"/><polygon class="cls-33" points="30 272.06 75 250.14 75 251.25 30 273.18 30 272.06"/><polygon class="cls-34" points="30 270.95 75 249.03 75 250.14 30 272.06 30 270.95"/><polygon class="cls-35" points="30 269.83 75 247.91 75 249.03 30 270.95 30 269.83"/><polygon class="cls-36" points="30 268.72 75 246.79 75 247.91 30 269.83 30 268.72"/><polygon class="cls-37" points="30 267.6 75 245.68 75 246.79 30 268.72 30 267.6"/><polygon class="cls-38" points="30 266.49 75 244.56 75 245.68 30 267.6 30 266.49"/><polygon class="cls-39" points="30 265.37 75 243.45 75 244.56 30 266.49 30 265.37"/><polygon class="cls-40" points="30 264.26 75 242.33 75 243.45 30 265.37 30 264.26"/><polygon class="cls-41" points="30 263.14 75 241.22 75 242.33 30 264.26 30 263.14"/><polygon class="cls-42" points="30 262.03 75 240.1 75 241.22 30 263.14 30 262.03"/><polygon class="cls-43" points="30 260.91 75 238.99 75 240.1 30 262.03 30 260.91"/><polygon class="cls-44" points="30 259.8 75 237.87 75 238.99 30 260.91 30 259.8"/><polygon class="cls-45" points="30 258.68 75 236.76 75 237.87 30 259.8 30 258.68"/><polygon class="cls-46" points="30 257.57 75 235.64 75 236.76 30 258.68 30 257.57"/><polygon class="cls-47" points="30 256.45 75 234.53 75 235.64 30 257.57 30 256.45"/><polygon class="cls-48" points="30 255.34 75 233.41 75 234.53 30 256.45 30 255.34"/><polygon class="cls-49" points="30 254.22 75 232.3 75 233.41 30 255.34 30 254.22"/><polygon class="cls-50" points="30 253.11 75 231.18 75 232.3 30 254.22 30 253.11"/><polygon class="cls-51" points="30 251.99 75 230.07 75 231.18 30 253.11 30 251.99"/><polygon class="cls-52" points="30 250.88 75 228.95 75 230.07 30 251.99 30 250.88"/><polygon class="cls-53" points="30 249.76 75 227.84 75 228.95 30 250.88 30 249.76"/><polygon class="cls-54" points="30 248.65 75 226.72 75 227.84 30 249.76 30 248.65"/><polygon class="cls-55" points="30 247.53 75 225.61 75 226.72 30 248.65 30 247.53"/><polygon class="cls-56" points="30 246.42 75 224.49 75 225.61 30 247.53 30 246.42"/><polygon class="cls-57" points="30 245.3 75 223.38 75 224.49 30 246.42 30 245.3"/><polygon class="cls-58" points="30 244.19 75 222.26 75 223.38 30 245.3 30 244.19"/><polygon class="cls-59" points="30 243.07 75 221.15 75 222.26 30 244.19 30 243.07"/><polygon class="cls-60" points="30 241.96 75 220.03 75 221.15 30 243.07 30 241.96"/><polygon class="cls-61" points="30 240.84 75 218.92 75 220.03 30 241.96 30 240.84"/><polygon class="cls-62" points="30 239.73 75 217.8 75 218.92 30 240.84 30 239.73"/><polygon class="cls-63" points="30 238.61 75 216.69 75 217.8 30 239.73 30 238.61"/><polygon class="cls-64" points="30 237.5 75 215.57 75 216.69 30 238.61 30 237.5"/><polygon class="cls-65" points="30 236.38 75 214.46 75 215.57 30 237.5 30 236.38"/><polygon class="cls-66" points="30 235.27 75 213.34 75 214.46 30 236.38 30 235.27"/><polygon class="cls-67" points="30 234.15 75 212.23 75 213.34 30 235.27 30 234.15"/><polygon class="cls-68" points="30 233.03 75 211.11 75 212.23 30 234.15 30 233.03"/><polygon class="cls-69" points="30 231.92 75 210 75 211.11 30 233.03 30 231.92"/><polygon class="cls-70" points="30 230.81 75 208.88 75 210 30 231.92 30 230.81"/><polygon class="cls-71" points="30 229.69 75 207.77 75 208.88 30 230.81 30 229.69"/><polygon class="cls-72" points="30 228.57 75 206.65 75 207.77 30 229.69 30 228.57"/><polygon class="cls-73" points="30 227.46 75 205.54 75 206.65 30 228.57 30 227.46"/><polygon class="cls-74" points="30 226.34 75 204.42 75 205.54 30 227.46 30 226.34"/><polygon class="cls-75" points="30 225.23 75 203.31 75 204.42 30 226.34 30 225.23"/><polygon class="cls-76" points="30 224.12 75 202.19 75 203.31 30 225.23 30 224.12"/><polygon class="cls-77" points="30 223 75 201.07 75 202.19 30 224.12 30 223"/><polygon class="cls-78" points="30 221.88 75 199.96 75 201.07 30 223 30 221.88"/><polygon class="cls-79" points="30 220.77 75 198.84 75 199.96 30 221.88 30 220.77"/><polygon class="cls-80" points="30 219.65 75 197.73 75 198.84 30 220.77 30 219.65"/><polygon class="cls-81" points="30 218.54 75 196.62 75 197.73 30 219.65 30 218.54"/><polygon class="cls-82" points="30 217.42 75 195.5 75 196.62 30 218.54 30 217.42"/><polygon class="cls-83" points="30 216.31 75 194.38 75 195.5 30 217.42 30 216.31"/><polygon class="cls-84" points="30 215.19 75 193.27 75 194.38 30 216.31 30 215.19"/><polygon class="cls-85" points="30 214.08 75 192.15 75 193.27 30 215.19 30 214.08"/><polygon class="cls-86" points="30 212.96 75 191.04 75 192.15 30 214.08 30 212.96"/><polygon class="cls-87" points="30 211.85 75 189.92 75 191.04 30 212.96 30 211.85"/><polygon class="cls-88" points="30 210.73 75 188.81 75 189.92 30 211.85 30 210.73"/><polygon class="cls-89" points="30 209.62 75 187.69 75 188.81 30 210.73 30 209.62"/><polygon class="cls-90" points="30 208.5 75 186.58 75 187.69 30 209.62 30 208.5"/><polygon class="cls-91" points="30 207.39 75 185.46 75 186.58 30 208.5 30 207.39"/><polygon class="cls-92" points="30 206.27 75 184.35 75 185.46 30 207.39 30 206.27"/><polygon class="cls-93" points="30 205.16 75 183.23 75 184.35 30 206.27 30 205.16"/><polygon class="cls-94" points="30 204.04 75 182.12 75 183.23 30 205.16 30 204.04"/><polygon class="cls-95" points="30 202.93 75 181 75 182.12 30 204.04 30 202.93"/><polygon class="cls-96" points="30 201.81 75 179.89 75 181 30 202.93 30 201.81"/><polygon class="cls-97" points="30 200.7 75 178.77 75 179.89 30 201.81 30 200.7"/><polygon class="cls-98" points="30 199.58 75 177.66 75 178.77 30 200.7 30 199.58"/><polygon class="cls-99" points="30 198.47 75 176.54 75 177.66 30 199.58 30 198.47"/><polygon class="cls-100" points="30 197.35 75 175.43 75 176.54 30 198.47 30 197.35"/><polygon class="cls-101" points="30 196.24 75 174.31 75 175.43 30 197.35 30 196.24"/><polygon class="cls-102" points="30 195.12 75 173.2 75 174.31 30 196.24 30 195.12"/><polygon class="cls-103" points="30 194.01 75 172.08 75 173.2 30 195.12 30 194.01"/><polygon class="cls-104" points="30 192.89 75 170.97 75 172.08 30 194.01 30 192.89"/><polygon class="cls-105" points="30 191.78 75 169.85 75 170.97 30 192.89 30 191.78"/><polygon class="cls-106" points="30 190.66 75 168.74 75 169.85 30 191.78 30 190.66"/><polygon class="cls-107" points="30 189.55 75 167.62 75 168.74 30 190.66 30 189.55"/><polygon class="cls-108" points="30 188.43 75 166.51 75 167.62 30 189.55 30 188.43"/><polygon class="cls-109" points="30 187.32 75 165.39 75 166.51 30 188.43 30 187.32"/><polygon class="cls-110" points="30 186.2 75 164.28 75 165.39 30 187.32 30 186.2"/><polygon class="cls-111" points="30 185.09 75 163.16 75 164.28 30 186.2 30 185.09"/><polygon class="cls-112" points="30 183.97 75 162.05 75 163.16 30 185.09 30 183.97"/><polygon class="cls-113" points="30 182.85 75 160.93 75 162.05 30 183.97 30 182.85"/><polygon class="cls-114" points="30 181.74 75 159.82 75 160.93 30 182.85 30 181.74"/><polygon class="cls-115" points="30 180.63 75 158.7 75 159.82 30 181.74 30 180.63"/><polygon class="cls-116" points="30 179.51 75 157.59 75 158.7 30 180.63 30 179.51"/><polygon class="cls-117" points="30 178.4 75 156.47 75 157.59 30 179.51 30 178.4"/><polygon class="cls-118" points="30 177.28 75 155.36 75 156.47 30 178.4 30 177.28"/><polygon class="cls-119" points="30 176.16 75 154.24 75 155.36 30 177.28 30 176.16"/><polygon class="cls-120" points="30 175.05 75 153.13 75 154.24 30 176.16 30 175.05"/><polygon class="cls-121" points="30 173.93 75 152.01 75 153.13 30 175.05 30 173.93"/><polygon class="cls-122" points="30 172.82 75 150.9 75 152.01 30 173.93 30 172.82"/><polygon class="cls-123" points="30 171.7 75 149.78 75 150.9 30 172.82 30 171.7"/><polygon class="cls-124" points="30 170.59 75 148.66 75 149.78 30 171.7 30 170.59"/><polygon class="cls-125" points="30 169.47 75 147.55 75 148.66 30 170.59 30 169.47"/><polygon class="cls-126" points="30 168.36 75 146.44 75 147.55 30 169.47 30 168.36"/><polygon class="cls-127" points="30 167.24 75 145.32 75 146.44 30 168.36 30 167.24"/><polygon class="cls-128" points="30 166.13 75 144.21 75 145.32 30 167.24 30 166.13"/><polygon class="cls-129" points="30 165.01 75 143.09 75 144.21 30 166.13 30 165.01"/><polygon class="cls-130" points="30 163.9 75 141.97 75 143.09 30 165.01 30 163.9"/><polygon class="cls-131" points="30 162.78 75 140.86 75 141.97 30 163.9 30 162.78"/><polygon class="cls-132" points="30 161.67 75 139.74 75 140.86 30 162.78 30 161.67"/><polygon class="cls-133" points="30 160.55 75 138.63 75 139.74 30 161.67 30 160.55"/><polygon class="cls-134" points="30 159.44 75 137.51 75 138.63 30 160.55 30 159.44"/><polygon class="cls-135" points="30 158.32 75 136.4 75 137.51 30 159.44 30 158.32"/><polygon class="cls-136" points="30 157.21 75 135.28 75 136.4 30 158.32 30 157.21"/><polygon class="cls-137" points="30 156.09 75 134.17 75 135.28 30 157.21 30 156.09"/><polygon class="cls-138" points="30 154.98 75 133.05 75 134.17 30 156.09 30 154.98"/><polygon class="cls-139" points="30 153.86 75 131.94 75 133.05 30 154.98 30 153.86"/><polygon class="cls-140" points="30 152.75 75 130.82 75 131.94 30 153.86 30 152.75"/><polygon class="cls-141" points="30 151.63 75 129.71 75 130.82 30 152.75 30 151.63"/><polygon class="cls-142" points="30 150.52 75 128.59 75 129.71 30 151.63 30 150.52"/><polygon class="cls-143" points="30 149.4 75 127.48 75 128.59 30 150.52 30 149.4"/><polygon class="cls-144" points="30 148.29 75 126.36 75 127.48 30 149.4 30 148.29"/><polygon class="cls-145" points="30 147.17 75 125.25 75 126.36 30 148.29 30 147.17"/><polygon class="cls-146" points="30 146.06 75 124.13 75 125.25 30 147.17 30 146.06"/><polygon class="cls-147" points="30 144.94 75 123.02 75 124.13 30 146.06 30 144.94"/><polygon class="cls-148" points="30 143.83 75 121.9 75 123.02 30 144.94 30 143.83"/><polygon class="cls-149" points="30 142.71 75 120.79 75 121.9 30 143.83 30 142.71"/><polygon class="cls-150" points="30 141.6 75 119.67 75 120.79 30 142.71 30 141.6"/><polygon class="cls-151" points="30 140.48 75 118.56 75 119.67 30 141.6 30 140.48"/><polygon class="cls-152" points="30 139.37 75 117.44 75 118.56 30 140.48 30 139.37"/><polygon class="cls-153" points="30 138.25 75 116.33 75 117.44 30 139.37 30 138.25"/><polygon class="cls-154" points="30 137.14 75 115.21 75 116.33 30 138.25 30 137.14"/><polygon class="cls-155" points="30 136.02 75 114.1 75 115.21 30 137.14 30 136.02"/><polygon class="cls-156" points="30 134.91 75 112.98 75 114.1 30 136.02 30 134.91"/><polygon class="cls-157" points="30 133.79 75 111.87 75 112.98 30 134.91 30 133.79"/><polygon class="cls-158" points="30 132.68 75 110.75 75 111.87 30 133.79 30 132.68"/><polygon class="cls-159" points="30 131.56 75 109.64 75 110.75 30 132.68 30 131.56"/><polygon class="cls-160" points="30 130.44 75 108.52 75 109.64 30 131.56 30 130.44"/><polygon class="cls-161" points="30 129.33 75 107.41 75 108.52 30 130.44 30 129.33"/><polygon class="cls-162" points="30 128.22 75 106.29 75 107.41 30 129.33 30 128.22"/><polygon class="cls-163" points="30 127.1 74.75 105.19 75 105.25 75 106.29 30 128.22 30 127.1"/><polygon class="cls-164" points="30 125.98 73.41 105 74.88 105 74.78 105.25 30 127.1 30 125.98"/><polygon class="cls-165" points="30 124.87 71.15 105 73.41 105 30 125.98 30 124.87"/><polygon class="cls-166" points="30 123.75 68.88 105 71.15 105 30 124.87 30 123.75"/><polygon class="cls-167" points="30 122.64 66.61 105 68.88 105 30 123.75 30 122.64"/><polygon class="cls-168" points="30 121.52 64.35 105 66.61 105 30 122.64 30 121.52"/><polygon class="cls-169" points="30 120.41 62.08 105 64.35 105 30 121.52 30 120.41"/><polygon class="cls-170" points="30 119.29 59.81 105 62.08 105 30 120.41 30 119.29"/><polygon class="cls-171" points="30 118.18 57.55 105 59.81 105 30 119.29 30 118.18"/><polygon class="cls-172" points="30 117.06 55.28 105 57.55 105 30 118.18 30 117.06"/><polygon class="cls-173" points="30 115.95 53.01 105 55.28 105 30 117.06 30 115.95"/><polygon class="cls-174" points="30 114.83 50.75 105 53.01 105 30 115.95 30 114.83"/><polygon class="cls-175" points="30 113.72 48.48 105 50.75 105 30 114.83 30 113.72"/><polygon class="cls-176" points="30 112.6 46.21 105 48.48 105 30 113.72 30 112.6"/><polygon class="cls-177" points="30 111.49 43.95 105 46.21 105 30 112.6 30 111.49"/><polygon class="cls-178" points="30 110.37 41.68 105 43.95 105 30 111.49 30 110.37"/><polygon class="cls-179" points="30 109.26 39.41 105 41.68 105 30 110.37 30 109.26"/><polygon class="cls-180" points="30 108.14 37.15 105 39.41 105 30 109.26 30 108.14"/><polygon class="cls-181" points="30 107.03 34.88 105 37.15 105 30 108.14 30 107.03"/><polygon class="cls-184" points="30 105.91 32.61 105 34.88 105 30 107.03 30 105.91"/><polygon class="cls-185" points="32.61 105 30 105.91 30 105 32.61 105"/></g></g><g class="cls-5"><g class="cls-186"><polygon class="cls-7" points="168.44 341 160 379.51 160 341 168.44 341"/><polygon class="cls-7" points="169.18 341 160 382.78 160 379.51 168.44 341 169.18 341"/><polygon class="cls-8" points="169.92 341 160 386.06 160 382.78 169.18 341 169.92 341"/><polygon class="cls-9" points="170.66 341 160 389.33 160 386.06 169.92 341 170.66 341"/><polygon class="cls-10" points="171.4 341 160 392.6 160 389.33 170.66 341 171.4 341"/><polygon class="cls-11" points="172.14 341 160 395.87 160 392.6 171.4 341 172.14 341"/><polygon class="cls-12" points="172.88 341 160 399.14 160 395.87 172.14 341 172.88 341"/><polygon class="cls-13" points="173.62 341 160 402.41 160 399.14 172.88 341 173.62 341"/><polygon class="cls-14" points="174.36 341 159.89 405 160 405 160 402.41 173.62 341 174.36 341"/><polygon class="cls-15" points="175.1 341 160.63 405 159.89 405 174.36 341 175.1 341"/><polygon class="cls-16" points="175.84 341 161.37 405 160.63 405 175.1 341 175.84 341"/><polygon class="cls-17" points="176.59 341 162.11 405 161.37 405 175.84 341 176.59 341"/><polygon class="cls-18" points="177.33 341 162.85 405 162.11 405 176.59 341 177.33 341"/><polygon class="cls-19" points="178.07 341 163.59 405 162.85 405 177.33 341 178.07 341"/><polygon class="cls-20" points="178.81 341 164.33 405 163.59 405 178.07 341 178.81 341"/><polygon class="cls-21" points="179.55 341 165.07 405 164.33 405 178.81 341 179.55 341"/><polygon class="cls-22" points="180.29 341 165.81 405 165.07 405 179.55 341 180.29 341"/><polygon class="cls-23" points="181.03 341 166.55 405 165.81 405 180.29 341 181.03 341"/><polygon class="cls-24" points="181.77 341 167.29 405 166.55 405 181.03 341 181.77 341"/><polygon class="cls-25" points="182.51 341 168.03 405 167.29 405 181.77 341 182.51 341"/><polygon class="cls-26" points="183.25 341 168.78 405 168.03 405 182.51 341 183.25 341"/><polygon class="cls-27" points="183.99 341 169.52 405 168.78 405 183.25 341 183.99 341"/><polygon class="cls-28" points="184.74 341 170.26 405 169.52 405 183.99 341 184.74 341"/><polygon class="cls-29" points="185.48 341 171 405 170.26 405 184.74 341 185.48 341"/><polygon class="cls-30" points="186.22 341 171.74 405 171 405 185.48 341 186.22 341"/><polygon class="cls-31" points="186.96 341 172.48 405 171.74 405 186.22 341 186.96 341"/><polygon class="cls-32" points="187.7 341 173.22 405 172.48 405 186.96 341 187.7 341"/><polygon class="cls-33" points="188.44 341 173.96 405 173.22 405 187.7 341 188.44 341"/><polygon class="cls-34" points="189.18 341 174.7 405 173.96 405 188.44 341 189.18 341"/><polygon class="cls-35" points="189.92 341 175.44 405 174.7 405 189.18 341 189.92 341"/><polygon class="cls-36" points="190.66 341 176.19 405 175.44 405 189.92 341 190.66 341"/><polygon class="cls-37" points="191.4 341 176.93 405 176.19 405 190.66 341 191.4 341"/><polygon class="cls-38" points="192.14 341 177.67 405 176.93 405 191.4 341 192.14 341"/><polygon class="cls-39" points="192.88 341 178.41 405 177.67 405 192.14 341 192.88 341"/><polygon class="cls-40" points="193.63 341 179.15 405 178.41 405 192.88 341 193.63 341"/><polygon class="cls-41" points="194.37 341 179.89 405 179.15 405 193.63 341 194.37 341"/><polygon class="cls-42" points="195.11 341 180.63 405 179.89 405 194.37 341 195.11 341"/><polygon class="cls-43" points="195.85 341 181.37 405 180.63 405 195.11 341 195.85 341"/><polygon class="cls-44" points="196.59 341 182.11 405 181.37 405 195.85 341 196.59 341"/><polygon class="cls-45" points="197.33 341 182.85 405 182.11 405 196.59 341 197.33 341"/><polygon class="cls-46" points="198.07 341 183.59 405 182.85 405 197.33 341 198.07 341"/><polygon class="cls-47" points="198.81 341 184.33 405 183.59 405 198.07 341 198.81 341"/><polygon class="cls-48" points="199.55 341 185.07 405 184.33 405 198.81 341 199.55 341"/><polygon class="cls-49" points="200.29 341 185.82 405 185.07 405 199.55 341 200.29 341"/><polygon class="cls-50" points="201.03 341 186.56 405 185.82 405 200.29 341 201.03 341"/><polygon class="cls-51" points="201.78 341 187.3 405 186.56 405 201.03 341 201.78 341"/><polygon class="cls-52" points="202.52 341 188.04 405 187.3 405 201.78 341 202.52 341"/><polygon class="cls-53" points="203.26 341 188.78 405 188.04 405 202.52 341 203.26 341"/><polygon class="cls-54" points="204 341 189.52 405 188.78 405 203.26 341 204 341"/><polygon class="cls-55" points="204.74 341 190.26 405 189.52 405 204 341 204.74 341"/><polygon class="cls-56" points="205.48 341 191 405 190.26 405 204.74 341 205.48 341"/><polygon class="cls-57" points="206.22 341 191.74 405 191 405 205.48 341 206.22 341"/><polygon class="cls-58" points="206.96 341 192.48 405 191.74 405 206.22 341 206.96 341"/><polygon class="cls-59" points="207.7 341 193.22 405 192.48 405 206.96 341 207.7 341"/><polygon class="cls-60" points="208.44 341 193.97 405 193.22 405 207.7 341 208.44 341"/><polygon class="cls-61" points="209.18 341 194.71 405 193.97 405 208.44 341 209.18 341"/><polygon class="cls-62" points="209.92 341 195.45 405 194.71 405 209.18 341 209.92 341"/><polygon class="cls-63" points="210.66 341 196.19 405 195.45 405 209.92 341 210.66 341"/><polygon class="cls-64" points="211.41 341 196.93 405 196.19 405 210.66 341 211.41 341"/><polygon class="cls-65" points="212.15 341 197.67 405 196.93 405 211.41 341 212.15 341"/><polygon class="cls-66" points="212.89 341 198.41 405 197.67 405 212.15 341 212.89 341"/><polygon class="cls-67" points="213.63 341 199.15 405 198.41 405 212.89 341 213.63 341"/><polygon class="cls-68" points="214.37 341 199.89 405 199.15 405 213.63 341 214.37 341"/><polygon class="cls-69" points="215.11 341 200.63 405 199.89 405 214.37 341 215.11 341"/><polygon class="cls-70" points="215.85 341 201.37 405 200.63 405 215.11 341 215.85 341"/><polygon class="cls-71" points="216.59 341 202.12 405 201.37 405 215.85 341 216.59 341"/><polygon class="cls-72" points="217.33 341 202.86 405 202.12 405 216.59 341 217.33 341"/><polygon class="cls-73" points="218.07 341 203.6 405 202.86 405 217.33 341 218.07 341"/><polygon class="cls-74" points="218.81 341 204.34 405 203.6 405 218.07 341 218.81 341"/><polygon class="cls-75" points="219.56 341 205.08 405 204.34 405 218.81 341 219.56 341"/><polygon class="cls-76" points="220.3 341 205.82 405 205.08 405 219.56 341 220.3 341"/><polygon class="cls-77" points="221.04 341 206.56 405 205.82 405 220.3 341 221.04 341"/><polygon class="cls-78" points="221.78 341 207.3 405 206.56 405 221.04 341 221.78 341"/><polygon class="cls-79" points="222.52 341 208.04 405 207.3 405 221.78 341 222.52 341"/><polygon class="cls-80" points="223.26 341 208.78 405 208.04 405 222.52 341 223.26 341"/><polygon class="cls-81" points="224 341 209.52 405 208.78 405 223.26 341 224 341"/><polygon class="cls-82" points="224.74 341 210.26 405 209.52 405 224 341 224.74 341"/><polygon class="cls-83" points="225.48 341 211 405 210.26 405 224.74 341 225.48 341"/><polygon class="cls-84" points="226.22 341 211.75 405 211 405 225.48 341 226.22 341"/><polygon class="cls-85" points="226.96 341 212.49 405 211.75 405 226.22 341 226.96 341"/><polygon class="cls-86" points="227.71 341 213.23 405 212.49 405 226.96 341 227.71 341"/><polygon class="cls-87" points="228.45 341 213.97 405 213.23 405 227.71 341 228.45 341"/><polygon class="cls-88" points="229.19 341 214.71 405 213.97 405 228.45 341 229.19 341"/><polygon class="cls-89" points="229.93 341 215.45 405 214.71 405 229.19 341 229.93 341"/><polygon class="cls-90" points="230.67 341 216.19 405 215.45 405 229.93 341 230.67 341"/><polygon class="cls-91" points="231.41 341 216.93 405 216.19 405 230.67 341 231.41 341"/><polygon class="cls-92" points="232.15 341 217.67 405 216.93 405 231.41 341 232.15 341"/><polygon class="cls-93" points="232.89 341 218.41 405 217.67 405 232.15 341 232.89 341"/><polygon class="cls-94" points="233.63 341 219.16 405 218.41 405 232.89 341 233.63 341"/><polygon class="cls-95" points="234.37 341 219.9 405 219.16 405 233.63 341 234.37 341"/><polygon class="cls-96" points="235.11 341 220.64 405 219.9 405 234.37 341 235.11 341"/><polygon class="cls-97" points="235.85 341 221.38 405 220.64 405 235.11 341 235.85 341"/><polygon class="cls-98" points="236.59 341 222.12 405 221.38 405 235.85 341 236.59 341"/><polygon class="cls-99" points="237.34 341 222.86 405 222.12 405 236.59 341 237.34 341"/><polygon class="cls-100" points="238.08 341 223.6 405 222.86 405 237.34 341 238.08 341"/><polygon class="cls-101" points="238.82 341 224.34 405 223.6 405 238.08 341 238.82 341"/><polygon class="cls-102" points="239.56 341 225.08 405 224.34 405 238.82 341 239.56 341"/><polygon class="cls-103" points="240.3 341 225.82 405 225.08 405 239.56 341 240.3 341"/><polygon class="cls-104" points="241.04 341 226.56 405 225.82 405 240.3 341 241.04 341"/><polygon class="cls-105" points="241.78 341 227.3 405 226.56 405 241.04 341 241.78 341"/><polygon class="cls-106" points="242.52 341 228.04 405 227.3 405 241.78 341 242.52 341"/><polygon class="cls-107" points="243.26 341 228.79 405 228.04 405 242.52 341 243.26 341"/><polygon class="cls-108" points="244 341 229.53 405 228.79 405 243.26 341 244 341"/><polygon class="cls-109" points="244.75 341 230.27 405 229.53 405 244 341 244.75 341"/><polygon class="cls-110" points="245.49 341 231.01 405 230.27 405 244.75 341 245.49 341"/><polygon class="cls-111" points="246.23 341 231.75 405 231.01 405 245.49 341 246.23 341"/><polygon class="cls-112" points="246.97 341 232.49 405 231.75 405 246.23 341 246.97 341"/><polygon class="cls-113" points="247.71 341 233.23 405 232.49 405 246.97 341 247.71 341"/><polygon class="cls-114" points="248.45 341 233.97 405 233.23 405 247.71 341 248.45 341"/><polygon class="cls-115" points="249.19 341 234.71 405 233.97 405 248.45 341 249.19 341"/><polygon class="cls-116" points="249.93 341 235.45 405 234.71 405 249.19 341 249.93 341"/><polygon class="cls-117" points="250.67 341 236.19 405 235.45 405 249.93 341 250.67 341"/><polygon class="cls-118" points="251.41 341 236.94 405 236.19 405 250.67 341 251.41 341"/><polygon class="cls-119" points="252.15 341 237.68 405 236.94 405 251.41 341 252.15 341"/><polygon class="cls-120" points="252.89 341 238.42 405 237.68 405 252.15 341 252.89 341"/><polygon class="cls-121" points="253.63 341 239.16 405 238.42 405 252.89 341 253.63 341"/><polygon class="cls-122" points="254.38 341 239.9 405 239.16 405 253.63 341 254.38 341"/><polygon class="cls-123" points="255.12 341 240.64 405 239.9 405 254.38 341 255.12 341"/><polygon class="cls-124" points="255.86 341 241.38 405 240.64 405 255.12 341 255.86 341"/><polygon class="cls-125" points="256.6 341 242.12 405 241.38 405 255.86 341 256.6 341"/><polygon class="cls-126" points="257.34 341 242.86 405 242.12 405 256.6 341 257.34 341"/><polygon class="cls-127" points="258.08 341 243.6 405 242.86 405 257.34 341 258.08 341"/><polygon class="cls-128" points="258.82 341 244.34 405 243.6 405 258.08 341 258.82 341"/><polygon class="cls-129" points="259.56 341 245.09 405 244.34 405 258.82 341 259.56 341"/><polygon class="cls-130" points="260.3 341 245.83 405 245.09 405 259.56 341 260.3 341"/><polygon class="cls-131" points="261.04 341 246.57 405 245.83 405 260.3 341 261.04 341"/><polygon class="cls-132" points="261.79 341 247.31 405 246.57 405 261.04 341 261.79 341"/><polygon class="cls-133" points="262.53 341 248.05 405 247.31 405 261.79 341 262.53 341"/><polygon class="cls-134" points="263.27 341 248.79 405 248.05 405 262.53 341 263.27 341"/><polygon class="cls-135" points="264.01 341 249.53 405 248.79 405 263.27 341 264.01 341"/><polygon class="cls-136" points="264.75 341 250.27 405 249.53 405 264.01 341 264.75 341"/><polygon class="cls-137" points="265.49 341 251.01 405 250.27 405 264.75 341 265.49 341"/><polygon class="cls-138" points="266.23 341 251.75 405 251.01 405 265.49 341 266.23 341"/><polygon class="cls-139" points="266.97 341 252.49 405 251.75 405 266.23 341 266.97 341"/><polygon class="cls-140" points="267.71 341 253.24 405 252.49 405 266.97 341 267.71 341"/><polygon class="cls-141" points="268.45 341 253.97 405 253.24 405 267.71 341 268.45 341"/><polygon class="cls-142" points="269.19 341 254.72 405 253.97 405 268.45 341 269.19 341"/><polygon class="cls-143" points="269.93 341 255.46 405 254.72 405 269.19 341 269.93 341"/><polygon class="cls-144" points="270.68 341 256.2 405 255.46 405 269.93 341 270.68 341"/><polygon class="cls-145" points="271.42 341 256.94 405 256.2 405 270.68 341 271.42 341"/><polygon class="cls-146" points="272.16 341 257.68 405 256.94 405 271.42 341 272.16 341"/><polygon class="cls-147" points="272.9 341 258.42 405 257.68 405 272.16 341 272.9 341"/><polygon class="cls-148" points="273.64 341 259.16 405 258.42 405 272.9 341 273.64 341"/><polygon class="cls-149" points="274.38 341 259.9 405 259.16 405 273.64 341 274.38 341"/><polygon class="cls-150" points="275.12 341 260.64 405 259.9 405 274.38 341 275.12 341"/><polygon class="cls-151" points="275.86 341 261.38 405 260.64 405 275.12 341 275.86 341"/><polygon class="cls-152" points="276.6 341 262.13 405 261.38 405 275.86 341 276.6 341"/><polygon class="cls-153" points="277.34 341 262.87 405 262.13 405 276.6 341 277.34 341"/><polygon class="cls-154" points="278.08 341 263.61 405 262.87 405 277.34 341 278.08 341"/><polygon class="cls-155" points="278.82 341 264.35 405 263.61 405 278.08 341 278.82 341"/><polygon class="cls-156" points="279.56 341 265.09 405 264.35 405 278.82 341 279.56 341"/><polygon class="cls-157" points="280.31 341 265.83 405 265.09 405 279.56 341 280.31 341"/><polygon class="cls-158" points="281.05 341 266.57 405 265.83 405 280.31 341 281.05 341"/><polygon class="cls-159" points="281.79 341 267.31 405 266.57 405 281.05 341 281.79 341"/><polygon class="cls-160" points="282.53 341 268.05 405 267.31 405 281.79 341 282.53 341"/><polygon class="cls-161" points="283.27 341 268.79 405 268.05 405 282.53 341 283.27 341"/><polygon class="cls-162" points="284.01 341 269.53 405 268.79 405 283.27 341 284.01 341"/><polygon class="cls-163" points="284.75 341 270.27 405 269.53 405 284.01 341 284.75 341"/><polygon class="cls-164" points="285.49 341 271.01 405 270.27 405 284.75 341 285.49 341"/><polygon class="cls-165" points="286.23 341 271.76 405 271.01 405 285.49 341 286.23 341"/><polygon class="cls-166" points="286.97 341 272.5 405 271.76 405 286.23 341 286.97 341"/><polygon class="cls-167" points="287.71 341 273.24 405 272.5 405 286.97 341 287.71 341"/><polygon class="cls-168" points="288.46 341 273.98 405 273.24 405 287.71 341 288.46 341"/><polygon class="cls-169" points="289.2 341 274.72 405 273.98 405 288.46 341 289.2 341"/><polygon class="cls-170" points="289.94 341 275.46 405 274.72 405 289.2 341 289.94 341"/><polygon class="cls-171" points="290.68 341 276.2 405 275.46 405 289.94 341 290.68 341"/><polygon class="cls-172" points="291.42 341 276.94 405 276.2 405 290.68 341 291.42 341"/><polygon class="cls-173" points="292.16 341 277.68 405 276.94 405 291.42 341 292.16 341"/><polygon class="cls-174" points="292.9 341 278.42 405 277.68 405 292.16 341 292.9 341"/><polygon class="cls-175" points="293.64 341 279.17 405 278.42 405 292.9 341 293.64 341"/><polygon class="cls-176" points="294.38 341 279.91 405 279.17 405 293.64 341 294.38 341"/><polygon class="cls-177" points="295.12 341 280.65 405 279.91 405 294.38 341 295.12 341"/><polygon class="cls-178" points="295.86 341 281.39 405 280.65 405 295.12 341 295.86 341"/><polygon class="cls-179" points="296.61 341 282.13 405 281.39 405 295.86 341 296.61 341"/><polygon class="cls-180" points="297.35 341 282.87 405 282.13 405 296.61 341 297.35 341"/><polygon class="cls-181" points="298.09 341 283.61 405 282.87 405 297.35 341 298.09 341"/><polygon class="cls-184" points="298.83 341 284.35 405 283.61 405 298.09 341 298.83 341"/><polygon class="cls-185" points="299.57 341 285.09 405 284.35 405 298.83 341 299.57 341"/><polygon class="cls-187" points="300.31 341 285.83 405 285.09 405 299.57 341 300.31 341"/><polygon class="cls-188" points="301.05 341 286.57 405 285.83 405 300.31 341 301.05 341"/><polygon class="cls-189" points="301.79 341 287.31 405 286.57 405 301.05 341 301.79 341"/><polygon class="cls-190" points="302.53 341 288.06 405 287.31 405 301.79 341 302.53 341"/><polygon class="cls-191" points="303.27 341 288.8 405 288.06 405 302.53 341 303.27 341"/><polygon class="cls-192" points="304.01 341 289.54 405 288.8 405 303.27 341 304.01 341"/><polygon class="cls-193" points="304.75 341 290.28 405 289.54 405 304.01 341 304.75 341"/><polygon class="cls-194" points="305.5 341 291.02 405 290.28 405 304.75 341 305.5 341"/><polygon class="cls-195" points="306.24 341 291.76 405 291.02 405 305.5 341 306.24 341"/><polygon class="cls-196" points="306.98 341 292.5 405 291.76 405 306.24 341 306.98 341"/><polygon class="cls-197" points="307.72 341 293.24 405 292.5 405 306.98 341 307.72 341"/><polygon class="cls-198" points="308.46 341 293.98 405 293.24 405 307.72 341 308.46 341"/><polygon class="cls-199" points="309.2 341 294.72 405 293.98 405 308.46 341 309.2 341"/><polygon class="cls-200" points="309.94 341 295.46 405 294.72 405 309.2 341 309.94 341"/><polygon class="cls-201" points="310.68 341 296.2 405 295.46 405 309.94 341 310.68 341"/><polygon class="cls-202" points="311.42 341 296.94 405 296.2 405 310.68 341 311.42 341"/><polygon class="cls-203" points="312.16 341 297.69 405 296.94 405 311.42 341 312.16 341"/><polygon class="cls-204" points="312.9 341 298.43 405 297.69 405 312.16 341 312.9 341"/><polygon class="cls-205" points="313.64 341 299.17 405 298.43 405 312.9 341 313.64 341"/><polygon class="cls-206" points="314.39 341 299.91 405 299.17 405 313.64 341 314.39 341"/><polygon class="cls-207" points="315.13 341 300.65 405 299.91 405 314.39 341 315.13 341"/><polygon class="cls-208" points="315.87 341 301.39 405 300.65 405 315.13 341 315.87 341"/><polygon class="cls-209" points="316.61 341 302.13 405 301.39 405 315.87 341 316.61 341"/><polygon class="cls-210" points="317.35 341 302.87 405 302.13 405 316.61 341 317.35 341"/><polygon class="cls-211" points="318.09 341 303.61 405 302.87 405 317.35 341 318.09 341"/><polygon class="cls-212" points="318.83 341 304.35 405 303.61 405 318.09 341 318.83 341"/><polygon class="cls-213" points="319.57 341 305.1 405 304.35 405 318.83 341 319.57 341"/><polygon class="cls-214" points="320.31 341 305.84 405 305.1 405 319.57 341 320.31 341"/><polygon class="cls-215" points="321.05 341 306.58 405 305.84 405 320.31 341 321.05 341"/><polygon class="cls-216" points="321.8 341 307.32 405 306.58 405 321.05 341 321.8 341"/><polygon class="cls-217" points="322.54 341 308.06 405 307.32 405 321.8 341 322.54 341"/><polygon class="cls-218" points="323.28 341 308.8 405 308.06 405 322.54 341 323.28 341"/><polygon class="cls-219" points="324.02 341 309.54 405 308.8 405 323.28 341 324.02 341"/><polygon class="cls-220" points="324.76 341 310.28 405 309.54 405 324.02 341 324.76 341"/><polygon class="cls-221" points="325.5 341 311.02 405 310.28 405 324.76 341 325.5 341"/><polygon class="cls-222" points="326.24 341 311.76 405 311.02 405 325.5 341 326.24 341"/><polygon class="cls-223" points="326.98 341 312.5 405 311.76 405 326.24 341 326.98 341"/><polygon class="cls-224" points="327.72 341 313.24 405 312.5 405 326.98 341 327.72 341"/><polygon class="cls-225" points="328.46 341 313.99 405 313.24 405 327.72 341 328.46 341"/><polygon class="cls-226" points="329.2 341 314.73 405 313.99 405 328.46 341 329.2 341"/><polygon class="cls-227" points="329.94 341 315.47 405 314.73 405 329.2 341 329.94 341"/><polygon class="cls-228" points="330.69 341 316.21 405 315.47 405 329.94 341 330.69 341"/><polygon class="cls-229" points="331.43 341 316.95 405 316.21 405 330.69 341 331.43 341"/><polygon class="cls-230" points="332.17 341 317.69 405 316.95 405 331.43 341 332.17 341"/><polygon class="cls-231" points="332.73 341 332.9 341.08 318.43 405 317.69 405 332.17 341 332.73 341"/><polygon class="cls-232" points="332.9 340.95 333.61 341.19 319.17 405 318.43 405 332.9 340.95"/><polygon class="cls-233" points="333.61 341.11 334.31 341.35 319.91 405 319.17 405 333.61 341.11"/><polygon class="cls-233" points="334.23 341.26 341 342.6 341 405 319.91 405 334.23 341.26"/></g></g><g class="cls-5"><g class="cls-234"><polygon class="cls-7" points="343.44 251 325 334.32 325 251 343.44 251"/><polygon class="cls-7" points="343.97 251 325 336.65 325 334.32 343.44 251 343.97 251"/><polygon class="cls-8" points="344.5 251 325 338.98 325 336.65 343.97 251 344.5 251"/><polygon class="cls-9" points="345.02 251 325 341.31 325 338.98 344.5 251 345.02 251"/><polygon class="cls-10" points="345.55 251 325 343.63 325 341.31 345.02 251 345.55 251"/><polygon class="cls-11" points="346.08 251 325 345.96 325 343.63 345.55 251 346.08 251"/><polygon class="cls-12" points="346.61 251 325 348.29 325 345.96 346.08 251 346.61 251"/><polygon class="cls-13" points="347.13 251 325 350.62 325 348.29 346.61 251 347.13 251"/><polygon class="cls-14" points="347.66 251 325 352.94 325 350.62 347.13 251 347.66 251"/><polygon class="cls-15" points="348.19 251 325 355.27 325 352.94 347.66 251 348.19 251"/><polygon class="cls-16" points="348.71 251 325 357.6 325 355.27 348.19 251 348.71 251"/><polygon class="cls-17" points="349.24 251 325 359.93 325 357.6 348.71 251 349.24 251"/><polygon class="cls-18" points="349.77 251 325 362.25 325 359.93 349.24 251 349.77 251"/><polygon class="cls-19" points="350.3 251 325 364.58 325 362.25 349.77 251 350.3 251"/><polygon class="cls-20" points="350.82 251 325 366.91 325 364.58 350.3 251 350.82 251"/><polygon class="cls-21" points="351.35 251 325 369.24 325 366.91 350.82 251 351.35 251"/><polygon class="cls-22" points="351.88 251 325 371.56 325 369.24 351.35 251 351.88 251"/><polygon class="cls-23" points="352.4 251 325 373.89 325 371.56 351.88 251 352.4 251"/><polygon class="cls-24" points="352.93 251 325 376.22 325 373.89 352.4 251 352.93 251"/><polygon class="cls-25" points="353.46 251 325 378.55 325 376.22 352.93 251 353.46 251"/><polygon class="cls-26" points="353.99 251 325 380.88 325 378.55 353.46 251 353.99 251"/><polygon class="cls-27" points="354.51 251 325 383.2 325 380.88 353.99 251 354.51 251"/><polygon class="cls-28" points="355.04 251 325 385.53 325 383.2 354.51 251 355.04 251"/><polygon class="cls-29" points="355.57 251 325 387.86 325 385.53 355.04 251 355.57 251"/><polygon class="cls-30" points="356.09 251 325 390.19 325 387.86 355.57 251 356.09 251"/><polygon class="cls-31" points="356.62 251 325 392.51 325 390.19 356.09 251 356.62 251"/><polygon class="cls-32" points="357.15 251 325 394.84 325 392.51 356.62 251 357.15 251"/><polygon class="cls-33" points="357.68 251 325 397.17 325 394.84 357.15 251 357.68 251"/><polygon class="cls-34" points="358.2 251 325 399.5 325 397.17 357.68 251 358.2 251"/><polygon class="cls-35" points="358.73 251 325 401.82 325 399.5 358.2 251 358.73 251"/><polygon class="cls-36" points="359.26 251 325.07 402.91 325 402.86 325 401.82 358.73 251 359.26 251"/><polygon class="cls-37" points="359.78 251 325.36 403.02 324.85 402.91 359.26 251 359.78 251"/><polygon class="cls-38" points="360.31 251 325.86 403.13 325.36 403.02 359.78 251 360.31 251"/><polygon class="cls-39" points="360.84 251 326.36 403.24 325.86 403.13 360.31 251 360.84 251"/><polygon class="cls-40" points="361.37 251 326.86 403.35 326.36 403.24 360.84 251 361.37 251"/><polygon class="cls-41" points="361.89 251 327.37 403.46 326.86 403.35 361.37 251 361.89 251"/><polygon class="cls-42" points="362.42 251 327.87 403.57 327.37 403.46 361.89 251 362.42 251"/><polygon class="cls-43" points="362.95 251 328.37 403.68 327.87 403.57 362.42 251 362.95 251"/><polygon class="cls-44" points="363.48 251 328.87 403.79 328.37 403.68 362.95 251 363.48 251"/><polygon class="cls-45" points="364 251 329.37 403.9 328.87 403.79 363.48 251 364 251"/><polygon class="cls-46" points="364.53 251 329.88 404.01 329.37 403.9 364 251 364.53 251"/><polygon class="cls-47" points="365.06 251 330.38 404.12 329.88 404.01 364.53 251 365.06 251"/><polygon class="cls-48" points="365.58 251 330.88 404.23 330.38 404.12 365.06 251 365.58 251"/><polygon class="cls-49" points="366.11 251 331.38 404.35 330.88 404.23 365.58 251 366.11 251"/><polygon class="cls-50" points="366.64 251 331.88 404.45 331.38 404.34 366.11 251 366.64 251"/><polygon class="cls-51" points="367.17 251 332.39 404.56 331.88 404.45 366.64 251 367.17 251"/><polygon class="cls-52" points="367.69 251 332.89 405 332.85 405 332.39 404.73 367.17 251 367.69 251"/><polygon class="cls-53" points="368.22 251 333.42 405 332.89 405 367.69 251 368.22 251"/><polygon class="cls-54" points="368.75 251 333.95 405 333.42 405 368.22 251 368.75 251"/><polygon class="cls-55" points="369.27 251 334.47 405 333.95 405 368.75 251 369.27 251"/><polygon class="cls-56" points="369.8 251 335 405 334.47 405 369.27 251 369.8 251"/><polygon class="cls-57" points="370.33 251 335.53 405 335 405 369.8 251 370.33 251"/><polygon class="cls-58" points="370.86 251 336.06 405 335.53 405 370.33 251 370.86 251"/><polygon class="cls-59" points="371.38 251 336.58 405 336.06 405 370.86 251 371.38 251"/><polygon class="cls-60" points="371.91 251 337.11 405 336.58 405 371.38 251 371.91 251"/><polygon class="cls-61" points="372.44 251 337.64 405 337.11 405 371.91 251 372.44 251"/><polygon class="cls-62" points="372.96 251 338.16 405 337.64 405 372.44 251 372.96 251"/><polygon class="cls-63" points="373.49 251 338.69 405 338.16 405 372.96 251 373.49 251"/><polygon class="cls-64" points="374.02 251 339.22 405 338.69 405 373.49 251 374.02 251"/><polygon class="cls-65" points="374.55 251 339.75 405 339.22 405 374.02 251 374.55 251"/><polygon class="cls-66" points="375.07 251 340.27 405 339.75 405 374.55 251 375.07 251"/><polygon class="cls-67" points="375.6 251 340.8 405 340.27 405 375.07 251 375.6 251"/><polygon class="cls-68" points="376.13 251 341.33 405 340.8 405 375.6 251 376.13 251"/><polygon class="cls-69" points="376.65 251 341.85 405 341.33 405 376.13 251 376.65 251"/><polygon class="cls-70" points="377.18 251 342.38 405 341.85 405 376.65 251 377.18 251"/><polygon class="cls-71" points="377.71 251 342.91 405 342.38 405 377.18 251 377.71 251"/><polygon class="cls-72" points="378.24 251 343.44 405 342.91 405 377.71 251 378.24 251"/><polygon class="cls-73" points="378.76 251 343.96 405 343.44 405 378.24 251 378.76 251"/><polygon class="cls-74" points="379.29 251 344.49 405 343.96 405 378.76 251 379.29 251"/><polygon class="cls-75" points="379.82 251 345.02 405 344.49 405 379.29 251 379.82 251"/><polygon class="cls-76" points="380.34 251 345.54 405 345.02 405 379.82 251 380.34 251"/><polygon class="cls-77" points="380.87 251 346.07 405 345.54 405 380.34 251 380.87 251"/><polygon class="cls-78" points="381.4 251 346.6 405 346.07 405 380.87 251 381.4 251"/><polygon class="cls-79" points="381.93 251 347.13 405 346.6 405 381.4 251 381.93 251"/><polygon class="cls-80" points="382.45 251 347.65 405 347.13 405 381.93 251 382.45 251"/><polygon class="cls-81" points="382.98 251 348.18 405 347.65 405 382.45 251 382.98 251"/><polygon class="cls-82" points="383.51 251 348.71 405 348.18 405 382.98 251 383.51 251"/><polygon class="cls-83" points="384.03 251 349.23 405 348.71 405 383.51 251 384.03 251"/><polygon class="cls-84" points="384.56 251 349.76 405 349.23 405 384.03 251 384.56 251"/><polygon class="cls-85" points="385.09 251 350.29 405 349.76 405 384.56 251 385.09 251"/><polygon class="cls-86" points="385.62 251 350.81 405 350.29 405 385.09 251 385.62 251"/><polygon class="cls-87" points="386.14 251 351.34 405 350.81 405 385.62 251 386.14 251"/><polygon class="cls-88" points="386.67 251 351.87 405 351.34 405 386.14 251 386.67 251"/><polygon class="cls-89" points="387.2 251 352.4 405 351.87 405 386.67 251 387.2 251"/><polygon class="cls-90" points="387.72 251 352.92 405 352.4 405 387.2 251 387.72 251"/><polygon class="cls-91" points="388.25 251 353.45 405 352.92 405 387.72 251 388.25 251"/><polygon class="cls-92" points="388.78 251 353.98 405 353.45 405 388.25 251 388.78 251"/><polygon class="cls-93" points="389.31 251 354.5 405 353.98 405 388.78 251 389.31 251"/><polygon class="cls-94" points="389.83 251 355.03 405 354.5 405 389.31 251 389.83 251"/><polygon class="cls-95" points="390.36 251 355.56 405 355.03 405 389.83 251 390.36 251"/><polygon class="cls-96" points="390.89 251 356.09 405 355.56 405 390.36 251 390.89 251"/><polygon class="cls-97" points="391.41 251 356.61 405 356.09 405 390.89 251 391.41 251"/><polygon class="cls-98" points="391.94 251 357.14 405 356.61 405 391.41 251 391.94 251"/><polygon class="cls-99" points="392.47 251 357.67 405 357.14 405 391.94 251 392.47 251"/><polygon class="cls-100" points="393 251 358.19 405 357.67 405 392.47 251 393 251"/><polygon class="cls-101" points="393.52 251 358.72 405 358.19 405 393 251 393.52 251"/><polygon class="cls-102" points="394.05 251 359.25 405 358.72 405 393.52 251 394.05 251"/><polygon class="cls-103" points="394.58 251 359.78 405 359.25 405 394.05 251 394.58 251"/><polygon class="cls-104" points="395.1 251 360.3 405 359.78 405 394.58 251 395.1 251"/><polygon class="cls-105" points="395.63 251 360.83 405 360.3 405 395.1 251 395.63 251"/><polygon class="cls-106" points="396.16 251 361.36 405 360.83 405 395.63 251 396.16 251"/><polygon class="cls-107" points="396.69 251 361.88 405 361.36 405 396.16 251 396.69 251"/><polygon class="cls-108" points="397.21 251 362.41 405 361.88 405 396.69 251 397.21 251"/><polygon class="cls-109" points="397.74 251 362.94 405 362.41 405 397.21 251 397.74 251"/><polygon class="cls-110" points="398.27 251 363.47 405 362.94 405 397.74 251 398.27 251"/><polygon class="cls-111" points="398.79 251 363.99 405 363.47 405 398.27 251 398.79 251"/><polygon class="cls-112" points="399.32 251 364.52 405 363.99 405 398.79 251 399.32 251"/><polygon class="cls-113" points="399.85 251 365.05 405 364.52 405 399.32 251 399.85 251"/><polygon class="cls-114" points="400.38 251 365.58 405 365.05 405 399.85 251 400.38 251"/><polygon class="cls-115" points="400.9 251 366.1 405 365.58 405 400.38 251 400.9 251"/><polygon class="cls-116" points="401.43 251 366.63 405 366.1 405 400.9 251 401.43 251"/><polygon class="cls-117" points="401.96 251 367.16 405 366.63 405 401.43 251 401.96 251"/><polygon class="cls-118" points="402.49 251 367.68 405 367.16 405 401.96 251 402.49 251"/><polygon class="cls-119" points="403.01 251 368.21 405 367.68 405 402.49 251 403.01 251"/><polygon class="cls-120" points="403.54 251 368.74 405 368.21 405 403.01 251 403.54 251"/><polygon class="cls-121" points="404.07 251 369.27 405 368.74 405 403.54 251 404.07 251"/><polygon class="cls-122" points="404.59 251 369.79 405 369.27 405 404.07 251 404.59 251"/><polygon class="cls-123" points="405.12 251 370.32 405 369.79 405 404.59 251 405.12 251"/><polygon class="cls-124" points="405.65 251 370.85 405 370.32 405 405.12 251 405.65 251"/><polygon class="cls-125" points="406.18 251 371.37 405 370.85 405 405.65 251 406.18 251"/><polygon class="cls-126" points="406.7 251 371.9 405 371.37 405 406.18 251 406.7 251"/><polygon class="cls-127" points="407.23 251 372.43 405 371.9 405 406.7 251 407.23 251"/><polygon class="cls-128" points="407.76 251 372.96 405 372.43 405 407.23 251 407.76 251"/><polygon class="cls-129" points="408.28 251 373.48 405 372.96 405 407.76 251 408.28 251"/><polygon class="cls-130" points="408.81 251 374.01 405 373.48 405 408.28 251 408.81 251"/><polygon class="cls-131" points="409.34 251 374.54 405 374.01 405 408.81 251 409.34 251"/><polygon class="cls-132" points="409.87 251 375.06 405 374.54 405 409.34 251 409.87 251"/><polygon class="cls-133" points="410.39 251 375.59 405 375.06 405 409.87 251 410.39 251"/><polygon class="cls-134" points="410.92 251 376.12 405 375.59 405 410.39 251 410.92 251"/><polygon class="cls-135" points="411.45 251 376.65 405 376.12 405 410.92 251 411.45 251"/><polygon class="cls-136" points="411.97 251 377.17 405 376.65 405 411.45 251 411.97 251"/><polygon class="cls-137" points="412.5 251 377.7 405 377.17 405 411.97 251 412.5 251"/><polygon class="cls-138" points="413.03 251 378.23 405 377.7 405 412.5 251 413.03 251"/><polygon class="cls-139" points="413.56 251 378.75 405 378.23 405 413.03 251 413.56 251"/><polygon class="cls-140" points="414.08 251 379.28 405 378.75 405 413.56 251 414.08 251"/><polygon class="cls-141" points="414.61 251 379.81 405 379.28 405 414.08 251 414.61 251"/><polygon class="cls-142" points="415.14 251 380.34 405 379.81 405 414.61 251 415.14 251"/><polygon class="cls-143" points="415.66 251 380.86 405 380.34 405 415.14 251 415.66 251"/><polygon class="cls-144" points="416.19 251 381.39 405 380.86 405 415.66 251 416.19 251"/><polygon class="cls-145" points="416.72 251 381.92 405 381.39 405 416.19 251 416.72 251"/><polygon class="cls-146" points="417.25 251 382.44 405 381.92 405 416.72 251 417.25 251"/><polygon class="cls-147" points="417.77 251 382.97 405 382.44 405 417.25 251 417.77 251"/><polygon class="cls-148" points="418.3 251 383.5 405 382.97 405 417.77 251 418.3 251"/><polygon class="cls-149" points="418.83 251 384.03 405 383.5 405 418.3 251 418.83 251"/><polygon class="cls-150" points="419.35 251 384.55 405 384.03 405 418.83 251 419.35 251"/><polygon class="cls-151" points="419.88 251 385.08 405 384.55 405 419.35 251 419.88 251"/><polygon class="cls-152" points="420.41 251 385.61 405 385.08 405 419.88 251 420.41 251"/><polygon class="cls-153" points="420.94 251 386.13 405 385.61 405 420.41 251 420.94 251"/><polygon class="cls-154" points="421.46 251 386.66 405 386.13 405 420.94 251 421.46 251"/><polygon class="cls-155" points="421.99 251 387.19 405 386.66 405 421.46 251 421.99 251"/><polygon class="cls-156" points="422.52 251 387.72 405 387.19 405 421.99 251 422.52 251"/><polygon class="cls-157" points="423.04 251 388.24 405 387.72 405 422.52 251 423.04 251"/><polygon class="cls-158" points="423.57 251 388.77 405 388.24 405 423.04 251 423.57 251"/><polygon class="cls-159" points="424.1 251 389.3 405 388.77 405 423.57 251 424.1 251"/><polygon class="cls-160" points="424.63 251 389.82 405 389.3 405 424.1 251 424.63 251"/><polygon class="cls-161" points="425.15 251 390.35 405 389.82 405 424.63 251 425.15 251"/><polygon class="cls-162" points="425.68 251 390.88 405 390.35 405 425.15 251 425.68 251"/><polygon class="cls-163" points="426.21 251 391.41 405 390.88 405 425.68 251 426.21 251"/><polygon class="cls-164" points="426.73 251 391.93 405 391.41 405 426.21 251 426.73 251"/><polygon class="cls-165" points="427.26 251 392.46 405 391.93 405 426.73 251 427.26 251"/><polygon class="cls-166" points="427.79 251 392.99 405 392.46 405 427.26 251 427.79 251"/><polygon class="cls-167" points="428.32 251 393.51 405 392.99 405 427.79 251 428.32 251"/><polygon class="cls-168" points="428.84 251 394.04 405 393.51 405 428.32 251 428.84 251"/><polygon class="cls-169" points="429.37 251 394.57 405 394.04 405 428.84 251 429.37 251"/><polygon class="cls-170" points="429.9 251 395.1 405 394.57 405 429.37 251 429.9 251"/><polygon class="cls-171" points="430.42 251 395.62 405 395.1 405 429.9 251 430.42 251"/><polygon class="cls-172" points="430.95 251 396.15 405 395.62 405 430.42 251 430.95 251"/><polygon class="cls-173" points="431.48 251 396.68 405 396.15 405 430.95 251 431.48 251"/><polygon class="cls-174" points="432.01 251 397.2 405 396.68 405 431.48 251 432.01 251"/><polygon class="cls-175" points="432.53 251 397.73 405 397.2 405 432.01 251 432.53 251"/><polygon class="cls-176" points="433.06 251 398.26 405 397.73 405 432.53 251 433.06 251"/><polygon class="cls-177" points="433.59 251 398.79 405 398.26 405 433.06 251 433.59 251"/><polygon class="cls-178" points="434.11 251 399.31 405 398.79 405 433.59 251 434.11 251"/><polygon class="cls-179" points="434.64 251 399.84 405 399.31 405 434.11 251 434.64 251"/><polygon class="cls-180" points="435.17 251 400.37 405 399.84 405 434.64 251 435.17 251"/><polygon class="cls-181" points="435.7 251 400.89 405 400.37 405 435.17 251 435.7 251"/><polygon class="cls-184" points="436.22 251 401.42 405 400.89 405 435.7 251 436.22 251"/><polygon class="cls-185" points="436.75 251 401.95 405 401.42 405 436.22 251 436.75 251"/><polygon class="cls-187" points="437.28 251 402.48 405 401.95 405 436.75 251 437.28 251"/><polygon class="cls-188" points="437.8 251 403 405 402.48 405 437.28 251 437.8 251"/><polygon class="cls-189" points="437.84 251 438.31 251.28 403.53 405 403 405 437.8 251 437.84 251"/><polygon class="cls-190" points="438.31 251.29 438.81 251.48 404.06 405 403.53 405 438.31 251.29"/><polygon class="cls-191" points="438.81 251.4 439.31 251.59 404.59 405 404.06 405 438.81 251.4"/><polygon class="cls-192" points="439.31 251.51 439.81 251.7 405.11 405 404.59 405 439.31 251.51"/><polygon class="cls-193" points="439.81 251.62 440.32 251.81 405.64 405 405.11 405 439.81 251.62"/><polygon class="cls-194" points="440.32 251.73 440.82 251.92 406.17 405 405.64 405 440.32 251.73"/><polygon class="cls-195" points="440.82 251.84 441.32 252.03 406.69 405 406.17 405 440.82 251.84"/><polygon class="cls-196" points="441.32 251.95 441.82 252.14 407.22 405 406.69 405 441.32 251.95"/><polygon class="cls-197" points="441.82 252.06 442.33 252.25 407.75 405 407.22 405 441.82 252.06"/><polygon class="cls-198" points="442.33 252.17 442.83 252.36 408.28 405 407.75 405 442.33 252.17"/><polygon class="cls-199" points="442.83 252.28 443.33 252.47 408.8 405 408.28 405 442.83 252.28"/><polygon class="cls-200" points="443.33 252.39 443.83 252.58 409.33 405 408.8 405 443.33 252.39"/><polygon class="cls-201" points="443.83 252.5 444.33 252.69 409.86 405 409.33 405 443.83 252.5"/><polygon class="cls-202" points="444.33 252.61 444.84 252.8 410.38 405 409.86 405 444.33 252.61"/><polygon class="cls-203" points="444.84 252.72 445.34 252.91 410.91 405 410.38 405 444.84 252.72"/><polygon class="cls-204" points="445.34 252.83 445.84 253.02 411.44 405 410.91 405 445.34 252.83"/><polygon class="cls-205" points="445.84 252.94 446.34 253.13 411.97 405 411.44 405 445.84 252.94"/><polygon class="cls-206" points="446.34 253.05 446.85 253.24 412.49 405 411.97 405 446.34 253.05"/><polygon class="cls-207" points="446.85 253.16 447.35 253.35 413.02 405 412.49 405 446.85 253.16"/><polygon class="cls-208" points="447.35 253.27 447.85 253.46 413.55 405 413.02 405 447.35 253.27"/><polygon class="cls-209" points="447.85 253.38 448.35 253.57 414.07 405 413.55 405 447.85 253.38"/><polygon class="cls-210" points="448.35 253.49 448.86 253.68 414.6 405 414.07 405 448.35 253.49"/><polygon class="cls-211" points="448.86 253.6 449.36 253.79 415.13 405 414.6 405 448.86 253.6"/><polygon class="cls-212" points="449.36 253.71 449.86 253.9 415.66 405 415.13 405 449.36 253.71"/><polygon class="cls-213" points="449.86 253.82 450.36 254.01 416.18 405 415.66 405 449.86 253.82"/><polygon class="cls-214" points="450.36 253.93 450.86 254.12 416.71 405 416.18 405 450.36 253.93"/><polygon class="cls-215" points="450.86 254.04 451.37 254.23 417.24 405 416.71 405 450.86 254.04"/><polygon class="cls-216" points="451.37 254.15 451.87 254.34 417.76 405 417.24 405 451.37 254.15"/><polygon class="cls-217" points="451.87 254.26 452.37 254.45 418.29 405 417.76 405 451.87 254.26"/><polygon class="cls-218" points="452.37 254.37 452.87 254.56 418.82 405 418.29 405 452.37 254.37"/><polygon class="cls-219" points="452.87 254.48 453.38 254.67 419.35 405 418.82 405 452.87 254.48"/><polygon class="cls-220" points="453.38 254.59 453.88 254.78 419.87 405 419.35 405 453.38 254.59"/><polygon class="cls-221" points="453.88 254.7 454.38 254.89 420.4 405 419.87 405 453.88 254.7"/><polygon class="cls-222" points="454.38 254.81 454.88 255 420.93 405 420.4 405 454.38 254.81"/><polygon class="cls-223" points="454.88 254.92 455.38 255.11 421.45 405 420.93 405 454.88 254.92"/><polygon class="cls-224" points="455.38 255.03 455.89 255.22 421.98 405 421.45 405 455.38 255.03"/><polygon class="cls-225" points="455.89 255.14 456.39 255.33 422.51 405 421.98 405 455.89 255.14"/><polygon class="cls-226" points="456.39 255.25 456.89 255.44 423.04 405 422.51 405 456.39 255.25"/><polygon class="cls-227" points="456.89 255.36 457.39 255.55 423.56 405 423.04 405 456.89 255.36"/><polygon class="cls-228" points="457.39 255.47 457.89 255.66 424.09 405 423.56 405 457.39 255.47"/><polygon class="cls-229" points="457.89 255.58 458.4 255.78 424.62 405 424.09 405 457.89 255.58"/><polygon class="cls-230" points="458.4 255.69 458.9 255.88 425.14 405 424.62 405 458.4 255.69"/><polygon class="cls-231" points="458.9 255.8 459.4 256 425.67 405 425.14 405 458.9 255.8"/><polygon class="cls-232" points="459.4 255.91 459.9 256.11 426.2 405 425.67 405 459.4 255.91"/><polygon class="cls-233" points="459.9 256.02 460.41 256.21 426.73 405 426.2 405 459.9 256.02"/><polygon class="cls-233" points="460.66 256.13 470 257.97 470 405 426.73 405 460.66 256.13"/></g></g><polygon class="cls-235" points="429.38 251.03 324.45 354.28 176.06 354.28 71.14 251.03 71.14 105.02 176.06 9.73 324.45 9.73 429.38 105.02 429.38 251.03"/><polygon class="cls-4" points="414.87 244.45 318.44 339.33 182.08 339.33 85.66 244.45 85.66 110.27 182.08 22.7 318.44 22.7 414.87 110.27 414.87 244.45"/><polygon class="cls-3" points="318.59 23 182.23 23 85 111.12 85 127.46 182.23 39 318.59 39 416 127.46 416 111.12 318.59 23"/><g class="cls-236"><g class="cls-237"><rect class="cls-7" x="85" y="22" width="2" height="317"/><rect class="cls-8" x="87" y="22" width="2" height="317"/><rect class="cls-9" x="89" y="22" width="1" height="317"/><rect class="cls-10" x="90" y="22" width="1" height="317"/><rect class="cls-11" x="91" y="22" width="2" height="317"/><rect class="cls-12" x="93" y="22" width="2" height="317"/><rect class="cls-13" x="95" y="22" width="2" height="317"/><rect class="cls-14" x="97" y="22" width="1" height="317"/><rect class="cls-15" x="98" y="22" width="2" height="317"/><rect class="cls-16" x="100" y="22" width="1" height="317"/><rect class="cls-17" x="101" y="22" width="1" height="317"/><rect class="cls-18" x="102" y="22" width="2" height="317"/><rect class="cls-19" x="104" y="22" width="2" height="317"/><rect class="cls-20" x="106" y="22" width="1" height="317"/><rect class="cls-21" x="107" y="22" width="1" height="317"/><rect class="cls-22" x="108" y="22" width="1" height="317"/><rect class="cls-23" x="109" y="22" width="2" height="317"/><rect class="cls-24" x="111" y="22" width="2" height="317"/><rect class="cls-25" x="113" y="22" width="1" height="317"/><rect class="cls-26" x="114" y="22" width="2" height="317"/><rect class="cls-27" x="116" y="22" width="1" height="317"/><rect class="cls-28" x="117" y="22" width="1" height="317"/><rect class="cls-29" x="118" y="22" width="2" height="317"/><rect class="cls-30" x="120" y="22" width="1" height="317"/><rect class="cls-31" x="121" y="22" width="2" height="317"/><rect class="cls-32" x="123" y="22" width="1" height="317"/><rect class="cls-33" x="124" y="22" width="1" height="317"/><rect class="cls-34" x="125" y="22" width="2" height="317"/><rect class="cls-35" x="127" y="22" width="2" height="317"/><rect class="cls-36" x="129" y="22" width="1" height="317"/><rect class="cls-37" x="130" y="22" width="2" height="317"/><rect class="cls-39" x="132" y="22" width="2" height="317"/><rect class="cls-40" x="134" y="22" width="2" height="317"/><rect class="cls-41" x="136" y="22" width="1" height="317"/><rect class="cls-42" x="137" y="22" width="2" height="317"/><rect class="cls-43" x="139" y="22" width="1" height="317"/><rect class="cls-44" x="140" y="22" width="1" height="317"/><rect class="cls-45" x="141" y="22" width="2" height="317"/><rect class="cls-46" x="143" y="22" width="1" height="317"/><rect class="cls-47" x="144" y="22" width="2" height="317"/><rect class="cls-48" x="146" y="22" width="2" height="317"/><rect class="cls-50" x="148" y="22" width="2" height="317"/><rect class="cls-51" x="150" y="22" width="2" height="317"/><rect class="cls-52" x="152" y="22" width="1" height="317"/><rect class="cls-53" x="153" y="22" width="2" height="317"/><rect class="cls-54" x="155" y="22" width="2" height="317"/><rect class="cls-55" x="157" y="22" width="1" height="317"/><rect class="cls-56" x="158" y="22" width="2" height="317"/><rect class="cls-57" x="160" y="22" width="1" height="317"/><rect class="cls-58" x="161" y="22" width="2" height="317"/><rect class="cls-59" x="163" y="22" width="2" height="317"/><rect class="cls-61" x="165" y="22" width="2" height="317"/><rect class="cls-62" x="167" y="22" width="1" height="317"/><rect class="cls-63" x="168" y="22" width="2" height="317"/><rect class="cls-64" x="170" y="22" width="2" height="317"/><rect class="cls-65" x="172" y="22" width="1" height="317"/><rect class="cls-66" x="173" y="22" width="1" height="317"/><rect class="cls-67" x="174" y="22" width="2" height="317"/><rect class="cls-68" x="176" y="22" width="1" height="317"/><rect class="cls-69" x="177" y="22" width="2" height="317"/><rect class="cls-70" x="179" y="22" width="2" height="317"/><rect class="cls-72" x="181" y="22" width="2" height="317"/><rect class="cls-73" x="183" y="22" width="1" height="317"/><rect class="cls-74" x="184" y="22" width="2" height="317"/><rect class="cls-75" x="186" y="22" width="2" height="317"/><rect class="cls-76" x="188" y="22" width="1" height="317"/><rect class="cls-77" x="189" y="22" width="1" height="317"/><rect class="cls-78" x="190" y="22" width="2" height="317"/><rect class="cls-79" x="192" y="22" width="1" height="317"/><rect class="cls-80" x="193" y="22" width="2" height="317"/><rect class="cls-81" x="195" y="22" width="1" height="317"/><rect class="cls-82" x="196" y="22" width="1" height="317"/><rect class="cls-83" x="197" y="22" width="2" height="317"/><rect class="cls-84" x="199" y="22" width="1" height="317"/><rect class="cls-85" x="200" y="22" width="2" height="317"/><rect class="cls-86" x="202" y="22" width="2" height="317"/><rect class="cls-87" x="204" y="22" width="1" height="317"/><rect class="cls-88" x="205" y="22" width="1" height="317"/><rect class="cls-89" x="206" y="22" width="1" height="317"/><rect class="cls-90" x="207" y="22" width="2" height="317"/><rect class="cls-91" x="209" y="22" width="2" height="317"/><rect class="cls-92" x="211" y="22" width="1" height="317"/><rect class="cls-93" x="212" y="22" width="1" height="317"/><rect class="cls-94" x="213" y="22" width="2" height="317"/><rect class="cls-95" x="215" y="22" width="1" height="317"/><rect class="cls-96" x="216" y="22" width="2" height="317"/><rect class="cls-97" x="218" y="22" width="2" height="317"/><rect class="cls-98" x="220" y="22" width="2" height="317"/><rect class="cls-99" x="222" y="22" width="1" height="317"/><rect class="cls-100" x="223" y="22" width="1" height="317"/><rect class="cls-101" x="224" y="22" width="2" height="317"/><rect class="cls-102" x="226" y="22" width="2" height="317"/><rect class="cls-103" x="228" y="22" width="1" height="317"/><rect class="cls-104" x="229" y="22" width="1" height="317"/><rect class="cls-105" x="230" y="22" width="1" height="317"/><rect class="cls-106" x="231" y="22" width="2" height="317"/><rect class="cls-107" x="233" y="22" width="2" height="317"/><rect class="cls-108" x="235" y="22" width="1" height="317"/><rect class="cls-109" x="236" y="22" width="2" height="317"/><rect class="cls-110" x="238" y="22" width="1" height="317"/><rect class="cls-111" x="239" y="22" width="1" height="317"/><rect class="cls-112" x="240" y="22" width="2" height="317"/><rect class="cls-113" x="242" y="22" width="1" height="317"/><rect class="cls-114" x="243" y="22" width="2" height="317"/><rect class="cls-115" x="245" y="22" width="1" height="317"/><rect class="cls-116" x="246" y="22" width="1" height="317"/><rect class="cls-117" x="247" y="22" width="2" height="317"/><rect class="cls-118" x="249" y="22" width="2" height="317"/><rect class="cls-119" x="251" y="22" width="1" height="317"/><rect class="cls-120" x="252" y="22" width="2" height="317"/><rect class="cls-122" x="254" y="22" width="2" height="317"/><rect class="cls-123" x="256" y="22" width="2" height="317"/><rect class="cls-124" x="258" y="22" width="1" height="317"/><rect class="cls-125" x="259" y="22" width="2" height="317"/><rect class="cls-126" x="261" y="22" width="1" height="317"/><rect class="cls-127" x="262" y="22" width="1" height="317"/><rect class="cls-128" x="263" y="22" width="2" height="317"/><rect class="cls-129" x="265" y="22" width="1" height="317"/><rect class="cls-130" x="266" y="22" width="2" height="317"/><rect class="cls-131" x="268" y="22" width="2" height="317"/><rect class="cls-133" x="270" y="22" width="2" height="317"/><rect class="cls-134" x="272" y="22" width="2" height="317"/><rect class="cls-135" x="274" y="22" width="1" height="317"/><rect class="cls-136" x="275" y="22" width="2" height="317"/><rect class="cls-137" x="277" y="22" width="1" height="317"/><rect class="cls-138" x="278" y="22" width="1" height="317"/><rect class="cls-139" x="279" y="22" width="3" height="317"/><rect class="cls-140" x="282" y="22" width="1" height="317"/><rect class="cls-141" x="283" y="22" width="2" height="317"/><rect class="cls-142" x="285" y="22" width="2" height="317"/><rect class="cls-144" x="287" y="22" width="2" height="317"/><rect class="cls-145" x="289" y="22" width="2" height="317"/><rect class="cls-146" x="291" y="22" width="1" height="317"/><rect class="cls-147" x="292" y="22" width="2" height="317"/><rect class="cls-148" x="294" y="22" width="1" height="317"/><rect class="cls-149" x="295" y="22" width="1" height="317"/><rect class="cls-150" x="296" y="22" width="2" height="317"/><rect class="cls-151" x="298" y="22" width="1" height="317"/><rect class="cls-152" x="299" y="22" width="2" height="317"/><rect class="cls-153" x="301" y="22" width="2" height="317"/><rect class="cls-155" x="303" y="22" width="2" height="317"/><rect class="cls-156" x="305" y="22" width="1" height="317"/><rect class="cls-157" x="306" y="22" width="2" height="317"/><rect class="cls-158" x="308" y="22" width="2" height="317"/><rect class="cls-159" x="310" y="22" width="1" height="317"/><rect class="cls-160" x="311" y="22" width="1" height="317"/><rect class="cls-161" x="312" y="22" width="2" height="317"/><rect class="cls-162" x="314" y="22" width="1" height="317"/><rect class="cls-163" x="315" y="22" width="2" height="317"/><rect class="cls-164" x="317" y="22" width="1" height="317"/><rect class="cls-165" x="318" y="22" width="1" height="317"/><rect class="cls-166" x="319" y="22" width="2" height="317"/><rect class="cls-167" x="321" y="22" width="1" height="317"/><rect class="cls-168" x="322" y="22" width="2" height="317"/><rect class="cls-169" x="324" y="22" width="2" height="317"/><rect class="cls-170" x="326" y="22" width="1" height="317"/><rect class="cls-171" x="327" y="22" width="1" height="317"/><rect class="cls-172" x="328" y="22" width="1" height="317"/><rect class="cls-173" x="329" y="22" width="2" height="317"/><rect class="cls-174" x="331" y="22" width="2" height="317"/><rect class="cls-175" x="333" y="22" width="1" height="317"/><rect class="cls-176" x="334" y="22" width="1" height="317"/><rect class="cls-177" x="335" y="22" width="2" height="317"/><rect class="cls-178" x="337" y="22" width="1" height="317"/><rect class="cls-179" x="338" y="22" width="2" height="317"/><rect class="cls-180" x="340" y="22" width="1" height="317"/><rect class="cls-181" x="341" y="22" width="2" height="317"/><rect class="cls-184" x="343" y="22" width="2" height="317"/><rect class="cls-185" x="345" y="22" width="1" height="317"/><rect class="cls-187" x="346" y="22" width="2" height="317"/><rect class="cls-188" x="348" y="22" width="2" height="317"/><rect class="cls-189" x="350" y="22" width="1" height="317"/><rect class="cls-190" x="351" y="22" width="1" height="317"/><rect class="cls-191" x="352" y="22" width="1" height="317"/><rect class="cls-192" x="353" y="22" width="2" height="317"/><rect class="cls-193" x="355" y="22" width="2" height="317"/><rect class="cls-194" x="357" y="22" width="1" height="317"/><rect class="cls-195" x="358" y="22" width="2" height="317"/><rect class="cls-196" x="360" y="22" width="1" height="317"/><rect class="cls-197" x="361" y="22" width="1" height="317"/><rect class="cls-198" x="362" y="22" width="2" height="317"/><rect class="cls-199" x="364" y="22" width="1" height="317"/><rect class="cls-200" x="365" y="22" width="2" height="317"/><rect class="cls-201" x="367" y="22" width="1" height="317"/><rect class="cls-202" x="368" y="22" width="1" height="317"/><rect class="cls-203" x="369" y="22" width="2" height="317"/><rect class="cls-204" x="371" y="22" width="2" height="317"/><rect class="cls-205" x="373" y="22" width="1" height="317"/><rect class="cls-206" x="374" y="22" width="2" height="317"/><rect class="cls-207" x="376" y="22" width="1" height="317"/><rect class="cls-208" x="377" y="22" width="1" height="317"/><rect class="cls-209" x="378" y="22" width="2" height="317"/><rect class="cls-210" x="380" y="22" width="1" height="317"/><rect class="cls-211" x="381" y="22" width="2" height="317"/><rect class="cls-212" x="383" y="22" width="1" height="317"/><rect class="cls-213" x="384" y="22" width="1" height="317"/><rect class="cls-214" x="385" y="22" width="2" height="317"/><rect class="cls-215" x="387" y="22" width="2" height="317"/><rect class="cls-216" x="389" y="22" width="1" height="317"/><rect class="cls-217" x="390" y="22" width="2" height="317"/><rect class="cls-219" x="392" y="22" width="2" height="317"/><rect class="cls-220" x="394" y="22" width="2" height="317"/><rect class="cls-221" x="396" y="22" width="1" height="317"/><rect class="cls-222" x="397" y="22" width="2" height="317"/><rect class="cls-223" x="399" y="22" width="1" height="317"/><rect class="cls-224" x="400" y="22" width="1" height="317"/><rect class="cls-225" x="401" y="22" width="2" height="317"/><rect class="cls-226" x="403" y="22" width="1" height="317"/><rect class="cls-227" x="404" y="22" width="3" height="317"/><rect class="cls-228" x="407" y="22" width="2" height="317"/><rect class="cls-230" x="409" y="22" width="2" height="317"/><rect class="cls-231" x="411" y="22" width="2" height="317"/><rect class="cls-232" x="413" y="22" width="1" height="317"/><rect class="cls-233" x="414" y="22" width="2" height="317"/></g></g><path class="cls-238" d="M76.5,352.23a3.49,3.49,0,0,1-3.5-3.56V324.32l33.23-41.46,13.54-8.33a3.62,3.62,0,0,1,5,1.14,3.53,3.53,0,0,1-1.17,4.9L111,288.25,80,326.8v21.88A3.49,3.49,0,0,1,76.5,352.23Z"/><path class="cls-238" d="M136.66,292.67a3.63,3.63,0,0,1-2.74-1.24,3.52,3.52,0,0,1,.39-5l66.7-56.3a3.66,3.66,0,0,1,5.1.38,3.52,3.52,0,0,1-.39,5L139,291.81A3.64,3.64,0,0,1,136.66,292.67Z"/><path class="cls-238" d="M205.31,152.21a3.41,3.41,0,0,1-2.42-1L129,80.83V63.77l-6.56-7.22-28-.49a3.6,3.6,0,0,1-3.57-3.62,3.56,3.56,0,0,1,3.67-3.49l31.07.55L136,61.09V77.81l71.81,68.29a3.52,3.52,0,0,1,.1,5A3.61,3.61,0,0,1,205.31,152.21Z"/><path class="cls-239" d="M203.28,159.33a3.75,3.75,0,0,1-2.6-1L126,85.24V68.32L118.79,61,89.9,60.5A3.56,3.56,0,1,1,90,53.39l31.73.54L133,65.43V82.29l72.66,71a3.52,3.52,0,0,1,.1,5A3.45,3.45,0,0,1,203.28,159.33Z"/><path class="cls-238" d="M286.92,153.1a3.63,3.63,0,0,1-2.59-1.07,3.53,3.53,0,0,1,.33-5L357,77.82V60.9l11.95-11.41,32.42-.54a3.53,3.53,0,0,1,3.61,3.5,3.61,3.61,0,0,1-3.58,3.62l-29.6.49L364,64V80.82l-74.41,71.27A4,4,0,0,1,286.92,153.1Z"/><path class="cls-239" d="M289.61,159.23a3.63,3.63,0,0,1-2.54-1,3.53,3.53,0,0,1,.33-5L359,82.3V65.21l13.33-11.28,33.6-.54a3.51,3.51,0,0,1,3.58,3.5,3.62,3.62,0,0,1-3.6,3.61l-31,.5L366,68.53V85.23l-73.57,73A4.22,4.22,0,0,1,289.61,159.23Z"/><path class="cls-238" d="M238.4,219.59a3.65,3.65,0,0,1-1.23-.21,24.79,24.79,0,1,1,19-.88,3.64,3.64,0,0,1-4.81-1.7,3.53,3.53,0,0,1,1.73-4.73,17.6,17.6,0,1,0-13.47.62,3.54,3.54,0,0,1,2.17,4.55A3.61,3.61,0,0,1,238.4,219.59Z"/><path class="cls-239" d="M238.4,214.15a3.65,3.65,0,0,1-1.23-.21,24.8,24.8,0,1,1,19-.88,3.64,3.64,0,0,1-4.81-1.7,3.53,3.53,0,0,1,1.73-4.73,17.6,17.6,0,1,0-13.47.62,3.54,3.54,0,0,1,2.17,4.55A3.61,3.61,0,0,1,238.4,214.15Z"/><path class="cls-239" d="M78.5,357.56A3.49,3.49,0,0,1,75,354V329.66l33.13-41.46,13.49-8.33a3.59,3.59,0,0,1,4.93,1.14,3.53,3.53,0,0,1-1.18,4.9l-12.45,7.67L82,332.13V354A3.49,3.49,0,0,1,78.5,357.56Z"/><path class="cls-238" d="M422.5,352.23a3.49,3.49,0,0,1-3.5-3.56V326.74l-29.34-38.48-13.35-7.64a3.53,3.53,0,0,1-1.32-4.86,3.63,3.63,0,0,1,4.93-1.28l14.54,8.36L426,324.38v24.3A3.49,3.49,0,0,1,422.5,352.23Z"/><path class="cls-238" d="M365.68,292.67a3.64,3.64,0,0,1-2.26-.78L290.85,234.7a3.52,3.52,0,0,1-.56-5,3.65,3.65,0,0,1,5.08-.55l72.58,57.19a3.52,3.52,0,0,1,.56,5A3.63,3.63,0,0,1,365.68,292.67Z"/><path class="cls-239" d="M420.5,357.56A3.49,3.49,0,0,1,417,354V332.06L387.75,293.6,374,286a3.53,3.53,0,1,1,3.43-6.17l15.13,8.37L424,329.73V354A3.49,3.49,0,0,1,420.5,357.56Z"/><path class="cls-238" d="M246.28,256.58c-32.38,0-58.72-25.92-58.72-57.78a58,58,0,0,1,33.69-52.28,3.64,3.64,0,0,1,4.81,1.7,3.53,3.53,0,0,1-1.73,4.73,50.87,50.87,0,0,0-29.54,45.85c0,27.94,23.1,50.67,51.5,50.67s51.5-22.73,51.5-50.67a50.87,50.87,0,0,0-34-47.67,3.54,3.54,0,0,1-2.17-4.55,3.63,3.63,0,0,1,4.63-2.14A58,58,0,0,1,305,198.8C305,230.66,278.66,256.58,246.28,256.58Z"/><path class="cls-239" d="M246.28,249.92c-32.38,0-58.72-25.92-58.72-57.78a58,58,0,0,1,33.69-52.28,3.64,3.64,0,0,1,4.81,1.7,3.53,3.53,0,0,1-1.73,4.73,50.87,50.87,0,0,0-29.54,45.85c0,27.94,23.1,50.67,51.5,50.67s51.5-22.73,51.5-50.67a50.87,50.87,0,0,0-34-47.67,3.54,3.54,0,0,1-2.17-4.55,3.63,3.63,0,0,1,4.63-2.14A58,58,0,0,1,305,192.14C305,224,278.66,249.92,246.28,249.92Z"/><path class="cls-239" d="M138.47,298a3.63,3.63,0,0,1-2.77-1.26,3.52,3.52,0,0,1,.44-5l69.72-57.78a3.65,3.65,0,0,1,5.09.43,3.52,3.52,0,0,1-.44,5L140.8,297.17A3.63,3.63,0,0,1,138.47,298Z"/><path class="cls-239" d="M363.87,298a3.64,3.64,0,0,1-2.23-.76l-75.89-58.67a3.52,3.52,0,0,1-.61-5,3.65,3.65,0,0,1,5.07-.6l75.89,58.67a3.52,3.52,0,0,1,.61,5A3.63,3.63,0,0,1,363.87,298Z"/></g></g></svg>