<svg id="Layer_1" data-name="Layer 1" xmlns="http://www.w3.org/2000/svg" viewBox="0 0 80 80"><defs><style>.cls-1{fill:#4d9614;}.cls-2{fill:#79c043;}.cls-3{opacity:0.2;}.cls-4{fill:#f3f2f2;}</style></defs><title>go-button</title><path class="cls-1" d="M10.78,12.17S.63,12.17.63,22.32V69.68s0,10.15,10.15,10.15H69.22s10.15,0,10.15-10.15V22.32s0-10.15-10.15-10.15Z"/><path class="cls-2" d="M10.78.33S.63.33.63,10.48V57.84S.63,68,10.78,68H69.22s10.15,0,10.15-10.15V10.48S79.37.33,69.22.33Z"/><polygon class="cls-3" points="52.21 26.95 50.07 26.95 50.07 24.73 50.07 22.85 48.13 22.85 45.97 22.85 45.97 20.66 45.97 18.75 44.05 18.75 41.86 18.75 41.86 16.58 41.86 14.65 39.98 14.65 37.76 14.65 37.76 16.58 37.76 18.75 35.9 18.75 34.03 18.75 34.03 20.66 34.03 22.85 31.83 22.85 29.93 22.85 29.93 24.73 29.93 26.95 27.75 26.95 25.83 26.95 25.83 30.85 25.83 34.78 27.75 34.78 29.93 34.78 29.93 32.89 29.93 30.68 31.83 30.68 34.03 30.68 34.03 28.81 34.03 26.95 35.9 26.95 37.39 26.95 37.39 50.07 42.24 50.07 42.24 26.95 44.05 26.95 45.97 26.95 45.97 28.81 45.97 30.68 48.13 30.68 50.07 30.68 50.07 32.89 50.07 34.78 52.21 34.78 54.17 34.78 54.17 30.85 54.17 26.95 52.21 26.95"/><polygon class="cls-4" points="52.21 29.07 50.07 29.07 50.07 26.85 50.07 24.96 48.13 24.96 45.97 24.96 45.97 22.77 45.97 20.86 44.05 20.86 41.86 20.86 41.86 18.7 41.86 16.76 39.98 16.76 37.76 16.76 37.76 18.7 37.76 20.86 35.9 20.86 34.03 20.86 34.03 22.77 34.03 24.96 31.83 24.96 29.93 24.96 29.93 26.85 29.93 29.07 27.75 29.07 25.83 29.07 25.83 32.96 25.83 36.9 27.75 36.9 29.93 36.9 29.93 35 29.93 32.79 31.83 32.79 34.03 32.79 34.03 30.93 34.03 29.07 35.9 29.07 37.39 29.07 37.39 52.18 42.24 52.18 42.24 29.07 44.05 29.07 45.97 29.07 45.97 30.93 45.97 32.79 48.13 32.79 50.07 32.79 50.07 35 50.07 36.9 52.21 36.9 54.17 36.9 54.17 32.96 54.17 29.07 52.21 29.07"/></svg>