<svg xmlns="http://www.w3.org/2000/svg" xmlns:xlink="http://www.w3.org/1999/xlink" viewBox="0 0 80 80"><defs><style>.cls-1,.cls-77{fill:none;}.cls-2{isolation:isolate;}.cls-3{fill:url(#linear-gradient);}.cls-4{fill:url(#linear-gradient-2);}.cls-5{fill:url(#linear-gradient-3);}.cls-6{fill:#777;}.cls-7,.cls-71,.cls-72{opacity:0.35;mix-blend-mode:overlay;}.cls-7{fill:url(#linear-gradient-4);}.cls-8{fill:#1d6f8c;}.cls-9{fill:#00c3ff;}.cls-10{fill:#cacbca;}.cls-11{clip-path:url(#clip-path);}.cls-12{fill:#d2d3d2;}.cls-13{fill:#d1d2d1;}.cls-14{fill:#d0d1d0;}.cls-15{clip-path:url(#clip-path-2);}.cls-16{fill:#fff;}.cls-17{fill:#fefefe;}.cls-18{fill:#fdfdfd;}.cls-19{fill:#fcfcfc;}.cls-20{fill:#fbfbfb;}.cls-21{fill:#fafafa;}.cls-22{fill:#f9f9f9;}.cls-23{fill:#f8f8f8;}.cls-24{fill:#f7f7f7;}.cls-25{fill:#f6f6f6;}.cls-26{fill:#f5f5f5;}.cls-27{fill:#f4f4f4;}.cls-28{fill:#f3f3f3;}.cls-29{fill:#f2f2f2;}.cls-30{fill:#f1f1f1;}.cls-31{fill:#f0f0f0;}.cls-32{fill:#efefef;}.cls-33{fill:#eee;}.cls-34{fill:#ededed;}.cls-35{fill:#ececec;}.cls-36{fill:#ebebeb;}.cls-37{fill:#eaeaea;}.cls-38{fill:#e9e9e9;}.cls-39{fill:#e8e8e8;}.cls-40{fill:#e7e7e7;}.cls-41{fill:#e6e6e6;}.cls-42{fill:#e5e5e5;}.cls-43{fill:#e3e4e3;}.cls-44{fill:#e2e3e2;}.cls-45{fill:#e1e2e1;}.cls-46{fill:#e0e1e0;}.cls-47{fill:#dfe0df;}.cls-48{fill:#dedfde;}.cls-49{fill:#dddedd;}.cls-50{fill:#dcdddc;}.cls-51{fill:#dbdcdb;}.cls-52{fill:#dadbda;}.cls-53{fill:#d9dad9;}.cls-54{fill:#d8d9d8;}.cls-55{fill:#d7d8d7;}.cls-56{fill:#d6d7d6;}.cls-57{fill:#d5d6d5;}.cls-58{fill:#d4d5d4;}.cls-59{fill:#d3d4d3;}.cls-60{fill:#cfd0cf;}.cls-61{fill:#cecfce;}.cls-62{fill:#cdcecd;}.cls-63{fill:#cccdcc;}.cls-64{fill:#cbcccb;}.cls-65{clip-path:url(#clip-path-3);}.cls-66{clip-path:url(#clip-path-4);}.cls-67{fill:#f1ea3c;}.cls-68{clip-path:url(#clip-path-5);}.cls-69{clip-path:url(#clip-path-6);}.cls-70{fill:#969696;}.cls-71{fill:url(#linear-gradient-5);}.cls-72{fill:url(#linear-gradient-6);}.cls-73{opacity:0.15;}.cls-74{mix-blend-mode:multiply;}.cls-75{fill:url(#linear-gradient-7);}.cls-76{fill:#7d7d7d;}.cls-77{stroke:#00c3ff;stroke-linecap:round;stroke-miterlimit:10;}.cls-78{mix-blend-mode:lighten;}.cls-79{fill:url(#linear-gradient-8);}</style><linearGradient id="linear-gradient" x1="13.71" y1="78.34" x2="10.37" y2="75.25" gradientTransform="translate(-7.06 -11.21) rotate(-8.85)" gradientUnits="userSpaceOnUse"><stop offset="0" stop-color="#ff931e"/><stop offset="0.2" stop-color="#ff971d"/><stop offset="0.39" stop-color="#ffa21a"/><stop offset="0.58" stop-color="#ffb515"/><stop offset="0.76" stop-color="#ffd00d"/><stop offset="0.94" stop-color="#fff204"/><stop offset="1" stop-color="#ff0"/></linearGradient><linearGradient id="linear-gradient-2" x1="16.4" y1="91.38" x2="15.97" y2="83.65" xlink:href="#linear-gradient"/><linearGradient id="linear-gradient-3" x1="68.37" y1="89.64" x2="69.36" y2="81.56" xlink:href="#linear-gradient"/><linearGradient id="linear-gradient-4" x1="-314.04" y1="72.15" x2="-308.5" y2="72.15" gradientTransform="matrix(-0.99, 0.15, 0.15, 0.99, -299.93, 34.37)" gradientUnits="userSpaceOnUse"><stop offset="0" stop-color="#f2f2f2"/><stop offset="0.91" stop-color="gray"/></linearGradient><clipPath id="clip-path"><path class="cls-1" d="M24.07,51.33c-.08-.05-.34.22,0,0Z"/></clipPath><clipPath id="clip-path-2"><path class="cls-1" d="M36,23.09l-.08,0-2.12-.33a20.38,20.38,0,0,0-5.17,4.83c-.09.13-.31.17-.4.3a26.2,26.2,0,0,0-5.51,13.89c-.09,1.37-.07,2.73-.05,4.08s.2,2.34.2,3.58a1.83,1.83,0,0,0,1.25,1.83c-.19.24-.41.28-.72.45-.62.34-.48,1.1-.49,1.67.11,1.22.09,2.36.2,3.58a43,43,0,0,0,2.13,9.81l3,.47,0-.07,2.22.34a43,43,0,0,1-2.13-9.81c-.11-1.22-.09-2.36-.2-3.58,0-.57-.13-1.33.49-1.67.31-.17.53-.21.72-.45A1.83,1.83,0,0,1,28,50.25c0-1.24-.09-2.36-.2-3.58s0-2.71.05-4.08A26.2,26.2,0,0,1,33.4,28.69c.09-.13.31-.17.4-.3A20.38,20.38,0,0,1,39,23.56Z"/></clipPath><clipPath id="clip-path-3"><path class="cls-1" d="M66.06,42.25c0-.08.41.06,0,0Z"/></clipPath><clipPath id="clip-path-4"><path class="cls-1" d="M43.42,21.61h.09l1.79-1.19A20.38,20.38,0,0,1,52,22.64c.14.08.35,0,.49.1A26.2,26.2,0,0,1,63.34,33c.66,1.21,1.21,2.45,1.76,3.68s.8,2.21,1.32,3.34a1.83,1.83,0,0,1-.36,2.18,2,2,0,0,0,.84.11c.7,0,.9.8,1.14,1.31.41,1.16.91,2.18,1.32,3.34a43,43,0,0,1,2.19,9.8L69,58.49v-.07l-1.87,1.25a43,43,0,0,0-2.19-9.8c-.41-1.16-.91-2.18-1.32-3.34-.25-.51-.44-1.26-1.14-1.31a2,2,0,0,1-.84-.11A1.83,1.83,0,0,0,62,42.93c-.52-1.13-.91-2.18-1.32-3.34s-1.1-2.47-1.76-3.68a26.2,26.2,0,0,0-10.83-10.3c-.14-.08-.35,0-.49-.1a20.38,20.38,0,0,0-6.73-2.21Z"/></clipPath><clipPath id="clip-path-5"><polygon class="cls-1" points="17.83 52.54 28.79 53.81 29.74 52.39 18.43 51.89 17.83 52.54"/></clipPath><clipPath id="clip-path-6"><path class="cls-1" d="M67.89,42.35l.62-1.61a.7.7,0,0,0-.57-.95h0l-1.44,2.1.72,4.84,1.38.69Z"/></clipPath><linearGradient id="linear-gradient-5" x1="14.07" y1="76.11" x2="19.62" y2="76.11" gradientTransform="translate(-7.06 -11.21) rotate(-8.85)" xlink:href="#linear-gradient-4"/><linearGradient id="linear-gradient-6" x1="-368.47" y1="73.14" x2="-362.92" y2="73.14" xlink:href="#linear-gradient-4"/><linearGradient id="linear-gradient-7" x1="47.71" y1="42.93" x2="60.2" y2="66.19" gradientUnits="userSpaceOnUse"><stop offset="0" stop-color="#f2f2f2"/><stop offset="0.14" stop-color="#eee"/><stop offset="0.27" stop-color="#e3e3e3"/><stop offset="0.4" stop-color="#d0d0d0"/><stop offset="0.52" stop-color="#b5b5b5"/><stop offset="0.64" stop-color="#939393"/><stop offset="0.76" stop-color="#686868"/><stop offset="0.88" stop-color="#373737"/><stop offset="1"/></linearGradient><linearGradient id="linear-gradient-8" x1="55.45" y1="58.06" x2="48.27" y2="43.8" xlink:href="#linear-gradient-7"/></defs><title>happy-b3</title><g class="cls-2"><g id="Layer_2" data-name="Layer 2"><path class="cls-3" d="M14.77,62a4.43,4.43,0,0,0,1,5c2.39,2.07,4.3,3.52,4.3,3.52A3.86,3.86,0,0,1,22,66.8c2.32-1.61.8-5.32.8-5.32Z"/><path class="cls-4" d="M17.64,67.6a4.43,4.43,0,0,0,1,5c2.39,2.07,4.3,3.52,4.3,3.52a3.86,3.86,0,0,1,1.85-3.79c2.32-1.61.8-5.32.8-5.32Z"/><path class="cls-5" d="M77.31,55.31a4.43,4.43,0,0,1,.55,5.11c-1.65,2.7-3,4.67-3,4.67A3.86,3.86,0,0,0,71.91,62c-2.7-.83-2.38-4.82-2.38-4.82Z"/><path class="cls-6" d="M19.45,52.61a9.06,9.06,0,0,0-5.12,10,10.83,10.83,0,0,0,10.44.24S25.36,55.41,19.45,52.61Z"/><path class="cls-7" d="M17.27,54.24S21,55.31,21.69,58.8s-4.89,3.41-5.53.45A6.13,6.13,0,0,1,17.27,54.24Z"/><path class="cls-8" d="M69.8,32C69,30.38,68,29.37,67,29.64h0L60.79,32l4.65,8.52L70,35.65C70.73,35.23,70.63,33.61,69.8,32Z"/><path class="cls-9" d="M11.67,42.54,6.52,40.28a.21.21,0,0,1,.07-.34l1-.42L5.16,37.18A.11.11,0,0,1,5.28,37l5,2.24a.21.21,0,0,1,0,.37l-.88.5L12,42.57"/><path class="cls-9" d="M10.67,45,4.15,46.9c-.18,0-.31-.15-.25-.29l.48-1-4.23,0c-.15,0-.2-.17-.06-.21l6.41-1.88c.2-.06.41.1.35.26l-.31,1,4.41,0"/><path class="cls-9" d="M76.42,21.85l-2.11,3.87,1,.2c.17,0,.21.29.06.43L70.61,31c-.11.1-.23,0-.16-.15l2-3.71-1.1-.07c-.15,0-.22-.19-.13-.36L76.14,22"/><path class="cls-10" d="M72.44,56.11s1-4.75-3.83-15.89c-.18-.42-1.3-.45-1.3-.45a5.28,5.28,0,0,0,.39-1.65C62.25,25.56,50.68,17.78,39,19.59A25.57,25.57,0,0,0,17.75,44.46c0,1.3.15,4.57.13,5.79,0,.51,1.15,1.3,1.15,1.3s-1.19.72-1.2,1c-.19,9.52,1.92,14.56,1.92,14.56S52.53,77.29,72.44,56.11Z"/><g class="cls-11"><polygon class="cls-12" points="23.75 51.34 23.67 51.57 23.64 51.58 23.61 51.36 23.75 51.34"/><polygon class="cls-13" points="23.94 51.31 23.86 51.54 23.67 51.57 23.75 51.34 23.94 51.31"/><polygon class="cls-14" points="23.86 51.54 23.94 51.31 23.97 51.31 24 51.52 23.86 51.54"/></g><g class="cls-15"><polygon class="cls-16" points="24.13 23.72 19.87 38.08 17.79 24.7 24.13 23.72"/><polygon class="cls-16" points="24.31 23.69 19.93 38.46 19.87 38.08 24.13 23.72 24.31 23.69"/><polygon class="cls-17" points="24.5 23.66 19.99 38.84 19.93 38.46 24.31 23.69 24.5 23.66"/><polygon class="cls-18" points="24.69 23.63 20.05 39.23 19.99 38.84 24.5 23.66 24.69 23.63"/><polygon class="cls-19" points="24.88 23.6 20.11 39.6 20.05 39.23 24.69 23.63 24.88 23.6"/><polygon class="cls-20" points="25.07 23.57 20.17 39.98 20.11 39.6 24.88 23.6 25.07 23.57"/><polygon class="cls-21" points="25.26 23.54 20.23 40.37 20.17 39.98 25.07 23.57 25.26 23.54"/><polygon class="cls-22" points="25.44 23.51 20.28 40.74 20.23 40.37 25.26 23.54 25.44 23.51"/><polygon class="cls-23" points="25.63 23.48 20.34 41.13 20.28 40.74 25.44 23.51 25.63 23.48"/><polygon class="cls-24" points="25.82 23.45 20.4 41.51 20.34 41.13 25.63 23.48 25.82 23.45"/><polygon class="cls-25" points="26.01 23.43 20.46 41.89 20.4 41.51 25.82 23.45 26.01 23.43"/><polygon class="cls-26" points="26.2 23.4 20.52 42.27 20.46 41.89 26.01 23.43 26.2 23.4"/><polygon class="cls-27" points="26.39 23.37 20.58 42.65 20.52 42.27 26.2 23.4 26.39 23.37"/><polygon class="cls-28" points="26.57 23.34 20.64 43.03 20.58 42.65 26.39 23.37 26.57 23.34"/><polygon class="cls-29" points="26.76 23.31 20.7 43.41 20.64 43.03 26.57 23.34 26.76 23.31"/><polygon class="cls-30" points="26.95 23.28 20.76 43.79 20.7 43.41 26.76 23.31 26.95 23.28"/><polygon class="cls-31" points="27.14 23.25 20.82 44.17 20.76 43.79 26.95 23.28 27.14 23.25"/><polygon class="cls-32" points="27.33 23.22 20.88 44.55 20.82 44.17 27.14 23.25 27.33 23.22"/><polygon class="cls-33" points="27.52 23.19 20.93 44.93 20.88 44.55 27.33 23.22 27.52 23.19"/><polygon class="cls-34" points="27.71 23.16 20.99 45.31 20.93 44.93 27.52 23.19 27.71 23.16"/><polygon class="cls-35" points="27.89 23.13 21.05 45.69 20.99 45.31 27.71 23.16 27.89 23.13"/><polygon class="cls-36" points="28.08 23.1 21.11 46.07 21.05 45.69 27.89 23.13 28.08 23.1"/><polygon class="cls-37" points="28.27 23.07 21.17 46.45 21.11 46.07 28.08 23.1 28.27 23.07"/><polygon class="cls-38" points="28.46 23.04 21.23 46.83 21.17 46.45 28.27 23.07 28.46 23.04"/><polygon class="cls-39" points="28.65 23.02 21.29 47.21 21.23 46.83 28.46 23.04 28.65 23.02"/><polygon class="cls-40" points="28.84 22.98 21.35 47.59 21.29 47.21 28.65 23.02 28.84 22.98"/><polygon class="cls-41" points="29.03 22.96 21.41 47.97 21.35 47.59 28.84 22.98 29.03 22.96"/><polygon class="cls-42" points="29.21 22.93 21.47 48.35 21.41 47.97 29.03 22.96 29.21 22.93"/><polygon class="cls-43" points="29.4 22.9 21.53 48.73 21.47 48.35 29.21 22.93 29.4 22.9"/><polygon class="cls-44" points="29.59 22.87 21.59 49.11 21.53 48.73 29.4 22.9 29.59 22.87"/><polygon class="cls-45" points="29.78 22.84 21.64 49.49 21.59 49.11 29.59 22.87 29.78 22.84"/><polygon class="cls-46" points="29.97 22.81 21.7 49.87 21.64 49.49 29.78 22.84 29.97 22.81"/><polygon class="cls-47" points="30.16 22.78 21.76 50.25 21.7 49.87 29.97 22.81 30.16 22.78"/><polygon class="cls-48" points="30.35 22.75 21.82 50.63 21.76 50.25 30.16 22.78 30.35 22.75"/><polygon class="cls-49" points="30.53 22.72 21.88 51.01 21.82 50.63 30.35 22.75 30.53 22.72"/><polygon class="cls-50" points="30.72 22.69 21.94 51.39 21.88 51.01 30.53 22.72 30.72 22.69"/><polygon class="cls-51" points="30.91 22.66 22 51.77 21.94 51.39 30.72 22.69 30.91 22.66"/><polygon class="cls-52" points="31.1 22.63 22.06 52.15 22 51.77 30.91 22.66 31.1 22.63"/><polygon class="cls-53" points="31.29 22.6 22.12 52.53 22.06 52.15 31.1 22.63 31.29 22.6"/><polygon class="cls-54" points="31.48 22.57 22.18 52.91 22.12 52.53 31.29 22.6 31.48 22.57"/><polygon class="cls-55" points="31.66 22.55 22.24 53.29 22.18 52.91 31.48 22.57 31.66 22.55"/><polygon class="cls-56" points="31.85 22.52 22.3 53.67 22.24 53.29 31.66 22.55 31.85 22.52"/><polygon class="cls-57" points="32.04 22.49 22.36 54.05 22.3 53.67 31.85 22.52 32.04 22.49"/><polygon class="cls-58" points="32.23 22.46 22.41 54.43 22.36 54.05 32.04 22.49 32.23 22.46"/><polygon class="cls-59" points="32.42 22.43 22.47 54.81 22.41 54.43 32.23 22.46 32.42 22.43"/><polygon class="cls-12" points="32.61 22.4 22.53 55.19 22.47 54.81 32.42 22.43 32.61 22.4"/><polygon class="cls-13" points="32.8 22.37 22.59 55.57 22.53 55.19 32.61 22.4 32.8 22.37"/><polygon class="cls-14" points="32.98 22.34 22.65 55.95 22.59 55.57 32.8 22.37 32.98 22.34"/><polygon class="cls-60" points="33.17 22.31 22.71 56.33 22.65 55.95 32.98 22.34 33.17 22.31"/><polygon class="cls-61" points="33.36 22.28 22.77 56.71 22.71 56.33 33.17 22.31 33.36 22.28"/><polygon class="cls-62" points="33.55 22.25 22.83 57.09 22.77 56.71 33.36 22.28 33.55 22.25"/><polygon class="cls-63" points="33.74 22.22 22.89 57.47 22.83 57.09 33.55 22.25 33.74 22.22"/><polygon class="cls-64" points="33.93 22.19 22.95 57.85 22.89 57.47 33.74 22.22 33.93 22.19"/><polygon class="cls-10" points="34.12 22.16 23.01 58.23 22.95 57.85 33.93 22.19 34.12 22.16"/><polygon class="cls-10" points="36.05 21.86 39.58 23.18 45.99 64.38 27.74 67.22 24.35 66.88 23.01 58.23 34.12 22.16 36.05 21.86"/></g><g class="cls-65"><polygon class="cls-12" points="66.36 42.31 66.21 42.19 66.34 42.17 66.36 42.31 66.36 42.31"/><polygon class="cls-13" points="66.15 42.34 66.01 42.22 66.21 42.19 66.36 42.31 66.15 42.34"/><polygon class="cls-14" points="66.01 42.22 66.15 42.34 66 42.36 65.98 42.22 66.01 42.22"/></g><g class="cls-66"><polygon class="cls-16" points="68.12 32.79 55.38 18.86 65.7 17.25 68.12 32.79"/><polygon class="cls-16" points="68.17 33.1 55.17 18.89 55.38 18.86 68.12 32.79 68.17 33.1"/><polygon class="cls-17" points="68.21 33.41 54.97 18.92 55.17 18.89 68.17 33.1 68.21 33.41"/><polygon class="cls-18" points="68.26 33.71 54.77 18.95 54.97 18.92 68.21 33.41 68.26 33.71"/><polygon class="cls-19" points="68.31 34.02 54.57 18.98 54.77 18.95 68.26 33.71 68.31 34.02"/><polygon class="cls-20" points="68.36 34.32 54.36 19.01 54.57 18.98 68.31 34.02 68.36 34.32"/><polygon class="cls-21" points="68.4 34.63 54.16 19.04 54.36 19.01 68.36 34.32 68.4 34.63"/><polygon class="cls-22" points="68.45 34.94 53.96 19.07 54.16 19.04 68.4 34.63 68.45 34.94"/><polygon class="cls-23" points="68.5 35.24 53.76 19.11 53.96 19.07 68.45 34.94 68.5 35.24"/><polygon class="cls-24" points="68.55 35.55 53.55 19.14 53.76 19.11 68.5 35.24 68.55 35.55"/><polygon class="cls-25" points="68.59 35.85 53.35 19.17 53.55 19.14 68.55 35.55 68.59 35.85"/><polygon class="cls-26" points="68.64 36.16 53.15 19.2 53.35 19.17 68.59 35.85 68.64 36.16"/><polygon class="cls-27" points="68.69 36.47 52.95 19.23 53.15 19.2 68.64 36.16 68.69 36.47"/><polygon class="cls-28" points="68.74 36.77 52.74 19.26 52.95 19.23 68.69 36.47 68.74 36.77"/><polygon class="cls-29" points="68.78 37.08 52.54 19.3 52.74 19.26 68.74 36.77 68.78 37.08"/><polygon class="cls-30" points="68.83 37.38 52.34 19.33 52.54 19.3 68.78 37.08 68.83 37.38"/><polygon class="cls-31" points="68.88 37.69 52.13 19.36 52.34 19.33 68.83 37.38 68.88 37.69"/><polygon class="cls-32" points="68.93 37.99 51.93 19.39 52.13 19.36 68.88 37.69 68.93 37.99"/><polygon class="cls-33" points="68.97 38.3 51.73 19.42 51.93 19.39 68.93 37.99 68.97 38.3"/><polygon class="cls-34" points="69.02 38.61 51.53 19.45 51.73 19.42 68.97 38.3 69.02 38.61"/><polygon class="cls-35" points="69.07 38.91 51.33 19.48 51.53 19.45 69.02 38.61 69.07 38.91"/><polygon class="cls-36" points="69.12 39.22 51.12 19.52 51.33 19.48 69.07 38.91 69.12 39.22"/><polygon class="cls-37" points="69.17 39.52 50.92 19.55 51.12 19.52 69.12 39.22 69.17 39.52"/><polygon class="cls-38" points="69.21 39.83 50.72 19.58 50.92 19.55 69.17 39.52 69.21 39.83"/><polygon class="cls-39" points="69.26 40.14 50.52 19.61 50.72 19.58 69.21 39.83 69.26 40.14"/><polygon class="cls-40" points="69.31 40.44 50.31 19.64 50.52 19.61 69.26 40.14 69.31 40.44"/><polygon class="cls-41" points="69.36 40.75 50.11 19.67 50.31 19.64 69.31 40.44 69.36 40.75"/><polygon class="cls-42" points="69.4 41.05 49.91 19.71 50.11 19.67 69.36 40.75 69.4 41.05"/><polygon class="cls-43" points="69.45 41.36 49.7 19.74 49.91 19.71 69.4 41.05 69.45 41.36"/><polygon class="cls-44" points="69.5 41.66 49.5 19.77 49.7 19.74 69.45 41.36 69.5 41.66"/><polygon class="cls-45" points="69.55 41.97 49.3 19.8 49.5 19.77 69.5 41.66 69.55 41.97"/><polygon class="cls-46" points="69.59 42.28 49.1 19.83 49.3 19.8 69.55 41.97 69.59 42.28"/><polygon class="cls-47" points="69.64 42.58 48.89 19.86 49.1 19.83 69.59 42.28 69.64 42.58"/><polygon class="cls-48" points="69.69 42.89 48.69 19.89 48.89 19.86 69.64 42.58 69.69 42.89"/><polygon class="cls-49" points="69.74 43.2 48.49 19.93 48.69 19.89 69.69 42.89 69.74 43.2"/><polygon class="cls-50" points="69.78 43.5 48.29 19.96 48.49 19.93 69.74 43.2 69.78 43.5"/><polygon class="cls-51" points="69.83 43.81 48.08 19.99 48.29 19.96 69.78 43.5 69.83 43.81"/><polygon class="cls-52" points="69.88 44.11 47.88 20.02 48.08 19.99 69.83 43.81 69.88 44.11"/><polygon class="cls-53" points="69.93 44.42 47.68 20.05 47.88 20.02 69.88 44.11 69.93 44.42"/><polygon class="cls-54" points="69.97 44.73 47.48 20.08 47.68 20.05 69.93 44.42 69.97 44.73"/><polygon class="cls-55" points="70.02 45.03 47.27 20.12 47.48 20.08 69.97 44.73 70.02 45.03"/><polygon class="cls-56" points="70.07 45.34 47.07 20.15 47.27 20.12 70.02 45.03 70.07 45.34"/><polygon class="cls-57" points="70.12 45.64 46.87 20.18 47.07 20.15 70.07 45.34 70.12 45.64"/><polygon class="cls-58" points="70.17 45.95 46.67 20.21 46.87 20.18 70.12 45.64 70.17 45.95"/><polygon class="cls-59" points="70.21 46.26 46.46 20.24 46.67 20.21 70.17 45.95 70.21 46.26"/><polygon class="cls-12" points="70.26 46.56 46.26 20.27 46.46 20.24 70.21 46.26 70.26 46.56"/><polygon class="cls-13" points="70.31 46.87 46.06 20.3 46.26 20.27 70.26 46.56 70.31 46.87"/><polygon class="cls-14" points="70.36 47.17 45.86 20.34 46.06 20.3 70.31 46.87 70.36 47.17"/><polygon class="cls-60" points="70.4 47.48 45.65 20.37 45.86 20.34 70.36 47.17 70.4 47.48"/><polygon class="cls-61" points="70.45 47.78 45.45 20.4 45.65 20.37 70.4 47.48 70.45 47.78"/><polygon class="cls-62" points="70.5 48.09 45.25 20.43 45.45 20.4 70.45 47.78 70.5 48.09"/><polygon class="cls-63" points="70.55 48.4 45.05 20.46 45.25 20.43 70.5 48.09 70.55 48.4"/><polygon class="cls-64" points="70.59 48.7 44.84 20.49 45.05 20.46 70.55 48.4 70.59 48.7"/><polygon class="cls-10" points="70.64 49.01 44.64 20.53 44.84 20.49 70.59 48.7 70.64 49.01"/><polygon class="cls-10" points="71.86 56.83 69.1 59.78 46.82 63.25 40.56 23.04 43.23 20.75 44.64 20.53 70.64 49.01 71.86 56.83"/></g><polyline class="cls-8" points="14.36 40.62 21.01 39.92 20.79 49.63 13.73 47.05"/><ellipse class="cls-8" cx="38.26" cy="20.54" rx="3.05" ry="1.15" transform="translate(-2.7 6.13) rotate(-8.85)"/><circle class="cls-67" cx="31.7" cy="3.57" r="1.74" transform="translate(-0.17 4.92) rotate(-8.85)"/><path class="cls-8" d="M32.43,4.44,39.8,20.87H37.3L31.52,4.55a.41.41,0,0,1,.38-.44A.49.49,0,0,1,32.43,4.44Z"/><ellipse class="cls-10" cx="14.14" cy="43.84" rx="1.53" ry="3.38" transform="translate(-0.24 0.08) rotate(-0.31)"/><g class="cls-68"><polygon class="cls-16" points="30.1 52.34 28.37 49.09 29.57 48.91 30.1 52.34"/><polygon class="cls-16" points="29.22 53.1 28.16 49.13 28.37 49.09 29.12 52.49 29.22 53.1"/><polygon class="cls-17" points="29.3 53.6 29.44 52.96 27.96 49.16 28.16 49.13 29.22 53.1 29.3 53.6"/><polygon class="cls-18" points="29.71 52.92 29.48 52.71 27.75 49.19 27.96 49.16 29.71 52.92"/><polygon class="cls-19" points="29.47 52.64 29.36 52.95 29.32 52.95 27.54 49.23 27.75 49.19 29.47 52.64"/><polygon class="cls-20" points="29.11 52.98 27.33 49.26 27.54 49.23 29.32 52.95 29.11 52.98"/><polygon class="cls-21" points="28.91 53.02 27.12 49.29 27.33 49.26 29.11 52.98 28.91 53.02"/><polygon class="cls-22" points="28.7 53.05 26.91 49.32 27.12 49.29 28.91 53.02 28.7 53.05"/><polygon class="cls-23" points="28.49 53.08 26.7 49.35 26.91 49.32 28.7 53.05 28.49 53.08"/><polygon class="cls-24" points="28.28 53.12 26.49 49.39 26.7 49.35 28.49 53.08 28.28 53.12"/><polygon class="cls-25" points="28.07 53.15 26.28 49.42 26.49 49.39 28.28 53.12 28.07 53.15"/><polygon class="cls-26" points="27.86 53.18 26.07 49.45 26.28 49.42 28.07 53.15 27.86 53.18"/><polygon class="cls-27" points="27.65 53.21 25.86 49.48 26.07 49.45 27.86 53.18 27.65 53.21"/><polygon class="cls-28" points="27.44 53.25 25.66 49.52 25.86 49.48 27.65 53.21 27.44 53.25"/><polygon class="cls-29" points="27.23 53.28 25.45 49.55 25.66 49.52 27.44 53.25 27.23 53.28"/><polygon class="cls-30" points="27.02 53.31 25.24 49.58 25.45 49.55 27.23 53.28 27.02 53.31"/><polygon class="cls-31" points="26.81 53.34 25.03 49.62 25.24 49.58 27.02 53.31 26.81 53.34"/><polygon class="cls-32" points="26.61 53.38 24.82 49.65 25.03 49.62 26.81 53.34 26.61 53.38"/><polygon class="cls-33" points="26.4 53.41 24.61 49.68 24.82 49.65 26.61 53.38 26.4 53.41"/><polygon class="cls-34" points="26.19 53.44 24.4 49.71 24.61 49.68 26.4 53.41 26.19 53.44"/><polygon class="cls-35" points="25.98 53.47 24.19 49.75 24.4 49.71 26.19 53.44 25.98 53.47"/><polygon class="cls-36" points="25.77 53.51 23.98 49.78 24.19 49.75 25.98 53.47 25.77 53.51"/><polygon class="cls-37" points="25.56 53.54 23.77 49.81 23.98 49.78 25.77 53.51 25.56 53.54"/><polygon class="cls-38" points="25.35 53.57 23.57 49.84 23.77 49.81 25.56 53.54 25.35 53.57"/><polygon class="cls-39" points="25.14 53.6 23.36 49.88 23.57 49.84 25.35 53.57 25.14 53.6"/><polygon class="cls-40" points="24.93 53.64 23.15 49.91 23.36 49.88 25.14 53.6 24.93 53.64"/><polygon class="cls-41" points="24.72 53.67 22.94 49.94 23.15 49.91 24.93 53.64 24.72 53.67"/><polygon class="cls-42" points="24.51 53.7 22.73 49.97 22.94 49.94 24.72 53.67 24.51 53.7"/><polygon class="cls-43" points="24.3 53.73 22.52 50.01 22.73 49.97 24.51 53.7 24.3 53.73"/><polygon class="cls-44" points="24.1 53.77 22.31 50.04 22.52 50.01 24.3 53.73 24.1 53.77"/><polygon class="cls-45" points="23.89 53.8 22.1 50.07 22.31 50.04 24.1 53.77 23.89 53.8"/><polygon class="cls-46" points="23.68 53.83 21.89 50.1 22.1 50.07 23.89 53.8 23.68 53.83"/><polygon class="cls-47" points="23.47 53.86 21.68 50.14 21.89 50.1 23.68 53.83 23.47 53.86"/><polygon class="cls-48" points="23.26 53.9 21.47 50.17 21.68 50.14 23.47 53.86 23.26 53.9"/><polygon class="cls-49" points="23.05 53.93 21.27 50.2 21.47 50.17 23.26 53.9 23.05 53.93"/><polygon class="cls-50" points="22.84 53.96 21.06 50.23 21.27 50.2 23.05 53.93 22.84 53.96"/><polygon class="cls-51" points="22.63 53.99 20.85 50.27 21.06 50.23 22.84 53.96 22.63 53.99"/><polygon class="cls-52" points="22.42 54.03 20.64 50.3 20.85 50.27 22.63 53.99 22.42 54.03"/><polygon class="cls-53" points="22.21 54.06 20.43 50.33 20.64 50.3 22.42 54.03 22.21 54.06"/><polygon class="cls-54" points="22 54.09 20.22 50.36 20.43 50.33 22.21 54.06 22 54.09"/><polygon class="cls-55" points="21.8 54.13 20.01 50.4 20.22 50.36 22 54.09 21.8 54.13"/><polygon class="cls-56" points="21.59 54.16 19.8 50.43 20.01 50.4 21.8 54.13 21.59 54.16"/><polygon class="cls-57" points="21.38 54.19 19.59 50.46 19.8 50.43 21.59 54.16 21.38 54.19"/><polygon class="cls-58" points="21.17 54.22 19.38 50.49 19.59 50.46 21.38 54.19 21.17 54.22"/><polygon class="cls-59" points="20.96 54.26 19.17 50.53 19.38 50.49 21.17 54.22 20.96 54.26"/><polygon class="cls-12" points="20.75 54.29 18.96 50.56 19.17 50.53 20.96 54.26 20.75 54.29"/><polygon class="cls-13" points="20.54 54.32 18.76 50.59 18.96 50.56 20.75 54.29 20.54 54.32"/><polygon class="cls-14" points="20.33 54.35 18.55 50.63 18.76 50.59 20.54 54.32 20.33 54.35"/><polygon class="cls-60" points="20.12 54.38 18.34 50.66 18.55 50.63 20.33 54.35 20.12 54.38"/><polygon class="cls-61" points="19.91 54.42 18.13 50.69 18.34 50.66 20.12 54.38 19.91 54.42"/><polygon class="cls-62" points="19.7 54.45 17.92 50.72 18.13 50.69 19.91 54.42 19.7 54.45"/><polygon class="cls-63" points="19.5 54.48 17.71 50.76 17.92 50.72 19.7 54.45 19.5 54.48"/><polygon class="cls-64" points="19.29 54.52 17.5 50.79 17.71 50.76 19.5 54.48 19.29 54.52"/><polygon class="cls-10" points="19.08 54.55 17.13 52.65 16.86 50.89 17.5 50.79 19.29 54.52 19.08 54.55"/><polygon class="cls-10" points="18.11 52.49 19.08 54.55 18.44 54.65 18.11 52.49"/></g><g class="cls-69"><polygon class="cls-16" points="68.44 41.23 67.14 40.13 67.49 39.73 68.19 39.62 68.44 41.23"/><polygon class="cls-16" points="68.46 41.35 67.1 40.26 67.08 40.2 68.44 41.23 68.46 41.35"/><polygon class="cls-17" points="68.48 41.46 67.05 40.34 67.03 40.27 68.46 41.35 68.48 41.46"/><polygon class="cls-18" points="68.5 41.58 67 40.41 66.98 40.35 68.48 41.46 68.5 41.58"/><polygon class="cls-19" points="68.52 41.7 66.95 40.48 66.93 40.42 68.5 41.58 68.52 41.7"/><polygon class="cls-20" points="68.54 41.82 66.9 40.55 66.88 40.49 68.52 41.7 68.54 41.82"/><polygon class="cls-21" points="68.56 41.94 66.85 40.62 66.83 40.56 68.54 41.82 68.56 41.94"/><polygon class="cls-22" points="68.57 42.06 66.8 40.69 66.78 40.63 68.56 41.94 68.57 42.06"/><polygon class="cls-23" points="68.59 42.17 66.75 40.76 66.73 40.7 68.57 42.06 68.59 42.17"/><polygon class="cls-24" points="68.61 42.29 66.7 40.83 66.68 40.77 68.59 42.17 68.61 42.29"/><polygon class="cls-25" points="69.13 42.33 66.9 40.86 67.01 40.78 69.11 42.22 69.13 42.33"/><polygon class="cls-26" points="69.61 42.38 67.08 40.89 67.31 40.8 69.59 42.26 69.61 42.38"/><polygon class="cls-27" points="69.63 42.5 67.04 40.96 67.25 40.87 69.61 42.38 69.63 42.5"/><polygon class="cls-28" points="69.65 42.62 66.99 41.03 67.21 40.94 69.63 42.5 69.65 42.62"/><polygon class="cls-29" points="69.67 42.73 66.94 41.1 67.16 41.01 69.65 42.62 69.67 42.73"/><polygon class="cls-30" points="69.68 42.85 66.89 41.17 67.11 41.08 69.67 42.73 69.68 42.85"/><polygon class="cls-31" points="69.7 42.97 66.84 41.25 67.06 41.15 69.68 42.85 69.7 42.97"/><polygon class="cls-32" points="69.72 43.09 66.79 41.32 67.01 41.22 69.7 42.97 69.72 43.09"/><polygon class="cls-33" points="69.74 43.21 66.74 41.39 66.96 41.29 69.72 43.09 69.74 43.21"/><polygon class="cls-34" points="69.76 43.33 66.69 41.46 66.91 41.36 69.74 43.21 69.76 43.33"/><polygon class="cls-35" points="69.78 43.44 66.48 41.58 66.47 41.52 66.76 41.45 69.76 43.33 69.78 43.44"/><polygon class="cls-36" points="69.79 43.56 66.5 41.7 66.48 41.58 69.78 43.44 69.79 43.56"/><polygon class="cls-37" points="69.81 43.68 66.52 41.82 66.5 41.7 69.79 43.56 69.81 43.68"/><polygon class="cls-38" points="69.83 43.8 66.54 41.94 66.52 41.82 69.81 43.68 69.83 43.8"/><polygon class="cls-39" points="69.85 43.92 66.56 42.05 66.54 41.94 69.83 43.8 69.85 43.92"/><polygon class="cls-40" points="69.87 44.04 66.57 42.17 66.56 42.05 69.85 43.92 69.87 44.04"/><polygon class="cls-41" points="69.89 44.15 66.59 42.29 66.57 42.17 69.87 44.04 69.89 44.15"/><polygon class="cls-42" points="69.9 44.27 66.61 42.41 66.59 42.29 69.89 44.15 69.9 44.27"/><polygon class="cls-43" points="69.92 44.39 66.63 42.53 66.61 42.41 69.9 44.27 69.92 44.39"/><polygon class="cls-44" points="69.94 44.51 66.65 42.65 66.63 42.53 69.92 44.39 69.94 44.51"/><polygon class="cls-45" points="69.96 44.63 66.67 42.77 66.65 42.65 69.94 44.51 69.96 44.63"/><polygon class="cls-46" points="69.98 44.75 66.68 42.88 66.67 42.77 69.96 44.63 69.98 44.75"/><polygon class="cls-47" points="70 44.86 66.7 43 66.68 42.88 69.98 44.75 70 44.86"/><polygon class="cls-48" points="70.01 44.98 66.72 43.12 66.7 43 70 44.86 70.01 44.98"/><polygon class="cls-49" points="70.03 45.1 66.74 43.24 66.72 43.12 70.01 44.98 70.03 45.1"/><polygon class="cls-50" points="70.05 45.22 66.76 43.36 66.74 43.24 70.03 45.1 70.05 45.22"/><polygon class="cls-51" points="70.07 45.34 66.78 43.48 66.76 43.36 70.05 45.22 70.07 45.34"/><polygon class="cls-52" points="70.09 45.46 66.79 43.59 66.78 43.48 70.07 45.34 70.09 45.46"/><polygon class="cls-53" points="70.11 45.57 66.81 43.71 66.79 43.59 70.09 45.46 70.11 45.57"/><polygon class="cls-54" points="70.13 45.69 66.83 43.83 66.81 43.71 70.11 45.57 70.13 45.69"/><polygon class="cls-55" points="70.14 45.81 66.85 43.95 66.83 43.83 70.13 45.69 70.14 45.81"/><polygon class="cls-56" points="70.16 45.93 66.87 44.07 66.85 43.95 70.14 45.81 70.16 45.93"/><polygon class="cls-57" points="70.18 46.05 66.89 44.19 66.87 44.07 70.16 45.93 70.18 46.05"/><polygon class="cls-58" points="70.2 46.16 66.9 44.3 66.89 44.19 70.18 46.05 70.2 46.16"/><polygon class="cls-59" points="70.22 46.28 66.92 44.42 66.9 44.3 70.2 46.16 70.22 46.28"/><polygon class="cls-12" points="70.22 46.31 69.92 46.41 66.94 44.54 66.92 44.42 70.22 46.28 70.22 46.31"/><polygon class="cls-13" points="69.58 46.46 69.56 46.52 66.96 44.66 66.94 44.54 69.58 46.46"/><polygon class="cls-14" points="69.53 46.53 69.52 46.59 66.98 44.78 66.96 44.66 69.53 46.53"/><polygon class="cls-60" points="69.48 46.6 69.47 46.67 67 44.9 66.98 44.78 69.48 46.6"/><polygon class="cls-61" points="69.43 46.67 69.42 46.74 67.02 45.01 67 44.9 69.43 46.67"/><polygon class="cls-62" points="69.38 46.74 69.37 46.81 67.03 45.13 67.02 45.01 69.38 46.74"/><polygon class="cls-63" points="69.33 46.81 69.32 46.88 67.05 45.25 67.03 45.13 69.33 46.81"/><polygon class="cls-64" points="69.28 46.88 69.27 46.95 67.07 45.37 67.05 45.25 69.28 46.88"/><polygon class="cls-10" points="69.23 46.95 69.22 47.02 67.09 45.49 67.07 45.37 69.23 46.95"/><polygon class="cls-10" points="69.16 46.86 68.81 47.06 67.37 47.29 67.09 45.49 69.16 46.86"/></g><path class="cls-9" d="M66.46,47.21,65.53,42l1.31-2.52A.63.63,0,0,1,68,40l-1.12,2.14.93,5.26-.1.19"/><path class="cls-9" d="M32.23,58.65l-.35,0L29.33,53,19,52.32a.63.63,0,0,1,.08-1.25l11.07.72,2.57,5.65"/><path class="cls-70" d="M21.61,57.28a10.37,10.37,0,0,0-5.86,11.43A12.38,12.38,0,0,0,27.68,69S28.36,60.49,21.61,57.28Z"/><path class="cls-70" d="M70.95,46.6A10.37,10.37,0,0,1,80,55.71a12.38,12.38,0,0,1-11.29,3.88S65.48,51.71,70.95,46.6Z"/><path class="cls-71" d="M21.61,57.58s-3.26,2.16-2.83,5.68S24.48,65,24.18,62A6.13,6.13,0,0,0,21.61,57.58Z"/><path class="cls-72" d="M71.2,46.85s3.76,1.06,4.42,4.56-4.89,3.41-5.53.45A6.13,6.13,0,0,1,71.2,46.85Z"/><ellipse class="cls-73" cx="47.76" cy="75.15" rx="16.77" ry="3.03"/><path class="cls-67" d="M58.13,21.89s.79-1.35,2-3.34c.61-1,1.33-2.17,2.12-3.4s1.64-2.54,2.49-3.85,1.6-2.69,2.46-3.87a24,24,0,0,1,2.68-3A22,22,0,0,1,72.14,2.6a10.42,10.42,0,0,1,1-.62l.24.18A10.43,10.43,0,0,1,73,3.25a22,22,0,0,1-1.16,2.66,24,24,0,0,1-2.11,3.4c-.89,1.15-2,2.25-3,3.44s-2,2.37-3,3.46-1.89,2.11-2.67,3c-1.57,1.74-2.65,2.88-2.65,2.88Z"/><path class="cls-67" d="M56.41,17.33s-.12-.84-.25-2.11c-.07-.63-.15-1.37-.2-2.16s-.11-1.63-.16-2.47-.23-1.69-.2-2.47A7,7,0,0,1,56.1,6a7.64,7.64,0,0,1,.77-1.47A4.45,4.45,0,0,1,57.29,4l.3,0a4.45,4.45,0,0,1,.35.6,7.64,7.64,0,0,1,.56,1.55,7,7,0,0,1,.22,2.16c-.07.78-.38,1.6-.52,2.42s-.3,1.65-.48,2.43-.34,1.49-.49,2.11c-.29,1.24-.52,2.06-.52,2.06Z"/><path class="cls-67" d="M62.91,22.51s.86-.54,2.17-1.31,3.07-1.78,4.83-2.78c.88-.49,1.73-1.07,2.58-1.49A15.17,15.17,0,0,1,74.92,16a11.41,11.41,0,0,1,2.58-.45l.09.18a11.41,11.41,0,0,1-2,1.71,15.17,15.17,0,0,1-2.23,1.33c-.86.39-1.84.68-2.78,1.05-1.89.72-3.77,1.48-5.21,2s-2.39.85-2.39.85Z"/><path class="cls-67" d="M29.77,18l-5.34-4.9a.27.27,0,0,1,.22-.38L26,12.6l-2-3.87a.14.14,0,0,1,.22-.17L29.5,13.4a.27.27,0,0,1-.14.46l-1.28.24,2,4"/><path class="cls-67" d="M27.57,21.65,14.89,20.46c-.32-.14-.43-.49-.23-.67l1.52-1.39-7.33-3c-.27-.11-.23-.44,0-.41l12.44,1.22c.39,0,.64.45.42.7l-1.22,1.47,7.62,3.15"/><g class="cls-74"><path class="cls-75" d="M49.34,55.36a7.18,7.18,0,0,1-3.93-1.12,11.09,11.09,0,0,1-4.18-6l-2,2.11a.49.49,0,1,1-.72-.68l3.26-3.45.19.93s.92,4.33,4,6.27a6.8,6.8,0,0,0,5.42.71c1.81-.43,4.2-1.41,5.33-3.58,1-1.93.88-4.51-.36-7.67L56,41.92l5,1.47a.49.49,0,0,1-.28.95l-3.1-.91c1,3,1,5.57,0,7.56s-3.1,3.4-6,4.09A9.66,9.66,0,0,1,49.34,55.36Z"/></g><path class="cls-67" d="M56.18,39.34S53.54,31.69,58,31.55s2.78,10.33,2.78,10.33-2.15-3.4-4-.4Z"/><path class="cls-67" d="M36.36,42.81S34.82,34.87,30.84,37s2.77,10.33,2.77,10.33.16-4,3.29-2.36Z"/><path class="cls-76" d="M56.58,40.75l.21.73a2.84,2.84,0,0,1,1-1.05A1.52,1.52,0,0,0,56.58,40.75Z"/><path class="cls-76" d="M58,31.55a3,3,0,0,0-.87.16c3.59,0,3.15,6.56,2.83,9.22a5.21,5.21,0,0,1,.82,1S62.7,31.4,58,31.55Z"/><path class="cls-76" d="M35.81,44.59A3.29,3.29,0,0,1,36.9,45l-.13-.53A1.57,1.57,0,0,0,35.81,44.59Z"/><path class="cls-76" d="M31.82,36.85a3.14,3.14,0,0,1,.49-.19,2.64,2.64,0,0,0-1.46.35c-4.1,2.2,2.77,10.33,2.77,10.33a5.23,5.23,0,0,1,.2-1.14C32.14,44,28.6,38.58,31.82,36.85Z"/><line class="cls-77" x1="64.1" y1="51.05" x2="67.24" y2="47.26"/><g class="cls-78"><path class="cls-79" d="M50.33,57.34a7.18,7.18,0,0,1-3.93-1.12,11.09,11.09,0,0,1-4.18-6l-2,2.11a.49.49,0,0,1-.72-.68l3.26-3.45.19.93s.92,4.33,4,6.27a6.81,6.81,0,0,0,5.42.71c1.81-.43,4.2-1.41,5.33-3.58,1-1.93.88-4.51-.36-7.67L57,43.9l5,1.47a.49.49,0,1,1-.28.95l-3.1-.91c1,3,1,5.57,0,7.56s-3.1,3.4-6,4.09A9.66,9.66,0,0,1,50.33,57.34Z"/></g><line class="cls-77" x1="32.23" y1="58.01" x2="37.3" y2="58.8"/><path class="cls-77" d="M38.87,51l2.6-2.76s1.89,9.31,10,7.37c4.41-1.06,8.35-4.21,5.32-11.92l4,1.19"/></g></g></svg>