<svg xmlns="http://www.w3.org/2000/svg" xmlns:xlink="http://www.w3.org/1999/xlink" viewBox="0 0 80 80"><defs><style>.cls-1{fill:none;}.cls-2{isolation:isolate;}.cls-3{fill:url(#linear-gradient);}.cls-4{fill:url(#linear-gradient-2);}.cls-5{fill:url(#linear-gradient-3);}.cls-6{fill:#777;}.cls-7,.cls-74,.cls-75{opacity:0.35;mix-blend-mode:overlay;}.cls-7{fill:url(#linear-gradient-4);}.cls-8{opacity:0.1;}.cls-9{fill:#1d6f8c;}.cls-10{fill:#00c3ff;}.cls-11{fill:#cacbca;}.cls-12{clip-path:url(#clip-path);}.cls-13{fill:#d2d3d2;}.cls-14{fill:#d1d2d1;}.cls-15{fill:#d0d1d0;}.cls-16{clip-path:url(#clip-path-2);}.cls-17{fill:#fff;}.cls-18{fill:#fefefe;}.cls-19{fill:#fdfdfd;}.cls-20{fill:#fcfcfc;}.cls-21{fill:#fbfbfb;}.cls-22{fill:#fafafa;}.cls-23{fill:#f9f9f9;}.cls-24{fill:#f8f8f8;}.cls-25{fill:#f7f7f7;}.cls-26{fill:#f6f6f6;}.cls-27{fill:#f5f5f5;}.cls-28{fill:#f4f4f4;}.cls-29{fill:#f3f3f3;}.cls-30{fill:#f2f2f2;}.cls-31{fill:#f1f1f1;}.cls-32{fill:#f0f0f0;}.cls-33{fill:#efefef;}.cls-34{fill:#eee;}.cls-35{fill:#ededed;}.cls-36{fill:#ececec;}.cls-37{fill:#ebebeb;}.cls-38{fill:#eaeaea;}.cls-39{fill:#e9e9e9;}.cls-40{fill:#e8e8e8;}.cls-41{fill:#e7e7e7;}.cls-42{fill:#e6e6e6;}.cls-43{fill:#e5e5e5;}.cls-44{fill:#e3e4e3;}.cls-45{fill:#e2e3e2;}.cls-46{fill:#e1e2e1;}.cls-47{fill:#e0e1e0;}.cls-48{fill:#dfe0df;}.cls-49{fill:#dedfde;}.cls-50{fill:#dddedd;}.cls-51{fill:#dcdddc;}.cls-52{fill:#dbdcdb;}.cls-53{fill:#dadbda;}.cls-54{fill:#d9dad9;}.cls-55{fill:#d8d9d8;}.cls-56{fill:#d7d8d7;}.cls-57{fill:#d6d7d6;}.cls-58{fill:#d5d6d5;}.cls-59{fill:#d4d5d4;}.cls-60{fill:#d3d4d3;}.cls-61{fill:#cfd0cf;}.cls-62{fill:#cecfce;}.cls-63{fill:#cdcecd;}.cls-64{fill:#cccdcc;}.cls-65{fill:#cbcccb;}.cls-66{clip-path:url(#clip-path-3);}.cls-67{clip-path:url(#clip-path-4);}.cls-68{fill:#f1ea3c;}.cls-69{fill:#7d7d7d;}.cls-70{clip-path:url(#clip-path-5);}.cls-71{clip-path:url(#clip-path-6);}.cls-72{clip-path:url(#clip-path-7);}.cls-73{fill:#969696;}.cls-74{fill:url(#linear-gradient-5);}.cls-75{fill:url(#linear-gradient-6);}</style><linearGradient id="linear-gradient" x1="15.63" y1="62.44" x2="12.25" y2="59.32" gradientUnits="userSpaceOnUse"><stop offset="0" stop-color="#ff931e"/><stop offset="0.2" stop-color="#ff971d"/><stop offset="0.39" stop-color="#ffa21a"/><stop offset="0.58" stop-color="#ffb515"/><stop offset="0.76" stop-color="#ffd00d"/><stop offset="0.94" stop-color="#fff204"/><stop offset="1" stop-color="#ff0"/></linearGradient><linearGradient id="linear-gradient-2" x1="18.35" y1="75.62" x2="17.91" y2="67.8" xlink:href="#linear-gradient"/><linearGradient id="linear-gradient-3" x1="70.87" y1="73.86" x2="71.87" y2="65.69" xlink:href="#linear-gradient"/><linearGradient id="linear-gradient-4" x1="124" y1="56.19" x2="129.6" y2="56.19" gradientTransform="matrix(-1, 0, 0, 1, 143.6, 0)" gradientUnits="userSpaceOnUse"><stop offset="0" stop-color="#f2f2f2"/><stop offset="0.91" stop-color="gray"/></linearGradient><clipPath id="clip-path"><path class="cls-1" d="M23.13,50.56c-.07-.06-.38.17,0,0Z"/></clipPath><clipPath id="clip-path-2"><path class="cls-1" d="M39.39,24.21l-.09,0-2.07-.66a20.6,20.6,0,0,0-5.92,4c-.11.12-.33.12-.44.24a26.48,26.48,0,0,0-7.66,13c-.3,1.36-.49,2.71-.68,4.07s-.17,2.37-.36,3.61a1.85,1.85,0,0,0,1,2,2,2,0,0,1-.79.34c-.67.24-.65,1-.75,1.59-.08,1.24-.28,2.37-.36,3.61a43.44,43.44,0,0,0,.6,10.13l2.95.94V67.1l2.17.69a43.44,43.44,0,0,1-.6-10.13c.08-1.24.28-2.37.36-3.61.1-.56.08-1.35.75-1.59a2,2,0,0,0,.79-.34,1.85,1.85,0,0,1-1-2c.19-1.24.28-2.37.36-3.61s.38-2.71.68-4.07a26.48,26.48,0,0,1,7.66-13c.11-.12.33-.12.44-.24a20.6,20.6,0,0,1,5.92-4Z"/></clipPath><clipPath id="clip-path-3"><path class="cls-1" d="M66.48,48c.06-.07.4.12,0,0Z"/></clipPath><clipPath id="clip-path-4"><path class="cls-1" d="M47.08,23.89l.09,0,2-.91a20.6,20.6,0,0,1,6.37,3.26c.12.1.35.08.47.18a26.48,26.48,0,0,1,9.21,12c.47,1.31.83,2.63,1.18,4s.46,2.33.8,3.54a1.85,1.85,0,0,1-.7,2.12,2,2,0,0,0,.82.24c.69.16.77.94.94,1.49.23,1.22.57,2.32.8,3.54a43.44,43.44,0,0,1,.66,10.12L66.9,64.7v-.07l-2.07,1a43.44,43.44,0,0,0-.66-10.12c-.23-1.22-.57-2.32-.8-3.54-.17-.55-.25-1.33-.94-1.49a2,2,0,0,1-.82-.24,1.85,1.85,0,0,0,.7-2.12c-.35-1.21-.57-2.32-.8-3.54s-.71-2.64-1.18-4a26.48,26.48,0,0,0-9.21-12c-.12-.1-.35-.08-.47-.18a20.6,20.6,0,0,0-6.37-3.26Z"/></clipPath><clipPath id="clip-path-5"><polygon class="cls-1" points="16.72 50.8 27.46 53.77 28.64 52.51 17.42 50.25 16.72 50.8"/></clipPath><clipPath id="clip-path-6"><path class="cls-1" d="M30.43,58.25l-1.07,1.41S43.24,63.08,47,61.57l-.51-1.41s-7.42.06-11.53-.84S30.43,58.25,30.43,58.25Z"/></clipPath><clipPath id="clip-path-7"><path class="cls-1" d="M68.28,48.41l.87-1.51a.71.71,0,0,0-.42-1h0L67,47.73l0,4.95,1.27.9Z"/></clipPath><linearGradient id="linear-gradient-5" x1="16" y1="60.19" x2="21.6" y2="60.19" gradientTransform="matrix(1, 0, 0, 1, 0, 0)" xlink:href="#linear-gradient-4"/><linearGradient id="linear-gradient-6" x1="69" y1="57.19" x2="74.6" y2="57.19" xlink:href="#linear-gradient-4"/></defs><title>intro-b3</title><g class="cls-2"><g id="Layer_2" data-name="Layer 2"><path class="cls-3" d="M12.19,59.81A4.47,4.47,0,0,0,12.44,65c2.06,2.44,3.75,4.19,3.75,4.19a3.9,3.9,0,0,1,2.44-3.5c2.56-1.25,1.63-5.19,1.63-5.19Z"/><path class="cls-4" d="M14.19,65.81A4.47,4.47,0,0,0,14.44,71c2.06,2.44,3.75,4.19,3.75,4.19a3.9,3.9,0,0,1,2.44-3.5c2.56-1.25,1.63-5.19,1.63-5.19Z"/><path class="cls-5" d="M75.68,62.81A4.47,4.47,0,0,1,75.43,68c-2.06,2.44-3.75,4.19-3.75,4.19a3.9,3.9,0,0,0-2.44-3.5c-2.56-1.25-1.62-5.19-1.62-5.19Z"/><path class="cls-6" d="M18.32,51.13a9.16,9.16,0,0,0-6.67,9.18A10.94,10.94,0,0,0,22,62.16S23.79,54.84,18.32,51.13Z"/><path class="cls-7" d="M15.89,52.42s3.59,1.65,3.71,5.24S14.18,60.3,14,57.24A6.19,6.19,0,0,1,15.89,52.42Z"/><g class="cls-8"><ellipse cx="44.27" cy="73.66" rx="20.88" ry="4.05"/></g><path class="cls-9" d="M71.62,38.31C71.07,36.6,70,35.4,69,35.52h0L62.61,37,66,46.21,71.31,42C72.09,41.72,72.2,40.08,71.62,38.31Z"/><path class="cls-10" d="M12.12,39.86,7.33,36.8a.21.21,0,0,1,.12-.32l1.05-.26-2-2.72a.11.11,0,0,1,.15-.16l4.68,3a.21.21,0,0,1,0,.37l-1,.36,2.11,2.84"/><path class="cls-10" d="M10.74,42.11,3.93,43c-.18,0-.29-.2-.2-.33l.63-.92L.13,41.12c-.15,0-.17-.2,0-.22L6.8,40c.21,0,.39.16.31.31l-.46.92L11,42"/><path class="cls-10" d="M80,29.26l-2.71,3.54,1,.36c.17.05.16.32,0,.44l-5.48,3.94c-.12.09-.23-.06-.13-.18L75.24,34l-1.09-.24c-.15,0-.19-.23-.08-.38l5.6-4"/><path class="cls-11" d="M70.69,62.86s1.7-4.59-1.36-16.46c-.11-.45-1.23-.65-1.23-.65s.72-1.29.65-1.59c-3.49-13.39-13.83-23-25.75-23A25.84,25.84,0,0,0,17.89,42.72c-.23,1.3-.56,4.59-.77,5.81C17,49,18.07,50,18.07,50s-1.3.54-1.35.79c-1.67,9.47-.34,14.83-.34,14.83S47.52,80.91,70.69,62.86Z"/><g class="cls-12"><polygon class="cls-13" points="22.81 50.52 22.7 50.74 22.67 50.74 22.67 50.52 22.81 50.52"/><polygon class="cls-14" points="23.01 50.52 22.89 50.74 22.7 50.74 22.81 50.52 23.01 50.52"/><polygon class="cls-15" points="22.89 50.74 23.01 50.52 23.03 50.52 23.03 50.74 22.89 50.74"/></g><g class="cls-16"><polygon class="cls-17" points="27.48 23 21 36.68 21 23 27.48 23"/><polygon class="cls-17" points="27.67 23 21 37.07 21 36.68 27.48 23 27.67 23"/><polygon class="cls-18" points="27.87 23 21 37.46 21 37.07 27.67 23 27.87 23"/><polygon class="cls-19" points="28.06 23 21 37.85 21 37.46 27.87 23 28.06 23"/><polygon class="cls-20" points="28.25 23 21 38.24 21 37.85 28.06 23 28.25 23"/><polygon class="cls-21" points="28.45 23 21 38.63 21 38.24 28.25 23 28.45 23"/><polygon class="cls-22" points="28.64 23 21 39.02 21 38.63 28.45 23 28.64 23"/><polygon class="cls-23" points="28.83 23 21 39.41 21 39.02 28.64 23 28.83 23"/><polygon class="cls-24" points="29.02 23 21 39.79 21 39.41 28.83 23 29.02 23"/><polygon class="cls-25" points="29.22 23 21 40.18 21 39.79 29.02 23 29.22 23"/><polygon class="cls-26" points="29.41 23 21 40.57 21 40.18 29.22 23 29.41 23"/><polygon class="cls-27" points="29.6 23 21 40.96 21 40.57 29.41 23 29.6 23"/><polygon class="cls-28" points="29.8 23 21 41.35 21 40.96 29.6 23 29.8 23"/><polygon class="cls-29" points="29.99 23 21 41.74 21 41.35 29.8 23 29.99 23"/><polygon class="cls-30" points="30.18 23 21 42.13 21 41.74 29.99 23 30.18 23"/><polygon class="cls-31" points="30.37 23 21 42.52 21 42.13 30.18 23 30.37 23"/><polygon class="cls-32" points="30.57 23 21 42.91 21 42.52 30.37 23 30.57 23"/><polygon class="cls-33" points="30.76 23 21 43.29 21 42.91 30.57 23 30.76 23"/><polygon class="cls-34" points="30.95 23 21 43.68 21 43.29 30.76 23 30.95 23"/><polygon class="cls-35" points="31.14 23 21 44.07 21 43.68 30.95 23 31.14 23"/><polygon class="cls-36" points="31.34 23 21 44.46 21 44.07 31.14 23 31.34 23"/><polygon class="cls-37" points="31.53 23 21 44.85 21 44.46 31.34 23 31.53 23"/><polygon class="cls-38" points="31.72 23 21 45.24 21 44.85 31.53 23 31.72 23"/><polygon class="cls-39" points="31.92 23 21 45.63 21 45.24 31.72 23 31.92 23"/><polygon class="cls-40" points="32.11 23 21 46.02 21 45.63 31.92 23 32.11 23"/><polygon class="cls-41" points="32.3 23 21 46.4 21 46.02 32.11 23 32.3 23"/><polygon class="cls-42" points="32.49 23 21 46.79 21 46.4 32.3 23 32.49 23"/><polygon class="cls-43" points="32.69 23 21 47.18 21 46.79 32.49 23 32.69 23"/><polygon class="cls-44" points="32.88 23 21 47.57 21 47.18 32.69 23 32.88 23"/><polygon class="cls-45" points="33.07 23 21 47.96 21 47.57 32.88 23 33.07 23"/><polygon class="cls-46" points="33.27 23 21 48.35 21 47.96 33.07 23 33.27 23"/><polygon class="cls-47" points="33.46 23 21 48.74 21 48.35 33.27 23 33.46 23"/><polygon class="cls-48" points="33.65 23 21 49.13 21 48.74 33.46 23 33.65 23"/><polygon class="cls-49" points="33.84 23 21 49.52 21 49.13 33.65 23 33.84 23"/><polygon class="cls-50" points="34.04 23 21 49.9 21 49.52 33.84 23 34.04 23"/><polygon class="cls-51" points="34.23 23 21 50.29 21 49.9 34.04 23 34.23 23"/><polygon class="cls-52" points="34.42 23 21 50.68 21 50.29 34.23 23 34.42 23"/><polygon class="cls-53" points="34.62 23 21 51.07 21 50.68 34.42 23 34.62 23"/><polygon class="cls-54" points="34.81 23 21 51.46 21 51.07 34.62 23 34.81 23"/><polygon class="cls-55" points="35 23 21 51.85 21 51.46 34.81 23 35 23"/><polygon class="cls-56" points="35.19 23 21 52.24 21 51.85 35 23 35.19 23"/><polygon class="cls-57" points="35.39 23 21 52.63 21 52.24 35.19 23 35.39 23"/><polygon class="cls-58" points="35.58 23 21 53.01 21 52.63 35.39 23 35.58 23"/><polygon class="cls-59" points="35.77 23 21 53.4 21 53.01 35.58 23 35.77 23"/><polygon class="cls-60" points="35.96 23 21 53.79 21 53.4 35.77 23 35.96 23"/><polygon class="cls-13" points="36.16 23 21 54.18 21 53.79 35.96 23 36.16 23"/><polygon class="cls-14" points="36.35 23 21 54.57 21 54.18 36.16 23 36.35 23"/><polygon class="cls-15" points="36.54 23 21 54.96 21 54.57 36.35 23 36.54 23"/><polygon class="cls-61" points="36.74 23 21 55.35 21 54.96 36.54 23 36.74 23"/><polygon class="cls-62" points="36.93 23 21 55.74 21 55.35 36.74 23 36.93 23"/><polygon class="cls-63" points="37.12 23 21 56.13 21 55.74 36.93 23 37.12 23"/><polygon class="cls-64" points="37.31 23 21 56.51 21 56.13 37.12 23 37.31 23"/><polygon class="cls-65" points="37.51 23 21 56.9 21 56.51 37.31 23 37.51 23"/><polygon class="cls-11" points="37.7 23 21 57.29 21 56.9 37.51 23 37.7 23"/><polygon class="cls-11" points="39.68 23 43 24.87 43 67 24.33 67 21 66.13 21 57.29 37.7 23 39.68 23"/></g><g class="cls-66"><polygon class="cls-13" points="66.76 48.13 66.63 47.98 66.76 47.98 66.76 48.13 66.76 48.13"/><polygon class="cls-14" points="66.56 48.13 66.43 47.98 66.63 47.98 66.76 48.13 66.56 48.13"/><polygon class="cls-15" points="66.43 47.98 66.56 48.13 66.4 48.13 66.4 47.98 66.43 47.98"/></g><g class="cls-67"><polygon class="cls-17" points="70 38.9 59.44 23 70 23 70 38.9"/><polygon class="cls-17" points="70 39.21 59.24 23 59.44 23 70 38.9 70 39.21"/><polygon class="cls-18" points="70 39.52 59.03 23 59.24 23 70 39.21 70 39.52"/><polygon class="cls-19" points="70 39.84 58.82 23 59.03 23 70 39.52 70 39.84"/><polygon class="cls-20" points="70 40.15 58.62 23 58.82 23 70 39.84 70 40.15"/><polygon class="cls-21" points="70 40.46 58.41 23 58.62 23 70 40.15 70 40.46"/><polygon class="cls-22" points="70 40.78 58.2 23 58.41 23 70 40.46 70 40.78"/><polygon class="cls-23" points="70 41.09 57.99 23 58.2 23 70 40.78 70 41.09"/><polygon class="cls-24" points="70 41.4 57.79 23 57.99 23 70 41.09 70 41.4"/><polygon class="cls-25" points="70 41.72 57.58 23 57.79 23 70 41.4 70 41.72"/><polygon class="cls-26" points="70 42.03 57.37 23 57.58 23 70 41.72 70 42.03"/><polygon class="cls-27" points="70 42.34 57.16 23 57.37 23 70 42.03 70 42.34"/><polygon class="cls-28" points="70 42.65 56.96 23 57.16 23 70 42.34 70 42.65"/><polygon class="cls-29" points="70 42.97 56.75 23 56.96 23 70 42.65 70 42.97"/><polygon class="cls-30" points="70 43.28 56.54 23 56.75 23 70 42.97 70 43.28"/><polygon class="cls-31" points="70 43.59 56.34 23 56.54 23 70 43.28 70 43.59"/><polygon class="cls-32" points="70 43.91 56.13 23 56.34 23 70 43.59 70 43.91"/><polygon class="cls-33" points="70 44.22 55.92 23 56.13 23 70 43.91 70 44.22"/><polygon class="cls-34" points="70 44.53 55.71 23 55.92 23 70 44.22 70 44.53"/><polygon class="cls-35" points="70 44.84 55.51 23 55.71 23 70 44.53 70 44.84"/><polygon class="cls-36" points="70 45.16 55.3 23 55.51 23 70 44.84 70 45.16"/><polygon class="cls-37" points="70 45.47 55.09 23 55.3 23 70 45.16 70 45.47"/><polygon class="cls-38" points="70 45.78 54.89 23 55.09 23 70 45.47 70 45.78"/><polygon class="cls-39" points="70 46.1 54.68 23 54.89 23 70 45.78 70 46.1"/><polygon class="cls-40" points="70 46.41 54.47 23 54.68 23 70 46.1 70 46.41"/><polygon class="cls-41" points="70 46.72 54.26 23 54.47 23 70 46.41 70 46.72"/><polygon class="cls-42" points="70 47.03 54.06 23 54.26 23 70 46.72 70 47.03"/><polygon class="cls-43" points="70 47.35 53.85 23 54.06 23 70 47.03 70 47.35"/><polygon class="cls-44" points="70 47.66 53.64 23 53.85 23 70 47.35 70 47.66"/><polygon class="cls-45" points="70 47.97 53.44 23 53.64 23 70 47.66 70 47.97"/><polygon class="cls-46" points="70 48.29 53.23 23 53.44 23 70 47.97 70 48.29"/><polygon class="cls-47" points="70 48.6 53.02 23 53.23 23 70 48.29 70 48.6"/><polygon class="cls-48" points="70 48.91 52.81 23 53.02 23 70 48.6 70 48.91"/><polygon class="cls-49" points="70 49.23 52.61 23 52.81 23 70 48.91 70 49.23"/><polygon class="cls-50" points="70 49.54 52.4 23 52.61 23 70 49.23 70 49.54"/><polygon class="cls-51" points="70 49.85 52.19 23 52.4 23 70 49.54 70 49.85"/><polygon class="cls-52" points="70 50.16 51.99 23 52.19 23 70 49.85 70 50.16"/><polygon class="cls-53" points="70 50.48 51.78 23 51.99 23 70 50.16 70 50.48"/><polygon class="cls-54" points="70 50.79 51.57 23 51.78 23 70 50.48 70 50.79"/><polygon class="cls-55" points="70 51.1 51.36 23 51.57 23 70 50.79 70 51.1"/><polygon class="cls-56" points="70 51.41 51.16 23 51.36 23 70 51.1 70 51.41"/><polygon class="cls-57" points="70 51.73 50.95 23 51.16 23 70 51.41 70 51.73"/><polygon class="cls-58" points="70 52.04 50.74 23 50.95 23 70 51.73 70 52.04"/><polygon class="cls-59" points="70 52.35 50.54 23 50.74 23 70 52.04 70 52.35"/><polygon class="cls-60" points="70 52.67 50.33 23 50.54 23 70 52.35 70 52.67"/><polygon class="cls-13" points="70 52.98 50.12 23 50.33 23 70 52.67 70 52.98"/><polygon class="cls-14" points="70 53.29 49.91 23 50.12 23 70 52.98 70 53.29"/><polygon class="cls-15" points="70 53.6 49.71 23 49.91 23 70 53.29 70 53.6"/><polygon class="cls-61" points="70 53.92 49.5 23 49.71 23 70 53.6 70 53.92"/><polygon class="cls-62" points="70 54.23 49.29 23 49.5 23 70 53.92 70 54.23"/><polygon class="cls-63" points="70 54.54 49.09 23 49.29 23 70 54.23 70 54.54"/><polygon class="cls-64" points="70 54.86 48.88 23 49.09 23 70 54.54 70 54.86"/><polygon class="cls-65" points="70 55.17 48.67 23 48.88 23 70 54.86 70 55.17"/><polygon class="cls-11" points="70 55.48 48.46 23 48.67 23 70 55.17 70 55.48"/><polygon class="cls-11" points="70 63.48 66.79 66 44 66 44 24.88 47.02 23 48.46 23 70 55.48 70 63.48"/></g><path class="cls-68" d="M32.6,47.43a3.77,3.77,0,0,0,2-3.16c.23-1.77-.43-3.34-1.5-3.74a3.77,3.77,0,0,0-2,3.16C30.88,45.45,31.53,47,32.6,47.43Z"/><path class="cls-69" d="M31.1,43.68a3.77,3.77,0,0,1,2-3.16,1.54,1.54,0,0,0-.35-.09c-1.27-.16-2.5,1.29-2.75,3.24s.58,3.67,1.85,3.83a1.6,1.6,0,0,0,.75-.09C31.53,47,30.88,45.45,31.1,43.68Z"/><path class="cls-68" d="M61.59,45.12a3.77,3.77,0,0,1-2.34-2.92c-.42-1.73.06-3.37,1.08-3.89a3.77,3.77,0,0,1,2.34,2.92C63.09,43,62.61,44.6,61.59,45.12Z"/><path class="cls-69" d="M62.67,41.23a3.77,3.77,0,0,0-2.34-2.92,1.54,1.54,0,0,1,.34-.13c1.24-.3,2.63,1,3.09,2.92s-.17,3.71-1.42,4a1.6,1.6,0,0,1-.75,0C62.61,44.6,63.09,43,62.67,41.23Z"/><polyline class="cls-9" points="15.11 38.36 21.86 38.7 20.13 48.36 13.48 44.68"/><ellipse class="cls-9" cx="42.09" cy="22.02" rx="3.08" ry="1.16"/><circle class="cls-68" cx="38.18" cy="4.06" r="1.76"/><path class="cls-9" d="M38.77,5l4.8,17.55-2.5-.39L37.85,5a.42.42,0,0,1,.44-.38A.49.49,0,0,1,38.77,5Z"/><ellipse class="cls-11" cx="14.38" cy="41.54" rx="3.42" ry="1.54" transform="translate(-28.84 49.59) rotate(-81.46)"/><g class="cls-70"><polygon class="cls-17" points="29 52.51 27.78 49 29 49 29 52.51"/><polygon class="cls-17" points="28 53.13 27.57 49 27.78 49 28 52.51 28 53.13"/><polygon class="cls-18" points="28 53.64 28.24 53.03 27.35 49 27.57 49 28 53.13 28 53.64"/><polygon class="cls-19" points="28.52 53.03 28.32 52.78 27.14 49 27.35 49 28.52 53.03"/><polygon class="cls-20" points="28.32 52.71 28.16 53 28.13 53 26.93 49 27.14 49 28.32 52.71"/><polygon class="cls-21" points="27.91 53 26.71 49 26.93 49 28.13 53 27.91 53"/><polygon class="cls-22" points="27.7 53 26.5 49 26.71 49 27.91 53 27.7 53"/><polygon class="cls-23" points="27.49 53 26.28 49 26.5 49 27.7 53 27.49 53"/><polygon class="cls-24" points="27.27 53 26.07 49 26.28 49 27.49 53 27.27 53"/><polygon class="cls-25" points="27.06 53 25.86 49 26.07 49 27.27 53 27.06 53"/><polygon class="cls-26" points="26.84 53 25.64 49 25.86 49 27.06 53 26.84 53"/><polygon class="cls-27" points="26.63 53 25.43 49 25.64 49 26.84 53 26.63 53"/><polygon class="cls-28" points="26.42 53 25.21 49 25.43 49 26.63 53 26.42 53"/><polygon class="cls-29" points="26.2 53 25 49 25.21 49 26.42 53 26.2 53"/><polygon class="cls-30" points="25.99 53 24.79 49 25 49 26.2 53 25.99 53"/><polygon class="cls-31" points="25.78 53 24.57 49 24.79 49 25.99 53 25.78 53"/><polygon class="cls-32" points="25.56 53 24.36 49 24.57 49 25.78 53 25.56 53"/><polygon class="cls-33" points="25.35 53 24.14 49 24.36 49 25.56 53 25.35 53"/><polygon class="cls-34" points="25.14 53 23.93 49 24.14 49 25.35 53 25.14 53"/><polygon class="cls-35" points="24.92 53 23.72 49 23.93 49 25.14 53 24.92 53"/><polygon class="cls-36" points="24.71 53 23.5 49 23.72 49 24.92 53 24.71 53"/><polygon class="cls-37" points="24.49 53 23.29 49 23.5 49 24.71 53 24.49 53"/><polygon class="cls-38" points="24.28 53 23.08 49 23.29 49 24.49 53 24.28 53"/><polygon class="cls-39" points="24.07 53 22.86 49 23.08 49 24.28 53 24.07 53"/><polygon class="cls-40" points="23.85 53 22.65 49 22.86 49 24.07 53 23.85 53"/><polygon class="cls-41" points="23.64 53 22.43 49 22.65 49 23.85 53 23.64 53"/><polygon class="cls-42" points="23.42 53 22.22 49 22.43 49 23.64 53 23.42 53"/><polygon class="cls-43" points="23.21 53 22.01 49 22.22 49 23.42 53 23.21 53"/><polygon class="cls-44" points="23 53 21.79 49 22.01 49 23.21 53 23 53"/><polygon class="cls-45" points="22.78 53 21.58 49 21.79 49 23 53 22.78 53"/><polygon class="cls-46" points="22.57 53 21.36 49 21.58 49 22.78 53 22.57 53"/><polygon class="cls-47" points="22.35 53 21.15 49 21.36 49 22.57 53 22.35 53"/><polygon class="cls-48" points="22.14 53 20.94 49 21.15 49 22.35 53 22.14 53"/><polygon class="cls-49" points="21.93 53 20.72 49 20.94 49 22.14 53 21.93 53"/><polygon class="cls-50" points="21.71 53 20.51 49 20.72 49 21.93 53 21.71 53"/><polygon class="cls-51" points="21.5 53 20.3 49 20.51 49 21.71 53 21.5 53"/><polygon class="cls-52" points="21.29 53 20.08 49 20.3 49 21.5 53 21.29 53"/><polygon class="cls-53" points="21.07 53 19.87 49 20.08 49 21.29 53 21.07 53"/><polygon class="cls-54" points="20.86 53 19.65 49 19.87 49 21.07 53 20.86 53"/><polygon class="cls-55" points="20.64 53 19.44 49 19.65 49 20.86 53 20.64 53"/><polygon class="cls-56" points="20.43 53 19.23 49 19.44 49 20.64 53 20.43 53"/><polygon class="cls-57" points="20.22 53 19.01 49 19.23 49 20.43 53 20.22 53"/><polygon class="cls-58" points="20 53 18.8 49 19.01 49 20.22 53 20 53"/><polygon class="cls-59" points="19.79 53 18.59 49 18.8 49 20 53 19.79 53"/><polygon class="cls-60" points="19.57 53 18.37 49 18.59 49 19.79 53 19.57 53"/><polygon class="cls-13" points="19.36 53 18.16 49 18.37 49 19.57 53 19.36 53"/><polygon class="cls-14" points="19.15 53 17.94 49 18.16 49 19.36 53 19.15 53"/><polygon class="cls-15" points="18.93 53 17.73 49 17.94 49 19.15 53 18.93 53"/><polygon class="cls-61" points="18.72 53 17.52 49 17.73 49 18.93 53 18.72 53"/><polygon class="cls-62" points="18.5 53 17.3 49 17.52 49 18.72 53 18.5 53"/><polygon class="cls-63" points="18.29 53 17.09 49 17.3 49 18.5 53 18.29 53"/><polygon class="cls-64" points="18.08 53 16.87 49 17.09 49 18.29 53 18.08 53"/><polygon class="cls-65" points="17.86 53 16.66 49 16.87 49 18.08 53 17.86 53"/><polygon class="cls-11" points="17.65 53 16 50.8 16 49 16.66 49 17.86 53 17.65 53"/><polygon class="cls-11" points="17 50.8 17.65 53 17 53 17 50.8"/></g><g class="cls-71"><polygon class="cls-20" points="30 60.23 29.6 63 30 63 30 60.23"/><polygon class="cls-21" points="29.48 58 30.03 62 29.6 62 29 60.23 29 58 29.48 58"/><polygon class="cls-22" points="29.91 58 30.46 62 30.03 62 29.48 58 29.91 58"/><polygon class="cls-23" points="30.34 58 30.89 62 30.46 62 29.91 58 30.34 58"/><polygon class="cls-24" points="30.77 58 31.32 62 30.89 62 30.34 58 30.77 58"/><polygon class="cls-25" points="31.2 58 31.75 62 31.32 62 30.77 58 31.2 58"/><polygon class="cls-26" points="31.63 58 32.18 62 31.75 62 31.2 58 31.63 58"/><polygon class="cls-27" points="32.06 58 32.61 62 32.18 62 31.63 58 32.06 58"/><polygon class="cls-28" points="32.49 58 33.03 62 32.61 62 32.06 58 32.49 58"/><polygon class="cls-29" points="32.92 58 33.47 62 33.03 62 32.49 58 32.92 58"/><polygon class="cls-30" points="33.35 58 33.9 62 33.47 62 32.92 58 33.35 58"/><polygon class="cls-31" points="33.78 58 34.33 62 33.9 62 33.35 58 33.78 58"/><polygon class="cls-32" points="34.21 58 34.76 62 34.33 62 33.78 58 34.21 58"/><polygon class="cls-33" points="34.64 58 35.18 62 34.76 62 34.21 58 34.64 58"/><polygon class="cls-34" points="35.07 58 35.61 62 35.18 62 34.64 58 35.07 58"/><polygon class="cls-35" points="35.5 58 36.04 62 35.61 62 35.07 58 35.5 58"/><polygon class="cls-36" points="35.93 58 36.47 62 36.04 62 35.5 58 35.93 58"/><polygon class="cls-37" points="36.36 58 36.9 62 36.47 62 35.93 58 36.36 58"/><polygon class="cls-38" points="36.78 58 37.33 62 36.9 62 36.36 58 36.78 58"/><polygon class="cls-39" points="37.22 58 37.76 62 37.33 62 36.78 58 37.22 58"/><polygon class="cls-40" points="37.65 58 38.19 62 37.76 62 37.22 58 37.65 58"/><polygon class="cls-41" points="38.08 58 38.62 62 38.19 62 37.65 58 38.08 58"/><polygon class="cls-42" points="38.5 58 39.05 62 38.62 62 38.08 58 38.5 58"/><polygon class="cls-43" points="38.93 58 39.48 62 39.05 62 38.5 58 38.93 58"/><polygon class="cls-44" points="39.36 58 39.91 62 39.48 62 38.93 58 39.36 58"/><polygon class="cls-45" points="39.79 58 40.34 62 39.91 62 39.36 58 39.79 58"/><polygon class="cls-46" points="40.22 58 40.77 62 40.34 62 39.79 58 40.22 58"/><polygon class="cls-47" points="40.65 58 41.2 62 40.77 62 40.22 58 40.65 58"/><polygon class="cls-48" points="41.08 58 41.63 62 41.2 62 40.65 58 41.08 58"/><polygon class="cls-49" points="41.51 58 42.06 62 41.63 62 41.08 58 41.51 58"/><polygon class="cls-50" points="41.94 58 42.49 62 42.06 62 41.51 58 41.94 58"/><polygon class="cls-51" points="42.37 58 42.92 62 42.49 62 41.94 58 42.37 58"/><polygon class="cls-52" points="42.8 58 43.35 62 42.92 62 42.37 58 42.8 58"/><polygon class="cls-53" points="43.23 58 43.78 62 43.35 62 42.8 58 43.23 58"/><polygon class="cls-54" points="43.66 58 44.21 62 43.78 62 43.23 58 43.66 58"/><polygon class="cls-55" points="44.09 58 44.64 62 44.21 62 43.66 58 44.09 58"/><polygon class="cls-56" points="44.52 58 45.07 62 44.64 62 44.09 58 44.52 58"/><polygon class="cls-57" points="44.95 58 45.5 62.41 45.41 62 45.07 62 44.52 58 44.95 58"/><polygon class="cls-58" points="45.38 58 45.92 62.9 45.5 62.89 44.95 58 45.38 58"/><polygon class="cls-59" points="45.81 58 46.35 62.85 45.92 62.84 45.38 58 45.81 58"/><polygon class="cls-60" points="46.24 58 46.77 62.81 46.35 62.79 45.81 58 46.24 58"/><polygon class="cls-13" points="46.67 58 47 60.52 47 62.91 46.81 62.81 46.24 58 46.67 58"/><polygon class="cls-14" points="47 60.52 46.67 58 47 58 47 60.52"/></g><g class="cls-72"><polygon class="cls-17" points="69.02 47.37 67.88 46.07 68.3 45.73 69.02 45.73 69.02 47.37"/><polygon class="cls-17" points="69.02 47.49 67.82 46.2 67.81 46.14 69.02 47.37 69.02 47.49"/><polygon class="cls-18" points="69.02 47.61 67.76 46.26 67.75 46.2 69.02 47.49 69.02 47.61"/><polygon class="cls-19" points="69.02 47.73 67.7 46.33 67.69 46.26 69.02 47.61 69.02 47.73"/><polygon class="cls-20" points="69.02 47.86 67.64 46.39 67.63 46.33 69.02 47.73 69.02 47.86"/><polygon class="cls-21" points="69.02 47.98 67.58 46.45 67.57 46.39 69.02 47.86 69.02 47.98"/><polygon class="cls-22" points="69.02 48.1 67.52 46.51 67.51 46.45 69.02 47.98 69.02 48.1"/><polygon class="cls-23" points="69.02 48.22 67.46 46.58 67.45 46.51 69.02 48.1 69.02 48.22"/><polygon class="cls-24" points="69.02 48.34 67.4 46.64 67.39 46.58 69.02 48.22 69.02 48.34"/><polygon class="cls-25" points="69.02 48.46 67.34 46.7 67.33 46.64 69.02 48.34 69.02 48.46"/><polygon class="cls-26" points="69.53 48.58 67.53 46.77 67.65 46.7 69.53 48.46 69.53 48.58"/><polygon class="cls-27" points="70 48.7 67.71 46.83 67.94 46.77 70 48.58 70 48.7"/><polygon class="cls-28" points="70 48.82 67.65 46.89 67.88 46.83 70 48.7 70 48.82"/><polygon class="cls-29" points="70 48.95 67.59 46.95 67.82 46.89 70 48.82 70 48.95"/><polygon class="cls-30" points="70 49.07 67.53 47.02 67.76 46.95 70 48.95 70 49.07"/><polygon class="cls-31" points="70 49.19 67.47 47.08 67.7 47.02 70 49.07 70 49.19"/><polygon class="cls-32" points="70 49.31 67.41 47.14 67.64 47.08 70 49.19 70 49.31"/><polygon class="cls-33" points="70 49.43 67.35 47.2 67.58 47.14 70 49.31 70 49.43"/><polygon class="cls-34" points="70 49.55 67.29 47.27 67.52 47.2 70 49.43 70 49.55"/><polygon class="cls-35" points="70 49.67 67.23 47.33 67.46 47.27 70 49.55 70 49.67"/><polygon class="cls-36" points="70 49.79 67 47.42 67 47.36 67.3 47.33 70 49.67 70 49.79"/><polygon class="cls-37" points="70 49.91 67 47.54 67 47.42 70 49.79 70 49.91"/><polygon class="cls-38" points="70 50.03 67 47.66 67 47.54 70 49.91 70 50.03"/><polygon class="cls-39" points="70 50.16 67 47.78 67 47.66 70 50.03 70 50.16"/><polygon class="cls-40" points="70 50.28 67 47.91 67 47.78 70 50.16 70 50.28"/><polygon class="cls-41" points="70 50.4 67 48.03 67 47.91 70 50.28 70 50.4"/><polygon class="cls-42" points="70 50.52 67 48.15 67 48.03 70 50.4 70 50.52"/><polygon class="cls-43" points="70 50.64 67 48.27 67 48.15 70 50.52 70 50.64"/><polygon class="cls-44" points="70 50.76 67 48.39 67 48.27 70 50.64 70 50.76"/><polygon class="cls-45" points="70 50.88 67 48.51 67 48.39 70 50.76 70 50.88"/><polygon class="cls-46" points="70 51 67 48.63 67 48.51 70 50.88 70 51"/><polygon class="cls-47" points="70 51.12 67 48.75 67 48.63 70 51 70 51.12"/><polygon class="cls-48" points="70 51.24 67 48.87 67 48.75 70 51.12 70 51.24"/><polygon class="cls-49" points="70 51.37 67 48.99 67 48.87 70 51.24 70 51.37"/><polygon class="cls-50" points="70 51.49 67 49.12 67 48.99 70 51.37 70 51.49"/><polygon class="cls-51" points="70 51.61 67 49.24 67 49.12 70 51.49 70 51.61"/><polygon class="cls-52" points="70 51.73 67 49.36 67 49.24 70 51.61 70 51.73"/><polygon class="cls-53" points="70 51.85 67 49.48 67 49.36 70 51.73 70 51.85"/><polygon class="cls-54" points="70 51.97 67 49.6 67 49.48 70 51.85 70 51.97"/><polygon class="cls-55" points="70 52.09 67 49.72 67 49.6 70 51.97 70 52.09"/><polygon class="cls-56" points="70 52.21 67 49.84 67 49.72 70 52.09 70 52.21"/><polygon class="cls-57" points="70 52.33 67 49.96 67 49.84 70 52.21 70 52.33"/><polygon class="cls-58" points="70 52.45 67 50.08 67 49.96 70 52.33 70 52.45"/><polygon class="cls-59" points="70 52.58 67 50.2 67 50.08 70 52.45 70 52.58"/><polygon class="cls-60" points="70 52.7 67 50.33 67 50.2 70 52.58 70 52.7"/><polygon class="cls-13" points="70 52.73 69.68 52.77 67 50.45 67 50.33 70 52.7 70 52.73"/><polygon class="cls-14" points="69.33 52.77 69.31 52.84 67 50.57 67 50.45 69.33 52.77"/><polygon class="cls-15" points="69.27 52.84 69.25 52.9 67 50.69 67 50.57 69.27 52.84"/><polygon class="cls-61" points="69.21 52.9 69.19 52.96 67 50.81 67 50.69 69.21 52.9"/><polygon class="cls-62" points="69.15 52.96 69.13 53.02 67 50.93 67 50.81 69.15 52.96"/><polygon class="cls-63" points="69.09 53.02 69.07 53.09 67 51.05 67 50.93 69.09 53.02"/><polygon class="cls-64" points="69.03 53.09 69.01 53.15 67 51.17 67 51.05 69.03 53.09"/><polygon class="cls-65" points="68.97 53.15 68.95 53.21 67 51.29 67 51.17 68.97 53.15"/><polygon class="cls-11" points="68.91 53.21 68.89 53.27 67 51.41 67 51.29 68.91 53.21"/><polygon class="cls-11" points="68.85 53.11 68.48 53.25 67 53.25 67 51.41 68.85 53.11"/></g><path class="cls-10" d="M55.3,66.4a.7.7,0,0,1-.39-.12c-.5-.33-.69-1.26-1.34-6.69-.14-1.13-.3-2.46-.46-3.59,0,.54-.07,1.09-.1,1.57-.22,3.59-.34,4.84-1.25,5s-1.33-1-2.09-2.93c-.24-.59-.56-1.4-.81-1.87-.18.33-.39.84-.53,1.19-.51,1.22-.91,2.19-1.69,2.21a62.26,62.26,0,0,1-16.5-2L29.8,59l-1.68-6-10.2-2.28a.63.63,0,0,1,.28-1.24L29.14,52l1.69,6a61.3,61.3,0,0,0,15.64,1.86,8.72,8.72,0,0,0,.69-1.43c.5-1.21.9-2.17,1.66-2.23s1.29,1.06,2,2.92c.18.46.42,1.05.64,1.51.12-.85.2-2.17.26-3.15.21-3.53.33-4.76,1.19-4.95a.7.7,0,0,1,.56.12c.48.35.68,1.36,1.34,6.77.15,1.24.33,2.73.5,3.91.23-1.25.47-2.8.64-3.85.13-.84.26-1.64.36-2.21.16-.93.25-1.4.8-1.44a.65.65,0,0,1,.67.47,14.68,14.68,0,0,0,1,2.52c.39-1.16.63-1.74,1.05-2,.62-.32,1.24-.61,1.84-.88a10.69,10.69,0,0,0,4.42-3L66,47.64l1.7-2.31a.63.63,0,1,1,1,.75l-1.45,2,.11,5.4-.13.17a11.51,11.51,0,0,1-5,3.54c-.56.25-1.14.52-1.71.81A8.84,8.84,0,0,0,60,59.29a5.86,5.86,0,0,1-.37.95.77.77,0,0,1-.76.39c-.44-.05-.81-.45-1.28-1.38l-.21-.44-.14.9c-.21,1.34-.45,2.85-.68,4.06-.4,2.1-.6,2.48-1.05,2.61Z"/><path class="cls-73" d="M19.75,56.13a10.47,10.47,0,0,0-7.62,10.5A12.51,12.51,0,0,0,24,68.75S26,60.38,19.75,56.13Z"/><path class="cls-73" d="M70.68,53.13a10.47,10.47,0,0,1,7.63,10.5,12.51,12.51,0,0,1-11.87,2.13S64.43,57.38,70.68,53.13Z"/><path class="cls-74" d="M19.71,56.42S16.12,58.06,16,61.65s5.41,2.65,5.59-.41A6.19,6.19,0,0,0,19.71,56.42Z"/><path class="cls-75" d="M70.89,53.42s3.59,1.65,3.71,5.24S69.18,61.3,69,58.24A6.19,6.19,0,0,1,70.89,53.42Z"/></g></g></svg>