<svg id="Layer_1" data-name="Layer 1" xmlns="http://www.w3.org/2000/svg" viewBox="0 0 80 80"><defs><style>.cls-1{fill:#c4b505;}.cls-2{fill:#e8d700;}.cls-3{opacity:0.2;}.cls-4{fill:#f3f2f2;}</style></defs><title>jump-button</title><path class="cls-1" d="M10.78,12.17S.63,12.17.63,22.32V69.68s0,10.15,10.15,10.15H69.22s10.15,0,10.15-10.15V22.32s0-10.15-10.15-10.15Z"/><path class="cls-2" d="M10.78.33S.63.33.63,10.48V57.84S.63,68,10.78,68H69.22s10.15,0,10.15-10.15V10.48S79.37.33,69.22.33Z"/><g class="cls-3"><polygon points="52.53 26.72 50.63 26.72 50.63 24.58 50.63 22.25 48.42 22.25 46.53 22.25 46.53 20.47 46.53 17.77 44.31 17.77 42.42 17.77 42.42 16.36 42.42 14.42 40.19 14.42 38.32 14.42 38.32 16.36 38.32 17.77 36.08 17.77 34.22 17.77 34.22 20.47 34.22 22.25 31.96 22.25 29.75 22.25 29.75 24.58 29.75 26.72 27.85 26.72 25.27 26.72 25.27 30.76 25.27 34.92 27.85 34.92 29.75 34.92 29.75 32.81 29.75 30.82 31.96 30.82 34.22 30.82 34.22 28.7 34.22 26.72 36.08 26.72 38.32 26.72 38.32 24.58 38.32 22.25 40.19 22.25 42.42 22.25 42.42 24.58 42.42 26.72 44.31 26.72 46.53 26.72 46.53 28.7 46.53 30.82 48.42 30.82 50.63 30.82 50.63 32.81 50.63 34.92 52.53 34.92 54.73 34.92 54.73 30.76 54.73 26.72 52.53 26.72"/><polygon points="50.63 41.64 50.63 39.34 50.63 37.53 48.42 37.53 46.52 37.53 46.52 35.23 46.52 33.43 44.31 33.43 42.42 33.43 42.42 31.11 42.42 29.33 40.19 29.33 38.32 29.33 38.32 31.11 38.32 33.43 36.08 33.43 34.22 33.43 34.22 35.23 34.22 37.53 31.96 37.53 29.75 37.53 29.75 39.34 29.75 41.64 27.85 41.64 25.27 41.64 25.27 45.52 25.27 49.47 27.85 49.47 29.75 49.47 29.75 47.57 29.75 45.74 31.96 45.74 34.22 45.74 34.22 43.46 34.22 41.64 36.08 41.64 38.32 41.64 38.32 39.34 38.32 37.53 40.19 37.53 42.42 37.53 42.42 39.34 42.42 41.64 44.31 41.64 46.52 41.64 46.52 43.46 46.52 45.74 48.42 45.74 50.63 45.74 50.63 47.57 50.63 49.47 52.53 49.47 54.73 49.47 54.73 45.52 54.73 41.64 52.53 41.64 50.63 41.64"/></g><polygon class="cls-4" points="52.53 28.84 50.63 28.84 50.63 26.7 50.63 24.36 48.42 24.36 46.53 24.36 46.53 22.59 46.53 19.89 44.31 19.89 42.42 19.89 42.42 18.47 42.42 16.53 40.19 16.53 38.32 16.53 38.32 18.47 38.32 19.89 36.08 19.89 34.22 19.89 34.22 22.59 34.22 24.36 31.96 24.36 29.75 24.36 29.75 26.7 29.75 28.84 27.85 28.84 25.27 28.84 25.27 32.87 25.27 37.04 27.85 37.04 29.75 37.04 29.75 34.93 29.75 32.94 31.96 32.94 34.22 32.94 34.22 30.81 34.22 28.84 36.08 28.84 38.32 28.84 38.32 26.7 38.32 24.36 40.19 24.36 42.42 24.36 42.42 26.7 42.42 28.84 44.31 28.84 46.53 28.84 46.53 30.81 46.53 32.94 48.42 32.94 50.63 32.94 50.63 34.93 50.63 37.04 52.53 37.04 54.73 37.04 54.73 32.87 54.73 28.84 52.53 28.84"/><polygon class="cls-4" points="50.63 43.75 50.63 41.46 50.63 39.65 48.42 39.65 46.52 39.65 46.52 37.34 46.52 35.55 44.31 35.55 42.42 35.55 42.42 33.23 42.42 31.45 40.19 31.45 38.32 31.45 38.32 33.23 38.32 35.55 36.08 35.55 34.22 35.55 34.22 37.34 34.22 39.65 31.96 39.65 29.75 39.65 29.75 41.46 29.75 43.75 27.85 43.75 25.27 43.75 25.27 47.63 25.27 51.58 27.85 51.58 29.75 51.58 29.75 49.69 29.75 47.85 31.96 47.85 34.22 47.85 34.22 45.57 34.22 43.75 36.08 43.75 38.32 43.75 38.32 41.46 38.32 39.65 40.19 39.65 42.42 39.65 42.42 41.46 42.42 43.75 44.31 43.75 46.52 43.75 46.52 45.57 46.52 47.85 48.42 47.85 50.63 47.85 50.63 49.69 50.63 51.58 52.53 51.58 54.73 51.58 54.73 47.63 54.73 43.75 52.53 43.75 50.63 43.75"/></svg>