<svg id="Layer_1" data-name="Layer 1" xmlns="http://www.w3.org/2000/svg" viewBox="0 0 50 50"><defs><style>.cls-1{opacity:0.2;}.cls-2{fill:#f3f2f2;}</style></defs><title>jump</title><g class="cls-1"><polygon points="41.47 16.75 38.97 16.75 38.97 13.94 38.97 10.87 36.07 10.87 33.58 10.87 33.58 8.54 33.58 4.99 30.66 4.99 28.18 4.99 28.18 3.13 28.18 0.58 25.25 0.58 22.8 0.58 22.8 3.13 22.8 4.99 19.85 4.99 17.41 4.99 17.41 8.54 17.41 10.87 14.44 10.87 11.53 10.87 11.53 13.94 11.53 16.75 9.03 16.75 5.64 16.75 5.64 22.05 5.64 27.53 9.03 27.53 11.53 27.53 11.53 24.75 11.53 22.14 14.44 22.14 17.41 22.14 17.41 19.35 17.41 16.75 19.85 16.75 22.8 16.75 22.8 13.94 22.8 10.87 25.25 10.87 28.18 10.87 28.18 13.94 28.18 16.75 30.66 16.75 33.58 16.75 33.58 19.35 33.58 22.14 36.07 22.14 38.97 22.14 38.97 24.75 38.97 27.53 41.47 27.53 44.35 27.53 44.35 22.05 44.35 16.75 41.47 16.75"/><polygon points="38.97 36.35 38.97 33.34 38.97 30.96 36.07 30.96 33.58 30.96 33.58 27.93 33.58 25.57 30.66 25.57 28.18 25.57 28.18 22.52 28.18 20.18 25.25 20.18 22.8 20.18 22.8 22.52 22.8 25.57 19.84 25.57 17.41 25.57 17.41 27.93 17.41 30.96 14.44 30.96 11.53 30.96 11.53 33.34 11.53 36.35 9.03 36.35 5.64 36.35 5.64 41.45 5.64 46.64 9.03 46.64 11.53 46.64 11.53 44.15 11.53 41.74 14.44 41.74 17.41 41.74 17.41 38.74 17.41 36.35 19.84 36.35 22.8 36.35 22.8 33.34 22.8 30.96 25.25 30.96 28.18 30.96 28.18 33.34 28.18 36.35 30.66 36.35 33.58 36.35 33.58 38.74 33.58 41.74 36.07 41.74 38.97 41.74 38.97 44.15 38.97 46.64 41.47 46.64 44.36 46.64 44.36 41.45 44.36 36.35 41.47 36.35 38.97 36.35"/></g><polygon class="cls-2" points="41.47 19.53 38.97 19.53 38.97 16.72 38.97 13.65 36.07 13.65 33.58 13.65 33.58 11.31 33.58 7.77 30.66 7.77 28.18 7.77 28.18 5.91 28.18 3.36 25.25 3.36 22.8 3.36 22.8 5.91 22.8 7.77 19.85 7.77 17.41 7.77 17.41 11.31 17.41 13.65 14.44 13.65 11.53 13.65 11.53 16.72 11.53 19.53 9.03 19.53 5.64 19.53 5.64 24.83 5.64 30.31 9.03 30.31 11.53 30.31 11.53 27.53 11.53 24.92 14.44 24.92 17.41 24.92 17.41 22.13 17.41 19.53 19.85 19.53 22.8 19.53 22.8 16.72 22.8 13.65 25.25 13.65 28.18 13.65 28.18 16.72 28.18 19.53 30.66 19.53 33.58 19.53 33.58 22.13 33.58 24.92 36.07 24.92 38.97 24.92 38.97 27.53 38.97 30.31 41.47 30.31 44.35 30.31 44.35 24.83 44.35 19.53 41.47 19.53"/><polygon class="cls-2" points="38.97 39.13 38.97 36.12 38.97 33.74 36.07 33.74 33.58 33.74 33.58 30.71 33.58 28.35 30.66 28.35 28.18 28.35 28.18 25.3 28.18 22.96 25.25 22.96 22.8 22.96 22.8 25.3 22.8 28.35 19.84 28.35 17.41 28.35 17.41 30.71 17.41 33.74 14.44 33.74 11.53 33.74 11.53 36.12 11.53 39.13 9.03 39.13 5.64 39.13 5.64 44.23 5.64 49.42 9.03 49.42 11.53 49.42 11.53 46.93 11.53 44.52 14.44 44.52 17.41 44.52 17.41 41.52 17.41 39.13 19.84 39.13 22.8 39.13 22.8 36.12 22.8 33.74 25.25 33.74 28.18 33.74 28.18 36.12 28.18 39.13 30.66 39.13 33.58 39.13 33.58 41.52 33.58 44.52 36.07 44.52 38.97 44.52 38.97 46.93 38.97 49.42 41.47 49.42 44.36 49.42 44.36 44.23 44.36 39.13 41.47 39.13 38.97 39.13"/></svg>