<svg id="Layer_1" data-name="Layer 1" xmlns="http://www.w3.org/2000/svg" viewBox="0 0 50 50"><defs><style>.cls-1{opacity:0.2;}.cls-2{fill:#f3f2f2;}</style></defs><title>move-foward</title><polygon class="cls-1" points="41.04 16.43 38.23 16.43 38.23 13.52 38.23 11.04 35.68 11.04 32.84 11.04 32.84 8.16 32.84 5.65 30.33 5.65 27.45 5.65 27.45 2.8 27.45 0.26 24.97 0.26 22.06 0.26 22.06 2.8 22.06 5.65 19.61 5.65 17.16 5.65 17.16 8.16 17.16 11.04 14.26 11.04 11.77 11.04 11.77 13.52 11.77 16.43 8.9 16.43 6.38 16.43 6.38 21.55 6.38 26.72 8.9 26.72 11.77 26.72 11.77 24.23 11.77 21.33 14.26 21.33 17.16 21.33 17.16 18.87 17.16 16.43 19.61 16.43 21.57 16.43 21.57 46.81 27.94 46.81 27.94 16.43 30.33 16.43 32.84 16.43 32.84 18.87 32.84 21.33 35.68 21.33 38.23 21.33 38.23 24.23 38.23 26.72 41.04 26.72 43.62 26.72 43.62 21.55 43.62 16.43 41.04 16.43"/><polygon class="cls-2" points="41.04 19.2 38.23 19.2 38.23 16.29 38.23 13.81 35.68 13.81 32.84 13.81 32.84 10.94 32.84 8.43 30.33 8.43 27.45 8.43 27.45 5.58 27.45 3.04 24.97 3.04 22.06 3.04 22.06 5.58 22.06 8.43 19.61 8.43 17.16 8.43 17.16 10.94 17.16 13.81 14.26 13.81 11.77 13.81 11.77 16.29 11.77 19.2 8.9 19.2 6.38 19.2 6.38 24.33 6.38 29.5 8.9 29.5 11.77 29.5 11.77 27 11.77 24.11 14.26 24.11 17.16 24.11 17.16 21.65 17.16 19.2 19.61 19.2 21.57 19.2 21.57 49.59 27.94 49.59 27.94 19.2 30.33 19.2 32.84 19.2 32.84 21.65 32.84 24.11 35.68 24.11 38.23 24.11 38.23 27 38.23 29.5 41.04 29.5 43.62 29.5 43.62 24.33 43.62 19.2 41.04 19.2"/></svg>