<svg id="Layer_1" data-name="Layer 1" xmlns="http://www.w3.org/2000/svg" viewBox="0 0 80 80"><defs><style>.cls-1{fill:#c45d45;}.cls-2{fill:#ea7750;}.cls-3{opacity:0.2;}.cls-4{fill:#f3f2f2;}</style></defs><title>rotate-left-button</title><path class="cls-1" d="M10.78,12.17S.63,12.17.63,22.32V69.68s0,10.15,10.15,10.15H69.22s10.15,0,10.15-10.15V22.32s0-10.15-10.15-10.15Z"/><path class="cls-2" d="M10.78.33S.63.33.63,10.48V57.84S.63,68,10.78,68H69.22s10.15,0,10.15-10.15V10.48S79.37.33,69.22.33Z"/><g class="cls-3"><polygon points="26.75 21.13 28.25 21.13 28.25 19.53 28.25 17.77 30.11 17.77 31.61 17.77 31.61 16.17 31.61 14.42 33.47 14.42 35.15 14.42 38.7 14.42 38.7 16.17 38.7 17.77 36.83 17.77 35.34 17.77 35.34 19.53 35.34 21.21 35.34 24.57 35.34 26.25 35.34 27.84 36.83 27.84 38.7 27.84 38.7 29.62 38.7 31.2 35.15 31.2 33.47 31.2 31.61 31.2 31.61 29.62 31.61 27.84 30.11 27.84 28.25 27.84 28.25 26.25 28.25 24.48 26.75 24.48 24.9 24.48 24.9 22.89 24.9 21.13 26.75 21.13"/><polygon points="46.9 22.94 46.9 24.86 48.82 24.86 51 24.86 51 27.04 51 28.96 52.91 28.96 55.1 28.96 55.1 35.23 55.1 41.27 52.91 41.27 51 41.27 51 43.42 51 45.37 48.82 45.37 46.9 45.37 46.9 47.51 46.9 49.47 38.7 49.47 38.7 45.37 42.8 45.37 42.8 43.42 42.8 41.27 44.72 41.27 46.9 41.27 46.9 39.32 46.9 37.27 46.9 33.18 46.9 31.13 46.9 28.96 44.72 28.96 42.8 28.96 42.8 27.04 42.8 24.86 38.7 24.86 38.7 20.76 46.9 20.76 46.9 22.94"/></g><polygon class="cls-4" points="26.75 23.24 28.25 23.24 28.25 21.64 28.25 19.89 30.11 19.89 31.61 19.89 31.61 18.28 31.61 16.53 33.47 16.53 35.15 16.53 38.7 16.53 38.7 18.28 38.7 19.89 36.83 19.89 35.34 19.89 35.34 21.64 35.34 23.33 35.34 26.69 35.34 28.37 35.34 29.95 36.83 29.95 38.7 29.95 38.7 31.73 38.7 33.31 35.15 33.31 33.47 33.31 31.61 33.31 31.61 31.73 31.61 29.95 30.11 29.95 28.25 29.95 28.25 28.37 28.25 26.6 26.75 26.6 24.9 26.6 24.9 25.01 24.9 23.24 26.75 23.24"/><polygon class="cls-4" points="46.9 25.05 46.9 26.97 48.82 26.97 51 26.97 51 29.15 51 31.07 52.91 31.07 55.1 31.07 55.1 37.34 55.1 43.38 52.91 43.38 51 43.38 51 45.53 51 47.48 48.82 47.48 46.9 47.48 46.9 49.63 46.9 51.58 38.7 51.58 38.7 47.48 42.8 47.48 42.8 45.53 42.8 43.38 44.72 43.38 46.9 43.38 46.9 41.44 46.9 39.39 46.9 35.29 46.9 33.24 46.9 31.07 44.72 31.07 42.8 31.07 42.8 29.15 42.8 26.97 38.7 26.97 38.7 22.87 46.9 22.87 46.9 25.05"/></svg>