<svg id="Layer_1" data-name="Layer 1" xmlns="http://www.w3.org/2000/svg" viewBox="0 0 80 80"><defs><style>.cls-1{fill:#c45d45;}.cls-2{fill:#ea7750;}.cls-3{opacity:0.2;}.cls-4{fill:#f3f2f2;}</style></defs><title>rotate-left-button_1</title><path class="cls-1" d="M10.78,12.17S.63,12.17.63,22.32V69.68s0,10.15,10.15,10.15H69.22s10.15,0,10.15-10.15V22.32s0-10.15-10.15-10.15Z"/><path class="cls-2" d="M10.78.33S.63.33.63,10.48V57.84S.63,68,10.78,68H69.22s10.15,0,10.15-10.15V10.48S79.37.33,69.22.33Z"/><g class="cls-3"><polygon points="53.25 21.13 51.74 21.13 51.74 19.53 51.74 17.77 49.89 17.77 48.39 17.77 48.39 16.17 48.39 14.42 46.53 14.42 44.85 14.42 41.3 14.42 41.3 16.17 41.3 17.77 43.17 17.77 44.66 17.77 44.66 19.53 44.66 21.21 44.66 24.57 44.66 26.25 44.66 27.84 43.17 27.84 41.3 27.84 41.3 29.62 41.3 31.2 44.85 31.2 46.53 31.2 48.39 31.2 48.39 29.62 48.39 27.84 49.89 27.84 51.74 27.84 51.74 26.25 51.74 24.48 53.25 24.48 55.1 24.48 55.1 22.89 55.1 21.13 53.25 21.13"/><polygon points="33.1 22.94 33.1 24.86 31.18 24.86 29 24.86 29 27.04 29 28.96 27.09 28.96 24.9 28.96 24.9 35.23 24.9 41.27 27.09 41.27 29 41.27 29 43.42 29 45.37 31.18 45.37 33.1 45.37 33.1 47.51 33.1 49.47 41.3 49.47 41.3 45.37 37.2 45.37 37.2 43.42 37.2 41.27 35.28 41.27 33.1 41.27 33.1 39.32 33.1 37.27 33.1 33.18 33.1 31.13 33.1 28.96 35.28 28.96 37.2 28.96 37.2 27.04 37.2 24.86 41.3 24.86 41.3 20.76 33.1 20.76 33.1 22.94"/></g><polygon class="cls-4" points="53.25 23.24 51.74 23.24 51.74 21.64 51.74 19.89 49.89 19.89 48.39 19.89 48.39 18.28 48.39 16.53 46.53 16.53 44.85 16.53 41.3 16.53 41.3 18.28 41.3 19.89 43.17 19.89 44.66 19.89 44.66 21.64 44.66 23.33 44.66 26.69 44.66 28.37 44.66 29.95 43.17 29.95 41.3 29.95 41.3 31.73 41.3 33.31 44.85 33.31 46.53 33.31 48.39 33.31 48.39 31.73 48.39 29.95 49.89 29.95 51.74 29.95 51.74 28.37 51.74 26.6 53.25 26.6 55.1 26.6 55.1 25.01 55.1 23.24 53.25 23.24"/><polygon class="cls-4" points="33.1 25.05 33.1 26.97 31.18 26.97 29 26.97 29 29.15 29 31.07 27.09 31.07 24.9 31.07 24.9 37.34 24.9 43.38 27.09 43.38 29 43.38 29 45.53 29 47.48 31.18 47.48 33.1 47.48 33.1 49.63 33.1 51.58 41.3 51.58 41.3 47.48 37.2 47.48 37.2 45.53 37.2 43.38 35.28 43.38 33.1 43.38 33.1 41.44 33.1 39.39 33.1 35.29 33.1 33.24 33.1 31.07 35.28 31.07 37.2 31.07 37.2 29.15 37.2 26.97 41.3 26.97 41.3 22.87 33.1 22.87 33.1 25.05"/></svg>