<svg id="Layer_1" data-name="Layer 1" xmlns="http://www.w3.org/2000/svg" viewBox="0 0 50 50"><defs><style>.cls-1{fill:#f3f2f2;}</style></defs><title>clear-bin</title><path class="cls-1" d="M15.7,1.81c-.17,1-.31,2-.5,2.95a.78.78,0,0,1-.44.48c-1.32.49-2.68.88-4,1.44A7.74,7.74,0,0,0,8.67,8.14a2.16,2.16,0,0,0,0,3.37,9.37,9.37,0,0,0,3.57,2.08,32.51,32.51,0,0,0,8.9,1.78,42.85,42.85,0,0,0,13.58-.9,33.77,33.77,0,0,0,5.05-1.82,5.58,5.58,0,0,0,1.78-1.38,2,2,0,0,0,0-2.93A6.94,6.94,0,0,0,38.68,6.4C37.57,6,36.42,5.64,35.3,5.24c-.19-.07-.44-.24-.47-.39-.18-1-.31-2-.46-3a1.23,1.23,0,0,1,.33,0A21.22,21.22,0,0,1,41.4,4.25,13.49,13.49,0,0,1,44,6.37,4.82,4.82,0,0,1,45.32,10c0,1,0,2-.08,3a5.6,5.6,0,0,1-1.6,3.06,1.7,1.7,0,0,0-.4.9q-.73,6.82-1.42,13.65c-.41,4-.8,8.07-1.22,12.1a5.44,5.44,0,0,1-2.05,3.65A13.14,13.14,0,0,1,32.75,49,32.2,32.2,0,0,1,15,48.32a9.72,9.72,0,0,1-4.15-2.59,5.43,5.43,0,0,1-1.43-3.21q-1-9.93-2-19.87c-.2-2-.41-3.92-.63-5.88a1.22,1.22,0,0,0-.32-.67,5.76,5.76,0,0,1-1.76-4.46,9.61,9.61,0,0,0,0-1.11A6,6,0,0,1,7.47,5,20.67,20.67,0,0,1,15.7,1.81Zm11,31.31c0-3.4,0-6.81,0-10.21a1.34,1.34,0,0,0-.64-1.32,1.75,1.75,0,0,0-2.75,1.55q0,4.49,0,9,0,5.53,0,11.06a1.7,1.7,0,1,0,3.39.16C26.71,39.93,26.71,36.53,26.71,33.13Zm6.05,8.72a1.33,1.33,0,0,0,.5,1.45,1.64,1.64,0,0,0,1.73,0,2.3,2.3,0,0,0,1.19-1.84c.12-.88.19-1.77.28-2.65l1.11-10.66c.25-2.39.51-4.78.74-7.17.1-1.07-.54-1.56-1.59-1.3a2.73,2.73,0,0,0-2,2.62q-.27,2.91-.57,5.82Q33.48,35,32.76,41.85Zm-21-21c.42,4,.82,7.68,1.21,11.38.32,3,.62,6.08.94,9.11a2.28,2.28,0,0,0,1.74,2.1A1.26,1.26,0,0,0,17.35,42c-.09-1.17-.22-2.33-.34-3.49q-.56-5.43-1.12-10.86c-.2-2-.39-4-.63-5.94a2.43,2.43,0,0,0-1.5-2C12.71,19.29,11.57,19.64,11.77,20.87Z"/><path class="cls-1" d="M25,.14a28.9,28.9,0,0,1,3.38,0,4.66,4.66,0,0,1,4.09,4.51c0,1.1,0,2.21,0,3.32a1.17,1.17,0,0,1,0,.26c-.14.61-1.08,1.06-2,1s-1.59-.54-1.6-1.33,0-1.82,0-2.73S28.49,3.7,27.43,3.7H22.55c-1,0-1.39.4-1.4,1.37s0,1.82,0,2.73A1.14,1.14,0,0,1,20.38,9a2.38,2.38,0,0,1-2.19-.07A1.41,1.41,0,0,1,17.56,8a27.53,27.53,0,0,1,0-3.44A4.72,4.72,0,0,1,22.25.07c.93,0,1.86,0,2.8,0Z"/></svg>