<svg xmlns="http://www.w3.org/2000/svg" viewBox="0 0 50 50"><defs><style>.cls-1{opacity:0.2;}.cls-2{fill:#f3f2f2;}</style></defs><title>clear-icon</title><g id="Layer_2" data-name="Layer 2"><g class="cls-1"><polygon points="36 14 36 19 32 19 32 27.43 32 43 29.69 43 27 43 27 27.43 27 14 25.23 14 23 14 23 27.43 23 43 20.76 43 18 43 18 27.43 18 19 15 19 15 14 14.07 14 10 14 10 29.66 10 43 14 43 14 46 25.23 46 37 46 37 43 40 43 40 29.66 40 14 36.39 14 36 14"/><polygon points="46 10 46 9.76 46 7 25.23 7 4 7 4 9.76 4 10 2 10 2 15 7 15 7 12 25.23 12 44 12 44 15 48 15 48 10 46 10"/><polygon points="33 5 33 2.68 33 0 25.23 0 17 0 17 2.68 17 5 25.23 5 33 5"/></g><polygon class="cls-2" points="36 16 36 21 32 21 32 29.98 32 45 29.69 45 27 45 27 29.98 27 16 25.23 16 23 16 23 29.98 23 45 20.76 45 18 45 18 29.98 18 21 15 21 15 16 14.07 16 10 16 10 32.21 10 45 14 45 14 50 25.23 50 37 50 37 45 40 45 40 32.21 40 16 36.39 16 36 16"/><polygon class="cls-2" points="46 12 46 11.15 46 9 25.23 9 4 9 4 11.15 4 12 2 12 2 16 7 16 7 14 25.23 14 44 14 44 16 48 16 48 12 46 12"/><polygon class="cls-2" points="33 6 33 4.07 33 2 25.23 2 17 2 17 4.07 17 6 25.23 6 33 6"/></g></svg>