<svg id="Layer_1" data-name="Layer 1" xmlns="http://www.w3.org/2000/svg" viewBox="0 0 50 50"><defs><style>.cls-1{opacity:0.2;}.cls-2{fill:#f3f2f2;}</style></defs><title>turn-left</title><g class="cls-1"><polygon points="7.58 9.4 9.56 9.4 9.56 7.3 9.56 4.99 12 4.99 13.97 4.99 13.97 2.88 13.97 0.58 16.42 0.58 18.63 0.58 23.29 0.58 23.29 2.88 23.29 4.99 20.84 4.99 18.88 4.99 18.88 7.3 18.88 9.51 18.88 13.93 18.88 16.14 18.88 18.22 20.84 18.22 23.29 18.22 23.29 20.56 23.29 22.63 18.63 22.63 16.42 22.63 13.97 22.63 13.97 20.56 13.97 18.22 12 18.22 9.56 18.22 9.56 16.14 9.56 13.81 7.58 13.81 5.16 13.81 5.16 11.72 5.16 9.4 7.58 9.4"/><polygon points="34.06 11.78 34.06 14.3 36.59 14.3 39.46 14.3 39.46 17.16 39.46 19.69 41.97 19.69 44.84 19.69 44.84 27.93 44.84 35.86 41.97 35.86 39.46 35.86 39.46 38.69 39.46 41.25 36.59 41.25 34.06 41.25 34.06 44.07 34.06 46.64 23.29 46.64 23.29 41.25 28.68 41.25 28.68 38.69 28.68 35.86 31.21 35.86 34.06 35.86 34.06 33.31 34.06 30.62 34.06 25.23 34.06 22.54 34.06 19.69 31.21 19.69 28.68 19.69 28.68 17.16 28.68 14.3 23.29 14.3 23.29 8.91 34.06 8.91 34.06 11.78"/></g><polygon class="cls-2" points="7.58 12.18 9.56 12.18 9.56 10.08 9.56 7.77 12 7.77 13.97 7.77 13.97 5.66 13.97 3.36 16.42 3.36 18.63 3.36 23.29 3.36 23.29 5.66 23.29 7.77 20.84 7.77 18.88 7.77 18.88 10.08 18.88 12.29 18.88 16.71 18.88 18.92 18.88 21 20.84 21 23.29 21 23.29 23.34 23.29 25.41 18.63 25.41 16.42 25.41 13.97 25.41 13.97 23.34 13.97 21 12 21 9.56 21 9.56 18.92 9.56 16.59 7.58 16.59 5.16 16.59 5.16 14.5 5.16 12.18 7.58 12.18"/><polygon class="cls-2" points="34.06 14.56 34.06 17.08 36.59 17.08 39.46 17.08 39.46 19.94 39.46 22.47 41.97 22.47 44.84 22.47 44.84 30.7 44.84 38.64 41.97 38.64 39.46 38.64 39.46 41.47 39.46 44.03 36.59 44.03 34.06 44.03 34.06 46.85 34.06 49.42 23.29 49.42 23.29 44.03 28.68 44.03 28.68 41.47 28.68 38.64 31.21 38.64 34.06 38.64 34.06 36.09 34.06 33.4 34.06 28.01 34.06 25.32 34.06 22.47 31.21 22.47 28.68 22.47 28.68 19.94 28.68 17.08 23.29 17.08 23.29 11.69 34.06 11.69 34.06 14.56"/></svg>