<svg id="Layer_1" data-name="Layer 1" xmlns="http://www.w3.org/2000/svg" viewBox="0 0 50 50"><defs><style>.cls-1{opacity:0.2;}.cls-2{fill:#f3f2f2;}</style></defs><title>turn-right</title><g class="cls-1"><polygon points="42.42 9.4 40.44 9.4 40.44 7.3 40.44 4.99 38 4.99 36.02 4.99 36.02 2.88 36.02 0.58 33.58 0.58 31.37 0.58 26.71 0.58 26.71 2.88 26.71 4.99 29.16 4.99 31.12 4.99 31.12 7.3 31.12 9.51 31.12 13.93 31.12 16.14 31.12 18.22 29.16 18.22 26.71 18.22 26.71 20.56 26.71 22.63 31.37 22.63 33.58 22.63 36.02 22.63 36.02 20.56 36.02 18.22 38 18.22 40.44 18.22 40.44 16.14 40.44 13.81 42.42 13.81 44.84 13.81 44.84 11.72 44.84 9.4 42.42 9.4"/><polygon points="15.94 11.78 15.94 14.3 13.41 14.3 10.54 14.3 10.54 17.16 10.54 19.69 8.03 19.69 5.16 19.69 5.16 27.93 5.16 35.86 8.03 35.86 10.54 35.86 10.54 38.69 10.54 41.25 13.41 41.25 15.94 41.25 15.94 44.07 15.94 46.64 26.71 46.64 26.71 41.25 21.32 41.25 21.32 38.69 21.32 35.86 18.79 35.86 15.94 35.86 15.94 33.31 15.94 30.62 15.94 25.23 15.94 22.54 15.94 19.69 18.79 19.69 21.32 19.69 21.32 17.16 21.32 14.3 26.71 14.3 26.71 8.91 15.94 8.91 15.94 11.78"/></g><polygon class="cls-2" points="42.42 12.18 40.44 12.18 40.44 10.08 40.44 7.77 38 7.77 36.02 7.77 36.02 5.66 36.02 3.36 33.58 3.36 31.37 3.36 26.71 3.36 26.71 5.66 26.71 7.77 29.16 7.77 31.12 7.77 31.12 10.08 31.12 12.29 31.12 16.71 31.12 18.92 31.12 21 29.16 21 26.71 21 26.71 23.34 26.71 25.41 31.37 25.41 33.58 25.41 36.02 25.41 36.02 23.34 36.02 21 38 21 40.44 21 40.44 18.92 40.44 16.59 42.42 16.59 44.84 16.59 44.84 14.5 44.84 12.18 42.42 12.18"/><polygon class="cls-2" points="15.94 14.56 15.94 17.08 13.41 17.08 10.54 17.08 10.54 19.94 10.54 22.47 8.03 22.47 5.16 22.47 5.16 30.7 5.16 38.64 8.03 38.64 10.54 38.64 10.54 41.47 10.54 44.03 13.41 44.03 15.94 44.03 15.94 46.85 15.94 49.42 26.71 49.42 26.71 44.03 21.32 44.03 21.32 41.47 21.32 38.64 18.79 38.64 15.94 38.64 15.94 36.09 15.94 33.4 15.94 28.01 15.94 25.32 15.94 22.47 18.79 22.47 21.32 22.47 21.32 19.94 21.32 17.08 26.71 17.08 26.71 11.69 15.94 11.69 15.94 14.56"/></svg>